%TF.GenerationSoftware,KiCad,Pcbnew,9.0.2*%
%TF.CreationDate,2025-08-23T18:52:10+02:00*%
%TF.ProjectId,Pico2Breakout,5069636f-3242-4726-9561-6b6f75742e6b,rev?*%
%TF.SameCoordinates,Original*%
%TF.FileFunction,Drillmap*%
%TF.FilePolarity,Positive*%
%FSLAX45Y45*%
G04 Gerber Fmt 4.5, Leading zero omitted, Abs format (unit mm)*
G04 Created by KiCad (PCBNEW 9.0.2) date 2025-08-23 18:52:10*
%MOMM*%
%LPD*%
G01*
G04 APERTURE LIST*
%ADD10C,0.200000*%
%ADD11C,0.106680*%
%ADD12C,0.132080*%
G04 APERTURE END LIST*
D10*
X4440000Y-3980000D02*
X18940000Y-3980000D01*
X18940000Y-13980000D01*
X4440000Y-13980000D01*
X4440000Y-3980000D01*
D11*
X18340660Y-4616660D02*
X18447340Y-4723340D01*
X18447340Y-4616660D02*
X18340660Y-4723340D01*
X18340660Y-6116660D02*
X18447340Y-6223340D01*
X18447340Y-6116660D02*
X18340660Y-6223340D01*
X18341565Y-6427565D02*
X18448245Y-6534245D01*
X18448245Y-6427565D02*
X18341565Y-6534245D01*
X18341565Y-7927565D02*
X18448245Y-8034245D01*
X18448245Y-7927565D02*
X18341565Y-8034245D01*
X18342884Y-8242665D02*
X18449564Y-8349345D01*
X18449564Y-8242665D02*
X18342884Y-8349345D01*
X18342884Y-9742665D02*
X18449564Y-9849345D01*
X18449564Y-9742665D02*
X18342884Y-9849345D01*
X18346660Y-10056660D02*
X18453340Y-10163340D01*
X18453340Y-10056660D02*
X18346660Y-10163340D01*
X18346660Y-11556660D02*
X18453340Y-11663340D01*
X18453340Y-11556660D02*
X18346660Y-11663340D01*
X18346660Y-11876660D02*
X18453340Y-11983340D01*
X18453340Y-11876660D02*
X18346660Y-11983340D01*
X18346660Y-13376660D02*
X18453340Y-13483340D01*
X18453340Y-13376660D02*
X18346660Y-13483340D01*
D12*
X8322040Y-9460000D02*
G75*
G02*
X8189960Y-9460000I-66040J0D01*
G01*
X8189960Y-9460000D02*
G75*
G02*
X8322040Y-9460000I66040J0D01*
G01*
X8322040Y-10660000D02*
G75*
G02*
X8189960Y-10660000I-66040J0D01*
G01*
X8189960Y-10660000D02*
G75*
G02*
X8322040Y-10660000I66040J0D01*
G01*
X8323910Y-8010000D02*
G75*
G02*
X8191830Y-8010000I-66040J0D01*
G01*
X8191830Y-8010000D02*
G75*
G02*
X8323910Y-8010000I66040J0D01*
G01*
X8323910Y-9210000D02*
G75*
G02*
X8191830Y-9210000I-66040J0D01*
G01*
X8191830Y-9210000D02*
G75*
G02*
X8323910Y-9210000I66040J0D01*
G01*
X8326040Y-10930000D02*
G75*
G02*
X8193960Y-10930000I-66040J0D01*
G01*
X8193960Y-10930000D02*
G75*
G02*
X8326040Y-10930000I66040J0D01*
G01*
X8326040Y-12130000D02*
G75*
G02*
X8193960Y-12130000I-66040J0D01*
G01*
X8193960Y-12130000D02*
G75*
G02*
X8326040Y-12130000I66040J0D01*
G01*
X9870532Y-4901000D02*
G75*
G02*
X9738452Y-4901000I-66040J0D01*
G01*
X9738452Y-4901000D02*
G75*
G02*
X9870532Y-4901000I66040J0D01*
G01*
X11070531Y-4901000D02*
G75*
G02*
X10938451Y-4901000I-66040J0D01*
G01*
X10938451Y-4901000D02*
G75*
G02*
X11070531Y-4901000I66040J0D01*
G01*
X11366040Y-4901000D02*
G75*
G02*
X11233960Y-4901000I-66040J0D01*
G01*
X11233960Y-4901000D02*
G75*
G02*
X11366040Y-4901000I66040J0D01*
G01*
X12566040Y-4901000D02*
G75*
G02*
X12433960Y-4901000I-66040J0D01*
G01*
X12433960Y-4901000D02*
G75*
G02*
X12566040Y-4901000I66040J0D01*
G01*
X12856040Y-4902870D02*
G75*
G02*
X12723960Y-4902870I-66040J0D01*
G01*
X12723960Y-4902870D02*
G75*
G02*
X12856040Y-4902870I66040J0D01*
G01*
X14056040Y-4902870D02*
G75*
G02*
X13923960Y-4902870I-66040J0D01*
G01*
X13923960Y-4902870D02*
G75*
G02*
X14056040Y-4902870I66040J0D01*
G01*
D10*
X4690777Y-14301484D02*
X4690777Y-14101484D01*
X4690777Y-14101484D02*
X4738396Y-14101484D01*
X4738396Y-14101484D02*
X4766967Y-14111008D01*
X4766967Y-14111008D02*
X4786015Y-14130055D01*
X4786015Y-14130055D02*
X4795539Y-14149103D01*
X4795539Y-14149103D02*
X4805063Y-14187198D01*
X4805063Y-14187198D02*
X4805063Y-14215769D01*
X4805063Y-14215769D02*
X4795539Y-14253865D01*
X4795539Y-14253865D02*
X4786015Y-14272912D01*
X4786015Y-14272912D02*
X4766967Y-14291960D01*
X4766967Y-14291960D02*
X4738396Y-14301484D01*
X4738396Y-14301484D02*
X4690777Y-14301484D01*
X4890777Y-14301484D02*
X4890777Y-14168150D01*
X4890777Y-14206246D02*
X4900301Y-14187198D01*
X4900301Y-14187198D02*
X4909824Y-14177674D01*
X4909824Y-14177674D02*
X4928872Y-14168150D01*
X4928872Y-14168150D02*
X4947920Y-14168150D01*
X5014586Y-14301484D02*
X5014586Y-14168150D01*
X5014586Y-14101484D02*
X5005063Y-14111008D01*
X5005063Y-14111008D02*
X5014586Y-14120531D01*
X5014586Y-14120531D02*
X5024110Y-14111008D01*
X5024110Y-14111008D02*
X5014586Y-14101484D01*
X5014586Y-14101484D02*
X5014586Y-14120531D01*
X5138396Y-14301484D02*
X5119348Y-14291960D01*
X5119348Y-14291960D02*
X5109824Y-14272912D01*
X5109824Y-14272912D02*
X5109824Y-14101484D01*
X5243158Y-14301484D02*
X5224110Y-14291960D01*
X5224110Y-14291960D02*
X5214586Y-14272912D01*
X5214586Y-14272912D02*
X5214586Y-14101484D01*
X5471729Y-14301484D02*
X5471729Y-14101484D01*
X5471729Y-14101484D02*
X5538396Y-14244341D01*
X5538396Y-14244341D02*
X5605062Y-14101484D01*
X5605062Y-14101484D02*
X5605062Y-14301484D01*
X5786015Y-14301484D02*
X5786015Y-14196722D01*
X5786015Y-14196722D02*
X5776491Y-14177674D01*
X5776491Y-14177674D02*
X5757443Y-14168150D01*
X5757443Y-14168150D02*
X5719348Y-14168150D01*
X5719348Y-14168150D02*
X5700301Y-14177674D01*
X5786015Y-14291960D02*
X5766967Y-14301484D01*
X5766967Y-14301484D02*
X5719348Y-14301484D01*
X5719348Y-14301484D02*
X5700301Y-14291960D01*
X5700301Y-14291960D02*
X5690777Y-14272912D01*
X5690777Y-14272912D02*
X5690777Y-14253865D01*
X5690777Y-14253865D02*
X5700301Y-14234817D01*
X5700301Y-14234817D02*
X5719348Y-14225293D01*
X5719348Y-14225293D02*
X5766967Y-14225293D01*
X5766967Y-14225293D02*
X5786015Y-14215769D01*
X5881253Y-14168150D02*
X5881253Y-14368150D01*
X5881253Y-14177674D02*
X5900301Y-14168150D01*
X5900301Y-14168150D02*
X5938396Y-14168150D01*
X5938396Y-14168150D02*
X5957443Y-14177674D01*
X5957443Y-14177674D02*
X5966967Y-14187198D01*
X5966967Y-14187198D02*
X5976491Y-14206246D01*
X5976491Y-14206246D02*
X5976491Y-14263388D01*
X5976491Y-14263388D02*
X5966967Y-14282436D01*
X5966967Y-14282436D02*
X5957443Y-14291960D01*
X5957443Y-14291960D02*
X5938396Y-14301484D01*
X5938396Y-14301484D02*
X5900301Y-14301484D01*
X5900301Y-14301484D02*
X5881253Y-14291960D01*
X6062205Y-14282436D02*
X6071729Y-14291960D01*
X6071729Y-14291960D02*
X6062205Y-14301484D01*
X6062205Y-14301484D02*
X6052682Y-14291960D01*
X6052682Y-14291960D02*
X6062205Y-14282436D01*
X6062205Y-14282436D02*
X6062205Y-14301484D01*
X6062205Y-14177674D02*
X6071729Y-14187198D01*
X6071729Y-14187198D02*
X6062205Y-14196722D01*
X6062205Y-14196722D02*
X6052682Y-14187198D01*
X6052682Y-14187198D02*
X6062205Y-14177674D01*
X6062205Y-14177674D02*
X6062205Y-14196722D01*
D11*
X4323320Y-14576660D02*
X4430000Y-14683340D01*
X4430000Y-14576660D02*
X4323320Y-14683340D01*
D10*
X4795539Y-14721484D02*
X4681253Y-14721484D01*
X4738396Y-14721484D02*
X4738396Y-14521484D01*
X4738396Y-14521484D02*
X4719348Y-14550055D01*
X4719348Y-14550055D02*
X4700301Y-14569103D01*
X4700301Y-14569103D02*
X4681253Y-14578627D01*
X4881253Y-14702436D02*
X4890777Y-14711960D01*
X4890777Y-14711960D02*
X4881253Y-14721484D01*
X4881253Y-14721484D02*
X4871729Y-14711960D01*
X4871729Y-14711960D02*
X4881253Y-14702436D01*
X4881253Y-14702436D02*
X4881253Y-14721484D01*
X5014586Y-14521484D02*
X5033634Y-14521484D01*
X5033634Y-14521484D02*
X5052682Y-14531008D01*
X5052682Y-14531008D02*
X5062205Y-14540531D01*
X5062205Y-14540531D02*
X5071729Y-14559579D01*
X5071729Y-14559579D02*
X5081253Y-14597674D01*
X5081253Y-14597674D02*
X5081253Y-14645293D01*
X5081253Y-14645293D02*
X5071729Y-14683388D01*
X5071729Y-14683388D02*
X5062205Y-14702436D01*
X5062205Y-14702436D02*
X5052682Y-14711960D01*
X5052682Y-14711960D02*
X5033634Y-14721484D01*
X5033634Y-14721484D02*
X5014586Y-14721484D01*
X5014586Y-14721484D02*
X4995539Y-14711960D01*
X4995539Y-14711960D02*
X4986015Y-14702436D01*
X4986015Y-14702436D02*
X4976491Y-14683388D01*
X4976491Y-14683388D02*
X4966967Y-14645293D01*
X4966967Y-14645293D02*
X4966967Y-14597674D01*
X4966967Y-14597674D02*
X4976491Y-14559579D01*
X4976491Y-14559579D02*
X4986015Y-14540531D01*
X4986015Y-14540531D02*
X4995539Y-14531008D01*
X4995539Y-14531008D02*
X5014586Y-14521484D01*
X5252682Y-14521484D02*
X5214586Y-14521484D01*
X5214586Y-14521484D02*
X5195539Y-14531008D01*
X5195539Y-14531008D02*
X5186015Y-14540531D01*
X5186015Y-14540531D02*
X5166967Y-14569103D01*
X5166967Y-14569103D02*
X5157444Y-14607198D01*
X5157444Y-14607198D02*
X5157444Y-14683388D01*
X5157444Y-14683388D02*
X5166967Y-14702436D01*
X5166967Y-14702436D02*
X5176491Y-14711960D01*
X5176491Y-14711960D02*
X5195539Y-14721484D01*
X5195539Y-14721484D02*
X5233634Y-14721484D01*
X5233634Y-14721484D02*
X5252682Y-14711960D01*
X5252682Y-14711960D02*
X5262205Y-14702436D01*
X5262205Y-14702436D02*
X5271729Y-14683388D01*
X5271729Y-14683388D02*
X5271729Y-14635769D01*
X5271729Y-14635769D02*
X5262205Y-14616722D01*
X5262205Y-14616722D02*
X5252682Y-14607198D01*
X5252682Y-14607198D02*
X5233634Y-14597674D01*
X5233634Y-14597674D02*
X5195539Y-14597674D01*
X5195539Y-14597674D02*
X5176491Y-14607198D01*
X5176491Y-14607198D02*
X5166967Y-14616722D01*
X5166967Y-14616722D02*
X5157444Y-14635769D01*
X5338396Y-14521484D02*
X5471729Y-14521484D01*
X5471729Y-14521484D02*
X5386015Y-14721484D01*
X5547920Y-14721484D02*
X5547920Y-14588150D01*
X5547920Y-14607198D02*
X5557444Y-14597674D01*
X5557444Y-14597674D02*
X5576491Y-14588150D01*
X5576491Y-14588150D02*
X5605063Y-14588150D01*
X5605063Y-14588150D02*
X5624110Y-14597674D01*
X5624110Y-14597674D02*
X5633634Y-14616722D01*
X5633634Y-14616722D02*
X5633634Y-14721484D01*
X5633634Y-14616722D02*
X5643158Y-14597674D01*
X5643158Y-14597674D02*
X5662205Y-14588150D01*
X5662205Y-14588150D02*
X5690777Y-14588150D01*
X5690777Y-14588150D02*
X5709824Y-14597674D01*
X5709824Y-14597674D02*
X5719348Y-14616722D01*
X5719348Y-14616722D02*
X5719348Y-14721484D01*
X5814586Y-14721484D02*
X5814586Y-14588150D01*
X5814586Y-14607198D02*
X5824110Y-14597674D01*
X5824110Y-14597674D02*
X5843158Y-14588150D01*
X5843158Y-14588150D02*
X5871729Y-14588150D01*
X5871729Y-14588150D02*
X5890777Y-14597674D01*
X5890777Y-14597674D02*
X5900301Y-14616722D01*
X5900301Y-14616722D02*
X5900301Y-14721484D01*
X5900301Y-14616722D02*
X5909824Y-14597674D01*
X5909824Y-14597674D02*
X5928872Y-14588150D01*
X5928872Y-14588150D02*
X5957443Y-14588150D01*
X5957443Y-14588150D02*
X5976491Y-14597674D01*
X5976491Y-14597674D02*
X5986015Y-14616722D01*
X5986015Y-14616722D02*
X5986015Y-14721484D01*
X6376491Y-14511960D02*
X6205063Y-14769103D01*
X6633634Y-14521484D02*
X6652682Y-14521484D01*
X6652682Y-14521484D02*
X6671729Y-14531008D01*
X6671729Y-14531008D02*
X6681253Y-14540531D01*
X6681253Y-14540531D02*
X6690777Y-14559579D01*
X6690777Y-14559579D02*
X6700301Y-14597674D01*
X6700301Y-14597674D02*
X6700301Y-14645293D01*
X6700301Y-14645293D02*
X6690777Y-14683388D01*
X6690777Y-14683388D02*
X6681253Y-14702436D01*
X6681253Y-14702436D02*
X6671729Y-14711960D01*
X6671729Y-14711960D02*
X6652682Y-14721484D01*
X6652682Y-14721484D02*
X6633634Y-14721484D01*
X6633634Y-14721484D02*
X6614586Y-14711960D01*
X6614586Y-14711960D02*
X6605063Y-14702436D01*
X6605063Y-14702436D02*
X6595539Y-14683388D01*
X6595539Y-14683388D02*
X6586015Y-14645293D01*
X6586015Y-14645293D02*
X6586015Y-14597674D01*
X6586015Y-14597674D02*
X6595539Y-14559579D01*
X6595539Y-14559579D02*
X6605063Y-14540531D01*
X6605063Y-14540531D02*
X6614586Y-14531008D01*
X6614586Y-14531008D02*
X6633634Y-14521484D01*
X6786015Y-14702436D02*
X6795539Y-14711960D01*
X6795539Y-14711960D02*
X6786015Y-14721484D01*
X6786015Y-14721484D02*
X6776491Y-14711960D01*
X6776491Y-14711960D02*
X6786015Y-14702436D01*
X6786015Y-14702436D02*
X6786015Y-14721484D01*
X6919348Y-14521484D02*
X6938396Y-14521484D01*
X6938396Y-14521484D02*
X6957444Y-14531008D01*
X6957444Y-14531008D02*
X6966967Y-14540531D01*
X6966967Y-14540531D02*
X6976491Y-14559579D01*
X6976491Y-14559579D02*
X6986015Y-14597674D01*
X6986015Y-14597674D02*
X6986015Y-14645293D01*
X6986015Y-14645293D02*
X6976491Y-14683388D01*
X6976491Y-14683388D02*
X6966967Y-14702436D01*
X6966967Y-14702436D02*
X6957444Y-14711960D01*
X6957444Y-14711960D02*
X6938396Y-14721484D01*
X6938396Y-14721484D02*
X6919348Y-14721484D01*
X6919348Y-14721484D02*
X6900301Y-14711960D01*
X6900301Y-14711960D02*
X6890777Y-14702436D01*
X6890777Y-14702436D02*
X6881253Y-14683388D01*
X6881253Y-14683388D02*
X6871729Y-14645293D01*
X6871729Y-14645293D02*
X6871729Y-14597674D01*
X6871729Y-14597674D02*
X6881253Y-14559579D01*
X6881253Y-14559579D02*
X6890777Y-14540531D01*
X6890777Y-14540531D02*
X6900301Y-14531008D01*
X6900301Y-14531008D02*
X6919348Y-14521484D01*
X7157444Y-14588150D02*
X7157444Y-14721484D01*
X7109825Y-14511960D02*
X7062206Y-14654817D01*
X7062206Y-14654817D02*
X7186015Y-14654817D01*
X7252682Y-14540531D02*
X7262206Y-14531008D01*
X7262206Y-14531008D02*
X7281253Y-14521484D01*
X7281253Y-14521484D02*
X7328872Y-14521484D01*
X7328872Y-14521484D02*
X7347920Y-14531008D01*
X7347920Y-14531008D02*
X7357444Y-14540531D01*
X7357444Y-14540531D02*
X7366967Y-14559579D01*
X7366967Y-14559579D02*
X7366967Y-14578627D01*
X7366967Y-14578627D02*
X7357444Y-14607198D01*
X7357444Y-14607198D02*
X7243158Y-14721484D01*
X7243158Y-14721484D02*
X7366967Y-14721484D01*
X7490777Y-14521484D02*
X7509825Y-14521484D01*
X7509825Y-14521484D02*
X7528872Y-14531008D01*
X7528872Y-14531008D02*
X7538396Y-14540531D01*
X7538396Y-14540531D02*
X7547920Y-14559579D01*
X7547920Y-14559579D02*
X7557444Y-14597674D01*
X7557444Y-14597674D02*
X7557444Y-14645293D01*
X7557444Y-14645293D02*
X7547920Y-14683388D01*
X7547920Y-14683388D02*
X7538396Y-14702436D01*
X7538396Y-14702436D02*
X7528872Y-14711960D01*
X7528872Y-14711960D02*
X7509825Y-14721484D01*
X7509825Y-14721484D02*
X7490777Y-14721484D01*
X7490777Y-14721484D02*
X7471729Y-14711960D01*
X7471729Y-14711960D02*
X7462206Y-14702436D01*
X7462206Y-14702436D02*
X7452682Y-14683388D01*
X7452682Y-14683388D02*
X7443158Y-14645293D01*
X7443158Y-14645293D02*
X7443158Y-14597674D01*
X7443158Y-14597674D02*
X7452682Y-14559579D01*
X7452682Y-14559579D02*
X7462206Y-14540531D01*
X7462206Y-14540531D02*
X7471729Y-14531008D01*
X7471729Y-14531008D02*
X7490777Y-14521484D01*
X7633634Y-14521484D02*
X7633634Y-14559579D01*
X7709825Y-14521484D02*
X7709825Y-14559579D01*
X8005063Y-14797674D02*
X7995539Y-14788150D01*
X7995539Y-14788150D02*
X7976491Y-14759579D01*
X7976491Y-14759579D02*
X7966968Y-14740531D01*
X7966968Y-14740531D02*
X7957444Y-14711960D01*
X7957444Y-14711960D02*
X7947920Y-14664341D01*
X7947920Y-14664341D02*
X7947920Y-14626246D01*
X7947920Y-14626246D02*
X7957444Y-14578627D01*
X7957444Y-14578627D02*
X7966968Y-14550055D01*
X7966968Y-14550055D02*
X7976491Y-14531008D01*
X7976491Y-14531008D02*
X7995539Y-14502436D01*
X7995539Y-14502436D02*
X8005063Y-14492912D01*
X8186015Y-14721484D02*
X8071729Y-14721484D01*
X8128872Y-14721484D02*
X8128872Y-14521484D01*
X8128872Y-14521484D02*
X8109825Y-14550055D01*
X8109825Y-14550055D02*
X8090777Y-14569103D01*
X8090777Y-14569103D02*
X8071729Y-14578627D01*
X8309825Y-14521484D02*
X8328872Y-14521484D01*
X8328872Y-14521484D02*
X8347920Y-14531008D01*
X8347920Y-14531008D02*
X8357444Y-14540531D01*
X8357444Y-14540531D02*
X8366968Y-14559579D01*
X8366968Y-14559579D02*
X8376491Y-14597674D01*
X8376491Y-14597674D02*
X8376491Y-14645293D01*
X8376491Y-14645293D02*
X8366968Y-14683388D01*
X8366968Y-14683388D02*
X8357444Y-14702436D01*
X8357444Y-14702436D02*
X8347920Y-14711960D01*
X8347920Y-14711960D02*
X8328872Y-14721484D01*
X8328872Y-14721484D02*
X8309825Y-14721484D01*
X8309825Y-14721484D02*
X8290777Y-14711960D01*
X8290777Y-14711960D02*
X8281253Y-14702436D01*
X8281253Y-14702436D02*
X8271729Y-14683388D01*
X8271729Y-14683388D02*
X8262206Y-14645293D01*
X8262206Y-14645293D02*
X8262206Y-14597674D01*
X8262206Y-14597674D02*
X8271729Y-14559579D01*
X8271729Y-14559579D02*
X8281253Y-14540531D01*
X8281253Y-14540531D02*
X8290777Y-14531008D01*
X8290777Y-14531008D02*
X8309825Y-14521484D01*
X8614587Y-14721484D02*
X8614587Y-14521484D01*
X8700301Y-14721484D02*
X8700301Y-14616722D01*
X8700301Y-14616722D02*
X8690777Y-14597674D01*
X8690777Y-14597674D02*
X8671730Y-14588150D01*
X8671730Y-14588150D02*
X8643158Y-14588150D01*
X8643158Y-14588150D02*
X8624111Y-14597674D01*
X8624111Y-14597674D02*
X8614587Y-14607198D01*
X8824111Y-14721484D02*
X8805063Y-14711960D01*
X8805063Y-14711960D02*
X8795539Y-14702436D01*
X8795539Y-14702436D02*
X8786015Y-14683388D01*
X8786015Y-14683388D02*
X8786015Y-14626246D01*
X8786015Y-14626246D02*
X8795539Y-14607198D01*
X8795539Y-14607198D02*
X8805063Y-14597674D01*
X8805063Y-14597674D02*
X8824111Y-14588150D01*
X8824111Y-14588150D02*
X8852682Y-14588150D01*
X8852682Y-14588150D02*
X8871730Y-14597674D01*
X8871730Y-14597674D02*
X8881253Y-14607198D01*
X8881253Y-14607198D02*
X8890777Y-14626246D01*
X8890777Y-14626246D02*
X8890777Y-14683388D01*
X8890777Y-14683388D02*
X8881253Y-14702436D01*
X8881253Y-14702436D02*
X8871730Y-14711960D01*
X8871730Y-14711960D02*
X8852682Y-14721484D01*
X8852682Y-14721484D02*
X8824111Y-14721484D01*
X9005063Y-14721484D02*
X8986015Y-14711960D01*
X8986015Y-14711960D02*
X8976492Y-14692912D01*
X8976492Y-14692912D02*
X8976492Y-14521484D01*
X9157444Y-14711960D02*
X9138396Y-14721484D01*
X9138396Y-14721484D02*
X9100301Y-14721484D01*
X9100301Y-14721484D02*
X9081253Y-14711960D01*
X9081253Y-14711960D02*
X9071730Y-14692912D01*
X9071730Y-14692912D02*
X9071730Y-14616722D01*
X9071730Y-14616722D02*
X9081253Y-14597674D01*
X9081253Y-14597674D02*
X9100301Y-14588150D01*
X9100301Y-14588150D02*
X9138396Y-14588150D01*
X9138396Y-14588150D02*
X9157444Y-14597674D01*
X9157444Y-14597674D02*
X9166968Y-14616722D01*
X9166968Y-14616722D02*
X9166968Y-14635769D01*
X9166968Y-14635769D02*
X9071730Y-14654817D01*
X9243158Y-14711960D02*
X9262206Y-14721484D01*
X9262206Y-14721484D02*
X9300301Y-14721484D01*
X9300301Y-14721484D02*
X9319349Y-14711960D01*
X9319349Y-14711960D02*
X9328873Y-14692912D01*
X9328873Y-14692912D02*
X9328873Y-14683388D01*
X9328873Y-14683388D02*
X9319349Y-14664341D01*
X9319349Y-14664341D02*
X9300301Y-14654817D01*
X9300301Y-14654817D02*
X9271730Y-14654817D01*
X9271730Y-14654817D02*
X9252682Y-14645293D01*
X9252682Y-14645293D02*
X9243158Y-14626246D01*
X9243158Y-14626246D02*
X9243158Y-14616722D01*
X9243158Y-14616722D02*
X9252682Y-14597674D01*
X9252682Y-14597674D02*
X9271730Y-14588150D01*
X9271730Y-14588150D02*
X9300301Y-14588150D01*
X9300301Y-14588150D02*
X9319349Y-14597674D01*
X9395539Y-14797674D02*
X9405063Y-14788150D01*
X9405063Y-14788150D02*
X9424111Y-14759579D01*
X9424111Y-14759579D02*
X9433634Y-14740531D01*
X9433634Y-14740531D02*
X9443158Y-14711960D01*
X9443158Y-14711960D02*
X9452682Y-14664341D01*
X9452682Y-14664341D02*
X9452682Y-14626246D01*
X9452682Y-14626246D02*
X9443158Y-14578627D01*
X9443158Y-14578627D02*
X9433634Y-14550055D01*
X9433634Y-14550055D02*
X9424111Y-14531008D01*
X9424111Y-14531008D02*
X9405063Y-14502436D01*
X9405063Y-14502436D02*
X9395539Y-14492912D01*
X9757444Y-14797674D02*
X9747920Y-14788150D01*
X9747920Y-14788150D02*
X9728873Y-14759579D01*
X9728873Y-14759579D02*
X9719349Y-14740531D01*
X9719349Y-14740531D02*
X9709825Y-14711960D01*
X9709825Y-14711960D02*
X9700301Y-14664341D01*
X9700301Y-14664341D02*
X9700301Y-14626246D01*
X9700301Y-14626246D02*
X9709825Y-14578627D01*
X9709825Y-14578627D02*
X9719349Y-14550055D01*
X9719349Y-14550055D02*
X9728873Y-14531008D01*
X9728873Y-14531008D02*
X9747920Y-14502436D01*
X9747920Y-14502436D02*
X9757444Y-14492912D01*
X9833634Y-14588150D02*
X9833634Y-14721484D01*
X9833634Y-14607198D02*
X9843158Y-14597674D01*
X9843158Y-14597674D02*
X9862206Y-14588150D01*
X9862206Y-14588150D02*
X9890777Y-14588150D01*
X9890777Y-14588150D02*
X9909825Y-14597674D01*
X9909825Y-14597674D02*
X9919349Y-14616722D01*
X9919349Y-14616722D02*
X9919349Y-14721484D01*
X10043158Y-14721484D02*
X10024111Y-14711960D01*
X10024111Y-14711960D02*
X10014587Y-14702436D01*
X10014587Y-14702436D02*
X10005063Y-14683388D01*
X10005063Y-14683388D02*
X10005063Y-14626246D01*
X10005063Y-14626246D02*
X10014587Y-14607198D01*
X10014587Y-14607198D02*
X10024111Y-14597674D01*
X10024111Y-14597674D02*
X10043158Y-14588150D01*
X10043158Y-14588150D02*
X10071730Y-14588150D01*
X10071730Y-14588150D02*
X10090777Y-14597674D01*
X10090777Y-14597674D02*
X10100301Y-14607198D01*
X10100301Y-14607198D02*
X10109825Y-14626246D01*
X10109825Y-14626246D02*
X10109825Y-14683388D01*
X10109825Y-14683388D02*
X10100301Y-14702436D01*
X10100301Y-14702436D02*
X10090777Y-14711960D01*
X10090777Y-14711960D02*
X10071730Y-14721484D01*
X10071730Y-14721484D02*
X10043158Y-14721484D01*
X10166968Y-14588150D02*
X10243158Y-14588150D01*
X10195539Y-14521484D02*
X10195539Y-14692912D01*
X10195539Y-14692912D02*
X10205063Y-14711960D01*
X10205063Y-14711960D02*
X10224111Y-14721484D01*
X10224111Y-14721484D02*
X10243158Y-14721484D01*
X10462206Y-14588150D02*
X10462206Y-14788150D01*
X10462206Y-14597674D02*
X10481254Y-14588150D01*
X10481254Y-14588150D02*
X10519349Y-14588150D01*
X10519349Y-14588150D02*
X10538396Y-14597674D01*
X10538396Y-14597674D02*
X10547920Y-14607198D01*
X10547920Y-14607198D02*
X10557444Y-14626246D01*
X10557444Y-14626246D02*
X10557444Y-14683388D01*
X10557444Y-14683388D02*
X10547920Y-14702436D01*
X10547920Y-14702436D02*
X10538396Y-14711960D01*
X10538396Y-14711960D02*
X10519349Y-14721484D01*
X10519349Y-14721484D02*
X10481254Y-14721484D01*
X10481254Y-14721484D02*
X10462206Y-14711960D01*
X10671730Y-14721484D02*
X10652682Y-14711960D01*
X10652682Y-14711960D02*
X10643158Y-14692912D01*
X10643158Y-14692912D02*
X10643158Y-14521484D01*
X10833635Y-14721484D02*
X10833635Y-14616722D01*
X10833635Y-14616722D02*
X10824111Y-14597674D01*
X10824111Y-14597674D02*
X10805063Y-14588150D01*
X10805063Y-14588150D02*
X10766968Y-14588150D01*
X10766968Y-14588150D02*
X10747920Y-14597674D01*
X10833635Y-14711960D02*
X10814587Y-14721484D01*
X10814587Y-14721484D02*
X10766968Y-14721484D01*
X10766968Y-14721484D02*
X10747920Y-14711960D01*
X10747920Y-14711960D02*
X10738396Y-14692912D01*
X10738396Y-14692912D02*
X10738396Y-14673865D01*
X10738396Y-14673865D02*
X10747920Y-14654817D01*
X10747920Y-14654817D02*
X10766968Y-14645293D01*
X10766968Y-14645293D02*
X10814587Y-14645293D01*
X10814587Y-14645293D02*
X10833635Y-14635769D01*
X10900301Y-14588150D02*
X10976492Y-14588150D01*
X10928873Y-14521484D02*
X10928873Y-14692912D01*
X10928873Y-14692912D02*
X10938396Y-14711960D01*
X10938396Y-14711960D02*
X10957444Y-14721484D01*
X10957444Y-14721484D02*
X10976492Y-14721484D01*
X11119349Y-14711960D02*
X11100301Y-14721484D01*
X11100301Y-14721484D02*
X11062206Y-14721484D01*
X11062206Y-14721484D02*
X11043158Y-14711960D01*
X11043158Y-14711960D02*
X11033635Y-14692912D01*
X11033635Y-14692912D02*
X11033635Y-14616722D01*
X11033635Y-14616722D02*
X11043158Y-14597674D01*
X11043158Y-14597674D02*
X11062206Y-14588150D01*
X11062206Y-14588150D02*
X11100301Y-14588150D01*
X11100301Y-14588150D02*
X11119349Y-14597674D01*
X11119349Y-14597674D02*
X11128873Y-14616722D01*
X11128873Y-14616722D02*
X11128873Y-14635769D01*
X11128873Y-14635769D02*
X11033635Y-14654817D01*
X11300301Y-14721484D02*
X11300301Y-14521484D01*
X11300301Y-14711960D02*
X11281254Y-14721484D01*
X11281254Y-14721484D02*
X11243158Y-14721484D01*
X11243158Y-14721484D02*
X11224111Y-14711960D01*
X11224111Y-14711960D02*
X11214587Y-14702436D01*
X11214587Y-14702436D02*
X11205063Y-14683388D01*
X11205063Y-14683388D02*
X11205063Y-14626246D01*
X11205063Y-14626246D02*
X11214587Y-14607198D01*
X11214587Y-14607198D02*
X11224111Y-14597674D01*
X11224111Y-14597674D02*
X11243158Y-14588150D01*
X11243158Y-14588150D02*
X11281254Y-14588150D01*
X11281254Y-14588150D02*
X11300301Y-14597674D01*
X11376492Y-14797674D02*
X11386015Y-14788150D01*
X11386015Y-14788150D02*
X11405063Y-14759579D01*
X11405063Y-14759579D02*
X11414587Y-14740531D01*
X11414587Y-14740531D02*
X11424111Y-14711960D01*
X11424111Y-14711960D02*
X11433634Y-14664341D01*
X11433634Y-14664341D02*
X11433634Y-14626246D01*
X11433634Y-14626246D02*
X11424111Y-14578627D01*
X11424111Y-14578627D02*
X11414587Y-14550055D01*
X11414587Y-14550055D02*
X11405063Y-14531008D01*
X11405063Y-14531008D02*
X11386015Y-14502436D01*
X11386015Y-14502436D02*
X11376492Y-14492912D01*
D12*
X4430000Y-14894000D02*
G75*
G02*
X4297920Y-14894000I-66040J0D01*
G01*
X4297920Y-14894000D02*
G75*
G02*
X4430000Y-14894000I66040J0D01*
G01*
D10*
X4795539Y-14985484D02*
X4681253Y-14985484D01*
X4738396Y-14985484D02*
X4738396Y-14785484D01*
X4738396Y-14785484D02*
X4719348Y-14814055D01*
X4719348Y-14814055D02*
X4700301Y-14833103D01*
X4700301Y-14833103D02*
X4681253Y-14842627D01*
X4881253Y-14966436D02*
X4890777Y-14975960D01*
X4890777Y-14975960D02*
X4881253Y-14985484D01*
X4881253Y-14985484D02*
X4871729Y-14975960D01*
X4871729Y-14975960D02*
X4881253Y-14966436D01*
X4881253Y-14966436D02*
X4881253Y-14985484D01*
X4957444Y-14785484D02*
X5081253Y-14785484D01*
X5081253Y-14785484D02*
X5014586Y-14861674D01*
X5014586Y-14861674D02*
X5043158Y-14861674D01*
X5043158Y-14861674D02*
X5062205Y-14871198D01*
X5062205Y-14871198D02*
X5071729Y-14880722D01*
X5071729Y-14880722D02*
X5081253Y-14899769D01*
X5081253Y-14899769D02*
X5081253Y-14947388D01*
X5081253Y-14947388D02*
X5071729Y-14966436D01*
X5071729Y-14966436D02*
X5062205Y-14975960D01*
X5062205Y-14975960D02*
X5043158Y-14985484D01*
X5043158Y-14985484D02*
X4986015Y-14985484D01*
X4986015Y-14985484D02*
X4966967Y-14975960D01*
X4966967Y-14975960D02*
X4957444Y-14966436D01*
X5157444Y-14804531D02*
X5166967Y-14795008D01*
X5166967Y-14795008D02*
X5186015Y-14785484D01*
X5186015Y-14785484D02*
X5233634Y-14785484D01*
X5233634Y-14785484D02*
X5252682Y-14795008D01*
X5252682Y-14795008D02*
X5262205Y-14804531D01*
X5262205Y-14804531D02*
X5271729Y-14823579D01*
X5271729Y-14823579D02*
X5271729Y-14842627D01*
X5271729Y-14842627D02*
X5262205Y-14871198D01*
X5262205Y-14871198D02*
X5147920Y-14985484D01*
X5147920Y-14985484D02*
X5271729Y-14985484D01*
X5462205Y-14985484D02*
X5347920Y-14985484D01*
X5405063Y-14985484D02*
X5405063Y-14785484D01*
X5405063Y-14785484D02*
X5386015Y-14814055D01*
X5386015Y-14814055D02*
X5366967Y-14833103D01*
X5366967Y-14833103D02*
X5347920Y-14842627D01*
X5547920Y-14985484D02*
X5547920Y-14852150D01*
X5547920Y-14871198D02*
X5557444Y-14861674D01*
X5557444Y-14861674D02*
X5576491Y-14852150D01*
X5576491Y-14852150D02*
X5605063Y-14852150D01*
X5605063Y-14852150D02*
X5624110Y-14861674D01*
X5624110Y-14861674D02*
X5633634Y-14880722D01*
X5633634Y-14880722D02*
X5633634Y-14985484D01*
X5633634Y-14880722D02*
X5643158Y-14861674D01*
X5643158Y-14861674D02*
X5662205Y-14852150D01*
X5662205Y-14852150D02*
X5690777Y-14852150D01*
X5690777Y-14852150D02*
X5709824Y-14861674D01*
X5709824Y-14861674D02*
X5719348Y-14880722D01*
X5719348Y-14880722D02*
X5719348Y-14985484D01*
X5814586Y-14985484D02*
X5814586Y-14852150D01*
X5814586Y-14871198D02*
X5824110Y-14861674D01*
X5824110Y-14861674D02*
X5843158Y-14852150D01*
X5843158Y-14852150D02*
X5871729Y-14852150D01*
X5871729Y-14852150D02*
X5890777Y-14861674D01*
X5890777Y-14861674D02*
X5900301Y-14880722D01*
X5900301Y-14880722D02*
X5900301Y-14985484D01*
X5900301Y-14880722D02*
X5909824Y-14861674D01*
X5909824Y-14861674D02*
X5928872Y-14852150D01*
X5928872Y-14852150D02*
X5957443Y-14852150D01*
X5957443Y-14852150D02*
X5976491Y-14861674D01*
X5976491Y-14861674D02*
X5986015Y-14880722D01*
X5986015Y-14880722D02*
X5986015Y-14985484D01*
X6376491Y-14775960D02*
X6205063Y-15033103D01*
X6633634Y-14785484D02*
X6652682Y-14785484D01*
X6652682Y-14785484D02*
X6671729Y-14795008D01*
X6671729Y-14795008D02*
X6681253Y-14804531D01*
X6681253Y-14804531D02*
X6690777Y-14823579D01*
X6690777Y-14823579D02*
X6700301Y-14861674D01*
X6700301Y-14861674D02*
X6700301Y-14909293D01*
X6700301Y-14909293D02*
X6690777Y-14947388D01*
X6690777Y-14947388D02*
X6681253Y-14966436D01*
X6681253Y-14966436D02*
X6671729Y-14975960D01*
X6671729Y-14975960D02*
X6652682Y-14985484D01*
X6652682Y-14985484D02*
X6633634Y-14985484D01*
X6633634Y-14985484D02*
X6614586Y-14975960D01*
X6614586Y-14975960D02*
X6605063Y-14966436D01*
X6605063Y-14966436D02*
X6595539Y-14947388D01*
X6595539Y-14947388D02*
X6586015Y-14909293D01*
X6586015Y-14909293D02*
X6586015Y-14861674D01*
X6586015Y-14861674D02*
X6595539Y-14823579D01*
X6595539Y-14823579D02*
X6605063Y-14804531D01*
X6605063Y-14804531D02*
X6614586Y-14795008D01*
X6614586Y-14795008D02*
X6633634Y-14785484D01*
X6786015Y-14966436D02*
X6795539Y-14975960D01*
X6795539Y-14975960D02*
X6786015Y-14985484D01*
X6786015Y-14985484D02*
X6776491Y-14975960D01*
X6776491Y-14975960D02*
X6786015Y-14966436D01*
X6786015Y-14966436D02*
X6786015Y-14985484D01*
X6919348Y-14785484D02*
X6938396Y-14785484D01*
X6938396Y-14785484D02*
X6957444Y-14795008D01*
X6957444Y-14795008D02*
X6966967Y-14804531D01*
X6966967Y-14804531D02*
X6976491Y-14823579D01*
X6976491Y-14823579D02*
X6986015Y-14861674D01*
X6986015Y-14861674D02*
X6986015Y-14909293D01*
X6986015Y-14909293D02*
X6976491Y-14947388D01*
X6976491Y-14947388D02*
X6966967Y-14966436D01*
X6966967Y-14966436D02*
X6957444Y-14975960D01*
X6957444Y-14975960D02*
X6938396Y-14985484D01*
X6938396Y-14985484D02*
X6919348Y-14985484D01*
X6919348Y-14985484D02*
X6900301Y-14975960D01*
X6900301Y-14975960D02*
X6890777Y-14966436D01*
X6890777Y-14966436D02*
X6881253Y-14947388D01*
X6881253Y-14947388D02*
X6871729Y-14909293D01*
X6871729Y-14909293D02*
X6871729Y-14861674D01*
X6871729Y-14861674D02*
X6881253Y-14823579D01*
X6881253Y-14823579D02*
X6890777Y-14804531D01*
X6890777Y-14804531D02*
X6900301Y-14795008D01*
X6900301Y-14795008D02*
X6919348Y-14785484D01*
X7166967Y-14785484D02*
X7071729Y-14785484D01*
X7071729Y-14785484D02*
X7062206Y-14880722D01*
X7062206Y-14880722D02*
X7071729Y-14871198D01*
X7071729Y-14871198D02*
X7090777Y-14861674D01*
X7090777Y-14861674D02*
X7138396Y-14861674D01*
X7138396Y-14861674D02*
X7157444Y-14871198D01*
X7157444Y-14871198D02*
X7166967Y-14880722D01*
X7166967Y-14880722D02*
X7176491Y-14899769D01*
X7176491Y-14899769D02*
X7176491Y-14947388D01*
X7176491Y-14947388D02*
X7166967Y-14966436D01*
X7166967Y-14966436D02*
X7157444Y-14975960D01*
X7157444Y-14975960D02*
X7138396Y-14985484D01*
X7138396Y-14985484D02*
X7090777Y-14985484D01*
X7090777Y-14985484D02*
X7071729Y-14975960D01*
X7071729Y-14975960D02*
X7062206Y-14966436D01*
X7252682Y-14804531D02*
X7262206Y-14795008D01*
X7262206Y-14795008D02*
X7281253Y-14785484D01*
X7281253Y-14785484D02*
X7328872Y-14785484D01*
X7328872Y-14785484D02*
X7347920Y-14795008D01*
X7347920Y-14795008D02*
X7357444Y-14804531D01*
X7357444Y-14804531D02*
X7366967Y-14823579D01*
X7366967Y-14823579D02*
X7366967Y-14842627D01*
X7366967Y-14842627D02*
X7357444Y-14871198D01*
X7357444Y-14871198D02*
X7243158Y-14985484D01*
X7243158Y-14985484D02*
X7366967Y-14985484D01*
X7490777Y-14785484D02*
X7509825Y-14785484D01*
X7509825Y-14785484D02*
X7528872Y-14795008D01*
X7528872Y-14795008D02*
X7538396Y-14804531D01*
X7538396Y-14804531D02*
X7547920Y-14823579D01*
X7547920Y-14823579D02*
X7557444Y-14861674D01*
X7557444Y-14861674D02*
X7557444Y-14909293D01*
X7557444Y-14909293D02*
X7547920Y-14947388D01*
X7547920Y-14947388D02*
X7538396Y-14966436D01*
X7538396Y-14966436D02*
X7528872Y-14975960D01*
X7528872Y-14975960D02*
X7509825Y-14985484D01*
X7509825Y-14985484D02*
X7490777Y-14985484D01*
X7490777Y-14985484D02*
X7471729Y-14975960D01*
X7471729Y-14975960D02*
X7462206Y-14966436D01*
X7462206Y-14966436D02*
X7452682Y-14947388D01*
X7452682Y-14947388D02*
X7443158Y-14909293D01*
X7443158Y-14909293D02*
X7443158Y-14861674D01*
X7443158Y-14861674D02*
X7452682Y-14823579D01*
X7452682Y-14823579D02*
X7462206Y-14804531D01*
X7462206Y-14804531D02*
X7471729Y-14795008D01*
X7471729Y-14795008D02*
X7490777Y-14785484D01*
X7633634Y-14785484D02*
X7633634Y-14823579D01*
X7709825Y-14785484D02*
X7709825Y-14823579D01*
X8005063Y-15061674D02*
X7995539Y-15052150D01*
X7995539Y-15052150D02*
X7976491Y-15023579D01*
X7976491Y-15023579D02*
X7966968Y-15004531D01*
X7966968Y-15004531D02*
X7957444Y-14975960D01*
X7957444Y-14975960D02*
X7947920Y-14928341D01*
X7947920Y-14928341D02*
X7947920Y-14890246D01*
X7947920Y-14890246D02*
X7957444Y-14842627D01*
X7957444Y-14842627D02*
X7966968Y-14814055D01*
X7966968Y-14814055D02*
X7976491Y-14795008D01*
X7976491Y-14795008D02*
X7995539Y-14766436D01*
X7995539Y-14766436D02*
X8005063Y-14756912D01*
X8186015Y-14985484D02*
X8071729Y-14985484D01*
X8128872Y-14985484D02*
X8128872Y-14785484D01*
X8128872Y-14785484D02*
X8109825Y-14814055D01*
X8109825Y-14814055D02*
X8090777Y-14833103D01*
X8090777Y-14833103D02*
X8071729Y-14842627D01*
X8262206Y-14804531D02*
X8271729Y-14795008D01*
X8271729Y-14795008D02*
X8290777Y-14785484D01*
X8290777Y-14785484D02*
X8338396Y-14785484D01*
X8338396Y-14785484D02*
X8357444Y-14795008D01*
X8357444Y-14795008D02*
X8366968Y-14804531D01*
X8366968Y-14804531D02*
X8376491Y-14823579D01*
X8376491Y-14823579D02*
X8376491Y-14842627D01*
X8376491Y-14842627D02*
X8366968Y-14871198D01*
X8366968Y-14871198D02*
X8252682Y-14985484D01*
X8252682Y-14985484D02*
X8376491Y-14985484D01*
X8614587Y-14985484D02*
X8614587Y-14785484D01*
X8700301Y-14985484D02*
X8700301Y-14880722D01*
X8700301Y-14880722D02*
X8690777Y-14861674D01*
X8690777Y-14861674D02*
X8671730Y-14852150D01*
X8671730Y-14852150D02*
X8643158Y-14852150D01*
X8643158Y-14852150D02*
X8624111Y-14861674D01*
X8624111Y-14861674D02*
X8614587Y-14871198D01*
X8824111Y-14985484D02*
X8805063Y-14975960D01*
X8805063Y-14975960D02*
X8795539Y-14966436D01*
X8795539Y-14966436D02*
X8786015Y-14947388D01*
X8786015Y-14947388D02*
X8786015Y-14890246D01*
X8786015Y-14890246D02*
X8795539Y-14871198D01*
X8795539Y-14871198D02*
X8805063Y-14861674D01*
X8805063Y-14861674D02*
X8824111Y-14852150D01*
X8824111Y-14852150D02*
X8852682Y-14852150D01*
X8852682Y-14852150D02*
X8871730Y-14861674D01*
X8871730Y-14861674D02*
X8881253Y-14871198D01*
X8881253Y-14871198D02*
X8890777Y-14890246D01*
X8890777Y-14890246D02*
X8890777Y-14947388D01*
X8890777Y-14947388D02*
X8881253Y-14966436D01*
X8881253Y-14966436D02*
X8871730Y-14975960D01*
X8871730Y-14975960D02*
X8852682Y-14985484D01*
X8852682Y-14985484D02*
X8824111Y-14985484D01*
X9005063Y-14985484D02*
X8986015Y-14975960D01*
X8986015Y-14975960D02*
X8976492Y-14956912D01*
X8976492Y-14956912D02*
X8976492Y-14785484D01*
X9157444Y-14975960D02*
X9138396Y-14985484D01*
X9138396Y-14985484D02*
X9100301Y-14985484D01*
X9100301Y-14985484D02*
X9081253Y-14975960D01*
X9081253Y-14975960D02*
X9071730Y-14956912D01*
X9071730Y-14956912D02*
X9071730Y-14880722D01*
X9071730Y-14880722D02*
X9081253Y-14861674D01*
X9081253Y-14861674D02*
X9100301Y-14852150D01*
X9100301Y-14852150D02*
X9138396Y-14852150D01*
X9138396Y-14852150D02*
X9157444Y-14861674D01*
X9157444Y-14861674D02*
X9166968Y-14880722D01*
X9166968Y-14880722D02*
X9166968Y-14899769D01*
X9166968Y-14899769D02*
X9071730Y-14918817D01*
X9243158Y-14975960D02*
X9262206Y-14985484D01*
X9262206Y-14985484D02*
X9300301Y-14985484D01*
X9300301Y-14985484D02*
X9319349Y-14975960D01*
X9319349Y-14975960D02*
X9328873Y-14956912D01*
X9328873Y-14956912D02*
X9328873Y-14947388D01*
X9328873Y-14947388D02*
X9319349Y-14928341D01*
X9319349Y-14928341D02*
X9300301Y-14918817D01*
X9300301Y-14918817D02*
X9271730Y-14918817D01*
X9271730Y-14918817D02*
X9252682Y-14909293D01*
X9252682Y-14909293D02*
X9243158Y-14890246D01*
X9243158Y-14890246D02*
X9243158Y-14880722D01*
X9243158Y-14880722D02*
X9252682Y-14861674D01*
X9252682Y-14861674D02*
X9271730Y-14852150D01*
X9271730Y-14852150D02*
X9300301Y-14852150D01*
X9300301Y-14852150D02*
X9319349Y-14861674D01*
X9395539Y-15061674D02*
X9405063Y-15052150D01*
X9405063Y-15052150D02*
X9424111Y-15023579D01*
X9424111Y-15023579D02*
X9433634Y-15004531D01*
X9433634Y-15004531D02*
X9443158Y-14975960D01*
X9443158Y-14975960D02*
X9452682Y-14928341D01*
X9452682Y-14928341D02*
X9452682Y-14890246D01*
X9452682Y-14890246D02*
X9443158Y-14842627D01*
X9443158Y-14842627D02*
X9433634Y-14814055D01*
X9433634Y-14814055D02*
X9424111Y-14795008D01*
X9424111Y-14795008D02*
X9405063Y-14766436D01*
X9405063Y-14766436D02*
X9395539Y-14756912D01*
X9757444Y-15061674D02*
X9747920Y-15052150D01*
X9747920Y-15052150D02*
X9728873Y-15023579D01*
X9728873Y-15023579D02*
X9719349Y-15004531D01*
X9719349Y-15004531D02*
X9709825Y-14975960D01*
X9709825Y-14975960D02*
X9700301Y-14928341D01*
X9700301Y-14928341D02*
X9700301Y-14890246D01*
X9700301Y-14890246D02*
X9709825Y-14842627D01*
X9709825Y-14842627D02*
X9719349Y-14814055D01*
X9719349Y-14814055D02*
X9728873Y-14795008D01*
X9728873Y-14795008D02*
X9747920Y-14766436D01*
X9747920Y-14766436D02*
X9757444Y-14756912D01*
X9833634Y-14852150D02*
X9833634Y-14985484D01*
X9833634Y-14871198D02*
X9843158Y-14861674D01*
X9843158Y-14861674D02*
X9862206Y-14852150D01*
X9862206Y-14852150D02*
X9890777Y-14852150D01*
X9890777Y-14852150D02*
X9909825Y-14861674D01*
X9909825Y-14861674D02*
X9919349Y-14880722D01*
X9919349Y-14880722D02*
X9919349Y-14985484D01*
X10043158Y-14985484D02*
X10024111Y-14975960D01*
X10024111Y-14975960D02*
X10014587Y-14966436D01*
X10014587Y-14966436D02*
X10005063Y-14947388D01*
X10005063Y-14947388D02*
X10005063Y-14890246D01*
X10005063Y-14890246D02*
X10014587Y-14871198D01*
X10014587Y-14871198D02*
X10024111Y-14861674D01*
X10024111Y-14861674D02*
X10043158Y-14852150D01*
X10043158Y-14852150D02*
X10071730Y-14852150D01*
X10071730Y-14852150D02*
X10090777Y-14861674D01*
X10090777Y-14861674D02*
X10100301Y-14871198D01*
X10100301Y-14871198D02*
X10109825Y-14890246D01*
X10109825Y-14890246D02*
X10109825Y-14947388D01*
X10109825Y-14947388D02*
X10100301Y-14966436D01*
X10100301Y-14966436D02*
X10090777Y-14975960D01*
X10090777Y-14975960D02*
X10071730Y-14985484D01*
X10071730Y-14985484D02*
X10043158Y-14985484D01*
X10166968Y-14852150D02*
X10243158Y-14852150D01*
X10195539Y-14785484D02*
X10195539Y-14956912D01*
X10195539Y-14956912D02*
X10205063Y-14975960D01*
X10205063Y-14975960D02*
X10224111Y-14985484D01*
X10224111Y-14985484D02*
X10243158Y-14985484D01*
X10462206Y-14852150D02*
X10462206Y-15052150D01*
X10462206Y-14861674D02*
X10481254Y-14852150D01*
X10481254Y-14852150D02*
X10519349Y-14852150D01*
X10519349Y-14852150D02*
X10538396Y-14861674D01*
X10538396Y-14861674D02*
X10547920Y-14871198D01*
X10547920Y-14871198D02*
X10557444Y-14890246D01*
X10557444Y-14890246D02*
X10557444Y-14947388D01*
X10557444Y-14947388D02*
X10547920Y-14966436D01*
X10547920Y-14966436D02*
X10538396Y-14975960D01*
X10538396Y-14975960D02*
X10519349Y-14985484D01*
X10519349Y-14985484D02*
X10481254Y-14985484D01*
X10481254Y-14985484D02*
X10462206Y-14975960D01*
X10671730Y-14985484D02*
X10652682Y-14975960D01*
X10652682Y-14975960D02*
X10643158Y-14956912D01*
X10643158Y-14956912D02*
X10643158Y-14785484D01*
X10833635Y-14985484D02*
X10833635Y-14880722D01*
X10833635Y-14880722D02*
X10824111Y-14861674D01*
X10824111Y-14861674D02*
X10805063Y-14852150D01*
X10805063Y-14852150D02*
X10766968Y-14852150D01*
X10766968Y-14852150D02*
X10747920Y-14861674D01*
X10833635Y-14975960D02*
X10814587Y-14985484D01*
X10814587Y-14985484D02*
X10766968Y-14985484D01*
X10766968Y-14985484D02*
X10747920Y-14975960D01*
X10747920Y-14975960D02*
X10738396Y-14956912D01*
X10738396Y-14956912D02*
X10738396Y-14937865D01*
X10738396Y-14937865D02*
X10747920Y-14918817D01*
X10747920Y-14918817D02*
X10766968Y-14909293D01*
X10766968Y-14909293D02*
X10814587Y-14909293D01*
X10814587Y-14909293D02*
X10833635Y-14899769D01*
X10900301Y-14852150D02*
X10976492Y-14852150D01*
X10928873Y-14785484D02*
X10928873Y-14956912D01*
X10928873Y-14956912D02*
X10938396Y-14975960D01*
X10938396Y-14975960D02*
X10957444Y-14985484D01*
X10957444Y-14985484D02*
X10976492Y-14985484D01*
X11119349Y-14975960D02*
X11100301Y-14985484D01*
X11100301Y-14985484D02*
X11062206Y-14985484D01*
X11062206Y-14985484D02*
X11043158Y-14975960D01*
X11043158Y-14975960D02*
X11033635Y-14956912D01*
X11033635Y-14956912D02*
X11033635Y-14880722D01*
X11033635Y-14880722D02*
X11043158Y-14861674D01*
X11043158Y-14861674D02*
X11062206Y-14852150D01*
X11062206Y-14852150D02*
X11100301Y-14852150D01*
X11100301Y-14852150D02*
X11119349Y-14861674D01*
X11119349Y-14861674D02*
X11128873Y-14880722D01*
X11128873Y-14880722D02*
X11128873Y-14899769D01*
X11128873Y-14899769D02*
X11033635Y-14918817D01*
X11300301Y-14985484D02*
X11300301Y-14785484D01*
X11300301Y-14975960D02*
X11281254Y-14985484D01*
X11281254Y-14985484D02*
X11243158Y-14985484D01*
X11243158Y-14985484D02*
X11224111Y-14975960D01*
X11224111Y-14975960D02*
X11214587Y-14966436D01*
X11214587Y-14966436D02*
X11205063Y-14947388D01*
X11205063Y-14947388D02*
X11205063Y-14890246D01*
X11205063Y-14890246D02*
X11214587Y-14871198D01*
X11214587Y-14871198D02*
X11224111Y-14861674D01*
X11224111Y-14861674D02*
X11243158Y-14852150D01*
X11243158Y-14852150D02*
X11281254Y-14852150D01*
X11281254Y-14852150D02*
X11300301Y-14861674D01*
X11376492Y-15061674D02*
X11386015Y-15052150D01*
X11386015Y-15052150D02*
X11405063Y-15023579D01*
X11405063Y-15023579D02*
X11414587Y-15004531D01*
X11414587Y-15004531D02*
X11424111Y-14975960D01*
X11424111Y-14975960D02*
X11433634Y-14928341D01*
X11433634Y-14928341D02*
X11433634Y-14890246D01*
X11433634Y-14890246D02*
X11424111Y-14842627D01*
X11424111Y-14842627D02*
X11414587Y-14814055D01*
X11414587Y-14814055D02*
X11405063Y-14795008D01*
X11405063Y-14795008D02*
X11386015Y-14766436D01*
X11386015Y-14766436D02*
X11376492Y-14756912D01*
M02*
