G04 #@! TF.GenerationSoftware,KiCad,Pcbnew,9.0.2*
G04 #@! TF.CreationDate,2025-08-23T18:52:09+02:00*
G04 #@! TF.ProjectId,Pico2Breakout,5069636f-3242-4726-9561-6b6f75742e6b,rev?*
G04 #@! TF.SameCoordinates,Original*
G04 #@! TF.FileFunction,Copper,L1,Top*
G04 #@! TF.FilePolarity,Positive*
%FSLAX46Y46*%
G04 Gerber Fmt 4.6, Leading zero omitted, Abs format (unit mm)*
G04 Created by KiCad (PCBNEW 9.0.2) date 2025-08-23 18:52:09*
%MOMM*%
%LPD*%
G01*
G04 APERTURE LIST*
G04 Aperture macros list*
%AMRoundRect*
0 Rectangle with rounded corners*
0 $1 Rounding radius*
0 $2 $3 $4 $5 $6 $7 $8 $9 X,Y pos of 4 corners*
0 Add a 4 corners polygon primitive as box body*
4,1,4,$2,$3,$4,$5,$6,$7,$8,$9,$2,$3,0*
0 Add four circle primitives for the rounded corners*
1,1,$1+$1,$2,$3*
1,1,$1+$1,$4,$5*
1,1,$1+$1,$6,$7*
1,1,$1+$1,$8,$9*
0 Add four rect primitives between the rounded corners*
20,1,$1+$1,$2,$3,$4,$5,0*
20,1,$1+$1,$4,$5,$6,$7,0*
20,1,$1+$1,$6,$7,$8,$9,0*
20,1,$1+$1,$8,$9,$2,$3,0*%
%AMFreePoly0*
4,1,37,0.603843,0.796157,0.639018,0.796157,0.711114,0.766294,0.766294,0.711114,0.796157,0.639018,0.796157,0.603843,0.800000,0.600000,0.800000,-0.600000,0.796157,-0.603843,0.796157,-0.639018,0.766294,-0.711114,0.711114,-0.766294,0.639018,-0.796157,0.603843,-0.796157,0.600000,-0.800000,0.000000,-0.800000,0.000000,-0.796148,-0.078414,-0.796148,-0.232228,-0.765552,-0.377117,-0.705537,
-0.507515,-0.618408,-0.618408,-0.507515,-0.705537,-0.377117,-0.765552,-0.232228,-0.796148,-0.078414,-0.796148,0.078414,-0.765552,0.232228,-0.705537,0.377117,-0.618408,0.507515,-0.507515,0.618408,-0.377117,0.705537,-0.232228,0.765552,-0.078414,0.796148,0.000000,0.796148,0.000000,0.800000,0.600000,0.800000,0.603843,0.796157,0.603843,0.796157,$1*%
%AMFreePoly1*
4,1,37,0.000000,0.796148,0.078414,0.796148,0.232228,0.765552,0.377117,0.705537,0.507515,0.618408,0.618408,0.507515,0.705537,0.377117,0.765552,0.232228,0.796148,0.078414,0.796148,-0.078414,0.765552,-0.232228,0.705537,-0.377117,0.618408,-0.507515,0.507515,-0.618408,0.377117,-0.705537,0.232228,-0.765552,0.078414,-0.796148,0.000000,-0.796148,0.000000,-0.800000,-0.600000,-0.800000,
-0.603843,-0.796157,-0.639018,-0.796157,-0.711114,-0.766294,-0.766294,-0.711114,-0.796157,-0.639018,-0.796157,-0.603843,-0.800000,-0.600000,-0.800000,0.600000,-0.796157,0.603843,-0.796157,0.639018,-0.766294,0.711114,-0.711114,0.766294,-0.639018,0.796157,-0.603843,0.796157,-0.600000,0.800000,0.000000,0.800000,0.000000,0.796148,0.000000,0.796148,$1*%
G04 Aperture macros list end*
G04 #@! TA.AperFunction,Conductor*
%ADD10C,0.200000*%
G04 #@! TD*
G04 #@! TA.AperFunction,SMDPad,CuDef*
%ADD11RoundRect,0.200000X-0.275000X0.200000X-0.275000X-0.200000X0.275000X-0.200000X0.275000X0.200000X0*%
G04 #@! TD*
G04 #@! TA.AperFunction,SMDPad,CuDef*
%ADD12R,1.168400X0.533400*%
G04 #@! TD*
G04 #@! TA.AperFunction,SMDPad,CuDef*
%ADD13R,1.397000X1.473200*%
G04 #@! TD*
G04 #@! TA.AperFunction,SMDPad,CuDef*
%ADD14R,3.759200X5.511800*%
G04 #@! TD*
G04 #@! TA.AperFunction,SMDPad,CuDef*
%ADD15RoundRect,0.250000X0.475000X-0.250000X0.475000X0.250000X-0.475000X0.250000X-0.475000X-0.250000X0*%
G04 #@! TD*
G04 #@! TA.AperFunction,SMDPad,CuDef*
%ADD16R,0.558800X1.460500*%
G04 #@! TD*
G04 #@! TA.AperFunction,SMDPad,CuDef*
%ADD17R,3.098800X2.387600*%
G04 #@! TD*
G04 #@! TA.AperFunction,SMDPad,CuDef*
%ADD18RoundRect,0.250000X-0.450000X0.262500X-0.450000X-0.262500X0.450000X-0.262500X0.450000X0.262500X0*%
G04 #@! TD*
G04 #@! TA.AperFunction,SMDPad,CuDef*
%ADD19R,1.200000X0.800000*%
G04 #@! TD*
G04 #@! TA.AperFunction,SMDPad,CuDef*
%ADD20RoundRect,0.200000X0.275000X-0.200000X0.275000X0.200000X-0.275000X0.200000X-0.275000X-0.200000X0*%
G04 #@! TD*
G04 #@! TA.AperFunction,SMDPad,CuDef*
%ADD21RoundRect,0.237500X0.237500X-0.287500X0.237500X0.287500X-0.237500X0.287500X-0.237500X-0.287500X0*%
G04 #@! TD*
G04 #@! TA.AperFunction,SMDPad,CuDef*
%ADD22RoundRect,0.225000X0.225000X0.250000X-0.225000X0.250000X-0.225000X-0.250000X0.225000X-0.250000X0*%
G04 #@! TD*
G04 #@! TA.AperFunction,ComponentPad*
%ADD23R,1.700000X1.700000*%
G04 #@! TD*
G04 #@! TA.AperFunction,ComponentPad*
%ADD24C,1.700000*%
G04 #@! TD*
G04 #@! TA.AperFunction,ComponentPad*
%ADD25RoundRect,0.650000X0.650000X0.650000X-0.650000X0.650000X-0.650000X-0.650000X0.650000X-0.650000X0*%
G04 #@! TD*
G04 #@! TA.AperFunction,ComponentPad*
%ADD26C,2.600000*%
G04 #@! TD*
G04 #@! TA.AperFunction,SMDPad,CuDef*
%ADD27RoundRect,0.225000X-0.225000X-0.250000X0.225000X-0.250000X0.225000X0.250000X-0.225000X0.250000X0*%
G04 #@! TD*
G04 #@! TA.AperFunction,SMDPad,CuDef*
%ADD28RoundRect,0.243750X-0.243750X-0.456250X0.243750X-0.456250X0.243750X0.456250X-0.243750X0.456250X0*%
G04 #@! TD*
G04 #@! TA.AperFunction,SMDPad,CuDef*
%ADD29RoundRect,0.125000X-0.125000X-0.125000X0.125000X-0.125000X0.125000X0.125000X-0.125000X0.125000X0*%
G04 #@! TD*
G04 #@! TA.AperFunction,SMDPad,CuDef*
%ADD30R,0.812800X1.193800*%
G04 #@! TD*
G04 #@! TA.AperFunction,SMDPad,CuDef*
%ADD31RoundRect,0.225000X-0.250000X0.225000X-0.250000X-0.225000X0.250000X-0.225000X0.250000X0.225000X0*%
G04 #@! TD*
G04 #@! TA.AperFunction,ComponentPad*
%ADD32RoundRect,0.250000X-1.000000X-1.000000X1.000000X-1.000000X1.000000X1.000000X-1.000000X1.000000X0*%
G04 #@! TD*
G04 #@! TA.AperFunction,ComponentPad*
%ADD33C,2.500000*%
G04 #@! TD*
G04 #@! TA.AperFunction,SMDPad,CuDef*
%ADD34RoundRect,0.200000X-0.200000X-0.275000X0.200000X-0.275000X0.200000X0.275000X-0.200000X0.275000X0*%
G04 #@! TD*
G04 #@! TA.AperFunction,ComponentPad*
%ADD35C,1.574800*%
G04 #@! TD*
G04 #@! TA.AperFunction,ComponentPad*
%ADD36RoundRect,0.250000X-1.000000X1.000000X-1.000000X-1.000000X1.000000X-1.000000X1.000000X1.000000X0*%
G04 #@! TD*
G04 #@! TA.AperFunction,SMDPad,CuDef*
%ADD37RoundRect,0.225000X0.250000X-0.225000X0.250000X0.225000X-0.250000X0.225000X-0.250000X-0.225000X0*%
G04 #@! TD*
G04 #@! TA.AperFunction,SMDPad,CuDef*
%ADD38RoundRect,0.250000X0.375000X1.075000X-0.375000X1.075000X-0.375000X-1.075000X0.375000X-1.075000X0*%
G04 #@! TD*
G04 #@! TA.AperFunction,SMDPad,CuDef*
%ADD39R,0.650001X2.100001*%
G04 #@! TD*
G04 #@! TA.AperFunction,SMDPad,CuDef*
%ADD40RoundRect,0.250000X0.262500X0.450000X-0.262500X0.450000X-0.262500X-0.450000X0.262500X-0.450000X0*%
G04 #@! TD*
G04 #@! TA.AperFunction,SMDPad,CuDef*
%ADD41R,2.997200X1.168400*%
G04 #@! TD*
G04 #@! TA.AperFunction,SMDPad,CuDef*
%ADD42RoundRect,0.250000X-0.475000X0.250000X-0.475000X-0.250000X0.475000X-0.250000X0.475000X0.250000X0*%
G04 #@! TD*
G04 #@! TA.AperFunction,SMDPad,CuDef*
%ADD43RoundRect,0.200000X0.200000X0.275000X-0.200000X0.275000X-0.200000X-0.275000X0.200000X-0.275000X0*%
G04 #@! TD*
G04 #@! TA.AperFunction,SMDPad,CuDef*
%ADD44RoundRect,0.250000X-0.250000X-0.475000X0.250000X-0.475000X0.250000X0.475000X-0.250000X0.475000X0*%
G04 #@! TD*
G04 #@! TA.AperFunction,SMDPad,CuDef*
%ADD45RoundRect,0.150000X-0.150000X0.825000X-0.150000X-0.825000X0.150000X-0.825000X0.150000X0.825000X0*%
G04 #@! TD*
G04 #@! TA.AperFunction,SMDPad,CuDef*
%ADD46RoundRect,0.250000X0.250000X0.475000X-0.250000X0.475000X-0.250000X-0.475000X0.250000X-0.475000X0*%
G04 #@! TD*
G04 #@! TA.AperFunction,ComponentPad*
%ADD47RoundRect,0.250000X-0.350000X-0.625000X0.350000X-0.625000X0.350000X0.625000X-0.350000X0.625000X0*%
G04 #@! TD*
G04 #@! TA.AperFunction,ComponentPad*
%ADD48O,1.200000X1.750000*%
G04 #@! TD*
G04 #@! TA.AperFunction,SMDPad,CuDef*
%ADD49R,0.533400X1.460500*%
G04 #@! TD*
G04 #@! TA.AperFunction,SMDPad,CuDef*
%ADD50R,1.200000X1.200000*%
G04 #@! TD*
G04 #@! TA.AperFunction,SMDPad,CuDef*
%ADD51RoundRect,0.250000X-0.262500X-0.450000X0.262500X-0.450000X0.262500X0.450000X-0.262500X0.450000X0*%
G04 #@! TD*
G04 #@! TA.AperFunction,SMDPad,CuDef*
%ADD52R,5.207000X2.413000*%
G04 #@! TD*
G04 #@! TA.AperFunction,SMDPad,CuDef*
%ADD53RoundRect,0.218750X0.381250X-0.218750X0.381250X0.218750X-0.381250X0.218750X-0.381250X-0.218750X0*%
G04 #@! TD*
G04 #@! TA.AperFunction,ComponentPad*
%ADD54RoundRect,0.250000X-0.625000X0.350000X-0.625000X-0.350000X0.625000X-0.350000X0.625000X0.350000X0*%
G04 #@! TD*
G04 #@! TA.AperFunction,ComponentPad*
%ADD55O,1.750000X1.200000*%
G04 #@! TD*
G04 #@! TA.AperFunction,SMDPad,CuDef*
%ADD56RoundRect,0.250000X0.900000X-1.000000X0.900000X1.000000X-0.900000X1.000000X-0.900000X-1.000000X0*%
G04 #@! TD*
G04 #@! TA.AperFunction,SMDPad,CuDef*
%ADD57RoundRect,0.243750X-0.456250X0.243750X-0.456250X-0.243750X0.456250X-0.243750X0.456250X0.243750X0*%
G04 #@! TD*
G04 #@! TA.AperFunction,SMDPad,CuDef*
%ADD58R,1.117600X0.457200*%
G04 #@! TD*
G04 #@! TA.AperFunction,ComponentPad*
%ADD59RoundRect,0.200000X0.600000X0.600000X-0.600000X0.600000X-0.600000X-0.600000X0.600000X-0.600000X0*%
G04 #@! TD*
G04 #@! TA.AperFunction,ComponentPad*
%ADD60C,1.600000*%
G04 #@! TD*
G04 #@! TA.AperFunction,ComponentPad*
%ADD61FreePoly0,180.000000*%
G04 #@! TD*
G04 #@! TA.AperFunction,ComponentPad*
%ADD62FreePoly1,180.000000*%
G04 #@! TD*
G04 #@! TA.AperFunction,ViaPad*
%ADD63C,0.600000*%
G04 #@! TD*
G04 #@! TA.AperFunction,ViaPad*
%ADD64C,5.400000*%
G04 #@! TD*
G04 #@! TA.AperFunction,ViaPad*
%ADD65C,1.500000*%
G04 #@! TD*
G04 #@! TA.AperFunction,Conductor*
%ADD66C,0.500000*%
G04 #@! TD*
G04 #@! TA.AperFunction,Conductor*
%ADD67C,0.250000*%
G04 #@! TD*
G04 #@! TA.AperFunction,Conductor*
%ADD68C,0.600000*%
G04 #@! TD*
G04 #@! TA.AperFunction,Conductor*
%ADD69C,1.000000*%
G04 #@! TD*
G04 #@! TA.AperFunction,Conductor*
%ADD70C,0.400000*%
G04 #@! TD*
G04 #@! TA.AperFunction,Conductor*
%ADD71C,2.000000*%
G04 #@! TD*
G04 APERTURE END LIST*
D10*
G04 #@! TO.N,+5V*
X64825000Y-61387500D02*
X64800000Y-67162500D01*
X63900000Y-67162500D01*
X59400000Y-64737500D01*
X54200000Y-64737500D01*
X54200000Y-62312500D01*
X58400000Y-62272500D01*
X58400000Y-56537500D01*
X61922800Y-56537500D01*
X64825000Y-61387500D01*
G04 #@! TA.AperFunction,Conductor*
G36*
X64825000Y-61387500D02*
G01*
X64800000Y-67162500D01*
X63900000Y-67162500D01*
X59400000Y-64737500D01*
X54200000Y-64737500D01*
X54200000Y-62312500D01*
X58400000Y-62272500D01*
X58400000Y-56537500D01*
X61922800Y-56537500D01*
X64825000Y-61387500D01*
G37*
G04 #@! TD.AperFunction*
G04 #@! TO.N,Net-(U2-SW)*
X63349400Y-115660000D02*
X61999400Y-117710000D01*
X59899400Y-121010000D01*
X56149400Y-120960000D01*
X56149400Y-115610000D01*
X52999400Y-114860000D01*
X52999400Y-112460000D01*
X61999400Y-112410000D01*
X63399400Y-112410000D01*
X63349400Y-115660000D01*
G04 #@! TA.AperFunction,Conductor*
G36*
X63349400Y-115660000D02*
G01*
X61999400Y-117710000D01*
X59899400Y-121010000D01*
X56149400Y-120960000D01*
X56149400Y-115610000D01*
X52999400Y-114860000D01*
X52999400Y-112460000D01*
X61999400Y-112410000D01*
X63399400Y-112410000D01*
X63349400Y-115660000D01*
G37*
G04 #@! TD.AperFunction*
G04 #@! TO.N,GND*
X67750000Y-77450000D02*
X65950000Y-77450000D01*
X65075000Y-78137500D01*
X64700000Y-79850000D01*
X62124383Y-83350000D01*
X61300000Y-83350000D01*
X57800000Y-83350000D01*
X57800000Y-81412500D01*
X61700000Y-81400000D01*
X62875000Y-79037500D01*
X63900000Y-76912500D01*
X64850000Y-75300000D01*
X67750000Y-75300000D01*
X67750000Y-77450000D01*
G04 #@! TA.AperFunction,Conductor*
G36*
X67750000Y-77450000D02*
G01*
X65950000Y-77450000D01*
X65075000Y-78137500D01*
X64700000Y-79850000D01*
X62124383Y-83350000D01*
X61300000Y-83350000D01*
X57800000Y-83350000D01*
X57800000Y-81412500D01*
X61700000Y-81400000D01*
X62875000Y-79037500D01*
X63900000Y-76912500D01*
X64850000Y-75300000D01*
X67750000Y-75300000D01*
X67750000Y-77450000D01*
G37*
G04 #@! TD.AperFunction*
G04 #@! TO.N,+12V*
X60082200Y-97825000D02*
X63499400Y-103410000D01*
X63499400Y-108610000D01*
X62658426Y-108610000D01*
X58299400Y-104910000D01*
X52999400Y-104860000D01*
X52958426Y-102260000D01*
X57049400Y-102260000D01*
X57099400Y-97810000D01*
X60082200Y-97825000D01*
G04 #@! TA.AperFunction,Conductor*
G36*
X60082200Y-97825000D02*
G01*
X63499400Y-103410000D01*
X63499400Y-108610000D01*
X62658426Y-108610000D01*
X58299400Y-104910000D01*
X52999400Y-104860000D01*
X52958426Y-102260000D01*
X57049400Y-102260000D01*
X57099400Y-97810000D01*
X60082200Y-97825000D01*
G37*
G04 #@! TD.AperFunction*
G04 #@! TO.N,GND*
X67740000Y-57762500D02*
X67520000Y-58232500D01*
X67510000Y-60402500D01*
X66740000Y-61722500D01*
X66740000Y-63132500D01*
X65760000Y-63132500D01*
X65740000Y-61672500D01*
X64640600Y-57807500D01*
X64640600Y-56537500D01*
X67720000Y-56512500D01*
X67740000Y-57762500D01*
G04 #@! TA.AperFunction,Conductor*
G36*
X67740000Y-57762500D02*
G01*
X67520000Y-58232500D01*
X67510000Y-60402500D01*
X66740000Y-61722500D01*
X66740000Y-63132500D01*
X65760000Y-63132500D01*
X65740000Y-61672500D01*
X64640600Y-57807500D01*
X64640600Y-56537500D01*
X67720000Y-56512500D01*
X67740000Y-57762500D01*
G37*
G04 #@! TD.AperFunction*
X65939400Y-101600000D02*
X65489400Y-103310000D01*
X65479400Y-104690000D01*
X64519400Y-104700000D01*
X64489400Y-103250000D01*
X62800000Y-99095000D01*
X62800000Y-97825000D01*
X65939400Y-97800000D01*
X65939400Y-101600000D01*
G04 #@! TA.AperFunction,Conductor*
G36*
X65939400Y-101600000D02*
G01*
X65489400Y-103310000D01*
X65479400Y-104690000D01*
X64519400Y-104700000D01*
X64489400Y-103250000D01*
X62800000Y-99095000D01*
X62800000Y-97825000D01*
X65939400Y-97800000D01*
X65939400Y-101600000D01*
G37*
G04 #@! TD.AperFunction*
G04 #@! TO.N,Net-(U1-SW)*
X64750000Y-74362500D02*
X61882947Y-79800016D01*
X61350000Y-80987500D01*
X57650000Y-80987500D01*
X57675000Y-75587500D01*
X54200000Y-74812500D01*
X54200000Y-72412500D01*
X59450000Y-71362500D01*
X64700000Y-71362500D01*
X64750000Y-74362500D01*
G04 #@! TA.AperFunction,Conductor*
G36*
X64750000Y-74362500D02*
G01*
X61882947Y-79800016D01*
X61350000Y-80987500D01*
X57650000Y-80987500D01*
X57675000Y-75587500D01*
X54200000Y-74812500D01*
X54200000Y-72412500D01*
X59450000Y-71362500D01*
X64700000Y-71362500D01*
X64750000Y-74362500D01*
G37*
G04 #@! TD.AperFunction*
G04 #@! TO.N,GND*
X66424400Y-118835000D02*
X64649400Y-118835000D01*
X63299400Y-119460000D01*
X63299400Y-121060000D01*
X61400000Y-122450000D01*
X60000000Y-123450000D01*
X56300000Y-123450000D01*
X56299400Y-121510000D01*
X60199400Y-121510000D01*
X61049400Y-120010000D01*
X62299400Y-118110000D01*
X63324400Y-116460000D01*
X66424400Y-116460000D01*
X66424400Y-118835000D01*
G04 #@! TA.AperFunction,Conductor*
G36*
X66424400Y-118835000D02*
G01*
X64649400Y-118835000D01*
X63299400Y-119460000D01*
X63299400Y-121060000D01*
X61400000Y-122450000D01*
X60000000Y-123450000D01*
X56300000Y-123450000D01*
X56299400Y-121510000D01*
X60199400Y-121510000D01*
X61049400Y-120010000D01*
X62299400Y-118110000D01*
X63324400Y-116460000D01*
X66424400Y-116460000D01*
X66424400Y-118835000D01*
G37*
G04 #@! TD.AperFunction*
G04 #@! TD*
D11*
G04 #@! TO.P,R4,1*
G04 #@! TO.N,+5V*
X65840000Y-68227500D03*
G04 #@! TO.P,R4,2*
G04 #@! TO.N,Net-(U1-FB)*
X65840000Y-69877500D03*
G04 #@! TD*
D12*
G04 #@! TO.P,CR10,1,CATHODE*
G04 #@! TO.N,/Z_axis/Y_step_P*
X174713190Y-92351000D03*
G04 #@! TO.P,CR10,2,CATHODE*
G04 #@! TO.N,/Z_axis/Y_step_N*
X174713190Y-90450998D03*
G04 #@! TO.P,CR10,3,COMMONCATHODE*
G04 #@! TO.N,GND*
X172681190Y-91400999D03*
G04 #@! TD*
D13*
G04 #@! TO.P,CR2,1,1*
G04 #@! TO.N,GND*
X59116200Y-122097000D03*
G04 #@! TO.P,CR2,2,2*
X56982600Y-122097000D03*
D14*
G04 #@! TO.P,CR2,3,3*
G04 #@! TO.N,Net-(U2-SW)*
X58049400Y-118375900D03*
G04 #@! TD*
D15*
G04 #@! TO.P,C40,1*
G04 #@! TO.N,Net-(J12-Pin_2)*
X100960000Y-136240000D03*
G04 #@! TO.P,C40,2*
G04 #@! TO.N,Net-(J12-Pin_6)*
X100960000Y-134340000D03*
G04 #@! TD*
D16*
G04 #@! TO.P,U1,1,GND*
G04 #@! TO.N,GND*
X64395000Y-79086650D03*
G04 #@! TO.P,U1,2,VIN*
G04 #@! TO.N,Net-(U1-EN{slash}UVLO)*
X65665000Y-79086650D03*
G04 #@! TO.P,U1,3,EN/UVLO*
X66935000Y-79086650D03*
G04 #@! TO.P,U1,4,RON*
G04 #@! TO.N,Net-(U1-RON)*
X68205000Y-79086650D03*
G04 #@! TO.P,U1,5,FB*
G04 #@! TO.N,Net-(U1-FB)*
X68205000Y-73638350D03*
G04 #@! TO.P,U1,6,PGOOD*
G04 #@! TO.N,Net-(U1-PGOOD)*
X66935000Y-73638350D03*
G04 #@! TO.P,U1,7,BST*
G04 #@! TO.N,Net-(U1-BST)*
X65665000Y-73638350D03*
G04 #@! TO.P,U1,8,SW*
G04 #@! TO.N,Net-(U1-SW)*
X64395000Y-73638350D03*
D17*
G04 #@! TO.P,U1,EPAD,EPAD*
G04 #@! TO.N,GND*
X66300000Y-76362500D03*
G04 #@! TD*
D18*
G04 #@! TO.P,R44,1*
G04 #@! TO.N,output_c*
X99700000Y-112875000D03*
G04 #@! TO.P,R44,2*
G04 #@! TO.N,Net-(K3-Pad1)*
X99700000Y-114700000D03*
G04 #@! TD*
D19*
G04 #@! TO.P,K3,1,1*
G04 #@! TO.N,Net-(K3-Pad1)*
X95600000Y-113400000D03*
G04 #@! TO.P,K3,2,2*
G04 #@! TO.N,GND2*
X95600000Y-110860000D03*
G04 #@! TO.P,K3,3,3*
G04 #@! TO.N,Net-(D12-A1)*
X89450000Y-110860000D03*
G04 #@! TO.P,K3,4,4*
G04 #@! TO.N,Net-(D12-A2)*
X89450000Y-113400000D03*
G04 #@! TD*
D20*
G04 #@! TO.P,R3,1*
G04 #@! TO.N,GND*
X70140000Y-76777500D03*
G04 #@! TO.P,R3,2*
G04 #@! TO.N,Net-(U1-PGOOD)*
X70140000Y-75127500D03*
G04 #@! TD*
D21*
G04 #@! TO.P,FB4,1*
G04 #@! TO.N,Net-(U5-EN2)*
X145800000Y-102325000D03*
G04 #@! TO.P,FB4,2*
G04 #@! TO.N,+5V*
X145800000Y-100575000D03*
G04 #@! TD*
D12*
G04 #@! TO.P,CR16,1,CATHODE*
G04 #@! TO.N,/B_axis/Y_step_P*
X174600000Y-56000000D03*
G04 #@! TO.P,CR16,2,CATHODE*
G04 #@! TO.N,/B_axis/Y_step_N*
X174600000Y-54099998D03*
G04 #@! TO.P,CR16,3,COMMONCATHODE*
G04 #@! TO.N,GND*
X172568000Y-55049999D03*
G04 #@! TD*
D22*
G04 #@! TO.P,C36,1*
G04 #@! TO.N,GND*
X149596500Y-47473703D03*
G04 #@! TO.P,C36,2*
G04 #@! TO.N,Net-(U11-EN2)*
X148046500Y-47473703D03*
G04 #@! TD*
D23*
G04 #@! TO.P,J17,1,Pin_1*
G04 #@! TO.N,/PWM_outputs/power_A*
X130425000Y-57250000D03*
D24*
G04 #@! TO.P,J17,2,Pin_2*
G04 #@! TO.N,+12V*
X127885000Y-57250000D03*
G04 #@! TO.P,J17,3,Pin_3*
G04 #@! TO.N,/PWM_outputs/power_A*
X130425000Y-54710000D03*
G04 #@! TO.P,J17,4,Pin_4*
G04 #@! TO.N,+5V*
X127885000Y-54710000D03*
G04 #@! TD*
D23*
G04 #@! TO.P,J13,1,Pin_1*
G04 #@! TO.N,/PWM_outputs/power_C*
X100150000Y-57343400D03*
D24*
G04 #@! TO.P,J13,2,Pin_2*
G04 #@! TO.N,+12V*
X97610000Y-57343400D03*
G04 #@! TO.P,J13,3,Pin_3*
G04 #@! TO.N,/PWM_outputs/power_C*
X100150000Y-54803400D03*
G04 #@! TO.P,J13,4,Pin_4*
G04 #@! TO.N,+5V*
X97610000Y-54803400D03*
G04 #@! TD*
D25*
G04 #@! TO.P,JP5,1,A*
G04 #@! TO.N,+5V*
X171340000Y-47326297D03*
D26*
G04 #@! TO.P,JP5,2,B*
G04 #@! TO.N,Net-(JP5-B)*
X166260000Y-47326297D03*
G04 #@! TD*
D27*
G04 #@! TO.P,C26,1*
G04 #@! TO.N,GND*
X168049999Y-115100001D03*
G04 #@! TO.P,C26,2*
G04 #@! TO.N,Net-(U5-EN2)*
X169599999Y-115100001D03*
G04 #@! TD*
D28*
G04 #@! TO.P,D9,1,K*
G04 #@! TO.N,GND2*
X97325000Y-96087500D03*
G04 #@! TO.P,D9,2,A*
G04 #@! TO.N,Net-(D9-A)*
X99200000Y-96087500D03*
G04 #@! TD*
D29*
G04 #@! TO.P,D16,1,K*
G04 #@! TO.N,GND*
X108100000Y-67700000D03*
G04 #@! TO.P,D16,2,A*
G04 #@! TO.N,Net-(D16-A)*
X110300000Y-67700000D03*
G04 #@! TD*
D25*
G04 #@! TO.P,JP1,1,A*
G04 #@! TO.N,+5V*
X170200001Y-120049999D03*
D26*
G04 #@! TO.P,JP1,2,B*
G04 #@! TO.N,Net-(JP1-B)*
X165120001Y-120049999D03*
G04 #@! TD*
D30*
G04 #@! TO.P,U19,1,1*
G04 #@! TO.N,Net-(D17-A)*
X107000000Y-69700002D03*
G04 #@! TO.P,U19,2,2*
G04 #@! TO.N,GND*
X105730000Y-69700002D03*
G04 #@! TO.P,U19,3,3*
G04 #@! TO.N,Net-(D18-A)*
X104460000Y-69700002D03*
G04 #@! TO.P,U19,4,4*
G04 #@! TO.N,GND*
X103190000Y-69700002D03*
G04 #@! TO.P,U19,5,5*
X101920000Y-69700002D03*
G04 #@! TO.P,U19,6,6*
X100650000Y-69700002D03*
G04 #@! TO.P,U19,7,7*
G04 #@! TO.N,Net-(D19-A)*
X99380000Y-69700002D03*
G04 #@! TO.P,U19,8,8*
G04 #@! TO.N,GND*
X98110000Y-69700002D03*
G04 #@! TO.P,U19,9,9*
G04 #@! TO.N,GND2*
X98110000Y-76000000D03*
G04 #@! TO.P,U19,10,10*
G04 #@! TO.N,estop_all*
X99380000Y-76000000D03*
G04 #@! TO.P,U19,11,11*
G04 #@! TO.N,unconnected-(U19-Pad11)*
X100650000Y-76000000D03*
G04 #@! TO.P,U19,12,12*
G04 #@! TO.N,unconnected-(U19-Pad12)*
X101920000Y-76000000D03*
G04 #@! TO.P,U19,13,13*
G04 #@! TO.N,GND2*
X103190000Y-76000000D03*
G04 #@! TO.P,U19,14,14*
G04 #@! TO.N,c_input*
X104460000Y-76000000D03*
G04 #@! TO.P,U19,15,15*
G04 #@! TO.N,GND2*
X105730000Y-76000000D03*
G04 #@! TO.P,U19,16,16*
G04 #@! TO.N,b_home*
X107000000Y-76000000D03*
G04 #@! TD*
D18*
G04 #@! TO.P,R50,1*
G04 #@! TO.N,b_home*
X107000000Y-77787500D03*
G04 #@! TO.P,R50,2*
G04 #@! TO.N,+3V3*
X107000000Y-79612500D03*
G04 #@! TD*
D31*
G04 #@! TO.P,C46,1*
G04 #@! TO.N,GND*
X102950000Y-52376700D03*
G04 #@! TO.P,C46,2*
G04 #@! TO.N,/PWM_outputs/power_C*
X102950000Y-53926700D03*
G04 #@! TD*
D15*
G04 #@! TO.P,C62,1*
G04 #@! TO.N,estop_all*
X108300000Y-109600000D03*
G04 #@! TO.P,C62,2*
G04 #@! TO.N,GND2*
X108300000Y-107700000D03*
G04 #@! TD*
D21*
G04 #@! TO.P,FB7,1*
G04 #@! TO.N,Net-(U11-EN2)*
X145821500Y-47448703D03*
G04 #@! TO.P,FB7,2*
G04 #@! TO.N,+5V*
X145821500Y-45698703D03*
G04 #@! TD*
D32*
G04 #@! TO.P,J21,1,Pin_1*
G04 #@! TO.N,GND*
X69400000Y-134900000D03*
D33*
G04 #@! TO.P,J21,2,Pin_2*
G04 #@! TO.N,+12V*
X74400000Y-134900000D03*
G04 #@! TD*
D34*
G04 #@! TO.P,R11,1*
G04 #@! TO.N,Net-(U2-FB)*
X66314400Y-111400000D03*
G04 #@! TO.P,R11,2*
G04 #@! TO.N,GND*
X67964400Y-111400000D03*
G04 #@! TD*
D12*
G04 #@! TO.P,CR4,1,CATHODE*
G04 #@! TO.N,/X_axis/X_step_P*
X174781801Y-128199999D03*
G04 #@! TO.P,CR4,2,CATHODE*
G04 #@! TO.N,/X_axis/X_step_N*
X174781801Y-126299997D03*
G04 #@! TO.P,CR4,3,COMMONCATHODE*
G04 #@! TO.N,GND*
X172749801Y-127249998D03*
G04 #@! TD*
D35*
G04 #@! TO.P,J16,1,1*
G04 #@! TO.N,GND*
X122000000Y-47050000D03*
G04 #@! TO.P,J16,2,2*
G04 #@! TO.N,/PWM_outputs/signal_B*
X119000001Y-47050000D03*
G04 #@! TO.P,J16,3,3*
G04 #@! TO.N,/PWM_outputs/power_B*
X116000002Y-47050000D03*
G04 #@! TD*
D36*
G04 #@! TO.P,J19,1,Pin_1*
G04 #@! TO.N,GND*
X49200000Y-92150000D03*
D33*
G04 #@! TO.P,J19,2,Pin_2*
G04 #@! TO.N,+48V*
X49200000Y-97150000D03*
G04 #@! TD*
D31*
G04 #@! TO.P,C27,1*
G04 #@! TO.N,+3V3*
X145800000Y-96923702D03*
G04 #@! TO.P,C27,2*
G04 #@! TO.N,GND2*
X145800000Y-98473702D03*
G04 #@! TD*
D11*
G04 #@! TO.P,R33,1*
G04 #@! TO.N,GND2*
X135260000Y-80200000D03*
G04 #@! TO.P,R33,2*
G04 #@! TO.N,pwm_a*
X135260000Y-81850000D03*
G04 #@! TD*
D23*
G04 #@! TO.P,J12,1,Pin_1*
G04 #@! TO.N,GND2*
X106800000Y-137220000D03*
D24*
G04 #@! TO.P,J12,2,Pin_2*
G04 #@! TO.N,Net-(J12-Pin_2)*
X104260000Y-137220000D03*
G04 #@! TO.P,J12,3,Pin_3*
G04 #@! TO.N,GND2*
X106800000Y-134680000D03*
G04 #@! TO.P,J12,4,Pin_4*
G04 #@! TO.N,GND*
X104260000Y-134680000D03*
G04 #@! TO.P,J12,5,Pin_5*
G04 #@! TO.N,+5VA*
X106800000Y-132140000D03*
G04 #@! TO.P,J12,6,Pin_6*
G04 #@! TO.N,Net-(J12-Pin_6)*
X104260000Y-132140000D03*
G04 #@! TO.P,J12,7,Pin_7*
G04 #@! TO.N,+5VA*
X106800000Y-129600000D03*
G04 #@! TO.P,J12,8,Pin_8*
G04 #@! TO.N,+5V*
X104260000Y-129600000D03*
G04 #@! TD*
D37*
G04 #@! TO.P,C45,1*
G04 #@! TO.N,GND*
X102950000Y-56951700D03*
G04 #@! TO.P,C45,2*
G04 #@! TO.N,/PWM_outputs/power_C*
X102950000Y-55401700D03*
G04 #@! TD*
D27*
G04 #@! TO.P,C37,1*
G04 #@! TO.N,GND*
X167965000Y-59100000D03*
G04 #@! TO.P,C37,2*
G04 #@! TO.N,Net-(U11-EN2)*
X169515000Y-59100000D03*
G04 #@! TD*
D23*
G04 #@! TO.P,J9,1,Pin_1*
G04 #@! TO.N,GND2*
X143100000Y-76550000D03*
D24*
G04 #@! TO.P,J9,2,Pin_2*
G04 #@! TO.N,a_dir*
X143100000Y-74010000D03*
G04 #@! TO.P,J9,3,Pin_3*
G04 #@! TO.N,a_stp*
X143100000Y-71470000D03*
G04 #@! TO.P,J9,4,Pin_4*
G04 #@! TO.N,axis_enable*
X143100000Y-68930000D03*
G04 #@! TD*
D38*
G04 #@! TO.P,L3,1,1*
G04 #@! TO.N,Net-(U13-+VIN)*
X84360000Y-128660000D03*
G04 #@! TO.P,L3,2,2*
G04 #@! TO.N,+12V*
X81560000Y-128660000D03*
G04 #@! TD*
D39*
G04 #@! TO.P,U14,1,VCC1*
G04 #@! TO.N,+3V3*
X125760000Y-76600000D03*
G04 #@! TO.P,U14,2,GND1*
G04 #@! TO.N,GND2*
X127030000Y-76600000D03*
G04 #@! TO.P,U14,3,INA*
G04 #@! TO.N,Net-(U14-INA)*
X128300000Y-76600000D03*
G04 #@! TO.P,U14,4,INB*
G04 #@! TO.N,Net-(U14-INB)*
X129570000Y-76600000D03*
G04 #@! TO.P,U14,5,INC*
G04 #@! TO.N,Net-(U14-INC)*
X130840000Y-76600000D03*
G04 #@! TO.P,U14,6,NC*
G04 #@! TO.N,unconnected-(U14-NC-Pad6)*
X132110000Y-76600000D03*
G04 #@! TO.P,U14,7,NC*
G04 #@! TO.N,unconnected-(U14-NC-Pad7)*
X133380000Y-76600000D03*
G04 #@! TO.P,U14,8,GND1*
G04 #@! TO.N,GND2*
X134650000Y-76600000D03*
G04 #@! TO.P,U14,9,GND2*
G04 #@! TO.N,GND*
X134650000Y-66900000D03*
G04 #@! TO.P,U14,10,EN2*
G04 #@! TO.N,Net-(U14-EN2)*
X133380000Y-66900000D03*
G04 #@! TO.P,U14,11,NC*
G04 #@! TO.N,unconnected-(U14-NC-Pad11)*
X132110000Y-66900000D03*
G04 #@! TO.P,U14,12,OUTC*
G04 #@! TO.N,Net-(U14-OUTC)*
X130840000Y-66900000D03*
G04 #@! TO.P,U14,13,OUTB*
G04 #@! TO.N,Net-(U14-OUTB)*
X129570000Y-66900000D03*
G04 #@! TO.P,U14,14,OUTA*
G04 #@! TO.N,Net-(U14-OUTA)*
X128300000Y-66900000D03*
G04 #@! TO.P,U14,15,GND2*
G04 #@! TO.N,GND*
X127030000Y-66900000D03*
G04 #@! TO.P,U14,16,VCC2*
G04 #@! TO.N,Net-(U14-EN2)*
X125760000Y-66900000D03*
G04 #@! TD*
D40*
G04 #@! TO.P,R35,1*
G04 #@! TO.N,Net-(C50-Pad1)*
X121759200Y-52724150D03*
G04 #@! TO.P,R35,2*
G04 #@! TO.N,/PWM_outputs/signal_B*
X119934200Y-52724150D03*
G04 #@! TD*
D29*
G04 #@! TO.P,D13,1,K*
G04 #@! TO.N,GND*
X118100000Y-67700000D03*
G04 #@! TO.P,D13,2,A*
G04 #@! TO.N,Net-(D13-A)*
X120300000Y-67700000D03*
G04 #@! TD*
D13*
G04 #@! TO.P,CR1,1,1*
G04 #@! TO.N,GND*
X60616800Y-82049500D03*
G04 #@! TO.P,CR1,2,2*
X58483200Y-82049500D03*
D14*
G04 #@! TO.P,CR1,3,3*
G04 #@! TO.N,Net-(U1-SW)*
X59550000Y-78328400D03*
G04 #@! TD*
D41*
G04 #@! TO.P,C1,1*
G04 #@! TO.N,GND*
X56503400Y-88272500D03*
G04 #@! TO.P,C1,2*
G04 #@! TO.N,Net-(U1-EN{slash}UVLO)*
X62320000Y-88272500D03*
G04 #@! TD*
D21*
G04 #@! TO.P,FB5,1*
G04 #@! TO.N,Net-(U7-EN2)*
X145800000Y-84100000D03*
G04 #@! TO.P,FB5,2*
G04 #@! TO.N,+5V*
X145800000Y-82350000D03*
G04 #@! TD*
D42*
G04 #@! TO.P,C59,1*
G04 #@! TO.N,a_home*
X108300000Y-95550000D03*
G04 #@! TO.P,C59,2*
G04 #@! TO.N,GND2*
X108300000Y-97450000D03*
G04 #@! TD*
D35*
G04 #@! TO.P,J27,1,1*
G04 #@! TO.N,GND*
X80639999Y-112300003D03*
G04 #@! TO.P,J27,2,2*
G04 #@! TO.N,Net-(D12-A2)*
X80639999Y-115300002D03*
G04 #@! TO.P,J27,3,3*
G04 #@! TO.N,Net-(D12-A1)*
X80639999Y-118300001D03*
G04 #@! TD*
G04 #@! TO.P,J1,1,1*
G04 #@! TO.N,/X_axis/X_dir_P*
X180060001Y-131299997D03*
G04 #@! TO.P,J1,2,2*
G04 #@! TO.N,/X_axis/X_dir_N*
X180060001Y-128299998D03*
G04 #@! TO.P,J1,3,3*
G04 #@! TO.N,/X_axis/X_step_P*
X180060001Y-125299999D03*
G04 #@! TO.P,J1,4,4*
G04 #@! TO.N,/X_axis/X_step_N*
X180060001Y-122300000D03*
G04 #@! TO.P,J1,5,5*
G04 #@! TO.N,/X_axis/X_ena_P*
X183060000Y-131299997D03*
G04 #@! TO.P,J1,6,6*
G04 #@! TO.N,/X_axis/X_ena_N*
X183060000Y-128299998D03*
G04 #@! TO.P,J1,7,7*
G04 #@! TO.N,GND*
X183060000Y-125299999D03*
G04 #@! TO.P,J1,8,8*
G04 #@! TO.N,+5V*
X183060000Y-122300000D03*
G04 #@! TD*
D34*
G04 #@! TO.P,R20,1*
G04 #@! TO.N,Net-(U7-OUTC)*
X161079141Y-95362644D03*
G04 #@! TO.P,R20,2*
G04 #@! TO.N,GND*
X162729141Y-95362644D03*
G04 #@! TD*
D15*
G04 #@! TO.P,C58,1*
G04 #@! TO.N,z_home*
X108300000Y-93850000D03*
G04 #@! TO.P,C58,2*
G04 #@! TO.N,GND2*
X108300000Y-91950000D03*
G04 #@! TD*
D20*
G04 #@! TO.P,R9,1*
G04 #@! TO.N,GND*
X68539400Y-118325000D03*
G04 #@! TO.P,R9,2*
G04 #@! TO.N,Net-(U2-PGOOD)*
X68539400Y-116675000D03*
G04 #@! TD*
D27*
G04 #@! TO.P,C22,1*
G04 #@! TO.N,GND*
X168050001Y-133299999D03*
G04 #@! TO.P,C22,2*
G04 #@! TO.N,Net-(U3-EN2)*
X169600001Y-133299999D03*
G04 #@! TD*
D18*
G04 #@! TO.P,R45,1*
G04 #@! TO.N,Net-(D11-A)*
X97600000Y-112875000D03*
G04 #@! TO.P,R45,2*
G04 #@! TO.N,Net-(K3-Pad1)*
X97600000Y-114700000D03*
G04 #@! TD*
D23*
G04 #@! TO.P,J22,1,Pin_1*
G04 #@! TO.N,Net-(D8-A1)*
X90560000Y-87360000D03*
D24*
G04 #@! TO.P,J22,2,Pin_2*
G04 #@! TO.N,+12V*
X93100000Y-87360000D03*
G04 #@! TO.P,J22,3,Pin_3*
G04 #@! TO.N,Net-(D8-A1)*
X90560000Y-89900000D03*
G04 #@! TO.P,J22,4,Pin_4*
G04 #@! TO.N,+5V*
X93100000Y-89900000D03*
G04 #@! TD*
D43*
G04 #@! TO.P,R24,1*
G04 #@! TO.N,Net-(U10-2A)*
X161974050Y-68159050D03*
G04 #@! TO.P,R24,2*
G04 #@! TO.N,GND*
X160324050Y-68159050D03*
G04 #@! TD*
D39*
G04 #@! TO.P,U11,1,VCC1*
G04 #@! TO.N,+3V3*
X148026500Y-59578702D03*
G04 #@! TO.P,U11,2,GND1*
G04 #@! TO.N,GND2*
X149296500Y-59578702D03*
G04 #@! TO.P,U11,3,INA*
G04 #@! TO.N,b_dir*
X150566500Y-59578702D03*
G04 #@! TO.P,U11,4,INB*
G04 #@! TO.N,b_stp*
X151836500Y-59578702D03*
G04 #@! TO.P,U11,5,INC*
G04 #@! TO.N,axis_enable*
X153106500Y-59578702D03*
G04 #@! TO.P,U11,6,NC*
G04 #@! TO.N,unconnected-(U11-NC-Pad6)*
X154376500Y-59578702D03*
G04 #@! TO.P,U11,7,NC*
G04 #@! TO.N,unconnected-(U11-NC-Pad7)*
X155646500Y-59578702D03*
G04 #@! TO.P,U11,8,GND1*
G04 #@! TO.N,GND2*
X156916500Y-59578702D03*
G04 #@! TO.P,U11,9,GND2*
G04 #@! TO.N,GND*
X156916500Y-49878702D03*
G04 #@! TO.P,U11,10,EN2*
G04 #@! TO.N,Net-(U11-EN2)*
X155646500Y-49878702D03*
G04 #@! TO.P,U11,11,NC*
G04 #@! TO.N,unconnected-(U11-NC-Pad11)*
X154376500Y-49878702D03*
G04 #@! TO.P,U11,12,OUTC*
G04 #@! TO.N,Net-(U11-OUTC)*
X153106500Y-49878702D03*
G04 #@! TO.P,U11,13,OUTB*
G04 #@! TO.N,Net-(U11-OUTB)*
X151836500Y-49878702D03*
G04 #@! TO.P,U11,14,OUTA*
G04 #@! TO.N,Net-(U11-OUTA)*
X150566500Y-49878702D03*
G04 #@! TO.P,U11,15,GND2*
G04 #@! TO.N,GND*
X149296500Y-49878702D03*
G04 #@! TO.P,U11,16,VCC2*
G04 #@! TO.N,Net-(U11-EN2)*
X148026500Y-49878702D03*
G04 #@! TD*
D31*
G04 #@! TO.P,C19,1*
G04 #@! TO.N,+3V3*
X145881800Y-133500000D03*
G04 #@! TO.P,C19,2*
G04 #@! TO.N,GND2*
X145881800Y-135050000D03*
G04 #@! TD*
D44*
G04 #@! TO.P,C17,1*
G04 #@! TO.N,+12V*
X63099400Y-108010000D03*
G04 #@! TO.P,C17,2*
G04 #@! TO.N,Net-(C17-Pad2)*
X64999400Y-108010000D03*
G04 #@! TD*
D39*
G04 #@! TO.P,U9,1,VCC1*
G04 #@! TO.N,+3V3*
X148005000Y-77954999D03*
G04 #@! TO.P,U9,2,GND1*
G04 #@! TO.N,GND2*
X149275000Y-77954999D03*
G04 #@! TO.P,U9,3,INA*
G04 #@! TO.N,a_dir*
X150545000Y-77954999D03*
G04 #@! TO.P,U9,4,INB*
G04 #@! TO.N,a_stp*
X151815000Y-77954999D03*
G04 #@! TO.P,U9,5,INC*
G04 #@! TO.N,axis_enable*
X153085000Y-77954999D03*
G04 #@! TO.P,U9,6,NC*
G04 #@! TO.N,unconnected-(U9-NC-Pad6)*
X154355000Y-77954999D03*
G04 #@! TO.P,U9,7,NC*
G04 #@! TO.N,unconnected-(U9-NC-Pad7)*
X155625000Y-77954999D03*
G04 #@! TO.P,U9,8,GND1*
G04 #@! TO.N,GND2*
X156895000Y-77954999D03*
G04 #@! TO.P,U9,9,GND2*
G04 #@! TO.N,GND*
X156895000Y-68254999D03*
G04 #@! TO.P,U9,10,EN2*
G04 #@! TO.N,Net-(U10-VDD)*
X155625000Y-68254999D03*
G04 #@! TO.P,U9,11,NC*
G04 #@! TO.N,unconnected-(U9-NC-Pad11)*
X154355000Y-68254999D03*
G04 #@! TO.P,U9,12,OUTC*
G04 #@! TO.N,Net-(U10-3A)*
X153085000Y-68254999D03*
G04 #@! TO.P,U9,13,OUTB*
G04 #@! TO.N,Net-(U10-2A)*
X151815000Y-68254999D03*
G04 #@! TO.P,U9,14,OUTA*
G04 #@! TO.N,Net-(U10-1A)*
X150545000Y-68254999D03*
G04 #@! TO.P,U9,15,GND2*
G04 #@! TO.N,GND*
X149275000Y-68254999D03*
G04 #@! TO.P,U9,16,VCC2*
G04 #@! TO.N,Net-(U10-VDD)*
X148005000Y-68254999D03*
G04 #@! TD*
D31*
G04 #@! TO.P,C41,1*
G04 #@! TO.N,GND*
X86160000Y-126185000D03*
G04 #@! TO.P,C41,2*
G04 #@! TO.N,Net-(U13-+VIN)*
X86160000Y-127735000D03*
G04 #@! TD*
D45*
G04 #@! TO.P,U10,1,1A*
G04 #@! TO.N,Net-(U10-1A)*
X169649050Y-70159050D03*
G04 #@! TO.P,U10,2,1Y*
G04 #@! TO.N,/A_axis/Y_dir_P*
X168379050Y-70159050D03*
G04 #@! TO.P,U10,3,1Z*
G04 #@! TO.N,/A_axis/Y_dir_N*
X167109050Y-70159050D03*
G04 #@! TO.P,U10,4,G*
G04 #@! TO.N,Net-(JP4-B)*
X165839050Y-70159050D03*
G04 #@! TO.P,U10,5,2Z*
G04 #@! TO.N,/A_axis/Y_step_N*
X164569050Y-70159050D03*
G04 #@! TO.P,U10,6,2Y*
G04 #@! TO.N,/A_axis/Y_step_P*
X163299050Y-70159050D03*
G04 #@! TO.P,U10,7,2A*
G04 #@! TO.N,Net-(U10-2A)*
X162029050Y-70159050D03*
G04 #@! TO.P,U10,8,GND*
G04 #@! TO.N,GND*
X160759050Y-70159050D03*
G04 #@! TO.P,U10,9,3A*
G04 #@! TO.N,Net-(U10-3A)*
X160759050Y-75109050D03*
G04 #@! TO.P,U10,10,3Y*
G04 #@! TO.N,/A_axis/Y_ena_P*
X162029050Y-75109050D03*
G04 #@! TO.P,U10,11,3Z*
G04 #@! TO.N,/A_axis/Y_ena_N*
X163299050Y-75109050D03*
G04 #@! TO.P,U10,12,~{G}*
G04 #@! TO.N,GND*
X164569050Y-75109050D03*
G04 #@! TO.P,U10,13,4Z*
G04 #@! TO.N,unconnected-(U10-4Z-Pad13)*
X165839050Y-75109050D03*
G04 #@! TO.P,U10,14,4Y*
G04 #@! TO.N,unconnected-(U10-4Y-Pad14)*
X167109050Y-75109050D03*
G04 #@! TO.P,U10,15,4A*
G04 #@! TO.N,unconnected-(U10-4A-Pad15)*
X168379050Y-75109050D03*
G04 #@! TO.P,U10,16,VDD*
G04 #@! TO.N,Net-(U10-VDD)*
X169649050Y-75109050D03*
G04 #@! TD*
D46*
G04 #@! TO.P,C2,1*
G04 #@! TO.N,GND*
X67750000Y-85862500D03*
G04 #@! TO.P,C2,2*
G04 #@! TO.N,Net-(U1-EN{slash}UVLO)*
X65850000Y-85862500D03*
G04 #@! TD*
D11*
G04 #@! TO.P,R10,1*
G04 #@! TO.N,+12V*
X64839400Y-109775000D03*
G04 #@! TO.P,R10,2*
G04 #@! TO.N,Net-(U2-FB)*
X64839400Y-111425000D03*
G04 #@! TD*
D18*
G04 #@! TO.P,R47,1*
G04 #@! TO.N,y_home*
X116250000Y-77787500D03*
G04 #@! TO.P,R47,2*
G04 #@! TO.N,+3V3*
X116250000Y-79612500D03*
G04 #@! TD*
D15*
G04 #@! TO.P,C60,1*
G04 #@! TO.N,b_home*
X108300000Y-101750000D03*
G04 #@! TO.P,C60,2*
G04 #@! TO.N,GND2*
X108300000Y-99850000D03*
G04 #@! TD*
D27*
G04 #@! TO.P,C47,1*
G04 #@! TO.N,Net-(C47-Pad1)*
X108062500Y-52621300D03*
G04 #@! TO.P,C47,2*
G04 #@! TO.N,GND*
X109612500Y-52621300D03*
G04 #@! TD*
D35*
G04 #@! TO.P,J2,1,1*
G04 #@! TO.N,/Y_axis/Y_dir_P*
X180060000Y-113099999D03*
G04 #@! TO.P,J2,2,2*
G04 #@! TO.N,/Y_axis/Y_dir_N*
X180060000Y-110100000D03*
G04 #@! TO.P,J2,3,3*
G04 #@! TO.N,/Y_axis/Y_step_P*
X180060000Y-107100001D03*
G04 #@! TO.P,J2,4,4*
G04 #@! TO.N,/Y_axis/Y_step_N*
X180060000Y-104100002D03*
G04 #@! TO.P,J2,5,5*
G04 #@! TO.N,/Y_axis/Y_ena_P*
X183059999Y-113099999D03*
G04 #@! TO.P,J2,6,6*
G04 #@! TO.N,/Y_axis/Y_ena_N*
X183059999Y-110100000D03*
G04 #@! TO.P,J2,7,7*
G04 #@! TO.N,GND*
X183059999Y-107100001D03*
G04 #@! TO.P,J2,8,8*
G04 #@! TO.N,+5V*
X183059999Y-104100002D03*
G04 #@! TD*
D31*
G04 #@! TO.P,C31,1*
G04 #@! TO.N,+3V3*
X145800000Y-78600000D03*
G04 #@! TO.P,C31,2*
G04 #@! TO.N,GND2*
X145800000Y-80150000D03*
G04 #@! TD*
D12*
G04 #@! TO.P,CR5,1,CATHODE*
G04 #@! TO.N,/X_axis/X_ena_P*
X173384001Y-131721498D03*
G04 #@! TO.P,CR5,2,CATHODE*
G04 #@! TO.N,/X_axis/X_ena_N*
X173384001Y-133621500D03*
G04 #@! TO.P,CR5,3,COMMONCATHODE*
G04 #@! TO.N,GND*
X175416001Y-132671499D03*
G04 #@! TD*
D22*
G04 #@! TO.P,C4,1*
G04 #@! TO.N,GND*
X67395000Y-81382500D03*
G04 #@! TO.P,C4,2*
G04 #@! TO.N,Net-(U1-EN{slash}UVLO)*
X65845000Y-81382500D03*
G04 #@! TD*
D47*
G04 #@! TO.P,J29,1,Pin_1*
G04 #@! TO.N,/Inputs/V_switch*
X86200000Y-61600000D03*
D48*
G04 #@! TO.P,J29,2,Pin_2*
G04 #@! TO.N,Net-(D13-A)*
X88200000Y-61600000D03*
G04 #@! TO.P,J29,3,Pin_3*
G04 #@! TO.N,GND*
X90200000Y-61600000D03*
G04 #@! TD*
D49*
G04 #@! TO.P,U17,1,VS*
G04 #@! TO.N,/PWM_outputs/power_A*
X134845000Y-60274150D03*
G04 #@! TO.P,U17,2,IN*
G04 #@! TO.N,Net-(U14-OUTC)*
X136115000Y-60274150D03*
G04 #@! TO.P,U17,3,NC*
G04 #@! TO.N,unconnected-(U17-NC-Pad3)*
X137385000Y-60274150D03*
G04 #@! TO.P,U17,4,GND*
G04 #@! TO.N,GND*
X138655000Y-60274150D03*
G04 #@! TO.P,U17,5,GND*
X138655000Y-54825850D03*
G04 #@! TO.P,U17,6,OUT*
G04 #@! TO.N,Net-(C54-Pad1)*
X137385000Y-54825850D03*
G04 #@! TO.P,U17,7,OUT*
X136115000Y-54825850D03*
G04 #@! TO.P,U17,8,VS*
G04 #@! TO.N,/PWM_outputs/power_A*
X134845000Y-54825850D03*
G04 #@! TD*
D43*
G04 #@! TO.P,R13,1*
G04 #@! TO.N,GND*
X169981801Y-122649999D03*
G04 #@! TO.P,R13,2*
G04 #@! TO.N,Net-(U3-OUTA)*
X168331801Y-122649999D03*
G04 #@! TD*
D44*
G04 #@! TO.P,C39,1*
G04 #@! TO.N,+12V*
X82610000Y-125860000D03*
G04 #@! TO.P,C39,2*
G04 #@! TO.N,GND*
X84510000Y-125860000D03*
G04 #@! TD*
D41*
G04 #@! TO.P,C16,1*
G04 #@! TO.N,+12V*
X58532800Y-98460000D03*
G04 #@! TO.P,C16,2*
G04 #@! TO.N,GND*
X64349400Y-98460000D03*
G04 #@! TD*
D50*
G04 #@! TO.P,D1,1,K*
G04 #@! TO.N,Net-(D1-K)*
X71850000Y-86200000D03*
G04 #@! TO.P,D1,2,A*
G04 #@! TO.N,Net-(D1-A)*
X71850000Y-89000000D03*
G04 #@! TD*
D12*
G04 #@! TO.P,CR15,1,CATHODE*
G04 #@! TO.N,/B_axis/Y_dir_P*
X173208999Y-49949999D03*
G04 #@! TO.P,CR15,2,CATHODE*
G04 #@! TO.N,/B_axis/Y_dir_N*
X173208999Y-51850001D03*
G04 #@! TO.P,CR15,3,COMMONCATHODE*
G04 #@! TO.N,GND*
X175240999Y-50900000D03*
G04 #@! TD*
D23*
G04 #@! TO.P,J26,1,Pin_1*
G04 #@! TO.N,Net-(D12-A1)*
X90760000Y-116400000D03*
D24*
G04 #@! TO.P,J26,2,Pin_2*
G04 #@! TO.N,+12V*
X93300000Y-116400000D03*
G04 #@! TO.P,J26,3,Pin_3*
G04 #@! TO.N,Net-(D12-A1)*
X90760000Y-118940000D03*
G04 #@! TO.P,J26,4,Pin_4*
G04 #@! TO.N,+5V*
X93300000Y-118940000D03*
G04 #@! TD*
D23*
G04 #@! TO.P,J15,1,Pin_1*
G04 #@! TO.N,/PWM_outputs/power_B*
X115551700Y-57148300D03*
D24*
G04 #@! TO.P,J15,2,Pin_2*
G04 #@! TO.N,+12V*
X113011700Y-57148300D03*
G04 #@! TO.P,J15,3,Pin_3*
G04 #@! TO.N,/PWM_outputs/power_B*
X115551700Y-54608300D03*
G04 #@! TO.P,J15,4,Pin_4*
G04 #@! TO.N,+5V*
X113011700Y-54608300D03*
G04 #@! TD*
D34*
G04 #@! TO.P,R14,1*
G04 #@! TO.N,Net-(U3-OUTC)*
X161031801Y-131749999D03*
G04 #@! TO.P,R14,2*
G04 #@! TO.N,GND*
X162681801Y-131749999D03*
G04 #@! TD*
D51*
G04 #@! TO.P,R7,1*
G04 #@! TO.N,Net-(U2-EN{slash}UVLO)*
X67314400Y-128600000D03*
G04 #@! TO.P,R7,2*
G04 #@! TO.N,Net-(D4-A)*
X69139400Y-128600000D03*
G04 #@! TD*
D52*
G04 #@! TO.P,L1,1,1*
G04 #@! TO.N,+5V*
X56800000Y-63528700D03*
G04 #@! TO.P,L1,2,2*
G04 #@! TO.N,Net-(U1-SW)*
X56800000Y-73612500D03*
G04 #@! TD*
D44*
G04 #@! TO.P,C18,1*
G04 #@! TO.N,+12V*
X63099400Y-104010000D03*
G04 #@! TO.P,C18,2*
G04 #@! TO.N,GND*
X64999400Y-104010000D03*
G04 #@! TD*
D53*
G04 #@! TO.P,FB1,1*
G04 #@! TO.N,+48V*
X65300000Y-90425000D03*
G04 #@! TO.P,FB1,2*
G04 #@! TO.N,Net-(U1-EN{slash}UVLO)*
X65300000Y-88300000D03*
G04 #@! TD*
D54*
G04 #@! TO.P,J37,1,Pin_1*
G04 #@! TO.N,Net-(J37-Pin_1)*
X74100000Y-47100000D03*
D55*
G04 #@! TO.P,J37,2,Pin_2*
G04 #@! TO.N,Net-(J36-Pin_1)*
X74100000Y-49100000D03*
G04 #@! TD*
D54*
G04 #@! TO.P,J38,1,Pin_1*
G04 #@! TO.N,Net-(J38-Pin_1)*
X68100000Y-47100000D03*
D55*
G04 #@! TO.P,J38,2,Pin_2*
G04 #@! TO.N,Net-(J37-Pin_1)*
X68100000Y-49100000D03*
G04 #@! TD*
D29*
G04 #@! TO.P,D19,1,K*
G04 #@! TO.N,GND*
X94500000Y-69300000D03*
G04 #@! TO.P,D19,2,A*
G04 #@! TO.N,Net-(D19-A)*
X96700000Y-69300000D03*
G04 #@! TD*
D47*
G04 #@! TO.P,J34,1,Pin_1*
G04 #@! TO.N,/Inputs/V_switch*
X75017938Y-73597500D03*
D48*
G04 #@! TO.P,J34,2,Pin_2*
G04 #@! TO.N,Net-(D18-A)*
X77017938Y-73597500D03*
G04 #@! TO.P,J34,3,Pin_3*
G04 #@! TO.N,GND*
X79017938Y-73597500D03*
G04 #@! TD*
D30*
G04 #@! TO.P,U18,1,1*
G04 #@! TO.N,Net-(D13-A)*
X118800000Y-69700000D03*
G04 #@! TO.P,U18,2,2*
G04 #@! TO.N,GND*
X117530000Y-69700000D03*
G04 #@! TO.P,U18,3,3*
G04 #@! TO.N,Net-(D14-A)*
X116260000Y-69700000D03*
G04 #@! TO.P,U18,4,4*
G04 #@! TO.N,GND*
X114990000Y-69700000D03*
G04 #@! TO.P,U18,5,5*
G04 #@! TO.N,Net-(D15-A)*
X113720000Y-69700000D03*
G04 #@! TO.P,U18,6,6*
G04 #@! TO.N,GND*
X112450000Y-69700000D03*
G04 #@! TO.P,U18,7,7*
G04 #@! TO.N,Net-(D16-A)*
X111180000Y-69700000D03*
G04 #@! TO.P,U18,8,8*
G04 #@! TO.N,GND*
X109910000Y-69700000D03*
G04 #@! TO.P,U18,9,9*
G04 #@! TO.N,GND2*
X109910000Y-75999998D03*
G04 #@! TO.P,U18,10,10*
G04 #@! TO.N,a_home*
X111180000Y-75999998D03*
G04 #@! TO.P,U18,11,11*
G04 #@! TO.N,GND2*
X112450000Y-75999998D03*
G04 #@! TO.P,U18,12,12*
G04 #@! TO.N,z_home*
X113720000Y-75999998D03*
G04 #@! TO.P,U18,13,13*
G04 #@! TO.N,GND2*
X114990000Y-75999998D03*
G04 #@! TO.P,U18,14,14*
G04 #@! TO.N,y_home*
X116260000Y-75999998D03*
G04 #@! TO.P,U18,15,15*
G04 #@! TO.N,GND2*
X117530000Y-75999998D03*
G04 #@! TO.P,U18,16,16*
G04 #@! TO.N,x_home*
X118800000Y-75999998D03*
G04 #@! TD*
D18*
G04 #@! TO.P,R49,1*
G04 #@! TO.N,a_home*
X111150000Y-77787500D03*
G04 #@! TO.P,R49,2*
G04 #@! TO.N,+3V3*
X111150000Y-79612500D03*
G04 #@! TD*
D23*
G04 #@! TO.P,J7,1,Pin_1*
G04 #@! TO.N,GND2*
X143041901Y-112931901D03*
D24*
G04 #@! TO.P,J7,2,Pin_2*
G04 #@! TO.N,y_dir*
X143041901Y-110391901D03*
G04 #@! TO.P,J7,3,Pin_3*
G04 #@! TO.N,y_stp*
X143041901Y-107851901D03*
G04 #@! TO.P,J7,4,Pin_4*
G04 #@! TO.N,axis_enable*
X143041901Y-105311901D03*
G04 #@! TD*
D45*
G04 #@! TO.P,U6,1,1A*
G04 #@! TO.N,Net-(U5-OUTA)*
X169700000Y-106450001D03*
G04 #@! TO.P,U6,2,1Y*
G04 #@! TO.N,/Y_axis/Y_dir_P*
X168430000Y-106450001D03*
G04 #@! TO.P,U6,3,1Z*
G04 #@! TO.N,/Y_axis/Y_dir_N*
X167160000Y-106450001D03*
G04 #@! TO.P,U6,4,G*
G04 #@! TO.N,Net-(JP2-B)*
X165890000Y-106450001D03*
G04 #@! TO.P,U6,5,2Z*
G04 #@! TO.N,/Y_axis/Y_step_N*
X164620000Y-106450001D03*
G04 #@! TO.P,U6,6,2Y*
G04 #@! TO.N,/Y_axis/Y_step_P*
X163350000Y-106450001D03*
G04 #@! TO.P,U6,7,2A*
G04 #@! TO.N,Net-(U5-OUTB)*
X162080000Y-106450001D03*
G04 #@! TO.P,U6,8,GND*
G04 #@! TO.N,GND*
X160810000Y-106450001D03*
G04 #@! TO.P,U6,9,3A*
G04 #@! TO.N,Net-(U5-OUTC)*
X160810000Y-111400001D03*
G04 #@! TO.P,U6,10,3Y*
G04 #@! TO.N,/Y_axis/Y_ena_P*
X162080000Y-111400001D03*
G04 #@! TO.P,U6,11,3Z*
G04 #@! TO.N,/Y_axis/Y_ena_N*
X163350000Y-111400001D03*
G04 #@! TO.P,U6,12,~{G}*
G04 #@! TO.N,GND*
X164620000Y-111400001D03*
G04 #@! TO.P,U6,13,4Z*
G04 #@! TO.N,unconnected-(U6-4Z-Pad13)*
X165890000Y-111400001D03*
G04 #@! TO.P,U6,14,4Y*
G04 #@! TO.N,unconnected-(U6-4Y-Pad14)*
X167160000Y-111400001D03*
G04 #@! TO.P,U6,15,4A*
G04 #@! TO.N,unconnected-(U6-4A-Pad15)*
X168430000Y-111400001D03*
G04 #@! TO.P,U6,16,VDD*
G04 #@! TO.N,Net-(U5-EN2)*
X169700000Y-111400001D03*
G04 #@! TD*
D41*
G04 #@! TO.P,C7,1*
G04 #@! TO.N,+5V*
X60373400Y-57172500D03*
G04 #@! TO.P,C7,2*
G04 #@! TO.N,GND*
X66190000Y-57172500D03*
G04 #@! TD*
D35*
G04 #@! TO.P,J23,1,1*
G04 #@! TO.N,GND*
X80618699Y-83100001D03*
G04 #@! TO.P,J23,2,2*
G04 #@! TO.N,Net-(D8-A2)*
X80618699Y-86100000D03*
G04 #@! TO.P,J23,3,3*
G04 #@! TO.N,Net-(D8-A1)*
X80618699Y-89099999D03*
G04 #@! TD*
D11*
G04 #@! TO.P,R32,1*
G04 #@! TO.N,GND2*
X131260000Y-80200000D03*
G04 #@! TO.P,R32,2*
G04 #@! TO.N,pwm_b*
X131260000Y-81850000D03*
G04 #@! TD*
D23*
G04 #@! TO.P,J10,1,Pin_1*
G04 #@! TO.N,GND2*
X143081499Y-58173703D03*
D24*
G04 #@! TO.P,J10,2,Pin_2*
G04 #@! TO.N,b_dir*
X143081499Y-55633703D03*
G04 #@! TO.P,J10,3,Pin_3*
G04 #@! TO.N,b_stp*
X143081499Y-53093703D03*
G04 #@! TO.P,J10,4,Pin_4*
G04 #@! TO.N,axis_enable*
X143081499Y-50553703D03*
G04 #@! TD*
D51*
G04 #@! TO.P,R8,1*
G04 #@! TO.N,Net-(U2-RON)*
X68626900Y-120300000D03*
G04 #@! TO.P,R8,2*
G04 #@! TO.N,GND*
X70451900Y-120300000D03*
G04 #@! TD*
D27*
G04 #@! TO.P,C38,1*
G04 #@! TO.N,GND*
X167990000Y-60700000D03*
G04 #@! TO.P,C38,2*
G04 #@! TO.N,Net-(U11-EN2)*
X169540000Y-60700000D03*
G04 #@! TD*
D31*
G04 #@! TO.P,C23,1*
G04 #@! TO.N,+3V3*
X145741901Y-115281901D03*
G04 #@! TO.P,C23,2*
G04 #@! TO.N,GND2*
X145741901Y-116831901D03*
G04 #@! TD*
D54*
G04 #@! TO.P,J41,1,Pin_1*
G04 #@! TO.N,Net-(J35-Pin_2)*
X92200000Y-47100000D03*
D55*
G04 #@! TO.P,J41,2,Pin_2*
G04 #@! TO.N,/Inputs/V_switch*
X92200000Y-49100000D03*
G04 #@! TD*
D22*
G04 #@! TO.P,C32,1*
G04 #@! TO.N,GND*
X149575000Y-65850000D03*
G04 #@! TO.P,C32,2*
G04 #@! TO.N,Net-(U10-VDD)*
X148025000Y-65850000D03*
G04 #@! TD*
D31*
G04 #@! TO.P,C42,1*
G04 #@! TO.N,+3V3*
X123550000Y-76175000D03*
G04 #@! TO.P,C42,2*
G04 #@! TO.N,GND2*
X123550000Y-77725000D03*
G04 #@! TD*
D56*
G04 #@! TO.P,D8,1,A1*
G04 #@! TO.N,Net-(D8-A1)*
X86000000Y-90250000D03*
G04 #@! TO.P,D8,2,A2*
G04 #@! TO.N,Net-(D8-A2)*
X86000000Y-85950000D03*
G04 #@! TD*
D28*
G04 #@! TO.P,D11,1,K*
G04 #@! TO.N,GND2*
X97525000Y-110687500D03*
G04 #@! TO.P,D11,2,A*
G04 #@! TO.N,Net-(D11-A)*
X99400000Y-110687500D03*
G04 #@! TD*
D43*
G04 #@! TO.P,R19,1*
G04 #@! TO.N,GND*
X170966641Y-86186347D03*
G04 #@! TO.P,R19,2*
G04 #@! TO.N,Net-(U7-OUTA)*
X169316641Y-86186347D03*
G04 #@! TD*
D25*
G04 #@! TO.P,JP2,1,A*
G04 #@! TO.N,+5V*
X170300000Y-101750001D03*
D26*
G04 #@! TO.P,JP2,2,B*
G04 #@! TO.N,Net-(JP2-B)*
X165220000Y-101750001D03*
G04 #@! TD*
D27*
G04 #@! TO.P,C33,1*
G04 #@! TO.N,GND*
X167974049Y-77209050D03*
G04 #@! TO.P,C33,2*
G04 #@! TO.N,Net-(U10-VDD)*
X169524049Y-77209050D03*
G04 #@! TD*
D22*
G04 #@! TO.P,C24,1*
G04 #@! TO.N,GND*
X149575000Y-102350000D03*
G04 #@! TO.P,C24,2*
G04 #@! TO.N,Net-(U5-EN2)*
X148025000Y-102350000D03*
G04 #@! TD*
D12*
G04 #@! TO.P,CR6,1,CATHODE*
G04 #@! TO.N,/Y_axis/Y_dir_P*
X173109901Y-102931901D03*
G04 #@! TO.P,CR6,2,CATHODE*
G04 #@! TO.N,/Y_axis/Y_dir_N*
X173109901Y-104831903D03*
G04 #@! TO.P,CR6,3,COMMONCATHODE*
G04 #@! TO.N,GND*
X175141901Y-103881902D03*
G04 #@! TD*
D18*
G04 #@! TO.P,R41,1*
G04 #@! TO.N,Net-(D7-A)*
X97360000Y-83960000D03*
G04 #@! TO.P,R41,2*
G04 #@! TO.N,Net-(K1-Pad1)*
X97360000Y-85785000D03*
G04 #@! TD*
D35*
G04 #@! TO.P,J14,1,1*
G04 #@! TO.N,GND*
X107044912Y-47050000D03*
G04 #@! TO.P,J14,2,2*
G04 #@! TO.N,/PWM_outputs/signal_C*
X104044913Y-47050000D03*
G04 #@! TO.P,J14,3,3*
G04 #@! TO.N,/PWM_outputs/power_C*
X101044914Y-47050000D03*
G04 #@! TD*
D12*
G04 #@! TO.P,CR14,1,CATHODE*
G04 #@! TO.N,/A_axis/Y_ena_P*
X173333050Y-77230549D03*
G04 #@! TO.P,CR14,2,CATHODE*
G04 #@! TO.N,/A_axis/Y_ena_N*
X173333050Y-79130551D03*
G04 #@! TO.P,CR14,3,COMMONCATHODE*
G04 #@! TO.N,GND*
X175365050Y-78180550D03*
G04 #@! TD*
D22*
G04 #@! TO.P,C13,1*
G04 #@! TO.N,GND*
X65824400Y-122410000D03*
G04 #@! TO.P,C13,2*
G04 #@! TO.N,Net-(U2-EN{slash}UVLO)*
X64274400Y-122410000D03*
G04 #@! TD*
D29*
G04 #@! TO.P,D15,1,K*
G04 #@! TO.N,GND*
X111350000Y-67700000D03*
G04 #@! TO.P,D15,2,A*
G04 #@! TO.N,Net-(D15-A)*
X113550000Y-67700000D03*
G04 #@! TD*
D18*
G04 #@! TO.P,R40,1*
G04 #@! TO.N,output_a*
X99560000Y-83960000D03*
G04 #@! TO.P,R40,2*
G04 #@! TO.N,Net-(K1-Pad1)*
X99560000Y-85785000D03*
G04 #@! TD*
D54*
G04 #@! TO.P,J36,1,Pin_1*
G04 #@! TO.N,Net-(J36-Pin_1)*
X80200000Y-47100000D03*
D55*
G04 #@! TO.P,J36,2,Pin_2*
G04 #@! TO.N,Net-(J35-Pin_1)*
X80200000Y-49100000D03*
G04 #@! TD*
D43*
G04 #@! TO.P,R21,1*
G04 #@! TO.N,Net-(U7-OUTB)*
X162074740Y-86210050D03*
G04 #@! TO.P,R21,2*
G04 #@! TO.N,GND*
X160424740Y-86210050D03*
G04 #@! TD*
D31*
G04 #@! TO.P,C48,1*
G04 #@! TO.N,GND*
X118346700Y-59549150D03*
G04 #@! TO.P,C48,2*
G04 #@! TO.N,/PWM_outputs/power_B*
X118346700Y-61099150D03*
G04 #@! TD*
D34*
G04 #@! TO.P,R17,1*
G04 #@! TO.N,Net-(U5-OUTC)*
X161050000Y-113550001D03*
G04 #@! TO.P,R17,2*
G04 #@! TO.N,GND*
X162700000Y-113550001D03*
G04 #@! TD*
D41*
G04 #@! TO.P,C10,1*
G04 #@! TO.N,GND*
X56682800Y-128610000D03*
G04 #@! TO.P,C10,2*
G04 #@! TO.N,Net-(U2-EN{slash}UVLO)*
X62499400Y-128610000D03*
G04 #@! TD*
D12*
G04 #@! TO.P,CR17,1,CATHODE*
G04 #@! TO.N,/B_axis/Y_ena_P*
X173324001Y-59121499D03*
G04 #@! TO.P,CR17,2,CATHODE*
G04 #@! TO.N,/B_axis/Y_ena_N*
X173324001Y-61021501D03*
G04 #@! TO.P,CR17,3,COMMONCATHODE*
G04 #@! TO.N,GND*
X175356001Y-60071500D03*
G04 #@! TD*
G04 #@! TO.P,CR13,1,CATHODE*
G04 #@! TO.N,/A_axis/Y_step_P*
X174890951Y-74085347D03*
G04 #@! TO.P,CR13,2,CATHODE*
G04 #@! TO.N,/A_axis/Y_step_N*
X174890951Y-72185345D03*
G04 #@! TO.P,CR13,3,COMMONCATHODE*
G04 #@! TO.N,GND*
X172858951Y-73135346D03*
G04 #@! TD*
D18*
G04 #@! TO.P,R54,1*
G04 #@! TO.N,estop_all*
X99800000Y-77687500D03*
G04 #@! TO.P,R54,2*
G04 #@! TO.N,+3V3*
X99800000Y-79512500D03*
G04 #@! TD*
D34*
G04 #@! TO.P,R23,1*
G04 #@! TO.N,Net-(U10-3A)*
X160936550Y-77159050D03*
G04 #@! TO.P,R23,2*
G04 #@! TO.N,GND*
X162586550Y-77159050D03*
G04 #@! TD*
D37*
G04 #@! TO.P,C6,1*
G04 #@! TO.N,Net-(U1-FB)*
X64240000Y-69827500D03*
G04 #@! TO.P,C6,2*
G04 #@! TO.N,+5V*
X64240000Y-68277500D03*
G04 #@! TD*
D27*
G04 #@! TO.P,C34,1*
G04 #@! TO.N,GND*
X167999049Y-78809050D03*
G04 #@! TO.P,C34,2*
G04 #@! TO.N,Net-(U10-VDD)*
X169549049Y-78809050D03*
G04 #@! TD*
D54*
G04 #@! TO.P,J40,1,Pin_1*
G04 #@! TO.N,Net-(D19-A)*
X56200000Y-47200000D03*
D55*
G04 #@! TO.P,J40,2,Pin_2*
G04 #@! TO.N,Net-(J39-Pin_1)*
X56200000Y-49200000D03*
G04 #@! TD*
D25*
G04 #@! TO.P,JP3,1,A*
G04 #@! TO.N,+5V*
X170554141Y-83556347D03*
D26*
G04 #@! TO.P,JP3,2,B*
G04 #@! TO.N,Net-(JP3-B)*
X165474141Y-83556347D03*
G04 #@! TD*
D12*
G04 #@! TO.P,CR7,1,CATHODE*
G04 #@! TO.N,/Y_axis/Y_step_P*
X174741901Y-109981902D03*
G04 #@! TO.P,CR7,2,CATHODE*
G04 #@! TO.N,/Y_axis/Y_step_N*
X174741901Y-108081900D03*
G04 #@! TO.P,CR7,3,COMMONCATHODE*
G04 #@! TO.N,GND*
X172709901Y-109031901D03*
G04 #@! TD*
D35*
G04 #@! TO.P,J4,1,1*
G04 #@! TO.N,/A_axis/Y_dir_P*
X180009050Y-76809048D03*
G04 #@! TO.P,J4,2,2*
G04 #@! TO.N,/A_axis/Y_dir_N*
X180009050Y-73809049D03*
G04 #@! TO.P,J4,3,3*
G04 #@! TO.N,/A_axis/Y_step_P*
X180009050Y-70809050D03*
G04 #@! TO.P,J4,4,4*
G04 #@! TO.N,/A_axis/Y_step_N*
X180009050Y-67809051D03*
G04 #@! TO.P,J4,5,5*
G04 #@! TO.N,/A_axis/Y_ena_P*
X183009049Y-76809048D03*
G04 #@! TO.P,J4,6,6*
G04 #@! TO.N,/A_axis/Y_ena_N*
X183009049Y-73809049D03*
G04 #@! TO.P,J4,7,7*
G04 #@! TO.N,GND*
X183009049Y-70809050D03*
G04 #@! TO.P,J4,8,8*
G04 #@! TO.N,+5V*
X183009049Y-67809051D03*
G04 #@! TD*
D12*
G04 #@! TO.P,CR9,1,CATHODE*
G04 #@! TO.N,/Z_axis/Y_dir_P*
X173213190Y-86150998D03*
G04 #@! TO.P,CR9,2,CATHODE*
G04 #@! TO.N,/Z_axis/Y_dir_N*
X173213190Y-88051000D03*
G04 #@! TO.P,CR9,3,COMMONCATHODE*
G04 #@! TO.N,GND*
X175245190Y-87100999D03*
G04 #@! TD*
D51*
G04 #@! TO.P,R2,1*
G04 #@! TO.N,Net-(U1-RON)*
X69887500Y-79862500D03*
G04 #@! TO.P,R2,2*
G04 #@! TO.N,GND*
X71712500Y-79862500D03*
G04 #@! TD*
D40*
G04 #@! TO.P,R36,1*
G04 #@! TO.N,Net-(C54-Pad1)*
X136562500Y-52500000D03*
G04 #@! TO.P,R36,2*
G04 #@! TO.N,/PWM_outputs/signal_A*
X134737500Y-52500000D03*
G04 #@! TD*
D18*
G04 #@! TO.P,R38,1*
G04 #@! TO.N,Net-(U14-INC)*
X133260000Y-79437500D03*
G04 #@! TO.P,R38,2*
G04 #@! TO.N,pwm_a*
X133260000Y-81262500D03*
G04 #@! TD*
D43*
G04 #@! TO.P,R18,1*
G04 #@! TO.N,Net-(U5-OUTB)*
X162070599Y-104368100D03*
G04 #@! TO.P,R18,2*
G04 #@! TO.N,GND*
X160420599Y-104368100D03*
G04 #@! TD*
D19*
G04 #@! TO.P,K1,1,1*
G04 #@! TO.N,Net-(K1-Pad1)*
X95360000Y-84260000D03*
G04 #@! TO.P,K1,2,2*
G04 #@! TO.N,GND2*
X95360000Y-81720000D03*
G04 #@! TO.P,K1,3,3*
G04 #@! TO.N,Net-(D8-A1)*
X89210000Y-81720000D03*
G04 #@! TO.P,K1,4,4*
G04 #@! TO.N,Net-(D8-A2)*
X89210000Y-84260000D03*
G04 #@! TD*
D34*
G04 #@! TO.P,R30,1*
G04 #@! TO.N,Net-(U14-OUTB)*
X121721699Y-62281748D03*
G04 #@! TO.P,R30,2*
G04 #@! TO.N,GND*
X123371699Y-62281748D03*
G04 #@! TD*
D31*
G04 #@! TO.P,C55,1*
G04 #@! TO.N,GND*
X132980000Y-52250000D03*
G04 #@! TO.P,C55,2*
G04 #@! TO.N,/PWM_outputs/power_A*
X132980000Y-53800000D03*
G04 #@! TD*
D57*
G04 #@! TO.P,D6,1,K*
G04 #@! TO.N,GND*
X66849400Y-104172500D03*
G04 #@! TO.P,D6,2,A*
G04 #@! TO.N,Net-(D6-A)*
X66849400Y-106047500D03*
G04 #@! TD*
D51*
G04 #@! TO.P,R12,1*
G04 #@! TO.N,+12V*
X63126900Y-106000000D03*
G04 #@! TO.P,R12,2*
G04 #@! TO.N,Net-(D6-A)*
X64951900Y-106000000D03*
G04 #@! TD*
D35*
G04 #@! TO.P,J25,1,1*
G04 #@! TO.N,GND*
X80600000Y-97600001D03*
G04 #@! TO.P,J25,2,2*
G04 #@! TO.N,Net-(D10-A2)*
X80600000Y-100600000D03*
G04 #@! TO.P,J25,3,3*
G04 #@! TO.N,Net-(D10-A1)*
X80600000Y-103599999D03*
G04 #@! TD*
D39*
G04 #@! TO.P,U5,1,VCC1*
G04 #@! TO.N,+3V3*
X148005000Y-114454999D03*
G04 #@! TO.P,U5,2,GND1*
G04 #@! TO.N,GND2*
X149275000Y-114454999D03*
G04 #@! TO.P,U5,3,INA*
G04 #@! TO.N,y_dir*
X150545000Y-114454999D03*
G04 #@! TO.P,U5,4,INB*
G04 #@! TO.N,y_stp*
X151815000Y-114454999D03*
G04 #@! TO.P,U5,5,INC*
G04 #@! TO.N,axis_enable*
X153085000Y-114454999D03*
G04 #@! TO.P,U5,6,NC*
G04 #@! TO.N,unconnected-(U5-NC-Pad6)*
X154355000Y-114454999D03*
G04 #@! TO.P,U5,7,NC*
G04 #@! TO.N,unconnected-(U5-NC-Pad7)*
X155625000Y-114454999D03*
G04 #@! TO.P,U5,8,GND1*
G04 #@! TO.N,GND2*
X156895000Y-114454999D03*
G04 #@! TO.P,U5,9,GND2*
G04 #@! TO.N,GND*
X156895000Y-104754999D03*
G04 #@! TO.P,U5,10,EN2*
G04 #@! TO.N,Net-(U5-EN2)*
X155625000Y-104754999D03*
G04 #@! TO.P,U5,11,NC*
G04 #@! TO.N,unconnected-(U5-NC-Pad11)*
X154355000Y-104754999D03*
G04 #@! TO.P,U5,12,OUTC*
G04 #@! TO.N,Net-(U5-OUTC)*
X153085000Y-104754999D03*
G04 #@! TO.P,U5,13,OUTB*
G04 #@! TO.N,Net-(U5-OUTB)*
X151815000Y-104754999D03*
G04 #@! TO.P,U5,14,OUTA*
G04 #@! TO.N,Net-(U5-OUTA)*
X150545000Y-104754999D03*
G04 #@! TO.P,U5,15,GND2*
G04 #@! TO.N,GND*
X149275000Y-104754999D03*
G04 #@! TO.P,U5,16,VCC2*
G04 #@! TO.N,Net-(U5-EN2)*
X148005000Y-104754999D03*
G04 #@! TD*
D28*
G04 #@! TO.P,D7,1,K*
G04 #@! TO.N,GND2*
X97222500Y-81360000D03*
G04 #@! TO.P,D7,2,A*
G04 #@! TO.N,Net-(D7-A)*
X99097500Y-81360000D03*
G04 #@! TD*
D58*
G04 #@! TO.P,U13,1,-VIN*
G04 #@! TO.N,GND*
X87968200Y-126540000D03*
G04 #@! TO.P,U13,2,+VIN*
G04 #@! TO.N,Net-(U13-+VIN)*
X87968200Y-129080000D03*
G04 #@! TO.P,U13,4,NC*
G04 #@! TO.N,unconnected-(U13-NC-Pad4)*
X87968200Y-134160000D03*
G04 #@! TO.P,U13,5,-VOUT*
G04 #@! TO.N,Net-(J12-Pin_2)*
X87968200Y-136700000D03*
G04 #@! TO.P,U13,7,+VOUT*
G04 #@! TO.N,Net-(J12-Pin_6)*
X98560000Y-134160000D03*
G04 #@! TO.P,U13,10,NC*
G04 #@! TO.N,unconnected-(U13-NC-Pad10)*
X98560000Y-126540000D03*
G04 #@! TD*
D50*
G04 #@! TO.P,D4,1,K*
G04 #@! TO.N,Net-(D4-K)*
X71550000Y-126650000D03*
G04 #@! TO.P,D4,2,A*
G04 #@! TO.N,Net-(D4-A)*
X71550000Y-129450000D03*
G04 #@! TD*
D57*
G04 #@! TO.P,D5,1,K*
G04 #@! TO.N,GND*
X71049400Y-123022500D03*
G04 #@! TO.P,D5,2,A*
G04 #@! TO.N,Net-(D4-K)*
X71049400Y-124897500D03*
G04 #@! TD*
D54*
G04 #@! TO.P,J35,1,Pin_1*
G04 #@! TO.N,Net-(J35-Pin_1)*
X86200000Y-47100000D03*
D55*
G04 #@! TO.P,J35,2,Pin_2*
G04 #@! TO.N,Net-(J35-Pin_2)*
X86200000Y-49100000D03*
G04 #@! TD*
D57*
G04 #@! TO.P,D2,1,K*
G04 #@! TO.N,GND*
X71800000Y-82487500D03*
G04 #@! TO.P,D2,2,A*
G04 #@! TO.N,Net-(D1-K)*
X71800000Y-84362500D03*
G04 #@! TD*
D39*
G04 #@! TO.P,U3,1,VCC1*
G04 #@! TO.N,+3V3*
X148005000Y-132755000D03*
G04 #@! TO.P,U3,2,GND1*
G04 #@! TO.N,GND2*
X149275000Y-132755000D03*
G04 #@! TO.P,U3,3,INA*
G04 #@! TO.N,x_dir*
X150545000Y-132755000D03*
G04 #@! TO.P,U3,4,INB*
G04 #@! TO.N,x_stp*
X151815000Y-132755000D03*
G04 #@! TO.P,U3,5,INC*
G04 #@! TO.N,axis_enable*
X153085000Y-132755000D03*
G04 #@! TO.P,U3,6,NC*
G04 #@! TO.N,unconnected-(U3-NC-Pad6)*
X154355000Y-132755000D03*
G04 #@! TO.P,U3,7,NC*
G04 #@! TO.N,unconnected-(U3-NC-Pad7)*
X155625000Y-132755000D03*
G04 #@! TO.P,U3,8,GND1*
G04 #@! TO.N,GND2*
X156895000Y-132755000D03*
G04 #@! TO.P,U3,9,GND2*
G04 #@! TO.N,GND*
X156895000Y-123055000D03*
G04 #@! TO.P,U3,10,EN2*
G04 #@! TO.N,Net-(U3-EN2)*
X155625000Y-123055000D03*
G04 #@! TO.P,U3,11,NC*
G04 #@! TO.N,unconnected-(U3-NC-Pad11)*
X154355000Y-123055000D03*
G04 #@! TO.P,U3,12,OUTC*
G04 #@! TO.N,Net-(U3-OUTC)*
X153085000Y-123055000D03*
G04 #@! TO.P,U3,13,OUTB*
G04 #@! TO.N,Net-(U3-OUTB)*
X151815000Y-123055000D03*
G04 #@! TO.P,U3,14,OUTA*
G04 #@! TO.N,Net-(U3-OUTA)*
X150545000Y-123055000D03*
G04 #@! TO.P,U3,15,GND2*
G04 #@! TO.N,GND*
X149275000Y-123055000D03*
G04 #@! TO.P,U3,16,VCC2*
G04 #@! TO.N,Net-(U3-EN2)*
X148005000Y-123055000D03*
G04 #@! TD*
D18*
G04 #@! TO.P,R51,1*
G04 #@! TO.N,c_input*
X104200000Y-77775000D03*
G04 #@! TO.P,R51,2*
G04 #@! TO.N,+3V3*
X104200000Y-79600000D03*
G04 #@! TD*
D34*
G04 #@! TO.P,R26,1*
G04 #@! TO.N,Net-(U11-OUTC)*
X160831001Y-59126297D03*
G04 #@! TO.P,R26,2*
G04 #@! TO.N,GND*
X162481001Y-59126297D03*
G04 #@! TD*
D31*
G04 #@! TO.P,C51,1*
G04 #@! TO.N,GND*
X118346700Y-52649150D03*
G04 #@! TO.P,C51,2*
G04 #@! TO.N,/PWM_outputs/power_B*
X118346700Y-54199150D03*
G04 #@! TD*
D12*
G04 #@! TO.P,CR8,1,CATHODE*
G04 #@! TO.N,/Y_axis/Y_ena_P*
X173383999Y-113521500D03*
G04 #@! TO.P,CR8,2,CATHODE*
G04 #@! TO.N,/Y_axis/Y_ena_N*
X173383999Y-115421502D03*
G04 #@! TO.P,CR8,3,COMMONCATHODE*
G04 #@! TO.N,GND*
X175415999Y-114471501D03*
G04 #@! TD*
D22*
G04 #@! TO.P,C28,1*
G04 #@! TO.N,GND*
X149533099Y-84073703D03*
G04 #@! TO.P,C28,2*
G04 #@! TO.N,Net-(U7-EN2)*
X147983099Y-84073703D03*
G04 #@! TD*
D29*
G04 #@! TO.P,D18,1,K*
G04 #@! TO.N,GND*
X101380000Y-67650000D03*
G04 #@! TO.P,D18,2,A*
G04 #@! TO.N,Net-(D18-A)*
X103580000Y-67650000D03*
G04 #@! TD*
D19*
G04 #@! TO.P,K2,1,1*
G04 #@! TO.N,Net-(K2-Pad1)*
X95400000Y-98987500D03*
G04 #@! TO.P,K2,2,2*
G04 #@! TO.N,GND2*
X95400000Y-96447500D03*
G04 #@! TO.P,K2,3,3*
G04 #@! TO.N,Net-(D10-A1)*
X89250000Y-96447500D03*
G04 #@! TO.P,K2,4,4*
G04 #@! TO.N,Net-(D10-A2)*
X89250000Y-98987500D03*
G04 #@! TD*
D27*
G04 #@! TO.P,C25,1*
G04 #@! TO.N,GND*
X168024999Y-113500001D03*
G04 #@! TO.P,C25,2*
G04 #@! TO.N,Net-(U5-EN2)*
X169574999Y-113500001D03*
G04 #@! TD*
D22*
G04 #@! TO.P,C14,1*
G04 #@! TO.N,Net-(U2-BST)*
X64599400Y-112960000D03*
G04 #@! TO.P,C14,2*
G04 #@! TO.N,Net-(U2-SW)*
X63049400Y-112960000D03*
G04 #@! TD*
D37*
G04 #@! TO.P,C15,1*
G04 #@! TO.N,Net-(U2-FB)*
X63099400Y-111335000D03*
G04 #@! TO.P,C15,2*
G04 #@! TO.N,+12V*
X63099400Y-109785000D03*
G04 #@! TD*
D47*
G04 #@! TO.P,J33,1,Pin_1*
G04 #@! TO.N,/Inputs/V_switch*
X86200000Y-73600000D03*
D48*
G04 #@! TO.P,J33,2,Pin_2*
G04 #@! TO.N,Net-(D17-A)*
X88200000Y-73600000D03*
G04 #@! TO.P,J33,3,Pin_3*
G04 #@! TO.N,GND*
X90200000Y-73600000D03*
G04 #@! TD*
D23*
G04 #@! TO.P,J11,1,Pin_1*
G04 #@! TO.N,GNDA*
X134880000Y-136850000D03*
D24*
G04 #@! TO.P,J11,2,Pin_2*
G04 #@! TO.N,/UART-TX*
X137420000Y-136850000D03*
G04 #@! TO.P,J11,3,Pin_3*
G04 #@! TO.N,/UART-RX*
X139960000Y-136850000D03*
G04 #@! TO.P,J11,4,Pin_4*
G04 #@! TO.N,+3V3*
X142500000Y-136850000D03*
G04 #@! TD*
D31*
G04 #@! TO.P,C52,1*
G04 #@! TO.N,GND*
X132980000Y-59025000D03*
G04 #@! TO.P,C52,2*
G04 #@! TO.N,/PWM_outputs/power_A*
X132980000Y-60575000D03*
G04 #@! TD*
D49*
G04 #@! TO.P,U15,1,VS*
G04 #@! TO.N,/PWM_outputs/power_C*
X104740000Y-60450000D03*
G04 #@! TO.P,U15,2,IN*
G04 #@! TO.N,Net-(U14-OUTA)*
X106010000Y-60450000D03*
G04 #@! TO.P,U15,3,NC*
G04 #@! TO.N,unconnected-(U15-NC-Pad3)*
X107280000Y-60450000D03*
G04 #@! TO.P,U15,4,GND*
G04 #@! TO.N,GND*
X108550000Y-60450000D03*
G04 #@! TO.P,U15,5,GND*
X108550000Y-55001700D03*
G04 #@! TO.P,U15,6,OUT*
G04 #@! TO.N,Net-(C47-Pad1)*
X107280000Y-55001700D03*
G04 #@! TO.P,U15,7,OUT*
X106010000Y-55001700D03*
G04 #@! TO.P,U15,8,VS*
G04 #@! TO.N,/PWM_outputs/power_C*
X104740000Y-55001700D03*
G04 #@! TD*
D46*
G04 #@! TO.P,C12,1*
G04 #@! TO.N,GND*
X66149400Y-124360000D03*
G04 #@! TO.P,C12,2*
G04 #@! TO.N,Net-(U2-EN{slash}UVLO)*
X64249400Y-124360000D03*
G04 #@! TD*
D52*
G04 #@! TO.P,L2,1,1*
G04 #@! TO.N,+12V*
X55649400Y-103668100D03*
G04 #@! TO.P,L2,2,2*
G04 #@! TO.N,Net-(U2-SW)*
X55649400Y-113751900D03*
G04 #@! TD*
D47*
G04 #@! TO.P,J30,1,Pin_1*
G04 #@! TO.N,/Inputs/V_switch*
X75017938Y-61597500D03*
D48*
G04 #@! TO.P,J30,2,Pin_2*
G04 #@! TO.N,Net-(D14-A)*
X77017938Y-61597500D03*
G04 #@! TO.P,J30,3,Pin_3*
G04 #@! TO.N,GND*
X79017938Y-61597500D03*
G04 #@! TD*
D47*
G04 #@! TO.P,J32,1,Pin_1*
G04 #@! TO.N,/Inputs/V_switch*
X75017938Y-67597500D03*
D48*
G04 #@! TO.P,J32,2,Pin_2*
G04 #@! TO.N,Net-(D16-A)*
X77017938Y-67597500D03*
G04 #@! TO.P,J32,3,Pin_3*
G04 #@! TO.N,GND*
X79017938Y-67597500D03*
G04 #@! TD*
D43*
G04 #@! TO.P,R25,1*
G04 #@! TO.N,GND*
X170318501Y-50026297D03*
G04 #@! TO.P,R25,2*
G04 #@! TO.N,Net-(U11-OUTA)*
X168668501Y-50026297D03*
G04 #@! TD*
D40*
G04 #@! TO.P,R52,1*
G04 #@! TO.N,/Inputs/V_switch*
X81530438Y-57397500D03*
G04 #@! TO.P,R52,2*
G04 #@! TO.N,Net-(J28-Pin_1)*
X79705438Y-57397500D03*
G04 #@! TD*
D11*
G04 #@! TO.P,R31,1*
G04 #@! TO.N,GND2*
X127260000Y-80275000D03*
G04 #@! TO.P,R31,2*
G04 #@! TO.N,pwm_c*
X127260000Y-81925000D03*
G04 #@! TD*
D18*
G04 #@! TO.P,R37,1*
G04 #@! TO.N,Net-(U14-INA)*
X125260000Y-79437500D03*
G04 #@! TO.P,R37,2*
G04 #@! TO.N,pwm_c*
X125260000Y-81262500D03*
G04 #@! TD*
D21*
G04 #@! TO.P,FB3,1*
G04 #@! TO.N,Net-(U3-EN2)*
X145881800Y-120625000D03*
G04 #@! TO.P,FB3,2*
G04 #@! TO.N,+5V*
X145881800Y-118875000D03*
G04 #@! TD*
G04 #@! TO.P,FB8,1*
G04 #@! TO.N,Net-(U14-EN2)*
X121800000Y-67825000D03*
G04 #@! TO.P,FB8,2*
G04 #@! TO.N,+5V*
X121800000Y-66075000D03*
G04 #@! TD*
D54*
G04 #@! TO.P,J39,1,Pin_1*
G04 #@! TO.N,Net-(J39-Pin_1)*
X62200000Y-47100000D03*
D55*
G04 #@! TO.P,J39,2,Pin_2*
G04 #@! TO.N,Net-(J38-Pin_1)*
X62200000Y-49100000D03*
G04 #@! TD*
D43*
G04 #@! TO.P,R15,1*
G04 #@! TO.N,Net-(U3-OUTB)*
X162200001Y-122549999D03*
G04 #@! TO.P,R15,2*
G04 #@! TO.N,GND*
X160550001Y-122549999D03*
G04 #@! TD*
D21*
G04 #@! TO.P,FB6,1*
G04 #@! TO.N,Net-(U10-VDD)*
X145800000Y-65825000D03*
G04 #@! TO.P,FB6,2*
G04 #@! TO.N,+5V*
X145800000Y-64075000D03*
G04 #@! TD*
D49*
G04 #@! TO.P,U16,1,VS*
G04 #@! TO.N,/PWM_outputs/power_B*
X120241700Y-60348300D03*
G04 #@! TO.P,U16,2,IN*
G04 #@! TO.N,Net-(U14-OUTB)*
X121511700Y-60348300D03*
G04 #@! TO.P,U16,3,NC*
G04 #@! TO.N,unconnected-(U16-NC-Pad3)*
X122781700Y-60348300D03*
G04 #@! TO.P,U16,4,GND*
G04 #@! TO.N,GND*
X124051700Y-60348300D03*
G04 #@! TO.P,U16,5,GND*
X124051700Y-54900000D03*
G04 #@! TO.P,U16,6,OUT*
G04 #@! TO.N,Net-(C50-Pad1)*
X122781700Y-54900000D03*
G04 #@! TO.P,U16,7,OUT*
X121511700Y-54900000D03*
G04 #@! TO.P,U16,8,VS*
G04 #@! TO.N,/PWM_outputs/power_B*
X120241700Y-54900000D03*
G04 #@! TD*
D44*
G04 #@! TO.P,C8,1*
G04 #@! TO.N,+5V*
X64350000Y-66462500D03*
G04 #@! TO.P,C8,2*
G04 #@! TO.N,Net-(C8-Pad2)*
X66250000Y-66462500D03*
G04 #@! TD*
D31*
G04 #@! TO.P,C44,1*
G04 #@! TO.N,GND*
X103000000Y-59155400D03*
G04 #@! TO.P,C44,2*
G04 #@! TO.N,/PWM_outputs/power_C*
X103000000Y-60705400D03*
G04 #@! TD*
D51*
G04 #@! TO.P,R1,1*
G04 #@! TO.N,Net-(U1-EN{slash}UVLO)*
X67387500Y-88362500D03*
G04 #@! TO.P,R1,2*
G04 #@! TO.N,Net-(D1-A)*
X69212500Y-88362500D03*
G04 #@! TD*
D16*
G04 #@! TO.P,U2,1,GND*
G04 #@! TO.N,GND*
X62939400Y-120358300D03*
G04 #@! TO.P,U2,2,VIN*
G04 #@! TO.N,Net-(U2-EN{slash}UVLO)*
X64209400Y-120358300D03*
G04 #@! TO.P,U2,3,EN/UVLO*
X65479400Y-120358300D03*
G04 #@! TO.P,U2,4,RON*
G04 #@! TO.N,Net-(U2-RON)*
X66749400Y-120358300D03*
G04 #@! TO.P,U2,5,FB*
G04 #@! TO.N,Net-(U2-FB)*
X66749400Y-114910000D03*
G04 #@! TO.P,U2,6,PGOOD*
G04 #@! TO.N,Net-(U2-PGOOD)*
X65479400Y-114910000D03*
G04 #@! TO.P,U2,7,BST*
G04 #@! TO.N,Net-(U2-BST)*
X64209400Y-114910000D03*
G04 #@! TO.P,U2,8,SW*
G04 #@! TO.N,Net-(U2-SW)*
X62939400Y-114910000D03*
D17*
G04 #@! TO.P,U2,EPAD,EPAD*
G04 #@! TO.N,GND*
X64844400Y-117634150D03*
G04 #@! TD*
D56*
G04 #@! TO.P,D12,1,A1*
G04 #@! TO.N,Net-(D12-A1)*
X86100000Y-119400000D03*
G04 #@! TO.P,D12,2,A2*
G04 #@! TO.N,Net-(D12-A2)*
X86100000Y-115100000D03*
G04 #@! TD*
D43*
G04 #@! TO.P,R22,1*
G04 #@! TO.N,GND*
X170249050Y-68059050D03*
G04 #@! TO.P,R22,2*
G04 #@! TO.N,Net-(U10-1A)*
X168599050Y-68059050D03*
G04 #@! TD*
D18*
G04 #@! TO.P,R42,1*
G04 #@! TO.N,output_b*
X99500000Y-98475000D03*
G04 #@! TO.P,R42,2*
G04 #@! TO.N,Net-(K2-Pad1)*
X99500000Y-100300000D03*
G04 #@! TD*
D37*
G04 #@! TO.P,C49,1*
G04 #@! TO.N,GND*
X118346700Y-57299150D03*
G04 #@! TO.P,C49,2*
G04 #@! TO.N,/PWM_outputs/power_B*
X118346700Y-55749150D03*
G04 #@! TD*
D27*
G04 #@! TO.P,C21,1*
G04 #@! TO.N,GND*
X168025001Y-131699999D03*
G04 #@! TO.P,C21,2*
G04 #@! TO.N,Net-(U3-EN2)*
X169575001Y-131699999D03*
G04 #@! TD*
D29*
G04 #@! TO.P,D14,1,K*
G04 #@! TO.N,GND*
X114700000Y-67700000D03*
G04 #@! TO.P,D14,2,A*
G04 #@! TO.N,Net-(D14-A)*
X116900000Y-67700000D03*
G04 #@! TD*
D34*
G04 #@! TO.P,R5,1*
G04 #@! TO.N,Net-(U1-FB)*
X67315000Y-69752500D03*
G04 #@! TO.P,R5,2*
G04 #@! TO.N,GND*
X68965000Y-69752500D03*
G04 #@! TD*
D47*
G04 #@! TO.P,J31,1,Pin_1*
G04 #@! TO.N,/Inputs/V_switch*
X86200000Y-67600000D03*
D48*
G04 #@! TO.P,J31,2,Pin_2*
G04 #@! TO.N,Net-(D15-A)*
X88200000Y-67600000D03*
G04 #@! TO.P,J31,3,Pin_3*
G04 #@! TO.N,GND*
X90200000Y-67600000D03*
G04 #@! TD*
D31*
G04 #@! TO.P,C43,1*
G04 #@! TO.N,GND*
X123500000Y-66050000D03*
G04 #@! TO.P,C43,2*
G04 #@! TO.N,Net-(U14-EN2)*
X123500000Y-67600000D03*
G04 #@! TD*
D46*
G04 #@! TO.P,C11,1*
G04 #@! TO.N,GND*
X66149400Y-126560000D03*
G04 #@! TO.P,C11,2*
G04 #@! TO.N,Net-(U2-EN{slash}UVLO)*
X64249400Y-126560000D03*
G04 #@! TD*
D36*
G04 #@! TO.P,J20,1,Pin_1*
G04 #@! TO.N,GND*
X49250000Y-79700000D03*
D33*
G04 #@! TO.P,J20,2,Pin_2*
G04 #@! TO.N,+5V*
X49250000Y-84700000D03*
G04 #@! TD*
D39*
G04 #@! TO.P,U7,1,VCC1*
G04 #@! TO.N,+3V3*
X147963099Y-96178702D03*
G04 #@! TO.P,U7,2,GND1*
G04 #@! TO.N,GND2*
X149233099Y-96178702D03*
G04 #@! TO.P,U7,3,INA*
G04 #@! TO.N,z_dir*
X150503099Y-96178702D03*
G04 #@! TO.P,U7,4,INB*
G04 #@! TO.N,z_stp*
X151773099Y-96178702D03*
G04 #@! TO.P,U7,5,INC*
G04 #@! TO.N,axis_enable*
X153043099Y-96178702D03*
G04 #@! TO.P,U7,6,NC*
G04 #@! TO.N,unconnected-(U7-NC-Pad6)*
X154313099Y-96178702D03*
G04 #@! TO.P,U7,7,NC*
G04 #@! TO.N,unconnected-(U7-NC-Pad7)*
X155583099Y-96178702D03*
G04 #@! TO.P,U7,8,GND1*
G04 #@! TO.N,GND2*
X156853099Y-96178702D03*
G04 #@! TO.P,U7,9,GND2*
G04 #@! TO.N,GND*
X156853099Y-86478702D03*
G04 #@! TO.P,U7,10,EN2*
G04 #@! TO.N,Net-(U7-EN2)*
X155583099Y-86478702D03*
G04 #@! TO.P,U7,11,NC*
G04 #@! TO.N,unconnected-(U7-NC-Pad11)*
X154313099Y-86478702D03*
G04 #@! TO.P,U7,12,OUTC*
G04 #@! TO.N,Net-(U7-OUTC)*
X153043099Y-86478702D03*
G04 #@! TO.P,U7,13,OUTB*
G04 #@! TO.N,Net-(U7-OUTB)*
X151773099Y-86478702D03*
G04 #@! TO.P,U7,14,OUTA*
G04 #@! TO.N,Net-(U7-OUTA)*
X150503099Y-86478702D03*
G04 #@! TO.P,U7,15,GND2*
G04 #@! TO.N,GND*
X149233099Y-86478702D03*
G04 #@! TO.P,U7,16,VCC2*
G04 #@! TO.N,Net-(U7-EN2)*
X147963099Y-86478702D03*
G04 #@! TD*
D29*
G04 #@! TO.P,D17,1,K*
G04 #@! TO.N,GND*
X104680000Y-67650000D03*
G04 #@! TO.P,D17,2,A*
G04 #@! TO.N,Net-(D17-A)*
X106880000Y-67650000D03*
G04 #@! TD*
D11*
G04 #@! TO.P,R_ESR1,1*
G04 #@! TO.N,Net-(C8-Pad2)*
X67860000Y-66477500D03*
G04 #@! TO.P,R_ESR1,2*
G04 #@! TO.N,GND*
X67860000Y-68127500D03*
G04 #@! TD*
D44*
G04 #@! TO.P,C56,1*
G04 #@! TO.N,x_home*
X128700000Y-83600000D03*
G04 #@! TO.P,C56,2*
G04 #@! TO.N,GND2*
X130600000Y-83600000D03*
G04 #@! TD*
D12*
G04 #@! TO.P,CR12,1,CATHODE*
G04 #@! TO.N,/A_axis/Y_dir_P*
X173258951Y-67435346D03*
G04 #@! TO.P,CR12,2,CATHODE*
G04 #@! TO.N,/A_axis/Y_dir_N*
X173258951Y-69335348D03*
G04 #@! TO.P,CR12,3,COMMONCATHODE*
G04 #@! TO.N,GND*
X175290951Y-68385347D03*
G04 #@! TD*
D23*
G04 #@! TO.P,J24,1,Pin_1*
G04 #@! TO.N,Net-(D10-A1)*
X90760000Y-102200000D03*
D24*
G04 #@! TO.P,J24,2,Pin_2*
G04 #@! TO.N,+12V*
X93300000Y-102200000D03*
G04 #@! TO.P,J24,3,Pin_3*
G04 #@! TO.N,Net-(D10-A1)*
X90760000Y-104740000D03*
G04 #@! TO.P,J24,4,Pin_4*
G04 #@! TO.N,+5V*
X93300000Y-104740000D03*
G04 #@! TD*
D11*
G04 #@! TO.P,R_ESR2,1*
G04 #@! TO.N,Net-(C17-Pad2)*
X66599400Y-108085000D03*
G04 #@! TO.P,R_ESR2,2*
G04 #@! TO.N,GND*
X66599400Y-109735000D03*
G04 #@! TD*
D43*
G04 #@! TO.P,R27,1*
G04 #@! TO.N,Net-(U11-OUTB)*
X162418501Y-49926297D03*
G04 #@! TO.P,R27,2*
G04 #@! TO.N,GND*
X160768501Y-49926297D03*
G04 #@! TD*
G04 #@! TO.P,R16,1*
G04 #@! TO.N,GND*
X170662500Y-104450001D03*
G04 #@! TO.P,R16,2*
G04 #@! TO.N,Net-(U5-OUTA)*
X169012500Y-104450001D03*
G04 #@! TD*
D27*
G04 #@! TO.P,C50,1*
G04 #@! TO.N,Net-(C50-Pad1)*
X123371700Y-52724150D03*
G04 #@! TO.P,C50,2*
G04 #@! TO.N,GND*
X124921700Y-52724150D03*
G04 #@! TD*
D37*
G04 #@! TO.P,C53,1*
G04 #@! TO.N,GND*
X132980000Y-56900000D03*
G04 #@! TO.P,C53,2*
G04 #@! TO.N,/PWM_outputs/power_A*
X132980000Y-55350000D03*
G04 #@! TD*
D51*
G04 #@! TO.P,R6,1*
G04 #@! TO.N,+5V*
X64427500Y-64452500D03*
G04 #@! TO.P,R6,2*
G04 #@! TO.N,Net-(D3-A)*
X66252500Y-64452500D03*
G04 #@! TD*
D45*
G04 #@! TO.P,U4,1,1A*
G04 #@! TO.N,Net-(U3-OUTA)*
X169700001Y-124649999D03*
G04 #@! TO.P,U4,2,1Y*
G04 #@! TO.N,/X_axis/X_dir_P*
X168430001Y-124649999D03*
G04 #@! TO.P,U4,3,1Z*
G04 #@! TO.N,/X_axis/X_dir_N*
X167160001Y-124649999D03*
G04 #@! TO.P,U4,4,G*
G04 #@! TO.N,Net-(JP1-B)*
X165890001Y-124649999D03*
G04 #@! TO.P,U4,5,2Z*
G04 #@! TO.N,/X_axis/X_step_N*
X164620001Y-124649999D03*
G04 #@! TO.P,U4,6,2Y*
G04 #@! TO.N,/X_axis/X_step_P*
X163350001Y-124649999D03*
G04 #@! TO.P,U4,7,2A*
G04 #@! TO.N,Net-(U3-OUTB)*
X162080001Y-124649999D03*
G04 #@! TO.P,U4,8,GND*
G04 #@! TO.N,GND*
X160810001Y-124649999D03*
G04 #@! TO.P,U4,9,3A*
G04 #@! TO.N,Net-(U3-OUTC)*
X160810001Y-129599999D03*
G04 #@! TO.P,U4,10,3Y*
G04 #@! TO.N,/X_axis/X_ena_P*
X162080001Y-129599999D03*
G04 #@! TO.P,U4,11,3Z*
G04 #@! TO.N,/X_axis/X_ena_N*
X163350001Y-129599999D03*
G04 #@! TO.P,U4,12,~{G}*
G04 #@! TO.N,GND*
X164620001Y-129599999D03*
G04 #@! TO.P,U4,13,4Z*
G04 #@! TO.N,unconnected-(U4-4Z-Pad13)*
X165890001Y-129599999D03*
G04 #@! TO.P,U4,14,4Y*
G04 #@! TO.N,unconnected-(U4-4Y-Pad14)*
X167160001Y-129599999D03*
G04 #@! TO.P,U4,15,4A*
G04 #@! TO.N,unconnected-(U4-4A-Pad15)*
X168430001Y-129599999D03*
G04 #@! TO.P,U4,16,VDD*
G04 #@! TO.N,Net-(U3-EN2)*
X169700001Y-129599999D03*
G04 #@! TD*
D43*
G04 #@! TO.P,R29,1*
G04 #@! TO.N,GND*
X137780000Y-62174150D03*
G04 #@! TO.P,R29,2*
G04 #@! TO.N,Net-(U14-OUTC)*
X136130000Y-62174150D03*
G04 #@! TD*
D31*
G04 #@! TO.P,C35,1*
G04 #@! TO.N,+3V3*
X145781499Y-60323703D03*
G04 #@! TO.P,C35,2*
G04 #@! TO.N,GND2*
X145781499Y-61873703D03*
G04 #@! TD*
D35*
G04 #@! TO.P,J3,1,1*
G04 #@! TO.N,/Z_axis/Y_dir_P*
X180022240Y-94960048D03*
G04 #@! TO.P,J3,2,2*
G04 #@! TO.N,/Z_axis/Y_dir_N*
X180022240Y-91960049D03*
G04 #@! TO.P,J3,3,3*
G04 #@! TO.N,/Z_axis/Y_step_P*
X180022240Y-88960050D03*
G04 #@! TO.P,J3,4,4*
G04 #@! TO.N,/Z_axis/Y_step_N*
X180022240Y-85960051D03*
G04 #@! TO.P,J3,5,5*
G04 #@! TO.N,/Z_axis/Y_ena_P*
X183022239Y-94960048D03*
G04 #@! TO.P,J3,6,6*
G04 #@! TO.N,/Z_axis/Y_ena_N*
X183022239Y-91960049D03*
G04 #@! TO.P,J3,7,7*
G04 #@! TO.N,GND*
X183022239Y-88960050D03*
G04 #@! TO.P,J3,8,8*
G04 #@! TO.N,+5V*
X183022239Y-85960051D03*
G04 #@! TD*
D23*
G04 #@! TO.P,J8,1,Pin_1*
G04 #@! TO.N,GND2*
X143108099Y-95263702D03*
D24*
G04 #@! TO.P,J8,2,Pin_2*
G04 #@! TO.N,z_dir*
X143108099Y-92723702D03*
G04 #@! TO.P,J8,3,Pin_3*
G04 #@! TO.N,z_stp*
X143108099Y-90183702D03*
G04 #@! TO.P,J8,4,Pin_4*
G04 #@! TO.N,axis_enable*
X143108099Y-87643702D03*
G04 #@! TD*
D27*
G04 #@! TO.P,C29,1*
G04 #@! TO.N,GND*
X167954141Y-95389149D03*
G04 #@! TO.P,C29,2*
G04 #@! TO.N,Net-(U7-EN2)*
X169504141Y-95389149D03*
G04 #@! TD*
D35*
G04 #@! TO.P,J5,1,1*
G04 #@! TO.N,/B_axis/Y_dir_P*
X180000001Y-58699998D03*
G04 #@! TO.P,J5,2,2*
G04 #@! TO.N,/B_axis/Y_dir_N*
X180000001Y-55699999D03*
G04 #@! TO.P,J5,3,3*
G04 #@! TO.N,/B_axis/Y_step_P*
X180000001Y-52700000D03*
G04 #@! TO.P,J5,4,4*
G04 #@! TO.N,/B_axis/Y_step_N*
X180000001Y-49700001D03*
G04 #@! TO.P,J5,5,5*
G04 #@! TO.N,/B_axis/Y_ena_P*
X183000000Y-58699998D03*
G04 #@! TO.P,J5,6,6*
G04 #@! TO.N,/B_axis/Y_ena_N*
X183000000Y-55699999D03*
G04 #@! TO.P,J5,7,7*
G04 #@! TO.N,GND*
X183000000Y-52700000D03*
G04 #@! TO.P,J5,8,8*
G04 #@! TO.N,+5V*
X183000000Y-49700001D03*
G04 #@! TD*
D27*
G04 #@! TO.P,C30,1*
G04 #@! TO.N,GND*
X168012239Y-96960050D03*
G04 #@! TO.P,C30,2*
G04 #@! TO.N,Net-(U7-EN2)*
X169562239Y-96960050D03*
G04 #@! TD*
D22*
G04 #@! TO.P,C5,1*
G04 #@! TO.N,Net-(U1-BST)*
X65825000Y-71862500D03*
G04 #@! TO.P,C5,2*
G04 #@! TO.N,Net-(U1-SW)*
X64275000Y-71862500D03*
G04 #@! TD*
D40*
G04 #@! TO.P,R53,1*
G04 #@! TO.N,/Inputs/V_switch*
X81517938Y-54847500D03*
G04 #@! TO.P,R53,2*
G04 #@! TO.N,Net-(J28-Pin_3)*
X79692938Y-54847500D03*
G04 #@! TD*
D18*
G04 #@! TO.P,R48,1*
G04 #@! TO.N,z_home*
X113750000Y-77787500D03*
G04 #@! TO.P,R48,2*
G04 #@! TO.N,+3V3*
X113750000Y-79612500D03*
G04 #@! TD*
D40*
G04 #@! TO.P,R34,1*
G04 #@! TO.N,Net-(C47-Pad1)*
X106500000Y-52621300D03*
G04 #@! TO.P,R34,2*
G04 #@! TO.N,/PWM_outputs/signal_C*
X104675000Y-52621300D03*
G04 #@! TD*
D18*
G04 #@! TO.P,R46,1*
G04 #@! TO.N,x_home*
X118800000Y-77787500D03*
G04 #@! TO.P,R46,2*
G04 #@! TO.N,+3V3*
X118800000Y-79612500D03*
G04 #@! TD*
D46*
G04 #@! TO.P,C3,1*
G04 #@! TO.N,GND*
X67750000Y-83362500D03*
G04 #@! TO.P,C3,2*
G04 #@! TO.N,Net-(U1-EN{slash}UVLO)*
X65850000Y-83362500D03*
G04 #@! TD*
D15*
G04 #@! TO.P,C57,1*
G04 #@! TO.N,y_home*
X108300000Y-88650000D03*
G04 #@! TO.P,C57,2*
G04 #@! TO.N,GND2*
X108300000Y-86750000D03*
G04 #@! TD*
D23*
G04 #@! TO.P,J28,1,Pin_1*
G04 #@! TO.N,Net-(J28-Pin_1)*
X76767938Y-57387500D03*
D24*
G04 #@! TO.P,J28,2,Pin_2*
G04 #@! TO.N,+12V*
X74227938Y-57387500D03*
G04 #@! TO.P,J28,3,Pin_3*
G04 #@! TO.N,Net-(J28-Pin_3)*
X76767938Y-54847500D03*
G04 #@! TO.P,J28,4,Pin_4*
G04 #@! TO.N,+5V*
X74227938Y-54847500D03*
G04 #@! TD*
D53*
G04 #@! TO.P,FB2,1*
G04 #@! TO.N,+48V*
X65449400Y-130722500D03*
G04 #@! TO.P,FB2,2*
G04 #@! TO.N,Net-(U2-EN{slash}UVLO)*
X65449400Y-128597500D03*
G04 #@! TD*
D25*
G04 #@! TO.P,JP4,1,A*
G04 #@! TO.N,+5V*
X170600000Y-64900000D03*
D26*
G04 #@! TO.P,JP4,2,B*
G04 #@! TO.N,Net-(JP4-B)*
X165520000Y-64900000D03*
G04 #@! TD*
D45*
G04 #@! TO.P,U12,1,1A*
G04 #@! TO.N,Net-(U11-OUTA)*
X169640001Y-52050000D03*
G04 #@! TO.P,U12,2,1Y*
G04 #@! TO.N,/B_axis/Y_dir_P*
X168370001Y-52050000D03*
G04 #@! TO.P,U12,3,1Z*
G04 #@! TO.N,/B_axis/Y_dir_N*
X167100001Y-52050000D03*
G04 #@! TO.P,U12,4,G*
G04 #@! TO.N,Net-(JP5-B)*
X165830001Y-52050000D03*
G04 #@! TO.P,U12,5,2Z*
G04 #@! TO.N,/B_axis/Y_step_N*
X164560001Y-52050000D03*
G04 #@! TO.P,U12,6,2Y*
G04 #@! TO.N,/B_axis/Y_step_P*
X163290001Y-52050000D03*
G04 #@! TO.P,U12,7,2A*
G04 #@! TO.N,Net-(U11-OUTB)*
X162020001Y-52050000D03*
G04 #@! TO.P,U12,8,GND*
G04 #@! TO.N,GND*
X160750001Y-52050000D03*
G04 #@! TO.P,U12,9,3A*
G04 #@! TO.N,Net-(U11-OUTC)*
X160750001Y-57000000D03*
G04 #@! TO.P,U12,10,3Y*
G04 #@! TO.N,/B_axis/Y_ena_P*
X162020001Y-57000000D03*
G04 #@! TO.P,U12,11,3Z*
G04 #@! TO.N,/B_axis/Y_ena_N*
X163290001Y-57000000D03*
G04 #@! TO.P,U12,12,~{G}*
G04 #@! TO.N,GND*
X164560001Y-57000000D03*
G04 #@! TO.P,U12,13,4Z*
G04 #@! TO.N,unconnected-(U12-4Z-Pad13)*
X165830001Y-57000000D03*
G04 #@! TO.P,U12,14,4Y*
G04 #@! TO.N,unconnected-(U12-4Y-Pad14)*
X167100001Y-57000000D03*
G04 #@! TO.P,U12,15,4A*
G04 #@! TO.N,unconnected-(U12-4A-Pad15)*
X168370001Y-57000000D03*
G04 #@! TO.P,U12,16,VDD*
G04 #@! TO.N,Net-(U11-EN2)*
X169640001Y-57000000D03*
G04 #@! TD*
D59*
G04 #@! TO.P,A1,1,GPIO0*
G04 #@! TO.N,/UART-TX*
X129800000Y-135390000D03*
D60*
G04 #@! TO.P,A1,2,GPIO1*
G04 #@! TO.N,/UART-RX*
X129800000Y-132850000D03*
D61*
G04 #@! TO.P,A1,3,GND*
G04 #@! TO.N,GND2*
X129800000Y-130310000D03*
D60*
G04 #@! TO.P,A1,4,GPIO2*
G04 #@! TO.N,x_stp*
X129800000Y-127770000D03*
G04 #@! TO.P,A1,5,GPIO3*
G04 #@! TO.N,y_stp*
X129800000Y-125230000D03*
G04 #@! TO.P,A1,6,GPIO4*
G04 #@! TO.N,z_stp*
X129800000Y-122690000D03*
G04 #@! TO.P,A1,7,GPIO5*
G04 #@! TO.N,a_stp*
X129800000Y-120150000D03*
D61*
G04 #@! TO.P,A1,8,GND*
G04 #@! TO.N,GND2*
X129800000Y-117610000D03*
D60*
G04 #@! TO.P,A1,9,GPIO6*
G04 #@! TO.N,b_stp*
X129800000Y-115070000D03*
G04 #@! TO.P,A1,10,GPIO7*
G04 #@! TO.N,x_dir*
X129800000Y-112530000D03*
G04 #@! TO.P,A1,11,GPIO8*
G04 #@! TO.N,y_dir*
X129800000Y-109990000D03*
G04 #@! TO.P,A1,12,GPIO9*
G04 #@! TO.N,z_dir*
X129800000Y-107450000D03*
D61*
G04 #@! TO.P,A1,13,GND*
G04 #@! TO.N,GND2*
X129800000Y-104910000D03*
D60*
G04 #@! TO.P,A1,14,GPIO10*
G04 #@! TO.N,a_dir*
X129800000Y-102370000D03*
G04 #@! TO.P,A1,15,GPIO11*
G04 #@! TO.N,b_dir*
X129800000Y-99830000D03*
G04 #@! TO.P,A1,16,GPIO12*
G04 #@! TO.N,axis_enable*
X129800000Y-97290000D03*
G04 #@! TO.P,A1,17,GPIO13*
G04 #@! TO.N,pwm_a*
X129800000Y-94750000D03*
D61*
G04 #@! TO.P,A1,18,GND*
G04 #@! TO.N,GND2*
X129800000Y-92210000D03*
D60*
G04 #@! TO.P,A1,19,GPIO14*
G04 #@! TO.N,pwm_b*
X129800000Y-89670000D03*
G04 #@! TO.P,A1,20,GPIO15*
G04 #@! TO.N,x_home*
X129800000Y-87130000D03*
G04 #@! TO.P,A1,21,GPIO16*
G04 #@! TO.N,pwm_c*
X112020000Y-87130000D03*
G04 #@! TO.P,A1,22,GPIO17*
G04 #@! TO.N,y_home*
X112020000Y-89670000D03*
D62*
G04 #@! TO.P,A1,23,GND*
G04 #@! TO.N,GND2*
X112020000Y-92210000D03*
D60*
G04 #@! TO.P,A1,24,GPIO18*
G04 #@! TO.N,z_home*
X112020000Y-94750000D03*
G04 #@! TO.P,A1,25,GPIO19*
G04 #@! TO.N,a_home*
X112020000Y-97290000D03*
G04 #@! TO.P,A1,26,GPIO20*
G04 #@! TO.N,b_home*
X112020000Y-99830000D03*
G04 #@! TO.P,A1,27,GPIO21*
G04 #@! TO.N,c_input*
X112020000Y-102370000D03*
D62*
G04 #@! TO.P,A1,28,GND*
G04 #@! TO.N,GND2*
X112020000Y-104910000D03*
D60*
G04 #@! TO.P,A1,29,GPIO22*
G04 #@! TO.N,estop_all*
X112020000Y-107450000D03*
G04 #@! TO.P,A1,30,RUN*
G04 #@! TO.N,unconnected-(A1-RUN-Pad30)*
X112020000Y-109990000D03*
G04 #@! TO.P,A1,31,GPIO26_ADC0*
G04 #@! TO.N,output_a*
X112020000Y-112530000D03*
G04 #@! TO.P,A1,32,GPIO27_ADC1*
G04 #@! TO.N,output_b*
X112020000Y-115070000D03*
D62*
G04 #@! TO.P,A1,33,AGND*
G04 #@! TO.N,unconnected-(A1-AGND-Pad33)*
X112020000Y-117610000D03*
D60*
G04 #@! TO.P,A1,34,GPIO28_ADC2*
G04 #@! TO.N,output_c*
X112020000Y-120150000D03*
G04 #@! TO.P,A1,35,ADC_VREF*
G04 #@! TO.N,unconnected-(A1-ADC_VREF-Pad35)*
X112020000Y-122690000D03*
G04 #@! TO.P,A1,36,3V3*
G04 #@! TO.N,+3V3*
X112020000Y-125230000D03*
G04 #@! TO.P,A1,37,3V3_EN*
G04 #@! TO.N,unconnected-(A1-3V3_EN-Pad37)*
X112020000Y-127770000D03*
D62*
G04 #@! TO.P,A1,38,GND*
G04 #@! TO.N,GND2*
X112020000Y-130310000D03*
D60*
G04 #@! TO.P,A1,39,VSYS*
G04 #@! TO.N,+5VA*
X112020000Y-132850000D03*
G04 #@! TO.P,A1,40,VBUS*
G04 #@! TO.N,unconnected-(A1-VBUS-Pad40)*
X112020000Y-135390000D03*
G04 #@! TD*
D18*
G04 #@! TO.P,R43,1*
G04 #@! TO.N,Net-(D9-A)*
X97400000Y-98475000D03*
G04 #@! TO.P,R43,2*
G04 #@! TO.N,Net-(K2-Pad1)*
X97400000Y-100300000D03*
G04 #@! TD*
D45*
G04 #@! TO.P,U8,1,1A*
G04 #@! TO.N,Net-(U7-OUTA)*
X169662240Y-88310050D03*
G04 #@! TO.P,U8,2,1Y*
G04 #@! TO.N,/Z_axis/Y_dir_P*
X168392240Y-88310050D03*
G04 #@! TO.P,U8,3,1Z*
G04 #@! TO.N,/Z_axis/Y_dir_N*
X167122240Y-88310050D03*
G04 #@! TO.P,U8,4,G*
G04 #@! TO.N,Net-(JP3-B)*
X165852240Y-88310050D03*
G04 #@! TO.P,U8,5,2Z*
G04 #@! TO.N,/Z_axis/Y_step_N*
X164582240Y-88310050D03*
G04 #@! TO.P,U8,6,2Y*
G04 #@! TO.N,/Z_axis/Y_step_P*
X163312240Y-88310050D03*
G04 #@! TO.P,U8,7,2A*
G04 #@! TO.N,Net-(U7-OUTB)*
X162042240Y-88310050D03*
G04 #@! TO.P,U8,8,GND*
G04 #@! TO.N,GND*
X160772240Y-88310050D03*
G04 #@! TO.P,U8,9,3A*
G04 #@! TO.N,Net-(U7-OUTC)*
X160772240Y-93260050D03*
G04 #@! TO.P,U8,10,3Y*
G04 #@! TO.N,/Z_axis/Y_ena_P*
X162042240Y-93260050D03*
G04 #@! TO.P,U8,11,3Z*
G04 #@! TO.N,/Z_axis/Y_ena_N*
X163312240Y-93260050D03*
G04 #@! TO.P,U8,12,~{G}*
G04 #@! TO.N,GND*
X164582240Y-93260050D03*
G04 #@! TO.P,U8,13,4Z*
G04 #@! TO.N,unconnected-(U8-4Z-Pad13)*
X165852240Y-93260050D03*
G04 #@! TO.P,U8,14,4Y*
G04 #@! TO.N,unconnected-(U8-4Y-Pad14)*
X167122240Y-93260050D03*
G04 #@! TO.P,U8,15,4A*
G04 #@! TO.N,unconnected-(U8-4A-Pad15)*
X168392240Y-93260050D03*
G04 #@! TO.P,U8,16,VDD*
G04 #@! TO.N,Net-(U7-EN2)*
X169662240Y-93260050D03*
G04 #@! TD*
D44*
G04 #@! TO.P,C9,1*
G04 #@! TO.N,+5V*
X64350000Y-62412500D03*
G04 #@! TO.P,C9,2*
G04 #@! TO.N,GND*
X66250000Y-62412500D03*
G04 #@! TD*
D35*
G04 #@! TO.P,J18,1,1*
G04 #@! TO.N,GND*
X136899999Y-47068699D03*
G04 #@! TO.P,J18,2,2*
G04 #@! TO.N,/PWM_outputs/signal_A*
X133900000Y-47068699D03*
G04 #@! TO.P,J18,3,3*
G04 #@! TO.N,/PWM_outputs/power_A*
X130900001Y-47068699D03*
G04 #@! TD*
D12*
G04 #@! TO.P,CR11,1,CATHODE*
G04 #@! TO.N,/Z_axis/Y_ena_P*
X173346240Y-95381549D03*
G04 #@! TO.P,CR11,2,CATHODE*
G04 #@! TO.N,/Z_axis/Y_ena_N*
X173346240Y-97281551D03*
G04 #@! TO.P,CR11,3,COMMONCATHODE*
G04 #@! TO.N,GND*
X175378240Y-96331550D03*
G04 #@! TD*
D42*
G04 #@! TO.P,C61,1*
G04 #@! TO.N,c_input*
X108300000Y-103550000D03*
G04 #@! TO.P,C61,2*
G04 #@! TO.N,GND2*
X108300000Y-105450000D03*
G04 #@! TD*
D43*
G04 #@! TO.P,R28,1*
G04 #@! TO.N,GND*
X107775000Y-62401700D03*
G04 #@! TO.P,R28,2*
G04 #@! TO.N,Net-(U14-OUTA)*
X106125000Y-62401700D03*
G04 #@! TD*
D22*
G04 #@! TO.P,C20,1*
G04 #@! TO.N,GND*
X149575000Y-120650000D03*
G04 #@! TO.P,C20,2*
G04 #@! TO.N,Net-(U3-EN2)*
X148025000Y-120650000D03*
G04 #@! TD*
D57*
G04 #@! TO.P,D3,1,K*
G04 #@! TO.N,GND*
X68140000Y-62552500D03*
G04 #@! TO.P,D3,2,A*
G04 #@! TO.N,Net-(D3-A)*
X68140000Y-64427500D03*
G04 #@! TD*
D18*
G04 #@! TO.P,R39,1*
G04 #@! TO.N,Net-(U14-INB)*
X129260000Y-79437500D03*
G04 #@! TO.P,R39,2*
G04 #@! TO.N,pwm_b*
X129260000Y-81262500D03*
G04 #@! TD*
D27*
G04 #@! TO.P,C54,1*
G04 #@! TO.N,Net-(C54-Pad1)*
X138175000Y-52500000D03*
G04 #@! TO.P,C54,2*
G04 #@! TO.N,GND*
X139725000Y-52500000D03*
G04 #@! TD*
D23*
G04 #@! TO.P,J6,1,Pin_1*
G04 #@! TO.N,GND2*
X143181800Y-131150000D03*
D24*
G04 #@! TO.P,J6,2,Pin_2*
G04 #@! TO.N,x_dir*
X143181800Y-128610000D03*
G04 #@! TO.P,J6,3,Pin_3*
G04 #@! TO.N,x_stp*
X143181800Y-126070000D03*
G04 #@! TO.P,J6,4,Pin_4*
G04 #@! TO.N,axis_enable*
X143181800Y-123530000D03*
G04 #@! TD*
D12*
G04 #@! TO.P,CR3,1,CATHODE*
G04 #@! TO.N,/X_axis/X_dir_P*
X173049801Y-121049998D03*
G04 #@! TO.P,CR3,2,CATHODE*
G04 #@! TO.N,/X_axis/X_dir_N*
X173049801Y-122950000D03*
G04 #@! TO.P,CR3,3,COMMONCATHODE*
G04 #@! TO.N,GND*
X175081801Y-121999999D03*
G04 #@! TD*
D56*
G04 #@! TO.P,D10,1,A1*
G04 #@! TO.N,Net-(D10-A1)*
X86000000Y-105000000D03*
G04 #@! TO.P,D10,2,A2*
G04 #@! TO.N,Net-(D10-A2)*
X86000000Y-100700000D03*
G04 #@! TD*
D63*
G04 #@! TO.N,GND*
X67299400Y-124350000D03*
X70749400Y-121710000D03*
X166800000Y-114300001D03*
X107350000Y-66380000D03*
X69749400Y-118285000D03*
X150800000Y-65850000D03*
X173959000Y-50900000D03*
X166740001Y-59900000D03*
X172041641Y-86186347D03*
X171624701Y-104450001D03*
X174008952Y-68385347D03*
X96300000Y-70800000D03*
X174340001Y-60071500D03*
X68960000Y-83342500D03*
X71800000Y-81262500D03*
X163775000Y-113568100D03*
X65010000Y-75722500D03*
X174362240Y-96331550D03*
X156921500Y-51773703D03*
X66949400Y-122350000D03*
X171393501Y-50026297D03*
X138875000Y-62100000D03*
X166762240Y-96160050D03*
D64*
X50000000Y-45000000D03*
D63*
X163600001Y-131749999D03*
X64844400Y-117634150D03*
X174400001Y-132671499D03*
X109555087Y-53953400D03*
X139775000Y-53750000D03*
X65000000Y-77062500D03*
X53950000Y-87682500D03*
X159562240Y-88960050D03*
X53980000Y-88907500D03*
X173949801Y-127249998D03*
X66199400Y-117040000D03*
X150600000Y-102350000D03*
X66300000Y-76362500D03*
X159362500Y-104350001D03*
X159625000Y-125299999D03*
X69000000Y-68662500D03*
X125101700Y-53998300D03*
X166800001Y-132499999D03*
X57000000Y-123150000D03*
X150525000Y-120625000D03*
X150500000Y-84050000D03*
X67220000Y-60152500D03*
X54004400Y-129235000D03*
X59300000Y-123150000D03*
X173799802Y-121999999D03*
X156858099Y-88373703D03*
D64*
X160900000Y-45000000D03*
D63*
X109005087Y-62403400D03*
X103005087Y-58053400D03*
X159549050Y-70809050D03*
X118351700Y-58398300D03*
X63449400Y-118260000D03*
X174349050Y-78180550D03*
X64844400Y-117634150D03*
X159700000Y-49900000D03*
X68550000Y-81382500D03*
X63449400Y-117010000D03*
X156900000Y-106650000D03*
X66924400Y-102785000D03*
X174058951Y-73135347D03*
X159224050Y-68259050D03*
X163556001Y-59126297D03*
X159714899Y-122673703D03*
X53974400Y-128035000D03*
X123500000Y-64900000D03*
X156900000Y-124950000D03*
X163787240Y-95386347D03*
X173768000Y-55050000D03*
X84510000Y-124340000D03*
X67580000Y-75732500D03*
X63400000Y-79150000D03*
X156900000Y-70150000D03*
X173881190Y-91401000D03*
X131675000Y-52250000D03*
X65599400Y-101610000D03*
X101605087Y-52403400D03*
X58800000Y-82950000D03*
X67240000Y-58482500D03*
D64*
X160000000Y-136500000D03*
D63*
X67570000Y-77102500D03*
D64*
X50000000Y-136500000D03*
D63*
X114050000Y-66350000D03*
X105630000Y-67650000D03*
X62000000Y-120450000D03*
X166749050Y-78009050D03*
X159600000Y-107100001D03*
X66179400Y-118260000D03*
X86200000Y-125100000D03*
X117600000Y-66350000D03*
X61000000Y-82950000D03*
X134650000Y-68650000D03*
X149621500Y-46273703D03*
X100250000Y-67600000D03*
X174009901Y-109031902D03*
X110800000Y-66400000D03*
X171324050Y-68059050D03*
X127050000Y-68550000D03*
X67924400Y-109760000D03*
X163686550Y-77159050D03*
X159366641Y-86186347D03*
X124451700Y-62248300D03*
X65599400Y-100785000D03*
X170900001Y-122649999D03*
X67230000Y-59272500D03*
X71700000Y-78162500D03*
X65574400Y-99960000D03*
X132975000Y-57950000D03*
X174400000Y-114471501D03*
X68930000Y-85912500D03*
X173963191Y-87100999D03*
X67329400Y-126560000D03*
X173859902Y-103881902D03*
X117051700Y-52348300D03*
D65*
G04 #@! TO.N,+5V*
X76879999Y-113200000D03*
X93900000Y-54850000D03*
X111545218Y-43150305D03*
D63*
X94700000Y-57800000D03*
D65*
X90600000Y-54900000D03*
X111545218Y-46050000D03*
D63*
X96600000Y-59350000D03*
D65*
X76879999Y-109200000D03*
D63*
G04 #@! TO.N,GND2*
X95600000Y-109640000D03*
X108300000Y-106600000D03*
X155500000Y-80150000D03*
X109000000Y-90800000D03*
X95400000Y-80300000D03*
X148550000Y-116800000D03*
X148650000Y-98450000D03*
X148650000Y-135050000D03*
X131250000Y-79050000D03*
X133600000Y-74950000D03*
X131700000Y-83600000D03*
X123550000Y-79000000D03*
X96300000Y-95500000D03*
X116550000Y-74600000D03*
X155800000Y-116850000D03*
X155350000Y-135050000D03*
X109000000Y-85600000D03*
X148700000Y-80150000D03*
X112450000Y-74600000D03*
X148650000Y-61850000D03*
X97200000Y-79700000D03*
X109000000Y-98600000D03*
X127250000Y-79100000D03*
X127700000Y-74950000D03*
X155700000Y-61850000D03*
X135250000Y-79050000D03*
X155850000Y-98450000D03*
X104500000Y-74300000D03*
G04 #@! TO.N,+3V3*
X140450000Y-113350000D03*
X141800000Y-64800000D03*
X113750000Y-80800000D03*
X136800000Y-77050000D03*
X140350000Y-108700000D03*
X109325000Y-80800000D03*
X138150000Y-64800000D03*
X140800000Y-78600000D03*
X139850000Y-128850000D03*
X116250000Y-80800000D03*
X120650000Y-79600000D03*
X140800000Y-91200000D03*
X140850000Y-95600000D03*
X107000000Y-80800000D03*
X111150000Y-80800000D03*
X104600000Y-80787500D03*
X139850000Y-123750000D03*
X102000000Y-80800000D03*
X120750000Y-77350000D03*
G04 #@! TO.N,Net-(JP1-B)*
X165890001Y-124649999D03*
G04 #@! TO.N,Net-(JP2-B)*
X165890000Y-106450001D03*
G04 #@! TO.N,Net-(JP3-B)*
X165852240Y-88310050D03*
G04 #@! TO.N,Net-(JP4-B)*
X165839050Y-70159050D03*
G04 #@! TO.N,Net-(JP5-B)*
X165830001Y-52050000D03*
G04 #@! TO.N,z_dir*
X137400000Y-99550000D03*
X139950000Y-99550000D03*
G04 #@! TO.N,a_dir*
X139500000Y-92250000D03*
X137400000Y-93650000D03*
G04 #@! TO.N,b_dir*
X140850000Y-63700000D03*
X139400000Y-63700000D03*
G04 #@! TO.N,axis_enable*
X136600000Y-87600000D03*
G04 #@! TO.N,x_dir*
X136100000Y-116500000D03*
X133650000Y-113900000D03*
X141050000Y-126400000D03*
G04 #@! TO.N,y_dir*
X137300000Y-110000000D03*
X139150000Y-113350000D03*
G04 #@! TO.N,Net-(D19-A)*
X96600000Y-67282000D03*
X87700000Y-50800000D03*
X87700000Y-54300000D03*
X96600000Y-63700000D03*
G04 #@! TO.N,x_home*
X123400000Y-82100000D03*
X124300000Y-83200000D03*
G04 #@! TD*
D66*
G04 #@! TO.N,GND*
X124051700Y-60348300D02*
X124051700Y-61848300D01*
X139725000Y-53700000D02*
X139775000Y-53750000D01*
X166800000Y-114300001D02*
X164620000Y-112120001D01*
X149533099Y-86178703D02*
X149233099Y-86478703D01*
X149596500Y-47473703D02*
X149596500Y-49578703D01*
X109612500Y-53939200D02*
X108550000Y-55001700D01*
X66149400Y-122735000D02*
X65824400Y-122410000D01*
X149596500Y-49578703D02*
X149296500Y-49878703D01*
D67*
X134650000Y-68650000D02*
X134650000Y-66900000D01*
D66*
X124921700Y-53818300D02*
X125101700Y-53998300D01*
X167250001Y-132499999D02*
X168050001Y-133299999D01*
X150500000Y-84050000D02*
X150498703Y-84048703D01*
D68*
X54540000Y-88272500D02*
X53950000Y-87682500D01*
D67*
X172809901Y-109031902D02*
X174009901Y-109031902D01*
D66*
X103000000Y-59155400D02*
X103000000Y-58058487D01*
D68*
X56503400Y-88272500D02*
X54615000Y-88272500D01*
D10*
X68395000Y-68662500D02*
X67860000Y-68127500D01*
D67*
X68000000Y-62412500D02*
X68140000Y-62552500D01*
D66*
X171324050Y-68059050D02*
X170249050Y-68059050D01*
X156900000Y-106650000D02*
X156900000Y-104760000D01*
X159362500Y-104350001D02*
X160437500Y-104350001D01*
D10*
X71049400Y-123022500D02*
X71049400Y-122010000D01*
D66*
X150498703Y-84048703D02*
X149558099Y-84048703D01*
X167187240Y-96160050D02*
X167987240Y-95360050D01*
D69*
X66250000Y-62412500D02*
X68000000Y-62412500D01*
D66*
X167250000Y-114300001D02*
X168050000Y-115100001D01*
X167165001Y-59900000D02*
X167965001Y-59100000D01*
X159656801Y-122449999D02*
X160731801Y-122449999D01*
D67*
X105630000Y-67650000D02*
X104680000Y-67650000D01*
D66*
X132975000Y-57950000D02*
X132975000Y-59020000D01*
D70*
X67970000Y-85912500D02*
X67750000Y-85692500D01*
D66*
X131675000Y-52250000D02*
X132980000Y-52250000D01*
D67*
X174349050Y-78180550D02*
X175365050Y-78180550D01*
D10*
X100650000Y-68380000D02*
X101380000Y-67650000D01*
D66*
X124051700Y-61848300D02*
X124451700Y-62248300D01*
D10*
X70474400Y-120360000D02*
X70474400Y-119010000D01*
X71450000Y-78162500D02*
X70050000Y-76762500D01*
X71800000Y-79950000D02*
X71712500Y-79862500D01*
D67*
X127050000Y-68000000D02*
X127030000Y-67980000D01*
D66*
X156900000Y-123060000D02*
X156895000Y-123055000D01*
X166800000Y-114300001D02*
X167225000Y-114300001D01*
X167212240Y-96160050D02*
X168012240Y-96960050D01*
D10*
X71700000Y-78162500D02*
X71450000Y-78162500D01*
D66*
X149621500Y-46273703D02*
X149621500Y-47448703D01*
X163556001Y-59126297D02*
X164560001Y-58122297D01*
D10*
X70749400Y-120635000D02*
X70474400Y-120360000D01*
D67*
X95300000Y-70800000D02*
X96300000Y-70800000D01*
X101380000Y-67650000D02*
X100300000Y-67650000D01*
D66*
X118346700Y-52649150D02*
X117352550Y-52649150D01*
D67*
X110800000Y-66400000D02*
X111500000Y-67100000D01*
D66*
X163686550Y-77159050D02*
X162611550Y-77159050D01*
D67*
X173799802Y-121999999D02*
X175081801Y-121999999D01*
D66*
X149575000Y-122755000D02*
X149275000Y-123055000D01*
X164620001Y-130319999D02*
X164620001Y-129599999D01*
X159700000Y-49900000D02*
X159700000Y-50607796D01*
D10*
X69649400Y-118185000D02*
X69749400Y-118285000D01*
X70749400Y-121710000D02*
X70749400Y-120635000D01*
X66849400Y-104172500D02*
X66849400Y-102860000D01*
D66*
X156900000Y-104760000D02*
X156895000Y-104755000D01*
X159600000Y-107100001D02*
X160160000Y-107100001D01*
X166800001Y-132499999D02*
X167225001Y-132499999D01*
X138800850Y-62174150D02*
X138875000Y-62100000D01*
X123371699Y-62281748D02*
X124418252Y-62281748D01*
X160750001Y-51657797D02*
X160750001Y-52050000D01*
X159600001Y-125299999D02*
X160160001Y-125299999D01*
X86200000Y-126145000D02*
X86160000Y-126185000D01*
D67*
X108100000Y-67890000D02*
X109910000Y-69700000D01*
D10*
X71712500Y-79862500D02*
X71712500Y-78175000D01*
D69*
X64999400Y-104010000D02*
X66686900Y-104010000D01*
D70*
X67780000Y-83342500D02*
X68960000Y-83342500D01*
D10*
X56503400Y-88272500D02*
X54540000Y-88272500D01*
D70*
X66119400Y-124350000D02*
X67299400Y-124350000D01*
D66*
X101631787Y-52376700D02*
X101605087Y-52403400D01*
D67*
X114850000Y-67150000D02*
X114850000Y-67700000D01*
D66*
X118346700Y-58393300D02*
X118351700Y-58398300D01*
X167225001Y-132499999D02*
X168025001Y-131699999D01*
X160122240Y-88960050D02*
X160772240Y-88310050D01*
D67*
X114700000Y-67700000D02*
X114700000Y-69410000D01*
D66*
X85835000Y-125860000D02*
X86160000Y-126185000D01*
D67*
X94500000Y-70000000D02*
X95300000Y-70800000D01*
X111350000Y-67700000D02*
X112450000Y-68800000D01*
D66*
X167174050Y-78009050D02*
X167974050Y-77209050D01*
D67*
X108250000Y-67280000D02*
X108250000Y-67700000D01*
D66*
X132980000Y-57945000D02*
X132975000Y-57950000D01*
X164560001Y-58122297D02*
X164560001Y-57000000D01*
X166740001Y-59900000D02*
X167190001Y-59900000D01*
D10*
X67750000Y-83362500D02*
X67750000Y-83312500D01*
D66*
X132975000Y-59020000D02*
X132980000Y-59025000D01*
X160160001Y-125299999D02*
X160810001Y-124649999D01*
X166749050Y-78009050D02*
X164569050Y-75829050D01*
X166749050Y-78009050D02*
X167174050Y-78009050D01*
X156900000Y-124950000D02*
X156900000Y-123060000D01*
X138655000Y-61880000D02*
X138875000Y-62100000D01*
D10*
X67924400Y-109760000D02*
X67899400Y-109735000D01*
X100650000Y-69700002D02*
X100650000Y-68380000D01*
D67*
X96300000Y-70800000D02*
X97010002Y-70800000D01*
D10*
X69000000Y-69717500D02*
X68965000Y-69752500D01*
D66*
X107775000Y-62401700D02*
X109003387Y-62401700D01*
X139725000Y-52500000D02*
X139725000Y-53700000D01*
X118351700Y-59544150D02*
X118346700Y-59549150D01*
D10*
X67395000Y-81382500D02*
X68550000Y-81382500D01*
D66*
X53974400Y-128035000D02*
X54549400Y-128610000D01*
D67*
X94500000Y-69300000D02*
X94500000Y-70000000D01*
X118250000Y-67000000D02*
X118250000Y-67700000D01*
D66*
X164620000Y-112120001D02*
X164620000Y-111400001D01*
X102950000Y-56951700D02*
X102950000Y-57998313D01*
D10*
X67899400Y-109735000D02*
X66599400Y-109735000D01*
D66*
X171393501Y-50026297D02*
X170318501Y-50026297D01*
X149558099Y-84048703D02*
X149533099Y-84073703D01*
D67*
X174008952Y-68385347D02*
X175290951Y-68385347D01*
D69*
X66686900Y-104010000D02*
X66849400Y-104172500D01*
D67*
X112450000Y-68800000D02*
X112450000Y-69700000D01*
D66*
X137780000Y-62174150D02*
X138800850Y-62174150D01*
D10*
X66849400Y-102860000D02*
X66924400Y-102785000D01*
D66*
X108550000Y-61948313D02*
X109005087Y-62403400D01*
X156858099Y-86483703D02*
X156853099Y-86478703D01*
X156921500Y-51773703D02*
X156921500Y-49883703D01*
X159562240Y-88960050D02*
X160122240Y-88960050D01*
X66149400Y-126560000D02*
X66149400Y-122735000D01*
D10*
X69000000Y-68662500D02*
X68395000Y-68662500D01*
D67*
X174400001Y-132671499D02*
X175416001Y-132671499D01*
D66*
X166092204Y-59900000D02*
X164560001Y-58367797D01*
X149533099Y-84073703D02*
X149533099Y-86178703D01*
D67*
X172568000Y-55050000D02*
X173768000Y-55050000D01*
D66*
X124051700Y-54900000D02*
X124200000Y-54900000D01*
X166762240Y-96160050D02*
X164582240Y-93980050D01*
X156858099Y-88373703D02*
X156858099Y-86483703D01*
D67*
X172681190Y-91401000D02*
X173881190Y-91401000D01*
X174340001Y-60071500D02*
X175356001Y-60071500D01*
D66*
X124418252Y-62281748D02*
X124451700Y-62248300D01*
X117352550Y-52649150D02*
X117051700Y-52348300D01*
X150800000Y-65850000D02*
X150775000Y-65825000D01*
D70*
X66149400Y-126560000D02*
X67329400Y-126560000D01*
D67*
X173959000Y-50900000D02*
X175240999Y-50900000D01*
D66*
X166800001Y-132499999D02*
X164620001Y-130319999D01*
D10*
X67750000Y-85692500D02*
X67750000Y-85862500D01*
D67*
X172749801Y-127249998D02*
X173949801Y-127249998D01*
D66*
X84510000Y-125860000D02*
X85835000Y-125860000D01*
D10*
X67300000Y-82912500D02*
X67750000Y-83362500D01*
D66*
X149600000Y-120625000D02*
X149575000Y-120650000D01*
X156900000Y-70150000D02*
X156900000Y-68260000D01*
X159224050Y-68259050D02*
X160299050Y-68259050D01*
X163600001Y-131749999D02*
X162525001Y-131749999D01*
D10*
X68649400Y-118185000D02*
X69649400Y-118185000D01*
D66*
X108550000Y-60450000D02*
X108550000Y-61948313D01*
X159700000Y-49900000D02*
X159726297Y-49926297D01*
X149575000Y-102350000D02*
X149575000Y-104455000D01*
D10*
X54549400Y-128610000D02*
X56682800Y-128610000D01*
D66*
X166740001Y-59900000D02*
X167165001Y-59900000D01*
X159700000Y-50607796D02*
X160750001Y-51657797D01*
D70*
X67750000Y-83312500D02*
X67780000Y-83342500D01*
D66*
X163775000Y-113568100D02*
X162700000Y-113568100D01*
D67*
X67964400Y-111400000D02*
X67964400Y-109800000D01*
D66*
X132980000Y-56900000D02*
X132980000Y-57945000D01*
X150600000Y-102350000D02*
X150575000Y-102325000D01*
X102950000Y-57998313D02*
X103005087Y-58053400D01*
X167199050Y-78009050D02*
X167999050Y-78809050D01*
X109003387Y-62401700D02*
X109005087Y-62403400D01*
D67*
X173963191Y-87100999D02*
X175245190Y-87100999D01*
D66*
X167190001Y-59900000D02*
X167990001Y-60700000D01*
D67*
X174400000Y-114471501D02*
X175416000Y-114471501D01*
D66*
X102950000Y-52376700D02*
X101631787Y-52376700D01*
D10*
X69000000Y-68662500D02*
X69000000Y-69717500D01*
D66*
X149575000Y-65850000D02*
X149575000Y-67955000D01*
X166762240Y-96160050D02*
X167187240Y-96160050D01*
D10*
X71049400Y-122010000D02*
X70749400Y-121710000D01*
D66*
X132980000Y-52849000D02*
X133025000Y-52849000D01*
X166800001Y-132499999D02*
X167250001Y-132499999D01*
D67*
X100300000Y-67650000D02*
X100250000Y-67600000D01*
D66*
X171624701Y-104450001D02*
X170662500Y-104450001D01*
D10*
X70474400Y-119010000D02*
X69749400Y-118285000D01*
D66*
X150525000Y-120625000D02*
X149600000Y-120625000D01*
D67*
X118100000Y-67700000D02*
X117530000Y-68270000D01*
D66*
X84510000Y-125860000D02*
X84510000Y-124340000D01*
X167225000Y-114300001D02*
X168025000Y-113500001D01*
D67*
X127050000Y-68550000D02*
X127050000Y-68000000D01*
D66*
X132980000Y-52250000D02*
X132980000Y-52849000D01*
X103000000Y-58058487D02*
X103005087Y-58053400D01*
X138699150Y-54825850D02*
X139775000Y-53750000D01*
X118351700Y-58398300D02*
X118351700Y-59544150D01*
X164569050Y-75829050D02*
X164569050Y-75109050D01*
D67*
X114050000Y-66350000D02*
X114850000Y-67150000D01*
X174362240Y-96331550D02*
X175378240Y-96331550D01*
D10*
X71712500Y-78175000D02*
X71700000Y-78162500D01*
D67*
X101380000Y-67650000D02*
X101380000Y-67890002D01*
D10*
X71800000Y-81262500D02*
X71800000Y-79950000D01*
D66*
X149621500Y-47448703D02*
X149596500Y-47473703D01*
X170900001Y-122649999D02*
X169825001Y-122649999D01*
D68*
X54615000Y-88272500D02*
X53980000Y-88907500D01*
D66*
X54629400Y-128610000D02*
X56682800Y-128610000D01*
X124200000Y-54900000D02*
X125101700Y-53998300D01*
D67*
X173859902Y-103881902D02*
X175141901Y-103881902D01*
X127030000Y-67980000D02*
X127030000Y-66900000D01*
X108100000Y-67700000D02*
X108100000Y-67890000D01*
D66*
X149575000Y-120650000D02*
X149575000Y-122755000D01*
X156900000Y-68260000D02*
X156895000Y-68255000D01*
D10*
X123500000Y-66050000D02*
X123500000Y-64900000D01*
D66*
X124921700Y-52724150D02*
X124921700Y-53818300D01*
X54004400Y-129235000D02*
X54629400Y-128610000D01*
X166740001Y-59900000D02*
X166092204Y-59900000D01*
X166749050Y-78009050D02*
X167199050Y-78009050D01*
D67*
X67964400Y-109800000D02*
X67924400Y-109760000D01*
D66*
X149575000Y-104455000D02*
X149275000Y-104755000D01*
X172041641Y-86186347D02*
X170966641Y-86186347D01*
X159366641Y-86186347D02*
X160441641Y-86186347D01*
X149600000Y-65825000D02*
X149575000Y-65850000D01*
X138655000Y-60274150D02*
X138655000Y-61880000D01*
X166762240Y-96160050D02*
X167212240Y-96160050D01*
X67750000Y-85862500D02*
X67750000Y-83362500D01*
X164560001Y-58367797D02*
X164560001Y-57000000D01*
X166800000Y-114300001D02*
X167250000Y-114300001D01*
D67*
X104680000Y-67650000D02*
X105730000Y-68700000D01*
D66*
X138655000Y-54825850D02*
X138699150Y-54825850D01*
D67*
X114700000Y-69410000D02*
X114990000Y-69700000D01*
X117600000Y-66350000D02*
X118250000Y-67000000D01*
D66*
X163787240Y-95386347D02*
X162712240Y-95386347D01*
X86160000Y-126185000D02*
X87613200Y-126185000D01*
D67*
X107350000Y-66380000D02*
X108250000Y-67280000D01*
D66*
X160160000Y-107100001D02*
X160810000Y-106450001D01*
X164582240Y-93980050D02*
X164582240Y-93260050D01*
X150575000Y-102325000D02*
X149600000Y-102325000D01*
X118346700Y-57299150D02*
X118346700Y-58393300D01*
D67*
X97010002Y-70800000D02*
X98110000Y-69700002D01*
X117530000Y-68270000D02*
X117530000Y-69700000D01*
D66*
X87613200Y-126185000D02*
X87968200Y-126540000D01*
D70*
X67300000Y-81362500D02*
X67300000Y-82912500D01*
D66*
X86200000Y-125100000D02*
X86200000Y-126145000D01*
D67*
X105730000Y-68700000D02*
X105730000Y-69700002D01*
D66*
X159726297Y-49926297D02*
X160768501Y-49926297D01*
D67*
X101380000Y-67890002D02*
X103190000Y-69700002D01*
X111500000Y-67100000D02*
X111500000Y-67700000D01*
D70*
X68930000Y-85912500D02*
X67970000Y-85912500D01*
D66*
X163556001Y-59126297D02*
X162481001Y-59126297D01*
D67*
X172858951Y-73135347D02*
X174058951Y-73135347D01*
D10*
X100650000Y-69700002D02*
X101920000Y-69700002D01*
D66*
X159549050Y-70809050D02*
X160109050Y-70809050D01*
X160109050Y-70809050D02*
X160759050Y-70159050D01*
X156921500Y-49883703D02*
X156916500Y-49878703D01*
X149600000Y-102325000D02*
X149575000Y-102350000D01*
D10*
X71800000Y-82487500D02*
X71800000Y-81262500D01*
D66*
X150775000Y-65825000D02*
X149600000Y-65825000D01*
X109612500Y-52621300D02*
X109612500Y-53939200D01*
X149575000Y-67955000D02*
X149275000Y-68255000D01*
D70*
X65769400Y-122350000D02*
X66949400Y-122350000D01*
D69*
G04 #@! TO.N,+48V*
X63100000Y-92625000D02*
X65300000Y-90425000D01*
X48832500Y-97225000D02*
X53432500Y-92625000D01*
X53432500Y-92625000D02*
X63100000Y-92625000D01*
X63121900Y-133050000D02*
X65449400Y-130722500D01*
X48832500Y-126182500D02*
X55700000Y-133050000D01*
X48832500Y-97225000D02*
X48832500Y-126182500D01*
X55700000Y-133050000D02*
X63121900Y-133050000D01*
D67*
G04 #@! TO.N,Net-(D1-A)*
X71850000Y-89000000D02*
X69850000Y-89000000D01*
X69850000Y-89000000D02*
X69212500Y-88362500D01*
G04 #@! TO.N,Net-(D3-A)*
X66277500Y-64427500D02*
X66252500Y-64452500D01*
X68140000Y-64427500D02*
X66277500Y-64427500D01*
D10*
G04 #@! TO.N,Net-(U1-RON)*
X69111650Y-79086650D02*
X69887500Y-79862500D01*
X68205000Y-79086650D02*
X69111650Y-79086650D01*
D67*
G04 #@! TO.N,Net-(U1-FB)*
X64240000Y-69827500D02*
X65790000Y-69827500D01*
D10*
X68205000Y-70642500D02*
X68205000Y-73638350D01*
X67325000Y-69812500D02*
X67350000Y-69787500D01*
D67*
X65790000Y-69827500D02*
X65840000Y-69877500D01*
X65840000Y-69877500D02*
X67190000Y-69877500D01*
D10*
X67350000Y-69787500D02*
X68205000Y-70642500D01*
D67*
X67190000Y-69877500D02*
X67315000Y-69752500D01*
D66*
G04 #@! TO.N,Net-(U1-BST)*
X65665000Y-73638350D02*
X65665000Y-72022500D01*
D10*
X65665000Y-72022500D02*
X65825000Y-71862500D01*
D69*
G04 #@! TO.N,Net-(U1-EN{slash}UVLO)*
X65850000Y-80002500D02*
X66220000Y-79632500D01*
X64260000Y-88272500D02*
X64260000Y-88232500D01*
D10*
X67325000Y-88300000D02*
X67387500Y-88362500D01*
D69*
X65850000Y-86642500D02*
X65850000Y-85862500D01*
D10*
X65272500Y-88272500D02*
X65300000Y-88300000D01*
D69*
X65850000Y-85862500D02*
X65850000Y-83362500D01*
X65850000Y-83362500D02*
X65850000Y-80002500D01*
X66220000Y-79632500D02*
X66220000Y-78812500D01*
X64260000Y-88232500D02*
X65850000Y-86642500D01*
D10*
X65300000Y-88300000D02*
X67325000Y-88300000D01*
D69*
X64260000Y-88272500D02*
X65272500Y-88272500D01*
X62320000Y-88272500D02*
X64260000Y-88272500D01*
G04 #@! TO.N,+5V*
X126550000Y-41950000D02*
X126450000Y-42050000D01*
X90940000Y-107100000D02*
X87700000Y-107100000D01*
D66*
X94700000Y-57800000D02*
X94700000Y-56400000D01*
D71*
X57020423Y-137351000D02*
X46349000Y-126679577D01*
X45901000Y-59429700D02*
X45901000Y-54465050D01*
D69*
X183009049Y-67809051D02*
X185890949Y-67809051D01*
X175500000Y-117634400D02*
X172615600Y-117634400D01*
D71*
X89500000Y-131400000D02*
X90400000Y-130500000D01*
D69*
X183000000Y-49700001D02*
X185399999Y-49700001D01*
X90400000Y-121840000D02*
X93300000Y-118940000D01*
D66*
X121800000Y-65550000D02*
X120076000Y-63826000D01*
D69*
X175000000Y-99358103D02*
X185141897Y-99358103D01*
D66*
X143975000Y-42075000D02*
X143100000Y-41200000D01*
D69*
X172608102Y-101750001D02*
X175000000Y-99358103D01*
D67*
X183000000Y-48586450D02*
X183000000Y-49700001D01*
D69*
X126450000Y-50200000D02*
X127885000Y-51635000D01*
D71*
X86028576Y-131400000D02*
X80077576Y-137351000D01*
D69*
X185565600Y-117634400D02*
X187900000Y-115300000D01*
D10*
X61025000Y-68212500D02*
X64325000Y-68212500D01*
D69*
X187900000Y-65800000D02*
X187900000Y-78300000D01*
D71*
X123200000Y-41950000D02*
X126550000Y-41950000D01*
D69*
X127300000Y-41200000D02*
X126550000Y-41950000D01*
D71*
X46349000Y-126679577D02*
X46349000Y-82249000D01*
D10*
X56800000Y-63987500D02*
X61025000Y-68212500D01*
D69*
X76840000Y-107900000D02*
X76840000Y-97640000D01*
X185141897Y-99358103D02*
X187900000Y-96600000D01*
X174950000Y-62700000D02*
X175600000Y-63350000D01*
X76879999Y-121340002D02*
X78639997Y-123100000D01*
X187900000Y-61800000D02*
X187900000Y-65800000D01*
X158525000Y-64075000D02*
X159900000Y-62700000D01*
D66*
X102460000Y-131400000D02*
X89500000Y-131400000D01*
D69*
X113000000Y-51650000D02*
X113000000Y-54596600D01*
X185065600Y-81134400D02*
X187900000Y-78300000D01*
X185399998Y-104100002D02*
X187900000Y-101600000D01*
X170600000Y-64900000D02*
X171700000Y-64900000D01*
X187900000Y-47200000D02*
X187900000Y-61800000D01*
X159900000Y-62700000D02*
X173900000Y-62700000D01*
X78468598Y-96011402D02*
X86988598Y-96011402D01*
X146074000Y-82076000D02*
X156342140Y-82076000D01*
D71*
X51465050Y-48901000D02*
X51615848Y-48901000D01*
D69*
X111500000Y-50150000D02*
X113000000Y-51650000D01*
D66*
X89246500Y-53546500D02*
X90600000Y-54900000D01*
D69*
X111545218Y-46050000D02*
X111545218Y-48650000D01*
X113000000Y-54596600D02*
X113011700Y-54608300D01*
X113051700Y-54568300D02*
X113011700Y-54608300D01*
X145800000Y-82350000D02*
X146074000Y-82076000D01*
D66*
X94700000Y-56400000D02*
X93900000Y-55600000D01*
D69*
X156342140Y-82076000D02*
X157283740Y-81134400D01*
X183059999Y-104100002D02*
X185399998Y-104100002D01*
D66*
X93900000Y-55600000D02*
X93900000Y-54850000D01*
D69*
X90400000Y-125100000D02*
X90400000Y-121840000D01*
D67*
X181739847Y-47326297D02*
X183000000Y-48586450D01*
D69*
X141000000Y-41200000D02*
X127300000Y-41200000D01*
X76840000Y-107900000D02*
X79651404Y-110711404D01*
X145881800Y-118875000D02*
X158115079Y-118875000D01*
X159355679Y-117634400D02*
X175500000Y-117634400D01*
X93900000Y-54850000D02*
X93900000Y-44450000D01*
X158115079Y-118875000D02*
X159355679Y-117634400D01*
X93300000Y-104740000D02*
X90940000Y-107100000D01*
X145800000Y-100575000D02*
X159300000Y-100575000D01*
X88400000Y-123100000D02*
X90400000Y-125100000D01*
D71*
X107950000Y-41950000D02*
X91400000Y-41950000D01*
D69*
X186350000Y-63350000D02*
X187900000Y-61800000D01*
X111500000Y-48695218D02*
X111500000Y-50150000D01*
D71*
X46349000Y-82249000D02*
X46349000Y-64951000D01*
D69*
X187900000Y-96600000D02*
X187900000Y-101600000D01*
D66*
X143975000Y-42125000D02*
X143975000Y-42075000D01*
D71*
X51615848Y-48901000D02*
X53901000Y-46615848D01*
D69*
X183060000Y-122300000D02*
X186000000Y-122300000D01*
X187900000Y-83600000D02*
X187900000Y-96600000D01*
D71*
X48800000Y-84700000D02*
X46349000Y-82249000D01*
D66*
X99450000Y-59350000D02*
X96550000Y-59350000D01*
D69*
X78639997Y-123100000D02*
X88400000Y-123100000D01*
X84088596Y-110711404D02*
X79651404Y-110711404D01*
D71*
X53901000Y-46615848D02*
X53901000Y-46465050D01*
D69*
X187900000Y-120400000D02*
X186000000Y-122300000D01*
X181900000Y-41200000D02*
X141000000Y-41200000D01*
X170300000Y-101750001D02*
X172608102Y-101750001D01*
X93900000Y-44450000D02*
X91400000Y-41950000D01*
X172615600Y-117634400D02*
X170200001Y-120049999D01*
X172578053Y-83556347D02*
X175000000Y-81134400D01*
D71*
X46349000Y-64951000D02*
X47771300Y-63528700D01*
D69*
X173900000Y-62700000D02*
X174950000Y-62700000D01*
X187900000Y-115300000D02*
X187900000Y-120400000D01*
D71*
X107950000Y-41950000D02*
X123200000Y-41950000D01*
D66*
X103926000Y-63826000D02*
X99450000Y-59350000D01*
D69*
X170554141Y-83556347D02*
X172578053Y-83556347D01*
X171700000Y-64900000D02*
X173900000Y-62700000D01*
D66*
X75528938Y-53546500D02*
X89246500Y-53546500D01*
D69*
X145800000Y-64075000D02*
X158525000Y-64075000D01*
D67*
X65790000Y-68277500D02*
X65840000Y-68227500D01*
D71*
X90400000Y-130500000D02*
X90400000Y-125100000D01*
D69*
X87700000Y-107100000D02*
X84088596Y-110711404D01*
X157283740Y-81134400D02*
X175000000Y-81134400D01*
X175000000Y-81134400D02*
X185065600Y-81134400D01*
D66*
X74227938Y-54847500D02*
X75528938Y-53546500D01*
D71*
X50000000Y-63528700D02*
X56800000Y-63528700D01*
X58416050Y-41950000D02*
X91400000Y-41950000D01*
X47771300Y-63528700D02*
X50000000Y-63528700D01*
X53901000Y-46465050D02*
X58416050Y-41950000D01*
D66*
X145821500Y-43971500D02*
X143975000Y-42125000D01*
D69*
X126450000Y-42050000D02*
X126450000Y-50200000D01*
X185890949Y-67809051D02*
X187900000Y-65800000D01*
D67*
X170418501Y-47326297D02*
X181739847Y-47326297D01*
D69*
X185399999Y-49700001D02*
X187900000Y-47200000D01*
X187900000Y-101600000D02*
X187900000Y-115300000D01*
D71*
X50000000Y-63528700D02*
X45901000Y-59429700D01*
D69*
X185539949Y-85960051D02*
X187900000Y-83600000D01*
X183022239Y-85960051D02*
X185539949Y-85960051D01*
X76840000Y-109160001D02*
X76840000Y-107900000D01*
X160516897Y-99358103D02*
X175000000Y-99358103D01*
X187900000Y-47200000D02*
X181900000Y-41200000D01*
X111545218Y-48650000D02*
X111500000Y-48695218D01*
D71*
X89500000Y-131400000D02*
X86028576Y-131400000D01*
D69*
X76879999Y-109200000D02*
X76840000Y-109160001D01*
X175600000Y-63350000D02*
X186350000Y-63350000D01*
D66*
X60373400Y-57172500D02*
X60208932Y-57172500D01*
X120076000Y-63826000D02*
X103926000Y-63826000D01*
D69*
X187900000Y-78300000D02*
X187900000Y-83600000D01*
X86988598Y-96011402D02*
X93100000Y-89900000D01*
X127885000Y-51635000D02*
X127885000Y-54710000D01*
D66*
X104260000Y-129600000D02*
X102460000Y-131400000D01*
D69*
X175500000Y-117634400D02*
X185565600Y-117634400D01*
X76840000Y-97640000D02*
X78468598Y-96011402D01*
D71*
X80077576Y-137351000D02*
X57020423Y-137351000D01*
D10*
X56800000Y-63528700D02*
X56800000Y-63987500D01*
D69*
X159300000Y-100575000D02*
X160516897Y-99358103D01*
D66*
X121800000Y-66075000D02*
X121800000Y-65550000D01*
D69*
X76879999Y-113200000D02*
X76879999Y-121340002D01*
D71*
X45901000Y-54465050D02*
X51465050Y-48901000D01*
D66*
X145821500Y-45698703D02*
X145821500Y-43971500D01*
D69*
X143100000Y-41200000D02*
X141000000Y-41200000D01*
D67*
X64240000Y-68277500D02*
X65790000Y-68277500D01*
D10*
G04 #@! TO.N,Net-(C8-Pad2)*
X67845000Y-66462500D02*
X67860000Y-66477500D01*
X66250000Y-66462500D02*
X67845000Y-66462500D01*
G04 #@! TO.N,Net-(D1-K)*
X71800000Y-86487500D02*
X71800000Y-84362500D01*
D69*
G04 #@! TO.N,Net-(U2-EN{slash}UVLO)*
X64249400Y-127397500D02*
X65449400Y-128597500D01*
X64874400Y-121010000D02*
X64874400Y-120335000D01*
X64274400Y-121610000D02*
X64874400Y-121010000D01*
X64249400Y-122435000D02*
X64274400Y-122410000D01*
X64249400Y-126560000D02*
X64249400Y-122435000D01*
X62499400Y-128610000D02*
X65436900Y-128610000D01*
X65436900Y-128610000D02*
X65449400Y-128597500D01*
X64249400Y-126560000D02*
X64249400Y-127397500D01*
D10*
X67286900Y-128610000D02*
X65461900Y-128610000D01*
D69*
X64874400Y-120335000D02*
X64899400Y-120310000D01*
X64274400Y-122410000D02*
X64274400Y-121610000D01*
D10*
X65461900Y-128610000D02*
X65449400Y-128597500D01*
D66*
G04 #@! TO.N,Net-(U2-BST)*
X64209400Y-114910000D02*
X64209400Y-113350000D01*
X64209400Y-113350000D02*
X64599400Y-112960000D01*
D10*
G04 #@! TO.N,Net-(U2-FB)*
X66249400Y-111385000D02*
X66274400Y-111360000D01*
X66274400Y-111360000D02*
X66274400Y-114435000D01*
X64649400Y-111335000D02*
X64699400Y-111385000D01*
X63099400Y-111335000D02*
X64649400Y-111335000D01*
X66274400Y-114435000D02*
X66749400Y-114910000D01*
X64699400Y-111385000D02*
X66249400Y-111385000D01*
D69*
G04 #@! TO.N,+12V*
X97190972Y-57343400D02*
X97610000Y-57343400D01*
X123500000Y-46360172D02*
X121739828Y-44600000D01*
D10*
X64649400Y-109785000D02*
X64699400Y-109735000D01*
D66*
X80488577Y-128660000D02*
X81560000Y-128660000D01*
D69*
X57000000Y-94600000D02*
X57000000Y-101981087D01*
X108533312Y-50040122D02*
X108533312Y-45950000D01*
X72700000Y-108050000D02*
X72700000Y-109500000D01*
X72700000Y-111050000D02*
X73600000Y-111950000D01*
X67600000Y-94606200D02*
X69443800Y-94606200D01*
X96738772Y-58214628D02*
X97610000Y-57343400D01*
X89607000Y-108301000D02*
X91300000Y-108301000D01*
X95455087Y-55188487D02*
X97610000Y-57343400D01*
X91300000Y-108301000D02*
X91932446Y-108301000D01*
X69443800Y-94606200D02*
X74250000Y-89800000D01*
X57587300Y-98032522D02*
X58014778Y-98460000D01*
X72700000Y-99706200D02*
X67193800Y-94200000D01*
X67193800Y-94200000D02*
X57400000Y-94200000D01*
X121739828Y-44600000D02*
X109883312Y-44600000D01*
X94851000Y-105382446D02*
X94851000Y-103751000D01*
X80023483Y-113788403D02*
X84119597Y-113788403D01*
X57400000Y-94200000D02*
X57000000Y-94600000D01*
D66*
X58532800Y-98460000D02*
X58368332Y-98460000D01*
D69*
X109883312Y-44600000D02*
X108533312Y-45950000D01*
X123500000Y-50058509D02*
X123500000Y-46360172D01*
X73500000Y-52300000D02*
X90052024Y-52300000D01*
X90052024Y-52300000D02*
X92300000Y-54547976D01*
X109460290Y-50967100D02*
X108533312Y-50040122D01*
X70900000Y-60715438D02*
X70900000Y-54900000D01*
D66*
X82610000Y-125860000D02*
X82610000Y-127610000D01*
D69*
X91300000Y-108301000D02*
X93300000Y-110301000D01*
X127885000Y-57250000D02*
X126259000Y-55624000D01*
X70900000Y-60715438D02*
X74227938Y-57387500D01*
X92300000Y-54547976D02*
X92300000Y-56815628D01*
D10*
X55649400Y-106610000D02*
X58824400Y-109785000D01*
D69*
X94851000Y-103751000D02*
X93300000Y-102200000D01*
X70900000Y-72900000D02*
X70900000Y-60715438D01*
X77335080Y-111100000D02*
X80023483Y-113788403D01*
X73600000Y-75600000D02*
X70900000Y-72900000D01*
X93300000Y-110301000D02*
X93300000Y-116400000D01*
X95701000Y-58214628D02*
X96738772Y-58214628D01*
X74250000Y-89800000D02*
X74250000Y-78250000D01*
X108533312Y-45683312D02*
X108200000Y-45350000D01*
X92300000Y-56815628D02*
X94285372Y-58801000D01*
X72700000Y-109500000D02*
X72700000Y-111050000D01*
X95114628Y-58801000D02*
X95701000Y-58214628D01*
D10*
X55649400Y-103668100D02*
X55649400Y-106610000D01*
D69*
X87492000Y-77600000D02*
X93100000Y-83208000D01*
D71*
X56482200Y-102835300D02*
X55649400Y-103668100D01*
D69*
X70900000Y-54900000D02*
X73500000Y-52300000D01*
X108200000Y-45350000D02*
X99300000Y-45350000D01*
D66*
X58368332Y-98460000D02*
X57837300Y-97928968D01*
D69*
X111100000Y-55236600D02*
X111100000Y-51550000D01*
D10*
X58824400Y-109785000D02*
X63099400Y-109785000D01*
D69*
X57000000Y-101981087D02*
X58228913Y-103210000D01*
D66*
X82610000Y-127610000D02*
X81560000Y-128660000D01*
D10*
X63099400Y-109785000D02*
X64649400Y-109785000D01*
D69*
X72700000Y-99706200D02*
X72700000Y-107550000D01*
X94285372Y-58801000D02*
X95114628Y-58801000D01*
X73600000Y-77600000D02*
X73600000Y-75600000D01*
X125218800Y-50968800D02*
X124410291Y-50968800D01*
X95455087Y-49194913D02*
X95455087Y-55188487D01*
D66*
X73800000Y-126650000D02*
X75989577Y-128839577D01*
D69*
X110517100Y-50967100D02*
X109460290Y-50967100D01*
X126259000Y-55624000D02*
X126259000Y-52009000D01*
X93100000Y-83208000D02*
X93100000Y-87360000D01*
D66*
X80309000Y-128839577D02*
X80488577Y-128660000D01*
D69*
X126259000Y-52009000D02*
X125218800Y-50968800D01*
X72700000Y-107550000D02*
X72700000Y-111050000D01*
X108533312Y-45950000D02*
X108533312Y-45683312D01*
X73600000Y-111950000D02*
X73600000Y-134100000D01*
X72700000Y-109500000D02*
X74300000Y-111100000D01*
X84119597Y-113788403D02*
X89607000Y-108301000D01*
X74250000Y-78250000D02*
X73600000Y-77600000D01*
X91932446Y-108301000D02*
X94851000Y-105382446D01*
X73600000Y-77600000D02*
X87492000Y-77600000D01*
X74300000Y-111100000D02*
X77335080Y-111100000D01*
X111100000Y-51550000D02*
X110517100Y-50967100D01*
X124410291Y-50968800D02*
X123500000Y-50058509D01*
X113011700Y-57148300D02*
X111100000Y-55236600D01*
D66*
X75989577Y-128839577D02*
X80309000Y-128839577D01*
D69*
X67193800Y-94200000D02*
X67600000Y-94606200D01*
X99300000Y-45350000D02*
X95455087Y-49194913D01*
X73600000Y-134100000D02*
X74400000Y-134900000D01*
D10*
G04 #@! TO.N,Net-(C17-Pad2)*
X66524400Y-108010000D02*
X66599400Y-108085000D01*
X64999400Y-108010000D02*
X66524400Y-108010000D01*
D67*
G04 #@! TO.N,Net-(D4-K)*
X71550000Y-126650000D02*
X71550000Y-125398100D01*
X71550000Y-125398100D02*
X71049400Y-124897500D01*
D10*
G04 #@! TO.N,Net-(D4-A)*
X69124400Y-128597500D02*
X69111900Y-128610000D01*
D67*
X69989400Y-129450000D02*
X69139400Y-128600000D01*
X71550000Y-129450000D02*
X69989400Y-129450000D01*
G04 #@! TO.N,Net-(D6-A)*
X66801900Y-106000000D02*
X66849400Y-106047500D01*
X64951900Y-106000000D02*
X66801900Y-106000000D01*
D10*
G04 #@! TO.N,Net-(U2-RON)*
X68649400Y-120360000D02*
X66751100Y-120360000D01*
X66751100Y-120360000D02*
X66749400Y-120358300D01*
G04 #@! TO.N,Net-(U1-PGOOD)*
X69799000Y-74786500D02*
X70140000Y-75127500D01*
X67632300Y-74786500D02*
X69799000Y-74786500D01*
X66935000Y-73638350D02*
X66935000Y-74089200D01*
X66935000Y-74089200D02*
X67632300Y-74786500D01*
G04 #@! TO.N,Net-(U2-PGOOD)*
X65479400Y-115360850D02*
X66059800Y-115941250D01*
X68055650Y-115941250D02*
X68649400Y-116535000D01*
X65479400Y-114910000D02*
X65479400Y-115360850D01*
X66059800Y-115941250D02*
X68055650Y-115941250D01*
D66*
G04 #@! TO.N,GND2*
X155706999Y-80150000D02*
X156895000Y-78961999D01*
D67*
X149275000Y-131643200D02*
X148781800Y-131150000D01*
D66*
X145800000Y-80150000D02*
X148629999Y-80150000D01*
X156171499Y-61873703D02*
X156916500Y-61128702D01*
X156131801Y-98450000D02*
X156853099Y-97728702D01*
D67*
X97325000Y-96087500D02*
X95760000Y-96087500D01*
X149275000Y-114454999D02*
X149275000Y-113365000D01*
X98110000Y-75614700D02*
X98647600Y-75077100D01*
X108300000Y-106600000D02*
X108300000Y-105450000D01*
X95340000Y-96147500D02*
X95652500Y-96147500D01*
D66*
X149275000Y-79504999D02*
X149275000Y-77954999D01*
D67*
X112450000Y-75999998D02*
X112450000Y-74600000D01*
X98110000Y-76000000D02*
X98110000Y-78790000D01*
X131260000Y-79060000D02*
X131250000Y-79050000D01*
X127650000Y-74850000D02*
X133625000Y-74850000D01*
X95600000Y-110860000D02*
X95600000Y-109640000D01*
D66*
X145781499Y-61873703D02*
X148551499Y-61873703D01*
D67*
X98647600Y-75077100D02*
X103114000Y-75077100D01*
D66*
X149233099Y-97728702D02*
X149233099Y-96178702D01*
X148181800Y-135050000D02*
X148530000Y-135050000D01*
D67*
X108300000Y-91500000D02*
X109000000Y-90800000D01*
X116550000Y-74600000D02*
X117050000Y-74600000D01*
X103114000Y-75077100D02*
X103190000Y-75153100D01*
X149275000Y-113365000D02*
X148841901Y-112931901D01*
X148841901Y-112931901D02*
X143041901Y-112931901D01*
X127260000Y-79110000D02*
X127250000Y-79100000D01*
X135260000Y-79060000D02*
X135250000Y-79050000D01*
X97525000Y-110687500D02*
X95772500Y-110687500D01*
X97200000Y-79700000D02*
X97200000Y-81337500D01*
X149275000Y-132755000D02*
X149275000Y-131643200D01*
X109000000Y-98600000D02*
X109000000Y-98150000D01*
D66*
X145708099Y-98473702D02*
X145708099Y-98458099D01*
D67*
X108300000Y-106600000D02*
X108300000Y-107900000D01*
D66*
X145881800Y-135050000D02*
X148181800Y-135050000D01*
X148629999Y-80150000D02*
X149275000Y-79504999D01*
X148511801Y-98450000D02*
X156131801Y-98450000D01*
D67*
X131260000Y-80200000D02*
X131260000Y-79060000D01*
X123550000Y-77725000D02*
X123550000Y-79000000D01*
D66*
X149296500Y-61128702D02*
X149296500Y-59578702D01*
D67*
X109910000Y-75153098D02*
X110463098Y-74600000D01*
X95772500Y-110687500D02*
X95600000Y-110860000D01*
X98110000Y-78790000D02*
X97200000Y-79700000D01*
D66*
X156895000Y-116004999D02*
X156895000Y-114454999D01*
D67*
X105730000Y-75130000D02*
X105730000Y-75750000D01*
X114990000Y-75153098D02*
X114436902Y-74600000D01*
X127030000Y-75470000D02*
X127650000Y-74850000D01*
X103900000Y-74300000D02*
X103190000Y-75010000D01*
D66*
X145800000Y-80150000D02*
X155706999Y-80150000D01*
D67*
X108300000Y-91950000D02*
X108300000Y-91500000D01*
D66*
X145700000Y-98450000D02*
X148511801Y-98450000D01*
D67*
X108300000Y-99300000D02*
X109000000Y-98600000D01*
X114990000Y-75999998D02*
X114990000Y-75153098D01*
X104900000Y-74300000D02*
X105730000Y-75130000D01*
X108300000Y-99850000D02*
X108300000Y-99300000D01*
X117530000Y-75080000D02*
X117530000Y-75999998D01*
D66*
X155607000Y-135050000D02*
X156895000Y-133762000D01*
D67*
X127030000Y-76600000D02*
X127030000Y-75470000D01*
X115543098Y-74600000D02*
X114990000Y-75153098D01*
D66*
X148181800Y-135050000D02*
X155607000Y-135050000D01*
X145708099Y-98458099D02*
X145700000Y-98450000D01*
D67*
X133625000Y-74850000D02*
X134650000Y-75875000D01*
X103190000Y-75153100D02*
X103190000Y-76000000D01*
D66*
X145741901Y-116831901D02*
X148448098Y-116831901D01*
D67*
X127260000Y-80275000D02*
X127260000Y-79110000D01*
X117050000Y-74600000D02*
X117530000Y-75080000D01*
X114436902Y-74600000D02*
X112450000Y-74600000D01*
D66*
X145781499Y-61873703D02*
X156171499Y-61873703D01*
D67*
X104500000Y-74300000D02*
X104900000Y-74300000D01*
D66*
X156068098Y-116831901D02*
X156895000Y-116004999D01*
D67*
X97200000Y-81337500D02*
X97222500Y-81360000D01*
X95400000Y-81680000D02*
X95360000Y-81720000D01*
D66*
X148530000Y-135050000D02*
X149275000Y-134305000D01*
X156853099Y-97728702D02*
X156853099Y-96178702D01*
D67*
X109910000Y-75999998D02*
X109910000Y-75153098D01*
X135260000Y-80200000D02*
X135260000Y-79060000D01*
X95400000Y-80300000D02*
X95400000Y-81680000D01*
X104500000Y-74300000D02*
X103900000Y-74300000D01*
X108300000Y-86750000D02*
X108300000Y-86300000D01*
D66*
X156916500Y-61128702D02*
X156916500Y-59578702D01*
X149275000Y-134305000D02*
X149275000Y-132755000D01*
D67*
X130600000Y-83600000D02*
X131700000Y-83600000D01*
X98110000Y-76000000D02*
X98110000Y-75614700D01*
D66*
X156895000Y-78961999D02*
X156895000Y-77954999D01*
X148511801Y-98450000D02*
X149233099Y-97728702D01*
X148448098Y-116831901D02*
X149275000Y-116004999D01*
X145741901Y-116831901D02*
X156068098Y-116831901D01*
D67*
X134650000Y-75875000D02*
X134650000Y-76600000D01*
D66*
X149275000Y-116004999D02*
X149275000Y-114454999D01*
X148551499Y-61873703D02*
X149296500Y-61128702D01*
D67*
X116550000Y-74600000D02*
X115543098Y-74600000D01*
X148781800Y-131150000D02*
X143181800Y-131150000D01*
X108300000Y-86300000D02*
X109000000Y-85600000D01*
D66*
X156895000Y-133762000D02*
X156895000Y-132755000D01*
D67*
X103190000Y-75010000D02*
X103190000Y-76000000D01*
X109000000Y-98150000D02*
X108300000Y-97450000D01*
X95652500Y-96147500D02*
X96300000Y-95500000D01*
X110463098Y-74600000D02*
X112450000Y-74600000D01*
X95760000Y-96087500D02*
X95400000Y-96447500D01*
G04 #@! TO.N,pwm_b*
X131260000Y-81850000D02*
X129847500Y-81850000D01*
X129847500Y-81850000D02*
X129260000Y-81262500D01*
X132410000Y-83000000D02*
X133950000Y-83000000D01*
X133950000Y-83000000D02*
X134500000Y-83550000D01*
X134500000Y-83550000D02*
X134500000Y-84970000D01*
X134500000Y-84970000D02*
X129800000Y-89670000D01*
X131260000Y-81850000D02*
X132410000Y-83000000D01*
G04 #@! TO.N,pwm_a*
X135260000Y-81850000D02*
X135260000Y-89290000D01*
X135260000Y-81850000D02*
X133847500Y-81850000D01*
X135260000Y-89290000D02*
X129800000Y-94750000D01*
X133847500Y-81850000D02*
X133260000Y-81262500D01*
G04 #@! TO.N,+3V3*
X100712500Y-79512500D02*
X99800000Y-79512500D01*
X109325000Y-80800000D02*
X109325000Y-80825000D01*
D66*
X145741901Y-115281901D02*
X147178098Y-115281901D01*
X144511710Y-62088290D02*
X141800000Y-64800000D01*
X136800000Y-76473000D02*
X134427000Y-74100000D01*
D67*
X111150000Y-80800000D02*
X111150000Y-79612500D01*
X119662500Y-79612500D02*
X118800000Y-79612500D01*
X116250000Y-79612500D02*
X118800000Y-79612500D01*
D66*
X140850000Y-95600000D02*
X140850000Y-96150000D01*
X141400000Y-133950000D02*
X145431800Y-133950000D01*
X140450000Y-113350000D02*
X142381901Y-115281901D01*
X139850000Y-118081901D02*
X139850000Y-123750000D01*
D67*
X102000000Y-80800000D02*
X100712500Y-79512500D01*
D66*
X145881800Y-133500000D02*
X143700000Y-135681800D01*
X125100000Y-74100000D02*
X123550000Y-75650000D01*
X145800000Y-78600000D02*
X140800000Y-78600000D01*
X145710000Y-115250000D02*
X145741901Y-115281901D01*
X142400000Y-96923702D02*
X142400000Y-100950000D01*
X130450000Y-138700000D02*
X141950000Y-138700000D01*
X143668200Y-135681800D02*
X142500000Y-136850000D01*
X144511710Y-60323703D02*
X145781499Y-60323703D01*
X123550000Y-75650000D02*
X123550000Y-76175000D01*
D67*
X107000000Y-79612500D02*
X107000000Y-80800000D01*
D66*
X140850000Y-96150000D02*
X141623702Y-96923702D01*
X142650000Y-115281901D02*
X139850000Y-118081901D01*
X138150000Y-70377000D02*
X138150000Y-64800000D01*
X123550000Y-76175000D02*
X125335000Y-76175000D01*
X141623702Y-96923702D02*
X142400000Y-96923702D01*
X140350000Y-103000000D02*
X140350000Y-108700000D01*
X121925000Y-76175000D02*
X123550000Y-76175000D01*
X145881800Y-133500000D02*
X147260000Y-133500000D01*
X120750000Y-77350000D02*
X121925000Y-76175000D01*
X142381901Y-115281901D02*
X142650000Y-115281901D01*
X143700000Y-135681800D02*
X143668200Y-135681800D01*
X142400000Y-96923702D02*
X145800000Y-96923702D01*
X147260000Y-133500000D02*
X148005000Y-132755000D01*
X141950000Y-138700000D02*
X142500000Y-138150000D01*
X147178098Y-115281901D02*
X148005000Y-114454999D01*
X142500000Y-138150000D02*
X142500000Y-136850000D01*
X140800000Y-78600000D02*
X140800000Y-91200000D01*
X130450000Y-138700000D02*
X116980000Y-125230000D01*
D67*
X120650000Y-79600000D02*
X119675000Y-79600000D01*
D66*
X144511710Y-60323703D02*
X144511710Y-62088290D01*
X145800000Y-78600000D02*
X147359999Y-78600000D01*
X112020000Y-125230000D02*
X116980000Y-125230000D01*
X147359999Y-78600000D02*
X148005000Y-77954999D01*
X134427000Y-74100000D02*
X125100000Y-74100000D01*
X147218099Y-96923702D02*
X147963099Y-96178702D01*
X134427000Y-74100000D02*
X138150000Y-70377000D01*
D67*
X104600000Y-79600000D02*
X104600000Y-80787500D01*
X119675000Y-79600000D02*
X119662500Y-79612500D01*
D66*
X139850000Y-132400000D02*
X141400000Y-133950000D01*
D67*
X113750000Y-79612500D02*
X113750000Y-80800000D01*
D66*
X145781499Y-60323703D02*
X147281499Y-60323703D01*
X142650000Y-115281901D02*
X145741901Y-115281901D01*
X139850000Y-128850000D02*
X139850000Y-132400000D01*
X145431800Y-133950000D02*
X145881800Y-133500000D01*
X145708099Y-96923702D02*
X147218099Y-96923702D01*
X136800000Y-77050000D02*
X136800000Y-76473000D01*
X147281499Y-60323703D02*
X148026500Y-59578702D01*
D67*
X116250000Y-79612500D02*
X116250000Y-80800000D01*
D66*
X142400000Y-100950000D02*
X140350000Y-103000000D01*
X125335000Y-76175000D02*
X125760000Y-76600000D01*
G04 #@! TO.N,Net-(U5-EN2)*
X145800000Y-102325000D02*
X148000000Y-102325000D01*
X147000000Y-106650000D02*
X150700000Y-106650000D01*
X168674000Y-116026001D02*
X162124804Y-116026001D01*
X148025000Y-102350000D02*
X148025000Y-104735000D01*
X154737000Y-106650000D02*
X155625000Y-105762000D01*
X169600000Y-113525001D02*
X169575000Y-113500001D01*
X150700000Y-106650000D02*
X153400000Y-106650000D01*
X148000000Y-102325000D02*
X148025000Y-102350000D01*
X152748803Y-106650000D02*
X150700000Y-106650000D01*
X162124804Y-116026001D02*
X152748803Y-106650000D01*
X168674000Y-116026001D02*
X169600000Y-115100001D01*
X169575000Y-111525001D02*
X169700000Y-111400001D01*
X169600000Y-115100001D02*
X169600000Y-113525001D01*
X169575000Y-113500001D02*
X169575000Y-111525001D01*
X148025000Y-104735000D02*
X148005000Y-104755000D01*
X145800000Y-102325000D02*
X145800000Y-105450000D01*
X153400000Y-106650000D02*
X154737000Y-106650000D01*
X145800000Y-105450000D02*
X147000000Y-106650000D01*
X155625000Y-105762000D02*
X155625000Y-104755000D01*
G04 #@! TO.N,Net-(U7-EN2)*
X153358099Y-88373703D02*
X154695099Y-88373703D01*
X146958099Y-88373703D02*
X150600000Y-88373703D01*
X155583099Y-87485703D02*
X155583099Y-86478703D01*
X147983099Y-84073703D02*
X147983099Y-86458703D01*
X145758099Y-84048703D02*
X147958099Y-84048703D01*
X169562240Y-96960050D02*
X169562240Y-95385050D01*
X169537240Y-95360050D02*
X169537240Y-93385050D01*
X169562240Y-95385050D02*
X169537240Y-95360050D01*
X145758099Y-87173703D02*
X146958099Y-88373703D01*
X169537240Y-93385050D02*
X169662240Y-93260050D01*
X152673703Y-88373703D02*
X150600000Y-88373703D01*
X162186050Y-97886050D02*
X152673703Y-88373703D01*
X168636240Y-97886050D02*
X169562240Y-96960050D01*
X145758099Y-84048703D02*
X145758099Y-87173703D01*
X154695099Y-88373703D02*
X155583099Y-87485703D01*
X168636240Y-97886050D02*
X162186050Y-97886050D01*
X147983099Y-86458703D02*
X147963099Y-86478703D01*
X147958099Y-84048703D02*
X147983099Y-84073703D01*
X150600000Y-88373703D02*
X153358099Y-88373703D01*
G04 #@! TO.N,Net-(U10-VDD)*
X148025000Y-65850000D02*
X148025000Y-68235000D01*
X168623050Y-79735050D02*
X169549050Y-78809050D01*
X147000000Y-70150000D02*
X149800000Y-70150000D01*
X145800000Y-65825000D02*
X145800000Y-68950000D01*
X145800000Y-68950000D02*
X147000000Y-70150000D01*
X168623050Y-79735050D02*
X161485050Y-79735050D01*
X169549050Y-77234050D02*
X169524050Y-77209050D01*
X148000000Y-65825000D02*
X148025000Y-65850000D01*
X151900000Y-70150000D02*
X149800000Y-70150000D01*
X153400000Y-70150000D02*
X154737000Y-70150000D01*
X169549050Y-78809050D02*
X169549050Y-77234050D01*
X148025000Y-68235000D02*
X148005000Y-68255000D01*
X155625000Y-69262000D02*
X155625000Y-68255000D01*
X169649050Y-75109050D02*
X169649050Y-77084049D01*
X161485050Y-79735050D02*
X151900000Y-70150000D01*
X154737000Y-70150000D02*
X155625000Y-69262000D01*
X145800000Y-65825000D02*
X148000000Y-65825000D01*
X169649050Y-77084049D02*
X169524049Y-77209050D01*
X149800000Y-70150000D02*
X153400000Y-70150000D01*
G04 #@! TO.N,Net-(U11-EN2)*
X151500000Y-51773703D02*
X152273703Y-51773703D01*
X145821500Y-50573703D02*
X147021500Y-51773703D01*
X169540001Y-59125000D02*
X169515001Y-59100000D01*
X145821500Y-47448703D02*
X148021500Y-47448703D01*
X151500000Y-51773703D02*
X153421500Y-51773703D01*
X169515001Y-59100000D02*
X169515001Y-57125000D01*
X152059116Y-51773703D02*
X151300000Y-51773703D01*
X169515001Y-57125000D02*
X169640001Y-57000000D01*
X168614001Y-61626000D02*
X161911413Y-61626000D01*
X169540001Y-60700000D02*
X169540001Y-59125000D01*
X145821500Y-47448703D02*
X145821500Y-50573703D01*
X153421500Y-51773703D02*
X154758500Y-51773703D01*
X147021500Y-51773703D02*
X151300000Y-51773703D01*
X148021500Y-47448703D02*
X148046500Y-47473703D01*
X154758500Y-51773703D02*
X155646500Y-50885703D01*
X155646500Y-50885703D02*
X155646500Y-49878703D01*
X151300000Y-51773703D02*
X151500000Y-51773703D01*
X161911413Y-61626000D02*
X152059116Y-51773703D01*
X168614001Y-61626000D02*
X169540001Y-60700000D01*
X148046500Y-47473703D02*
X148046500Y-49858703D01*
X148046500Y-49858703D02*
X148026500Y-49878703D01*
D67*
G04 #@! TO.N,Net-(U3-OUTA)*
X169700001Y-124018199D02*
X168331801Y-122649999D01*
X150545000Y-123055000D02*
X150545000Y-122298000D01*
X165420489Y-122649999D02*
X168331801Y-122649999D01*
X150545000Y-122298000D02*
X152543000Y-120300000D01*
X152543000Y-120300000D02*
X163070490Y-120300000D01*
X163070490Y-120300000D02*
X165420489Y-122649999D01*
X169700001Y-124649999D02*
X169700001Y-124018199D01*
X169700001Y-125032321D02*
X169700001Y-124649999D01*
G04 #@! TO.N,Net-(U3-OUTB)*
X162200001Y-122549999D02*
X162200001Y-124529999D01*
X160401002Y-120751000D02*
X162200001Y-122549999D01*
X151815000Y-121665810D02*
X152729810Y-120751000D01*
X162200001Y-124529999D02*
X162080001Y-124649999D01*
X152729810Y-120751000D02*
X160401002Y-120751000D01*
X151815000Y-123055000D02*
X151815000Y-121665810D01*
G04 #@! TO.N,Net-(U3-OUTC)*
X159000000Y-123100000D02*
X157102000Y-121202000D01*
X161031801Y-131749999D02*
X161031801Y-129821799D01*
X161031801Y-131749999D02*
X160249999Y-131749999D01*
X160610001Y-129799999D02*
X160810001Y-129599999D01*
X160249999Y-131749999D02*
X159000000Y-130500000D01*
X159000000Y-130500000D02*
X159000000Y-123100000D01*
X157102000Y-121202000D02*
X157000000Y-121202000D01*
X161031801Y-129821799D02*
X160810001Y-129599999D01*
X157000000Y-121202000D02*
X157200000Y-121202000D01*
X153085000Y-123055000D02*
X153085000Y-121846800D01*
X153729800Y-121202000D02*
X157000000Y-121202000D01*
X153085000Y-121846800D02*
X153729800Y-121202000D01*
D66*
G04 #@! TO.N,Net-(U3-EN2)*
X163156997Y-132675999D02*
X159092999Y-132675999D01*
X153400000Y-124950000D02*
X154737000Y-124950000D01*
X168951001Y-133799999D02*
X169100001Y-133799999D01*
X169575001Y-131699999D02*
X169575001Y-129724999D01*
X168561243Y-134225999D02*
X168951001Y-133836241D01*
X148025000Y-120650000D02*
X148025000Y-123035000D01*
X169100001Y-133799999D02*
X169600001Y-133299999D01*
X145800000Y-120625000D02*
X145800000Y-123750000D01*
X148000000Y-120625000D02*
X148025000Y-120650000D01*
X145800000Y-120625000D02*
X148000000Y-120625000D01*
X169600001Y-131724999D02*
X169575001Y-131699999D01*
X155625000Y-124062000D02*
X155625000Y-123055000D01*
X147000000Y-124950000D02*
X150100000Y-124950000D01*
X169575001Y-129724999D02*
X169700001Y-129599999D01*
X169600001Y-133299999D02*
X169600001Y-131724999D01*
X148025000Y-123035000D02*
X148005000Y-123055000D01*
X150100000Y-124950000D02*
X153400000Y-124950000D01*
X145800000Y-123750000D02*
X147000000Y-124950000D01*
X168561243Y-134225999D02*
X164706997Y-134225999D01*
X159092999Y-132675999D02*
X151367000Y-124950000D01*
X151367000Y-124950000D02*
X150100000Y-124950000D01*
X154737000Y-124950000D02*
X155625000Y-124062000D01*
X164706997Y-134225999D02*
X163156997Y-132675999D01*
X168951001Y-133836241D02*
X168951001Y-133799999D01*
D67*
G04 #@! TO.N,Net-(U5-OUTA)*
X150545000Y-103998000D02*
X152543000Y-102000000D01*
X169700000Y-106450001D02*
X169700000Y-105137501D01*
X150545000Y-104755000D02*
X150545000Y-103998000D01*
X169700000Y-105137501D02*
X169012500Y-104450001D01*
X152543000Y-102000000D02*
X161700000Y-102000000D01*
X161700000Y-102000000D02*
X164150001Y-104450001D01*
X164150001Y-104450001D02*
X169012500Y-104450001D01*
G04 #@! TO.N,Net-(U5-OUTC)*
X160810000Y-113310001D02*
X161050000Y-113550001D01*
X160550001Y-113550001D02*
X158736500Y-111736500D01*
X158736500Y-111736500D02*
X158736500Y-104438500D01*
X158736500Y-104438500D02*
X157200000Y-102902000D01*
X154213000Y-102902000D02*
X153085000Y-104030000D01*
X161050000Y-113550001D02*
X160550001Y-113550001D01*
X160610000Y-111600001D02*
X160810000Y-111400001D01*
X153085000Y-104030000D02*
X153085000Y-104755000D01*
X160810000Y-111400001D02*
X160810000Y-113310001D01*
X157200000Y-102902000D02*
X154213000Y-102902000D01*
G04 #@! TO.N,Net-(U5-OUTB)*
X151815000Y-104755000D02*
X151815000Y-103365810D01*
X160153499Y-102451000D02*
X162070599Y-104368100D01*
X162080000Y-106450001D02*
X162080000Y-104377501D01*
X162080000Y-104377501D02*
X162070599Y-104368100D01*
X162080000Y-107425000D02*
X162080000Y-106450001D01*
X151815000Y-103365810D02*
X152729810Y-102451000D01*
X152729810Y-102451000D02*
X160153499Y-102451000D01*
G04 #@! TO.N,Net-(U7-OUTA)*
X168539344Y-85409050D02*
X164109050Y-85409050D01*
X169316641Y-86186347D02*
X168539344Y-85409050D01*
X169662240Y-88310050D02*
X169662240Y-86531946D01*
X164109050Y-85409050D02*
X162423703Y-83723703D01*
X152501099Y-83723703D02*
X150503099Y-85721703D01*
X162423703Y-83723703D02*
X152501099Y-83723703D01*
X169662240Y-88692372D02*
X169662240Y-88310050D01*
X169662240Y-86531946D02*
X169316641Y-86186347D01*
X150503099Y-85721703D02*
X150503099Y-86478703D01*
G04 #@! TO.N,Net-(U7-OUTC)*
X154171099Y-84625703D02*
X153043099Y-85753703D01*
X157158099Y-84625703D02*
X154171099Y-84625703D01*
X158700000Y-86167604D02*
X157158099Y-84625703D01*
X160772240Y-93260050D02*
X160772240Y-95055743D01*
X153043099Y-85753703D02*
X153043099Y-86478703D01*
X158700000Y-93300000D02*
X158700000Y-86167604D01*
X160762644Y-95362644D02*
X158700000Y-93300000D01*
X161079141Y-95362644D02*
X160762644Y-95362644D01*
X160572240Y-93460050D02*
X160772240Y-93260050D01*
X160772240Y-95055743D02*
X161079141Y-95362644D01*
G04 #@! TO.N,Net-(U7-OUTB)*
X162074740Y-86210050D02*
X162074740Y-85735050D01*
X162042240Y-89285049D02*
X162042240Y-88310050D01*
X162074740Y-86210050D02*
X162074740Y-88277550D01*
X160514393Y-84174703D02*
X152687909Y-84174703D01*
X152687909Y-84174703D02*
X151773099Y-85089513D01*
X162074740Y-85735050D02*
X160514393Y-84174703D01*
X151773099Y-85089513D02*
X151773099Y-86478703D01*
X162074740Y-88277550D02*
X162042240Y-88310050D01*
G04 #@! TO.N,Net-(U10-1A)*
X168599050Y-68059050D02*
X169649050Y-69109050D01*
X150545000Y-67498000D02*
X152543000Y-65500000D01*
X169649050Y-69109050D02*
X169649050Y-70159050D01*
X150545000Y-68255000D02*
X150545000Y-67498000D01*
X152543000Y-65500000D02*
X162700000Y-65500000D01*
X164335050Y-67135050D02*
X167675050Y-67135050D01*
X167675050Y-67135050D02*
X168599050Y-68059050D01*
X162700000Y-65500000D02*
X164335050Y-67135050D01*
G04 #@! TO.N,Net-(U10-3A)*
X160759050Y-76981550D02*
X160936550Y-77159050D01*
X157100000Y-66402000D02*
X157200000Y-66402000D01*
X154213000Y-66402000D02*
X157100000Y-66402000D01*
X158000000Y-75400000D02*
X159759050Y-77159050D01*
X160759050Y-75109050D02*
X160759050Y-76981550D01*
X160559050Y-75309050D02*
X160759050Y-75109050D01*
X158000000Y-67000000D02*
X158000000Y-75400000D01*
X159759050Y-77159050D02*
X160936550Y-77159050D01*
X157402000Y-66402000D02*
X158000000Y-67000000D01*
X153085000Y-67530000D02*
X154213000Y-66402000D01*
X157100000Y-66402000D02*
X157402000Y-66402000D01*
X153085000Y-68255000D02*
X153085000Y-67530000D01*
G04 #@! TO.N,Net-(U10-2A)*
X161974050Y-70104050D02*
X162029050Y-70159050D01*
X161974050Y-68159050D02*
X161974050Y-70104050D01*
X151815000Y-68255000D02*
X151815000Y-66865810D01*
X159766000Y-65951000D02*
X161974050Y-68159050D01*
X152729810Y-65951000D02*
X159766000Y-65951000D01*
X151815000Y-66865810D02*
X152729810Y-65951000D01*
G04 #@! TO.N,Net-(U11-OUTA)*
X163818501Y-49526297D02*
X162492204Y-48200000D01*
X168668501Y-50026297D02*
X169640001Y-50997797D01*
X159500000Y-48200000D02*
X158423703Y-47123703D01*
X168668501Y-50026297D02*
X168168501Y-49526297D01*
X168168501Y-49526297D02*
X163818501Y-49526297D01*
X150566500Y-49121703D02*
X150566500Y-49878703D01*
X158423703Y-47123703D02*
X152564500Y-47123703D01*
X162492204Y-48200000D02*
X159500000Y-48200000D01*
X169640001Y-50997797D02*
X169640001Y-52050000D01*
X152564500Y-47123703D02*
X150566500Y-49121703D01*
G04 #@! TO.N,Net-(U11-OUTC)*
X160750001Y-57000000D02*
X160750001Y-59045297D01*
X158419500Y-57319500D02*
X158419500Y-48619500D01*
X160226297Y-59126297D02*
X158419500Y-57319500D01*
X160831001Y-59126297D02*
X160226297Y-59126297D01*
X153106500Y-49153703D02*
X153106500Y-49878703D01*
X158419500Y-48619500D02*
X157825703Y-48025703D01*
X154234500Y-48025703D02*
X153106500Y-49153703D01*
X157825703Y-48025703D02*
X154234500Y-48025703D01*
X160750001Y-59045297D02*
X160831001Y-59126297D01*
X160550001Y-57200000D02*
X160750001Y-57000000D01*
G04 #@! TO.N,Net-(U11-OUTB)*
X151836500Y-48489513D02*
X151836500Y-49878703D01*
X161826297Y-49926297D02*
X161826297Y-49759675D01*
X160717622Y-48651000D02*
X159251000Y-48651000D01*
X162418501Y-51651500D02*
X162020001Y-52050000D01*
X152751310Y-47574703D02*
X151836500Y-48489513D01*
X162418501Y-49926297D02*
X162418501Y-51651500D01*
X161826297Y-49759675D02*
X160717622Y-48651000D01*
X159251000Y-48651000D02*
X158174703Y-47574703D01*
X158174703Y-47574703D02*
X152751310Y-47574703D01*
X162418501Y-49926297D02*
X161826297Y-49926297D01*
D10*
G04 #@! TO.N,/X_axis/X_dir_N*
X171800000Y-123300000D02*
X172150000Y-122950000D01*
X167160001Y-124649999D02*
X167610001Y-125099999D01*
D67*
X181430801Y-121848999D02*
X180432801Y-120850999D01*
D10*
X167610001Y-125446967D02*
X168686053Y-126523019D01*
X168686053Y-126523019D02*
X170458781Y-126523019D01*
X170458781Y-126523019D02*
X171800000Y-125181800D01*
X172150000Y-122950000D02*
X173049801Y-122950000D01*
D67*
X177733701Y-120850999D02*
X175634700Y-122950000D01*
X180060001Y-128299998D02*
X181430801Y-126929198D01*
X180432801Y-120850999D02*
X177733701Y-120850999D01*
X175634700Y-122950000D02*
X173049801Y-122950000D01*
D10*
X167610001Y-125099999D02*
X167610001Y-125446967D01*
D67*
X181430801Y-126929198D02*
X181430801Y-121848999D01*
D10*
X171800000Y-125181800D02*
X171800000Y-123300000D01*
G04 #@! TO.N,/X_axis/X_dir_P*
X168430001Y-124996967D02*
X169555053Y-126122019D01*
X170980801Y-125300999D02*
X170980801Y-123552099D01*
D67*
X173699800Y-120399999D02*
X173049801Y-121049998D01*
D10*
X170980801Y-123552099D02*
X173049801Y-121483099D01*
X173049801Y-121483099D02*
X173049801Y-121049998D01*
X168430001Y-124649999D02*
X168430001Y-124996967D01*
X169555053Y-126122019D02*
X170159781Y-126122019D01*
X170159781Y-126122019D02*
X170980801Y-125300999D01*
D67*
X181881801Y-121299999D02*
X180981801Y-120399999D01*
X180060001Y-131299997D02*
X181881801Y-129478197D01*
X181881801Y-129478197D02*
X181881801Y-121299999D01*
X180981801Y-120399999D02*
X173699800Y-120399999D01*
D10*
G04 #@! TO.N,/X_axis/X_step_P*
X163760001Y-126096397D02*
X165037603Y-127373999D01*
X177696399Y-125299999D02*
X180060001Y-125299999D01*
X174796399Y-128199999D02*
X177696399Y-125299999D01*
X171102998Y-127817698D02*
X173523199Y-127817698D01*
X170659299Y-127373999D02*
X171102998Y-127817698D01*
X173905500Y-128199999D02*
X174781801Y-128199999D01*
X163350001Y-125324999D02*
X163760001Y-125734999D01*
X174781801Y-128199999D02*
X174796399Y-128199999D01*
X165037603Y-127373999D02*
X170659299Y-127373999D01*
X163350001Y-124649999D02*
X163350001Y-125324999D01*
X163760001Y-125734999D02*
X163760001Y-126096397D01*
X173523199Y-127817698D02*
X173905500Y-128199999D01*
G04 #@! TO.N,/X_axis/X_step_N*
X173905500Y-126299997D02*
X174781801Y-126299997D01*
X165224019Y-126924019D02*
X170845687Y-126924019D01*
X164210001Y-125734999D02*
X164210001Y-125910001D01*
X171087408Y-126682298D02*
X173523199Y-126682298D01*
X164620001Y-125324999D02*
X164210001Y-125734999D01*
X176060004Y-126299997D02*
X180060001Y-122300000D01*
X164620001Y-124649999D02*
X164620001Y-125324999D01*
X173523199Y-126682298D02*
X173905500Y-126299997D01*
X164210001Y-125910001D02*
X165224019Y-126924019D01*
X170845687Y-126924019D02*
X171087408Y-126682298D01*
X174781801Y-126299997D02*
X176060004Y-126299997D01*
D67*
G04 #@! TO.N,/X_axis/X_ena_P*
X175918900Y-131721498D02*
X173384001Y-131721498D01*
X184300001Y-130499999D02*
X184640902Y-130840900D01*
D10*
X163009033Y-128323999D02*
X163356001Y-128323999D01*
X163905001Y-127774999D02*
X170493199Y-127774999D01*
X162749001Y-128584031D02*
X163009033Y-128323999D01*
X172882642Y-131220139D02*
X173384001Y-131721498D01*
D67*
X183381804Y-132799998D02*
X176997400Y-132799998D01*
D10*
X162080001Y-129599999D02*
X162749001Y-128930999D01*
D67*
X183060000Y-131299997D02*
X183859998Y-130499999D01*
D10*
X163356001Y-128323999D02*
X163905001Y-127774999D01*
D67*
X176997400Y-132799998D02*
X175918900Y-131721498D01*
X184640902Y-131540900D02*
X183381804Y-132799998D01*
X183859998Y-130499999D02*
X184300001Y-130499999D01*
D10*
X170493199Y-127774999D02*
X172882642Y-130164442D01*
X162749001Y-128930999D02*
X162749001Y-128584031D01*
X172882642Y-130164442D02*
X172882642Y-131220139D01*
D67*
X184640902Y-130840900D02*
X184640902Y-131540900D01*
D10*
G04 #@! TO.N,/X_axis/X_ena_N*
X172432642Y-130350838D02*
X172432642Y-132670141D01*
X163350001Y-128966396D02*
X164091398Y-128224999D01*
X170306803Y-128224999D02*
X172432642Y-130350838D01*
D67*
X183378500Y-133621500D02*
X173384001Y-133621500D01*
X183060000Y-128299998D02*
X185300000Y-130539998D01*
D10*
X164091398Y-128224999D02*
X170306803Y-128224999D01*
D67*
X185300000Y-130539998D02*
X185300000Y-131700000D01*
D10*
X163350001Y-129599999D02*
X163350001Y-128966396D01*
D67*
X185300000Y-131700000D02*
X183378500Y-133621500D01*
D10*
X172432642Y-132670141D02*
X173384001Y-133621500D01*
D67*
G04 #@! TO.N,/Y_axis/Y_dir_P*
X180060000Y-113099999D02*
X181692901Y-111467098D01*
X181692901Y-111467098D02*
X181692901Y-103520507D01*
D10*
X172224701Y-105542268D02*
X172224701Y-103817101D01*
D67*
X181692901Y-103520507D02*
X180707996Y-102535602D01*
D10*
X168801000Y-107922803D02*
X169844166Y-107922803D01*
X168020001Y-106860000D02*
X168020001Y-107141804D01*
X169844166Y-107922803D02*
X172224701Y-105542268D01*
D67*
X180707996Y-102535602D02*
X173506200Y-102535602D01*
D10*
X168430000Y-106450001D02*
X168020001Y-106860000D01*
D67*
X173506200Y-102535602D02*
X173109901Y-102931901D01*
D10*
X172224701Y-103817101D02*
X173109901Y-102931901D01*
X168020001Y-107141804D02*
X168801000Y-107922803D01*
G04 #@! TO.N,/Y_axis/Y_dir_N*
X167160000Y-106450001D02*
X167569999Y-106860000D01*
X167569999Y-107328198D02*
X168565802Y-108324001D01*
D67*
X175694800Y-104831903D02*
X173109901Y-104831903D01*
D10*
X167569999Y-106860000D02*
X167569999Y-107328198D01*
D67*
X180521186Y-102986602D02*
X177540101Y-102986602D01*
X181241901Y-103707317D02*
X180521186Y-102986602D01*
X181241901Y-108918099D02*
X181241901Y-103707317D01*
X180060000Y-110100000D02*
X181241901Y-108918099D01*
D10*
X170484000Y-108324001D02*
X173109901Y-105698100D01*
D67*
X177540101Y-102986602D02*
X175694800Y-104831903D01*
D10*
X168565802Y-108324001D02*
X170484000Y-108324001D01*
X173109901Y-105698100D02*
X173109901Y-104831903D01*
G04 #@! TO.N,/Y_axis/Y_step_N*
X164210000Y-108031803D02*
X164903198Y-108725001D01*
X164620000Y-106450001D02*
X164620000Y-107125001D01*
X164620000Y-107125001D02*
X164210000Y-107535001D01*
X176078102Y-108081900D02*
X180060000Y-104100002D01*
X164903198Y-108725001D02*
X171098802Y-108725001D01*
X171741903Y-108081900D02*
X174841901Y-108081900D01*
X164210000Y-107535001D02*
X164210000Y-108031803D01*
X171098802Y-108725001D02*
X171741903Y-108081900D01*
X174841901Y-108081900D02*
X176078102Y-108081900D01*
G04 #@! TO.N,/Y_axis/Y_step_P*
X174841901Y-109981902D02*
X174941901Y-109981902D01*
X163760000Y-108218199D02*
X164716802Y-109175001D01*
X174941901Y-109981902D02*
X177823802Y-107100001D01*
X164716802Y-109175001D02*
X171500101Y-109175001D01*
X171500101Y-109175001D02*
X172307002Y-109981902D01*
X163350000Y-107125001D02*
X163760000Y-107535001D01*
X163350000Y-106450001D02*
X163350000Y-107125001D01*
X177823802Y-107100001D02*
X180060000Y-107100001D01*
X172307002Y-109981902D02*
X174841901Y-109981902D01*
X163760000Y-107535001D02*
X163760000Y-108218199D01*
D67*
G04 #@! TO.N,/Y_axis/Y_ena_P*
X183859997Y-112300001D02*
X183059999Y-113099999D01*
X183735302Y-114246501D02*
X184640901Y-113340902D01*
X184640901Y-112640902D02*
X184300000Y-112300001D01*
D10*
X162749000Y-110384033D02*
X163009032Y-110124001D01*
X172882641Y-113020141D02*
X173384000Y-113521500D01*
X162749000Y-110731001D02*
X162749000Y-110384033D01*
X172882641Y-111964444D02*
X172882641Y-113020141D01*
D67*
X184300000Y-112300001D02*
X183859997Y-112300001D01*
X175968898Y-113521500D02*
X173383999Y-113521500D01*
D10*
X170493198Y-109575001D02*
X172882641Y-111964444D01*
D67*
X183735302Y-114246501D02*
X176693899Y-114246501D01*
D10*
X163905000Y-109575001D02*
X170493198Y-109575001D01*
X162080000Y-111400001D02*
X162749000Y-110731001D01*
D67*
X176693899Y-114246501D02*
X175968898Y-113521500D01*
X184640901Y-113340902D02*
X184640901Y-112640902D01*
D10*
X163356000Y-110124001D02*
X163905000Y-109575001D01*
X163009032Y-110124001D02*
X163356000Y-110124001D01*
G04 #@! TO.N,/Y_axis/Y_ena_N*
X163350000Y-110766398D02*
X164091397Y-110025001D01*
X172432641Y-114470143D02*
X173384000Y-115421502D01*
D67*
X183378498Y-115421502D02*
X185200000Y-113600000D01*
D10*
X172432641Y-112150840D02*
X172432641Y-114470143D01*
X164091397Y-110025001D02*
X170306802Y-110025001D01*
D67*
X185200000Y-113600000D02*
X185200000Y-112240001D01*
D10*
X170306802Y-110025001D02*
X172432641Y-112150840D01*
D67*
X185200000Y-112240001D02*
X183059999Y-110100000D01*
D10*
X163350000Y-111400001D02*
X163350000Y-110766398D01*
D67*
X173383999Y-115421502D02*
X183378498Y-115421502D01*
G04 #@! TO.N,/Z_axis/Y_dir_P*
X180022240Y-94960048D02*
X181713190Y-93269098D01*
X170013190Y-89708050D02*
X173213190Y-86508050D01*
X181713190Y-93269098D02*
X181713190Y-85113190D01*
X168392240Y-88310050D02*
X168392240Y-89430050D01*
X168392240Y-89430050D02*
X168670240Y-89708050D01*
X181713190Y-85113190D02*
X180800000Y-84200000D01*
X173213190Y-86508050D02*
X173213190Y-86150998D01*
X180800000Y-84200000D02*
X175164188Y-84200000D01*
X168670240Y-89708050D02*
X170013190Y-89708050D01*
X175164188Y-84200000D02*
X173213190Y-86150998D01*
G04 #@! TO.N,/Z_axis/Y_dir_N*
X180613190Y-84651000D02*
X179113190Y-84651000D01*
X167122240Y-88310050D02*
X167122240Y-89285049D01*
X181213190Y-85251000D02*
X180613190Y-84651000D01*
X179113190Y-84651000D02*
X175713190Y-88051000D01*
X175713190Y-88051000D02*
X173213190Y-88051000D01*
X171105140Y-90159050D02*
X173213190Y-88051000D01*
X167122240Y-89285049D02*
X167996241Y-90159050D01*
X181213190Y-90769099D02*
X181213190Y-85251000D01*
X167996241Y-90159050D02*
X171105140Y-90159050D01*
X180022240Y-91960049D02*
X181213190Y-90769099D01*
D10*
G04 #@! TO.N,/Z_axis/Y_step_P*
X163722239Y-89578247D02*
X165179042Y-91035050D01*
X175013190Y-92351000D02*
X178404140Y-88960050D01*
X165179042Y-91035050D02*
X170862341Y-91035050D01*
X163312240Y-88310050D02*
X163722239Y-88720049D01*
X170862341Y-91035050D02*
X172178291Y-92351000D01*
X174713190Y-92351000D02*
X175013190Y-92351000D01*
X172178291Y-92351000D02*
X174713190Y-92351000D01*
X163722239Y-88720049D02*
X163722239Y-89578247D01*
X178404140Y-88960050D02*
X180022240Y-88960050D01*
G04 #@! TO.N,/Z_axis/Y_step_N*
X171379138Y-90585050D02*
X171513190Y-90450998D01*
X165365438Y-90585050D02*
X171379138Y-90585050D01*
X164582240Y-88310050D02*
X164172241Y-88720049D01*
X175531293Y-90450998D02*
X180022240Y-85960051D01*
X174713190Y-90450998D02*
X175531293Y-90450998D01*
X164172241Y-88720049D02*
X164172241Y-89391853D01*
X171513190Y-90450998D02*
X174713190Y-90450998D01*
X164172241Y-89391853D02*
X165365438Y-90585050D01*
G04 #@! TO.N,/Z_axis/Y_ena_P*
X162711240Y-92591050D02*
X162711240Y-92244082D01*
D67*
X184603141Y-94500951D02*
X184262240Y-94160050D01*
X183554092Y-96250000D02*
X184578141Y-95225951D01*
D10*
X172844881Y-93824493D02*
X172844881Y-94880190D01*
D67*
X175849343Y-95381549D02*
X176717794Y-96250000D01*
X184262240Y-94160050D02*
X183822237Y-94160050D01*
D10*
X162971272Y-91984050D02*
X163318240Y-91984050D01*
D67*
X176717794Y-96250000D02*
X183554092Y-96250000D01*
D10*
X163867240Y-91435050D02*
X170455438Y-91435050D01*
D67*
X173346240Y-95381549D02*
X175849343Y-95381549D01*
D10*
X162711240Y-92244082D02*
X162971272Y-91984050D01*
X162042240Y-93260050D02*
X162711240Y-92591050D01*
X170455438Y-91435050D02*
X172844881Y-93824493D01*
D67*
X184603141Y-95200951D02*
X184603141Y-94500951D01*
D10*
X163318240Y-91984050D02*
X163867240Y-91435050D01*
X172844881Y-94880190D02*
X173346240Y-95381549D01*
D67*
X183822237Y-94160050D02*
X183022239Y-94960048D01*
G04 #@! TO.N,/Z_axis/Y_ena_N*
X183022239Y-91960049D02*
X185300000Y-94237810D01*
D10*
X172394881Y-96330192D02*
X173346240Y-97281551D01*
X163312240Y-92626447D02*
X164053637Y-91885050D01*
D67*
X183268449Y-97281551D02*
X173346240Y-97281551D01*
D10*
X163312240Y-93260050D02*
X163312240Y-92626447D01*
D67*
X185300000Y-95250000D02*
X183268449Y-97281551D01*
D10*
X172394881Y-94010889D02*
X172394881Y-96330192D01*
X170269042Y-91885050D02*
X172394881Y-94010889D01*
X164053637Y-91885050D02*
X170269042Y-91885050D01*
D67*
X185300000Y-94237810D02*
X185300000Y-95250000D01*
G04 #@! TO.N,b_stp*
X138200000Y-110450000D02*
X133580000Y-115070000D01*
X140050000Y-73882190D02*
X138200000Y-75732190D01*
X140050000Y-56125202D02*
X140050000Y-73882190D01*
X145781499Y-57573703D02*
X144781499Y-56573703D01*
X138200000Y-75732190D02*
X138200000Y-110450000D01*
X143081499Y-53093703D02*
X140050000Y-56125202D01*
X144781499Y-56573703D02*
X144781499Y-54793703D01*
X150556501Y-57573703D02*
X145781499Y-57573703D01*
X151836500Y-58853702D02*
X150556501Y-57573703D01*
X144781499Y-54793703D02*
X143081499Y-53093703D01*
X151836500Y-59578702D02*
X151836500Y-58853702D01*
X133580000Y-115070000D02*
X129800000Y-115070000D01*
X143081499Y-53093703D02*
X143081499Y-53718501D01*
G04 #@! TO.N,x_stp*
X144870705Y-129661095D02*
X144870705Y-127758905D01*
X150033000Y-130248000D02*
X145457610Y-130248000D01*
X144870705Y-127758905D02*
X143181800Y-126070000D01*
X151815000Y-132755000D02*
X151815000Y-132030000D01*
X145457610Y-130248000D02*
X144870705Y-129661095D01*
X151815000Y-132030000D02*
X150033000Y-130248000D01*
X143181800Y-126070000D02*
X141481800Y-127770000D01*
X141481800Y-127770000D02*
X129800000Y-127770000D01*
G04 #@! TO.N,z_dir*
X150503099Y-96178702D02*
X150503099Y-95453702D01*
X139950000Y-99550000D02*
X139950000Y-95050000D01*
X137400000Y-99550000D02*
X137400000Y-99850000D01*
X142276298Y-92723702D02*
X143108099Y-92723702D01*
X139950000Y-95050000D02*
X142276298Y-92723702D01*
X149399397Y-94350000D02*
X144734397Y-94350000D01*
X144734397Y-94350000D02*
X143108099Y-92723702D01*
X137400000Y-99850000D02*
X129800000Y-107450000D01*
X150503099Y-95453702D02*
X149399397Y-94350000D01*
G04 #@! TO.N,/UART-TX*
X129800000Y-135390000D02*
X131640000Y-133550000D01*
X137420000Y-135470000D02*
X137420000Y-136850000D01*
X131640000Y-133550000D02*
X135500000Y-133550000D01*
X135500000Y-133550000D02*
X137420000Y-135470000D01*
G04 #@! TO.N,a_dir*
X150545000Y-77954999D02*
X150545000Y-77229999D01*
X149465001Y-76150000D02*
X145240000Y-76150000D01*
X139500000Y-77610000D02*
X143100000Y-74010000D01*
X145240000Y-76150000D02*
X143100000Y-74010000D01*
X129800000Y-102370000D02*
X137400000Y-94770000D01*
X150545000Y-77229999D02*
X149465001Y-76150000D01*
X139500000Y-92250000D02*
X139500000Y-77610000D01*
X137400000Y-94770000D02*
X137400000Y-93650000D01*
G04 #@! TO.N,b_dir*
X150566500Y-58853702D02*
X149786501Y-58073703D01*
X129800000Y-99830000D02*
X137749000Y-91881000D01*
X139400000Y-73450000D02*
X139400000Y-63700000D01*
X137749000Y-91881000D02*
X137749000Y-75101000D01*
X140850000Y-57865202D02*
X143081499Y-55633703D01*
X150566500Y-59578702D02*
X150566500Y-58853702D01*
X140850000Y-63700000D02*
X140850000Y-57865202D01*
X149786501Y-58073703D02*
X145521499Y-58073703D01*
X145521499Y-58073703D02*
X143081499Y-55633703D01*
X137749000Y-75101000D02*
X139400000Y-73450000D01*
G04 #@! TO.N,y_stp*
X132650000Y-118850000D02*
X139800000Y-111700000D01*
X129800000Y-124900000D02*
X129800000Y-125230000D01*
X145641901Y-111931901D02*
X145030806Y-111320806D01*
X142460289Y-107851901D02*
X143041901Y-107851901D01*
X150016902Y-111931901D02*
X145641901Y-111931901D01*
X139800000Y-111093802D02*
X139800000Y-111550000D01*
X145030806Y-111320806D02*
X145030806Y-109840806D01*
X145030806Y-109840806D02*
X143041901Y-107851901D01*
X143041901Y-107851901D02*
X139800000Y-111093802D01*
X139800000Y-111700000D02*
X139800000Y-111550000D01*
X129800000Y-125230000D02*
X132650000Y-122380000D01*
X151815000Y-113729999D02*
X150016902Y-111931901D01*
X132650000Y-122380000D02*
X132650000Y-118850000D01*
X151815000Y-114454999D02*
X151815000Y-113729999D01*
G04 #@! TO.N,a_stp*
X144838905Y-73208905D02*
X143100000Y-71470000D01*
X138750000Y-75820000D02*
X138750000Y-110700000D01*
X150235001Y-75650000D02*
X146000000Y-75650000D01*
X151815000Y-77954999D02*
X151815000Y-77229999D01*
X138750000Y-110700000D02*
X129800000Y-119650000D01*
X143100000Y-71470000D02*
X138750000Y-75820000D01*
X144838905Y-74488905D02*
X144838905Y-73208905D01*
X151815000Y-77229999D02*
X150235001Y-75650000D01*
X129800000Y-119650000D02*
X129800000Y-120150000D01*
X146000000Y-75650000D02*
X144838905Y-74488905D01*
G04 #@! TO.N,axis_enable*
X152487500Y-58234702D02*
X152487500Y-58202702D01*
X153085000Y-77197999D02*
X154032999Y-76250000D01*
X153106500Y-58821702D02*
X153978202Y-57950000D01*
X153106500Y-59578702D02*
X153106500Y-58821702D01*
X153085000Y-113729999D02*
X150835902Y-111480901D01*
X145321705Y-129474285D02*
X145321705Y-125669905D01*
X143200000Y-123511800D02*
X143181800Y-123530000D01*
X145289905Y-71119905D02*
X143100000Y-68930000D01*
X157300000Y-94550000D02*
X158100000Y-95350000D01*
X153085000Y-114454999D02*
X153085000Y-113697999D01*
X153914801Y-94550000D02*
X157300000Y-94550000D01*
X145644420Y-129797000D02*
X145321705Y-129474285D01*
X150852000Y-129797000D02*
X145644420Y-129797000D01*
X145549000Y-93299000D02*
X145100000Y-92850000D01*
X150835902Y-111480901D02*
X145941901Y-111480901D01*
X151005001Y-75150000D02*
X146400000Y-75150000D01*
X145281499Y-52753703D02*
X143081499Y-50553703D01*
X143200000Y-118449999D02*
X143200000Y-123511800D01*
X157700000Y-79550000D02*
X156000000Y-81250000D01*
X145281499Y-56435893D02*
X145281499Y-52753703D01*
X157314798Y-57950000D02*
X158200000Y-58835202D01*
X158100000Y-95350000D02*
X158100000Y-99050000D01*
X143800000Y-99450000D02*
X143100382Y-100149618D01*
X157700000Y-76850000D02*
X157700000Y-79550000D01*
X145100000Y-89635603D02*
X143108099Y-87643702D01*
X141600000Y-66300000D02*
X141600000Y-67430000D01*
X145941901Y-111480901D02*
X145481806Y-111020806D01*
X153043099Y-96178702D02*
X153043099Y-95421702D01*
X158200000Y-62450000D02*
X157800000Y-62850000D01*
X153932999Y-112850000D02*
X157701500Y-112850000D01*
X157100000Y-76250000D02*
X157700000Y-76850000D01*
X153043099Y-95453702D02*
X150888397Y-93299000D01*
X145481806Y-107751806D02*
X143041901Y-105311901D01*
X142900000Y-81250000D02*
X141900000Y-82250000D01*
X136600000Y-87600000D02*
X136600000Y-90490000D01*
X143100382Y-105253420D02*
X143041901Y-105311901D01*
X145321705Y-125669905D02*
X143181800Y-123530000D01*
X145289905Y-74039905D02*
X145289905Y-71119905D01*
X157701500Y-112850000D02*
X158200000Y-113348500D01*
X158200000Y-116350000D02*
X156700000Y-117850000D01*
X153085000Y-114454999D02*
X153085000Y-113729999D01*
X151375501Y-57122703D02*
X145968309Y-57122703D01*
X145481806Y-111020806D02*
X145481806Y-107751806D01*
X154032999Y-76250000D02*
X157100000Y-76250000D01*
X156800000Y-117849999D02*
X143800000Y-117849999D01*
X141900000Y-86435603D02*
X143108099Y-87643702D01*
X143100382Y-100149618D02*
X143100382Y-105253420D01*
X157700000Y-99450000D02*
X143800000Y-99450000D01*
X156000000Y-81250000D02*
X142900000Y-81250000D01*
X158100000Y-99050000D02*
X157700000Y-99450000D01*
X141900000Y-82250000D02*
X141900000Y-86435603D01*
X153043099Y-95421702D02*
X153914801Y-94550000D01*
X152455500Y-58202702D02*
X151375501Y-57122703D01*
X158200000Y-58835202D02*
X158200000Y-62450000D01*
X143800000Y-117849999D02*
X143200000Y-118449999D01*
X152487500Y-58202702D02*
X152455500Y-58202702D01*
X153106500Y-59578702D02*
X153106500Y-58853702D01*
X141600000Y-67430000D02*
X143100000Y-68930000D01*
X153085000Y-77229999D02*
X151005001Y-75150000D01*
X153978202Y-57950000D02*
X157314798Y-57950000D01*
X153085000Y-77954999D02*
X153085000Y-77229999D01*
X150888397Y-93299000D02*
X145549000Y-93299000D01*
X153085000Y-132755000D02*
X153085000Y-132030000D01*
X153106500Y-58853702D02*
X152487500Y-58234702D01*
X158200000Y-113348500D02*
X158200000Y-116350000D01*
X145968309Y-57122703D02*
X145281499Y-56435893D01*
X136600000Y-90490000D02*
X129800000Y-97290000D01*
X145100000Y-92850000D02*
X145100000Y-89635603D01*
X146400000Y-75150000D02*
X145289905Y-74039905D01*
X153085000Y-113697999D02*
X153932999Y-112850000D01*
X157800000Y-62850000D02*
X145050000Y-62850000D01*
X153085000Y-132030000D02*
X150852000Y-129797000D01*
X145050000Y-62850000D02*
X141600000Y-66300000D01*
X153043099Y-96178702D02*
X153043099Y-95453702D01*
X153085000Y-77954999D02*
X153085000Y-77197999D01*
G04 #@! TO.N,x_dir*
X135900000Y-116700000D02*
X135900000Y-121250000D01*
X136100000Y-116500000D02*
X135900000Y-116700000D01*
X132280000Y-112530000D02*
X133650000Y-113900000D01*
X150545000Y-132030000D02*
X149214000Y-130699000D01*
X150545000Y-132755000D02*
X150545000Y-132030000D01*
X135900000Y-121250000D02*
X141050000Y-126400000D01*
X129800000Y-112530000D02*
X132280000Y-112530000D01*
X149214000Y-130699000D02*
X145270800Y-130699000D01*
X145270800Y-130699000D02*
X143181800Y-128610000D01*
G04 #@! TO.N,y_dir*
X150545000Y-113729999D02*
X149295902Y-112480901D01*
X139150000Y-113250000D02*
X142008099Y-110391901D01*
X150545000Y-114454999D02*
X150545000Y-113729999D01*
X139150000Y-113350000D02*
X139150000Y-113250000D01*
X137290000Y-109990000D02*
X137300000Y-110000000D01*
X129800000Y-109990000D02*
X137290000Y-109990000D01*
X149295902Y-112480901D02*
X145130901Y-112480901D01*
X145130901Y-112480901D02*
X143041901Y-110391901D01*
X142008099Y-110391901D02*
X143041901Y-110391901D01*
G04 #@! TO.N,z_stp*
X143108099Y-90183702D02*
X139250000Y-94041801D01*
X129800000Y-122250000D02*
X129800000Y-122690000D01*
X139250000Y-111350000D02*
X139250000Y-110850000D01*
X151773099Y-95453702D02*
X150069397Y-93750000D01*
X132100000Y-118500000D02*
X139250000Y-111350000D01*
X151773099Y-96178702D02*
X151773099Y-95453702D01*
X150069397Y-93750000D02*
X145000000Y-93750000D01*
X144600000Y-93350000D02*
X144600000Y-91675603D01*
X139250000Y-94041801D02*
X139250000Y-110850000D01*
X132100000Y-120390000D02*
X132100000Y-118500000D01*
X144600000Y-91675603D02*
X143108099Y-90183702D01*
X145000000Y-93750000D02*
X144600000Y-93350000D01*
X129800000Y-122690000D02*
X132100000Y-120390000D01*
G04 #@! TO.N,/UART-RX*
X135960000Y-132850000D02*
X139960000Y-136850000D01*
X129800000Y-132850000D02*
X135960000Y-132850000D01*
G04 #@! TO.N,/A_axis/Y_dir_N*
X176540950Y-69335348D02*
X177989952Y-67886346D01*
X167913654Y-72008050D02*
X171090951Y-72008050D01*
X173258951Y-69335348D02*
X176540950Y-69335348D01*
X180761459Y-66636347D02*
X181290951Y-67165839D01*
X179277761Y-66636347D02*
X180761459Y-66636347D01*
X181290951Y-67165839D02*
X181290951Y-72527148D01*
X178027762Y-67886346D02*
X179277761Y-66636347D01*
X167109050Y-70159050D02*
X167109050Y-71203446D01*
X171090951Y-72008050D02*
X173258951Y-69840050D01*
X167109050Y-71203446D02*
X167913654Y-72008050D01*
X181290951Y-72527148D02*
X180009050Y-73809049D01*
X177989952Y-67886346D02*
X178027762Y-67886346D01*
X173258951Y-69840050D02*
X173258951Y-69335348D01*
G04 #@! TO.N,/A_axis/Y_dir_P*
X180990951Y-66185347D02*
X181790951Y-66985347D01*
X179090951Y-66185347D02*
X180990951Y-66185347D01*
X172840952Y-67435346D02*
X173258951Y-67435346D01*
X171290951Y-71085347D02*
X171290951Y-68985347D01*
X181790951Y-75027147D02*
X180009050Y-76809048D01*
X169297728Y-71460050D02*
X170916248Y-71460050D01*
X168379050Y-70541372D02*
X169297728Y-71460050D01*
X177840952Y-67435346D02*
X179090951Y-66185347D01*
X168379050Y-70159050D02*
X168379050Y-70541372D01*
X170916248Y-71460050D02*
X171290951Y-71085347D01*
X171290951Y-68985347D02*
X172840952Y-67435346D01*
X181790951Y-66985347D02*
X181790951Y-75027147D01*
X173258951Y-67435346D02*
X177840952Y-67435346D01*
D10*
G04 #@! TO.N,/A_axis/Y_step_N*
X164159050Y-71244050D02*
X164159050Y-71935248D01*
X175632756Y-72185345D02*
X180009050Y-67809051D01*
X171742248Y-72434050D02*
X171990953Y-72185345D01*
X171990953Y-72185345D02*
X174890951Y-72185345D01*
X164569050Y-70159050D02*
X164569050Y-70792653D01*
X174890951Y-72185345D02*
X175632756Y-72185345D01*
X164569050Y-70834050D02*
X164159050Y-71244050D01*
X164159050Y-71935248D02*
X164657852Y-72434050D01*
X164569050Y-70159050D02*
X164569050Y-70834050D01*
X164657852Y-72434050D02*
X171742248Y-72434050D01*
G04 #@! TO.N,/A_axis/Y_step_P*
X176732753Y-74085347D02*
X180009050Y-70809050D01*
X164471456Y-72884050D02*
X170689654Y-72884050D01*
X163299050Y-70159050D02*
X163299050Y-70834050D01*
X163709050Y-72121644D02*
X164471456Y-72884050D01*
X163299050Y-70834050D02*
X163709050Y-71244050D01*
X170689654Y-72884050D02*
X171890951Y-74085347D01*
X171890951Y-74085347D02*
X174890951Y-74085347D01*
X163709050Y-71244050D02*
X163709050Y-72121644D01*
X174890951Y-74085347D02*
X176732753Y-74085347D01*
D67*
G04 #@! TO.N,/A_axis/Y_ena_P*
X173333050Y-77230549D02*
X175870549Y-77230549D01*
D10*
X162029050Y-75109050D02*
X162698050Y-74440050D01*
D67*
X183530852Y-78109050D02*
X183684352Y-77955550D01*
D10*
X172831691Y-75673493D02*
X172831691Y-76729190D01*
D67*
X184249050Y-76009050D02*
X183809047Y-76009050D01*
D10*
X163305050Y-73833050D02*
X163854050Y-73284050D01*
D67*
X184589951Y-77049951D02*
X184589951Y-76349951D01*
D10*
X163854050Y-73284050D02*
X170442248Y-73284050D01*
D67*
X183809047Y-76009050D02*
X183009049Y-76809048D01*
X183684352Y-77955550D02*
X184589951Y-77049951D01*
X184589951Y-76349951D02*
X184249050Y-76009050D01*
D10*
X162698050Y-74440050D02*
X162698050Y-74093082D01*
X162958082Y-73833050D02*
X163305050Y-73833050D01*
D67*
X176749050Y-78109050D02*
X183530852Y-78109050D01*
X175870549Y-77230549D02*
X176749050Y-78109050D01*
D10*
X172831691Y-76729190D02*
X173333050Y-77230549D01*
X162698050Y-74093082D02*
X162958082Y-73833050D01*
X170442248Y-73284050D02*
X172831691Y-75673493D01*
G04 #@! TO.N,/A_axis/Y_ena_N*
X172381691Y-78179192D02*
X173333050Y-79130551D01*
X164040447Y-73734050D02*
X170255852Y-73734050D01*
D67*
X173333050Y-79130551D02*
X183269449Y-79130551D01*
D10*
X163299050Y-75109050D02*
X163299050Y-74475447D01*
D67*
X185100000Y-75900000D02*
X183009049Y-73809049D01*
X185100000Y-77300000D02*
X185100000Y-75900000D01*
D10*
X170255852Y-73734050D02*
X172381691Y-75859889D01*
X172381691Y-75859889D02*
X172381691Y-78179192D01*
D67*
X183269449Y-79130551D02*
X185100000Y-77300000D01*
D10*
X163299050Y-74475447D02*
X164040447Y-73734050D01*
D67*
G04 #@! TO.N,/B_axis/Y_dir_P*
X168370001Y-53024999D02*
X168696002Y-53351000D01*
X171600000Y-52200000D02*
X171600000Y-51558998D01*
X168370001Y-52050000D02*
X168370001Y-53024999D01*
X181800000Y-56899999D02*
X180000001Y-58699998D01*
X181086810Y-47949000D02*
X181800000Y-48662190D01*
X170449000Y-53351000D02*
X171600000Y-52200000D01*
X181800000Y-48662190D02*
X181800000Y-56899999D01*
X175209998Y-47949000D02*
X181086810Y-47949000D01*
X171600000Y-51558998D02*
X173208999Y-49949999D01*
X168696002Y-53351000D02*
X170449000Y-53351000D01*
X173208999Y-49949999D02*
X175209998Y-47949000D01*
G04 #@! TO.N,/B_axis/Y_dir_N*
X173208999Y-51850001D02*
X176049999Y-51850001D01*
X181349000Y-54351000D02*
X180000001Y-55699999D01*
X167647000Y-53847000D02*
X171212000Y-53847000D01*
X180900000Y-48400000D02*
X181349000Y-48849000D01*
X171212000Y-53847000D02*
X173208999Y-51850001D01*
X176049999Y-51850001D02*
X179500000Y-48400000D01*
X179500000Y-48400000D02*
X180900000Y-48400000D01*
X181349000Y-48849000D02*
X181349000Y-54351000D01*
X167100001Y-53300001D02*
X167647000Y-53847000D01*
X167100001Y-52050000D02*
X167100001Y-53300001D01*
G04 #@! TO.N,/B_axis/Y_step_P*
X165014002Y-54749000D02*
X170764101Y-54749000D01*
X163290001Y-53024999D02*
X165014002Y-54749000D01*
X174800000Y-56000000D02*
X178100000Y-52700000D01*
X170764101Y-54749000D02*
X172015101Y-56000000D01*
X174600000Y-56000000D02*
X174800000Y-56000000D01*
X163290001Y-52050000D02*
X163290001Y-53024999D01*
X172015101Y-56000000D02*
X174600000Y-56000000D01*
X178100000Y-52700000D02*
X180000001Y-52700000D01*
G04 #@! TO.N,/B_axis/Y_step_N*
X171700002Y-54099998D02*
X174600000Y-54099998D01*
X174600000Y-54099998D02*
X175600004Y-54099998D01*
X165833002Y-54298000D02*
X171502000Y-54298000D01*
X164560001Y-52050000D02*
X164560001Y-53024999D01*
X164560001Y-53024999D02*
X165833002Y-54298000D01*
X175600004Y-54099998D02*
X180000001Y-49700001D01*
X171502000Y-54298000D02*
X171700002Y-54099998D01*
G04 #@! TO.N,/B_axis/Y_ena_P*
X184580902Y-58940901D02*
X184580902Y-58240901D01*
X184580902Y-58240901D02*
X184240001Y-57900000D01*
X184240001Y-57900000D02*
X183799998Y-57900000D01*
D10*
X163296001Y-55724000D02*
X163845001Y-55175000D01*
X172822642Y-57564443D02*
X172822642Y-58620140D01*
X162949033Y-55724000D02*
X163296001Y-55724000D01*
X170433199Y-55175000D02*
X172822642Y-57564443D01*
D67*
X175908900Y-59121499D02*
X173324001Y-59121499D01*
X176633901Y-59846500D02*
X175908900Y-59121499D01*
D10*
X172822642Y-58620140D02*
X173324001Y-59121499D01*
X163845001Y-55175000D02*
X170433199Y-55175000D01*
D67*
X183799998Y-57900000D02*
X183000000Y-58699998D01*
D10*
X162689001Y-56331000D02*
X162689001Y-55984032D01*
D67*
X183675303Y-59846500D02*
X184580902Y-58940901D01*
X183675303Y-59846500D02*
X176633901Y-59846500D01*
D10*
X162020001Y-57000000D02*
X162689001Y-56331000D01*
X162689001Y-55984032D02*
X162949033Y-55724000D01*
G04 #@! TO.N,/B_axis/Y_ena_N*
X172372642Y-60070142D02*
X173324001Y-61021501D01*
X170246803Y-55625000D02*
X172372642Y-57750839D01*
D67*
X185150000Y-59150000D02*
X183278499Y-61021501D01*
X185150000Y-57849999D02*
X185150000Y-59150000D01*
D10*
X164031398Y-55625000D02*
X170246803Y-55625000D01*
D67*
X183000000Y-55699999D02*
X185150000Y-57849999D01*
X183278499Y-61021501D02*
X173324001Y-61021501D01*
D10*
X163290001Y-56366397D02*
X164031398Y-55625000D01*
X172372642Y-57750839D02*
X172372642Y-60070142D01*
X163290001Y-57000000D02*
X163290001Y-56366397D01*
D69*
G04 #@! TO.N,+5VA*
X108310000Y-131110000D02*
X110280000Y-131110000D01*
X110280000Y-131110000D02*
X112020000Y-132850000D01*
X107560000Y-132900000D02*
X111970000Y-132900000D01*
X106800000Y-129600000D02*
X108310000Y-131110000D01*
X111970000Y-132900000D02*
X112020000Y-132850000D01*
X106800000Y-132140000D02*
X107560000Y-132900000D01*
D66*
G04 #@! TO.N,Net-(J12-Pin_2)*
X103280000Y-136240000D02*
X104260000Y-137220000D01*
X87968200Y-136700000D02*
X100500000Y-136700000D01*
X100960000Y-136240000D02*
X103280000Y-136240000D01*
X100500000Y-136700000D02*
X100960000Y-136240000D01*
D67*
G04 #@! TO.N,Net-(J12-Pin_6)*
X100780000Y-134160000D02*
X100960000Y-134340000D01*
D66*
X100960000Y-134340000D02*
X102060000Y-134340000D01*
X102060000Y-134340000D02*
X104260000Y-132140000D01*
X98560000Y-134160000D02*
X100780000Y-134160000D01*
G04 #@! TO.N,Net-(U13-+VIN)*
X86160000Y-127735000D02*
X86623200Y-127735000D01*
X84360000Y-128660000D02*
X85235000Y-128660000D01*
X85235000Y-128660000D02*
X86160000Y-127735000D01*
X86623200Y-127735000D02*
X87968200Y-129080000D01*
D67*
G04 #@! TO.N,pwm_c*
X114650000Y-84500000D02*
X122022500Y-84500000D01*
X122022500Y-84500000D02*
X125260000Y-81262500D01*
X112020000Y-87130000D02*
X114650000Y-84500000D01*
X126597500Y-81262500D02*
X127260000Y-81925000D01*
X125260000Y-81262500D02*
X126597500Y-81262500D01*
G04 #@! TO.N,Net-(U14-EN2)*
X125760000Y-68145298D02*
X125760000Y-66900000D01*
X126964702Y-69350000D02*
X125760000Y-68145298D01*
X133380000Y-66900000D02*
X133380000Y-67657000D01*
X133380000Y-67657000D02*
X131687000Y-69350000D01*
D66*
X121800000Y-67825000D02*
X123275000Y-67825000D01*
D67*
X131687000Y-69350000D02*
X126964702Y-69350000D01*
D66*
X125060000Y-67600000D02*
X125760000Y-66900000D01*
X123275000Y-67825000D02*
X123500000Y-67600000D01*
X123500000Y-67600000D02*
X125060000Y-67600000D01*
D69*
G04 #@! TO.N,Net-(C47-Pad1)*
X107280000Y-53401300D02*
X106500000Y-52621300D01*
X106010000Y-53111300D02*
X106500000Y-52621300D01*
X107280000Y-55001700D02*
X107280000Y-53401300D01*
X106500000Y-52621300D02*
X108062500Y-52621300D01*
X106010000Y-55001700D02*
X106010000Y-53111300D01*
G04 #@! TO.N,Net-(C50-Pad1)*
X121511700Y-54900000D02*
X121511700Y-52971650D01*
X122781700Y-53746650D02*
X121759200Y-52724150D01*
X122781700Y-54900000D02*
X122781700Y-53746650D01*
X121511700Y-52971650D02*
X121759200Y-52724150D01*
X121759200Y-52724150D02*
X123371700Y-52724150D01*
G04 #@! TO.N,Net-(C54-Pad1)*
X137385000Y-53322500D02*
X136562500Y-52500000D01*
X136115000Y-52947500D02*
X136562500Y-52500000D01*
X136562500Y-52500000D02*
X138175000Y-52500000D01*
X137385000Y-54825850D02*
X137385000Y-53322500D01*
X136115000Y-54825850D02*
X136115000Y-52947500D01*
G04 #@! TO.N,/PWM_outputs/signal_C*
X104044913Y-46958301D02*
X104675000Y-47588388D01*
X104675000Y-47588388D02*
X104675000Y-52621300D01*
G04 #@! TO.N,/PWM_outputs/signal_B*
X119934200Y-47899287D02*
X119934200Y-52724150D01*
X118994914Y-46960001D02*
X119934200Y-47899287D01*
G04 #@! TO.N,/PWM_outputs/signal_A*
X134737500Y-47702590D02*
X133944911Y-46910001D01*
X134737500Y-52500000D02*
X134737500Y-47702590D01*
D67*
G04 #@! TO.N,Net-(U14-OUTA)*
X128300000Y-66900000D02*
X128300000Y-65850000D01*
X106125000Y-62401700D02*
X106125000Y-60565000D01*
X106125000Y-60565000D02*
X106010000Y-60450000D01*
X106973300Y-63250000D02*
X106125000Y-62401700D01*
X128300000Y-65850000D02*
X125983748Y-63533748D01*
X125983748Y-63533748D02*
X122335889Y-63533748D01*
X122052141Y-63250000D02*
X106973300Y-63250000D01*
X122335889Y-63533748D02*
X122052141Y-63250000D01*
G04 #@! TO.N,Net-(U14-OUTC)*
X134840850Y-62174150D02*
X130840000Y-66175000D01*
X136130000Y-62174150D02*
X136130000Y-60289150D01*
X136130000Y-60289150D02*
X136115000Y-60274150D01*
X136130000Y-62174150D02*
X134840850Y-62174150D01*
X130840000Y-66175000D02*
X130840000Y-66900000D01*
G04 #@! TO.N,Net-(U14-OUTB)*
X121721699Y-62281748D02*
X121721699Y-60558299D01*
X129570000Y-66175000D02*
X126477748Y-63082748D01*
X126477748Y-63082748D02*
X122522699Y-63082748D01*
X122522699Y-63082748D02*
X121721699Y-62281748D01*
X129570000Y-66900000D02*
X129570000Y-66175000D01*
X121721699Y-60558299D02*
X121511700Y-60348300D01*
G04 #@! TO.N,Net-(U14-INA)*
X126347500Y-78350000D02*
X127307000Y-78350000D01*
X127307000Y-78350000D02*
X128300000Y-77357000D01*
X128300000Y-77357000D02*
X128300000Y-76600000D01*
X125260000Y-79437500D02*
X126347500Y-78350000D01*
G04 #@! TO.N,Net-(U14-INC)*
X133260000Y-79437500D02*
X132987500Y-79437500D01*
X132987500Y-79437500D02*
X130840000Y-77290000D01*
X130840000Y-77290000D02*
X130840000Y-76600000D01*
G04 #@! TO.N,Net-(U14-INB)*
X129260000Y-79437500D02*
X129260000Y-76910000D01*
X129260000Y-76910000D02*
X129570000Y-76600000D01*
D69*
G04 #@! TO.N,/PWM_outputs/power_C*
X103000000Y-60705400D02*
X104484600Y-60705400D01*
X102351619Y-60705400D02*
X103000000Y-60705400D01*
X100150000Y-54761700D02*
X102115000Y-54761700D01*
X100150000Y-54761700D02*
X102310000Y-54761700D01*
X101044914Y-46958301D02*
X100150000Y-47853215D01*
X104484600Y-60705400D02*
X104740000Y-60450000D01*
X104340000Y-55401700D02*
X104740000Y-55001700D01*
X102310000Y-54761700D02*
X102950000Y-55401700D01*
X100150000Y-57301700D02*
X100150000Y-58503781D01*
X100150000Y-58503781D02*
X102351619Y-60705400D01*
X100150000Y-47853215D02*
X100150000Y-54803400D01*
X102950000Y-55401700D02*
X104340000Y-55401700D01*
X102115000Y-54761700D02*
X102950000Y-53926700D01*
X100150000Y-57301700D02*
X100150000Y-54761700D01*
G04 #@! TO.N,/PWM_outputs/power_B*
X116046615Y-54113385D02*
X115551700Y-54608300D01*
X115551700Y-54608300D02*
X117937550Y-54608300D01*
X119490850Y-61099150D02*
X120241700Y-60348300D01*
X115551700Y-57148300D02*
X115551700Y-54608300D01*
X117652550Y-61099150D02*
X118346700Y-61099150D01*
X118346700Y-55749150D02*
X118346700Y-54199150D01*
X118346700Y-55749150D02*
X119392550Y-55749150D01*
X115551700Y-57148300D02*
X115551700Y-58998300D01*
X119392550Y-55749150D02*
X120241700Y-54900000D01*
X115551700Y-54608300D02*
X117205850Y-54608300D01*
X117205850Y-54608300D02*
X118346700Y-55749150D01*
X115551700Y-58998300D02*
X117652550Y-61099150D01*
X115551700Y-54608300D02*
X115551700Y-47403216D01*
X117937550Y-54608300D02*
X118346700Y-54199150D01*
X118346700Y-61099150D02*
X119490850Y-61099150D01*
X115551700Y-47403216D02*
X115994915Y-46960001D01*
G04 #@! TO.N,/PWM_outputs/power_A*
X130425000Y-54710000D02*
X132070000Y-54710000D01*
X130944912Y-46910001D02*
X130425000Y-47429913D01*
X130425000Y-57250000D02*
X130425000Y-59100000D01*
X132980000Y-55350000D02*
X134320850Y-55350000D01*
X134320850Y-55350000D02*
X134845000Y-54825850D01*
X132070000Y-54710000D02*
X132980000Y-53800000D01*
X130425000Y-59100000D02*
X131900000Y-60575000D01*
X132980000Y-53800000D02*
X132980000Y-55350000D01*
X134544150Y-60575000D02*
X134845000Y-60274150D01*
X132340000Y-54710000D02*
X132980000Y-55350000D01*
X130425000Y-57250000D02*
X130425000Y-54710000D01*
X131900000Y-60575000D02*
X132980000Y-60575000D01*
X130425000Y-54710000D02*
X132340000Y-54710000D01*
X132980000Y-60575000D02*
X134544150Y-60575000D01*
X130425000Y-47429913D02*
X130425000Y-54710000D01*
D67*
G04 #@! TO.N,Net-(D7-A)*
X99097500Y-82222500D02*
X97360000Y-83960000D01*
X99097500Y-81360000D02*
X99097500Y-82222500D01*
D69*
G04 #@! TO.N,Net-(D8-A1)*
X81768700Y-90250000D02*
X80618699Y-89099999D01*
X90560000Y-87360000D02*
X90560000Y-89900000D01*
X90560000Y-83070000D02*
X90560000Y-87360000D01*
X86000000Y-90250000D02*
X81768700Y-90250000D01*
X90560000Y-89900000D02*
X86350000Y-89900000D01*
X89210000Y-81720000D02*
X90560000Y-83070000D01*
X86350000Y-89900000D02*
X86000000Y-90250000D01*
G04 #@! TO.N,Net-(D8-A2)*
X89210000Y-84260000D02*
X87690000Y-84260000D01*
X85850000Y-86100000D02*
X86000000Y-85950000D01*
X80618699Y-86100000D02*
X85850000Y-86100000D01*
X87690000Y-84260000D02*
X86000000Y-85950000D01*
D67*
G04 #@! TO.N,Net-(D9-A)*
X97400000Y-97887500D02*
X99200000Y-96087500D01*
X97400000Y-98475000D02*
X97400000Y-97887500D01*
D69*
G04 #@! TO.N,Net-(D10-A2)*
X89250000Y-98987500D02*
X87712500Y-98987500D01*
X87712500Y-98987500D02*
X86000000Y-100700000D01*
X80700000Y-100700000D02*
X80600000Y-100600000D01*
X86000000Y-100700000D02*
X80700000Y-100700000D01*
G04 #@! TO.N,Net-(D10-A1)*
X86000000Y-105000000D02*
X82000001Y-105000000D01*
X90760000Y-102200000D02*
X90760000Y-104740000D01*
X82000001Y-105000000D02*
X80600000Y-103599999D01*
X90760000Y-102200000D02*
X90760000Y-100840000D01*
X86000000Y-105000000D02*
X90500000Y-105000000D01*
X90500000Y-105000000D02*
X90760000Y-104740000D01*
X91300000Y-100300000D02*
X91300000Y-98497500D01*
X91300000Y-98497500D02*
X89250000Y-96447500D01*
X90760000Y-100840000D02*
X91300000Y-100300000D01*
D67*
G04 #@! TO.N,Net-(D11-A)*
X97600000Y-112487500D02*
X99400000Y-110687500D01*
X97600000Y-112875000D02*
X97600000Y-112487500D01*
D69*
G04 #@! TO.N,Net-(D12-A1)*
X90760000Y-116400000D02*
X91400000Y-115760000D01*
X81739998Y-119400000D02*
X80639999Y-118300001D01*
X90760000Y-116400000D02*
X90760000Y-118940000D01*
X86100000Y-119400000D02*
X81739998Y-119400000D01*
X91400000Y-112810000D02*
X89450000Y-110860000D01*
X86560000Y-118940000D02*
X86100000Y-119400000D01*
X90760000Y-118940000D02*
X86560000Y-118940000D01*
X91400000Y-115760000D02*
X91400000Y-112810000D01*
G04 #@! TO.N,Net-(D12-A2)*
X87800000Y-113400000D02*
X86100000Y-115100000D01*
X80840001Y-115100000D02*
X80639999Y-115300002D01*
X89450000Y-113400000D02*
X87800000Y-113400000D01*
X86100000Y-115100000D02*
X80840001Y-115100000D01*
D67*
G04 #@! TO.N,Net-(K1-Pad1)*
X96885000Y-85785000D02*
X95360000Y-84260000D01*
X97360000Y-85785000D02*
X96885000Y-85785000D01*
X99560000Y-85785000D02*
X97360000Y-85785000D01*
G04 #@! TO.N,Net-(K2-Pad1)*
X99500000Y-100300000D02*
X96712500Y-100300000D01*
X96712500Y-100300000D02*
X95400000Y-98987500D01*
G04 #@! TO.N,Net-(K3-Pad1)*
X96900000Y-114700000D02*
X95600000Y-113400000D01*
X99700000Y-114700000D02*
X97600000Y-114700000D01*
X97600000Y-114700000D02*
X96900000Y-114700000D01*
G04 #@! TO.N,output_a*
X103250000Y-100272405D02*
X101526000Y-98548405D01*
X101526000Y-85926000D02*
X99560000Y-83960000D01*
X112020000Y-112530000D02*
X104641564Y-112530000D01*
X103250000Y-111138436D02*
X103250000Y-100272405D01*
X104641564Y-112530000D02*
X103250000Y-111138436D01*
X101526000Y-98548405D02*
X101526000Y-85926000D01*
G04 #@! TO.N,output_b*
X99500000Y-98475000D02*
X100800000Y-98475000D01*
X103820000Y-115070000D02*
X102750000Y-114000000D01*
X100800000Y-98475000D02*
X102750000Y-100425000D01*
X112020000Y-115070000D02*
X103820000Y-115070000D01*
X102750000Y-114000000D02*
X102750000Y-100425000D01*
G04 #@! TO.N,output_c*
X107515000Y-120150000D02*
X112020000Y-120150000D01*
X99700000Y-112875000D02*
X100240000Y-112875000D01*
X100240000Y-112875000D02*
X107515000Y-120150000D01*
G04 #@! TO.N,Net-(D13-A)*
X91002000Y-64402000D02*
X88200000Y-61600000D01*
X120300000Y-68200000D02*
X120300000Y-67700000D01*
X120300000Y-67700000D02*
X117002000Y-64402000D01*
X118800000Y-69700000D02*
X120300000Y-68200000D01*
X117002000Y-64402000D02*
X91002000Y-64402000D01*
G04 #@! TO.N,Net-(D14-A)*
X116900000Y-67700000D02*
X114053000Y-64853000D01*
X116260000Y-68340000D02*
X116900000Y-67700000D01*
X116260000Y-69700000D02*
X116260000Y-68340000D01*
X114053000Y-64853000D02*
X80273438Y-64853000D01*
X80273438Y-64853000D02*
X77017938Y-61597500D01*
G04 #@! TO.N,Net-(D15-A)*
X113550000Y-67700000D02*
X111154000Y-65304000D01*
X111154000Y-65304000D02*
X94080562Y-65304000D01*
X94080562Y-65304000D02*
X90583562Y-68801000D01*
X90583562Y-68801000D02*
X89401000Y-68801000D01*
X113720000Y-67870000D02*
X113550000Y-67700000D01*
X89401000Y-68801000D02*
X88200000Y-67600000D01*
X113720000Y-69700000D02*
X113720000Y-67870000D01*
G04 #@! TO.N,Net-(D16-A)*
X108355000Y-65755000D02*
X94545000Y-65755000D01*
X78672438Y-69252000D02*
X77017938Y-67597500D01*
X111180000Y-68580000D02*
X110300000Y-67700000D01*
X91048000Y-69252000D02*
X78672438Y-69252000D01*
X110300000Y-67700000D02*
X108355000Y-65755000D01*
X111180000Y-69700000D02*
X111180000Y-68580000D01*
X94545000Y-65755000D02*
X91048000Y-69252000D01*
G04 #@! TO.N,Net-(D17-A)*
X89300000Y-75500000D02*
X88200000Y-74400000D01*
X107000000Y-67770000D02*
X106880000Y-67650000D01*
X88200000Y-74400000D02*
X88200000Y-73600000D01*
X106880000Y-67650000D02*
X105436000Y-66206000D01*
X92300000Y-73600000D02*
X90400000Y-75500000D01*
X107000000Y-69700002D02*
X107000000Y-67770000D01*
X90400000Y-75500000D02*
X89300000Y-75500000D01*
X105436000Y-66206000D02*
X95094000Y-66206000D01*
X95094000Y-66206000D02*
X92300000Y-69000000D01*
X92300000Y-69000000D02*
X92300000Y-73600000D01*
G04 #@! TO.N,Net-(D18-A)*
X90586810Y-75951000D02*
X79371438Y-75951000D01*
X92751000Y-73786810D02*
X90586810Y-75951000D01*
X95743000Y-66657000D02*
X92751000Y-69649000D01*
X102587000Y-66657000D02*
X95743000Y-66657000D01*
X103580000Y-67650000D02*
X102587000Y-66657000D01*
X79371438Y-75951000D02*
X77017938Y-73597500D01*
X92751000Y-69649000D02*
X92751000Y-73786810D01*
X104460000Y-69700002D02*
X104460000Y-68530000D01*
X104460000Y-68530000D02*
X103580000Y-67650000D01*
D66*
G04 #@! TO.N,Net-(J28-Pin_1)*
X79695438Y-57387500D02*
X79705438Y-57397500D01*
X76767938Y-57387500D02*
X79695438Y-57387500D01*
G04 #@! TO.N,Net-(J28-Pin_3)*
X76767938Y-54847500D02*
X79692938Y-54847500D01*
G04 #@! TO.N,/Inputs/V_switch*
X72617938Y-63997500D02*
X72617938Y-69797500D01*
X72617938Y-69797500D02*
X73717938Y-70897500D01*
X81997500Y-57397500D02*
X86200000Y-61600000D01*
X73685219Y-65064781D02*
X74217938Y-65597500D01*
X73717938Y-70897500D02*
X75017938Y-72197500D01*
X75017938Y-67597500D02*
X75017938Y-66397500D01*
X74117938Y-59497500D02*
X75800000Y-59497500D01*
X75017938Y-72197500D02*
X75017938Y-73597500D01*
X81517938Y-57385000D02*
X81530438Y-57397500D01*
X75017938Y-61597500D02*
X75017938Y-60279562D01*
X72617938Y-63997500D02*
X73685219Y-65064781D01*
X84197500Y-65597500D02*
X86200000Y-67600000D01*
X81530438Y-57397500D02*
X81997500Y-57397500D01*
X75017938Y-60279562D02*
X75800000Y-59497500D01*
X74117938Y-59497500D02*
X72617938Y-60997500D01*
X81517938Y-54847500D02*
X81517938Y-57385000D01*
X75017938Y-66397500D02*
X73685219Y-65064781D01*
X83497500Y-70897500D02*
X86200000Y-73600000D01*
X72617938Y-60997500D02*
X72617938Y-63997500D01*
X74217938Y-65597500D02*
X84197500Y-65597500D01*
X81530438Y-57397500D02*
X79430438Y-59497500D01*
X75800000Y-59497500D02*
X79430438Y-59497500D01*
X73717938Y-70897500D02*
X83497500Y-70897500D01*
D67*
G04 #@! TO.N,Net-(D19-A)*
X97222898Y-68777102D02*
X98877102Y-68777102D01*
D66*
X96600000Y-63200000D02*
X96600000Y-63700000D01*
X56038662Y-50800000D02*
X87700000Y-50800000D01*
X54874000Y-49635338D02*
X56038662Y-50800000D01*
X56200000Y-47200000D02*
X54874000Y-48526000D01*
D67*
X96700000Y-69300000D02*
X97222898Y-68777102D01*
D66*
X96600000Y-69200000D02*
X96700000Y-69300000D01*
X54874000Y-48526000D02*
X54874000Y-49635338D01*
X87700000Y-54300000D02*
X96600000Y-63200000D01*
X96600000Y-67282000D02*
X96600000Y-69200000D01*
D67*
X98877102Y-68777102D02*
X99380000Y-69280000D01*
X99380000Y-69280000D02*
X99380000Y-69700002D01*
D66*
G04 #@! TO.N,Net-(J35-Pin_2)*
X86200000Y-49100000D02*
X90200000Y-49100000D01*
X90200000Y-49100000D02*
X92200000Y-47100000D01*
D67*
G04 #@! TO.N,c_input*
X104500000Y-77787500D02*
X104500000Y-76040000D01*
X108300000Y-103550000D02*
X105300000Y-100550000D01*
X105300000Y-100550000D02*
X105300000Y-78875000D01*
X109480000Y-102370000D02*
X108300000Y-103550000D01*
X112020000Y-102370000D02*
X109480000Y-102370000D01*
X105300000Y-78875000D02*
X104200000Y-77775000D01*
X104500000Y-76040000D02*
X104460000Y-76000000D01*
G04 #@! TO.N,b_home*
X105974000Y-78813500D02*
X107000000Y-77787500D01*
X108300000Y-101750000D02*
X105974000Y-99424000D01*
X110650000Y-101750000D02*
X108300000Y-101750000D01*
X105974000Y-99424000D02*
X105974000Y-78813500D01*
X112020000Y-99830000D02*
X112030000Y-99830000D01*
X112030000Y-99830000D02*
X112300000Y-100100000D01*
X107000000Y-77787500D02*
X107000000Y-76000000D01*
X112300000Y-100100000D02*
X110650000Y-101750000D01*
G04 #@! TO.N,y_home*
X116250000Y-77787500D02*
X116250000Y-76009998D01*
X116250000Y-77787500D02*
X115224000Y-78813500D01*
X115224000Y-78813500D02*
X115224000Y-81726000D01*
X109320000Y-89670000D02*
X108300000Y-88650000D01*
X115224000Y-81726000D02*
X108300000Y-88650000D01*
X116250000Y-76009998D02*
X116260000Y-75999998D01*
X112020000Y-89670000D02*
X109320000Y-89670000D01*
G04 #@! TO.N,x_home*
X128700000Y-86030000D02*
X129800000Y-87130000D01*
X124300000Y-83200000D02*
X124300000Y-83300000D01*
X123400000Y-81237500D02*
X118750000Y-76587500D01*
X124700000Y-83600000D02*
X128700000Y-83600000D01*
X123400000Y-82100000D02*
X123400000Y-81237500D01*
X118800000Y-77787500D02*
X118800000Y-75999998D01*
X128700000Y-83600000D02*
X128700000Y-86030000D01*
X124300000Y-83200000D02*
X124700000Y-83600000D01*
G04 #@! TO.N,estop_all*
X112020000Y-107450000D02*
X110450000Y-107450000D01*
X99787500Y-77687500D02*
X99380000Y-77280000D01*
X104600000Y-82487500D02*
X99800000Y-77687500D01*
X99800000Y-77687500D02*
X99787500Y-77687500D01*
X110450000Y-107450000D02*
X108300000Y-109600000D01*
X99380000Y-77280000D02*
X99380000Y-76000000D01*
X108300000Y-109600000D02*
X104600000Y-105900000D01*
X104600000Y-105900000D02*
X104600000Y-82487500D01*
G04 #@! TO.N,a_home*
X111150000Y-77787500D02*
X109950000Y-78987500D01*
X109950000Y-78987500D02*
X109950000Y-82912190D01*
X111150000Y-76029998D02*
X111180000Y-75999998D01*
X112020000Y-97290000D02*
X110040000Y-97290000D01*
X110040000Y-97290000D02*
X108300000Y-95550000D01*
X106749000Y-93999000D02*
X108300000Y-95550000D01*
X109950000Y-82912190D02*
X106749000Y-86113190D01*
X106749000Y-86113190D02*
X106749000Y-93999000D01*
X111150000Y-77787500D02*
X111150000Y-76029998D01*
G04 #@! TO.N,z_home*
X107200000Y-92750000D02*
X108300000Y-93850000D01*
X113750000Y-77787500D02*
X113750000Y-76029998D01*
X112650000Y-78887500D02*
X112650000Y-80850000D01*
X107200000Y-86300000D02*
X107200000Y-92750000D01*
X113750000Y-76029998D02*
X113720000Y-75999998D01*
X109200000Y-94750000D02*
X108300000Y-93850000D01*
X112020000Y-94750000D02*
X109200000Y-94750000D01*
X113750000Y-77787500D02*
X112650000Y-78887500D01*
X112650000Y-80850000D02*
X107200000Y-86300000D01*
D66*
G04 #@! TO.N,Net-(J35-Pin_1)*
X80200000Y-49100000D02*
X84200000Y-49100000D01*
X84200000Y-49100000D02*
X86200000Y-47100000D01*
G04 #@! TO.N,Net-(J36-Pin_1)*
X74100000Y-49100000D02*
X78200000Y-49100000D01*
X78200000Y-49100000D02*
X80200000Y-47100000D01*
G04 #@! TO.N,Net-(J37-Pin_1)*
X72100000Y-49100000D02*
X74100000Y-47100000D01*
X68100000Y-49100000D02*
X72100000Y-49100000D01*
G04 #@! TO.N,Net-(J38-Pin_1)*
X66100000Y-49100000D02*
X68100000Y-47100000D01*
X62200000Y-49100000D02*
X66100000Y-49100000D01*
G04 #@! TO.N,Net-(J39-Pin_1)*
X60100000Y-49200000D02*
X62200000Y-47100000D01*
X56200000Y-49200000D02*
X60100000Y-49200000D01*
G04 #@! TD*
M02*
