G04 #@! TF.GenerationSoftware,KiCad,Pcbnew,9.0.2*
G04 #@! TF.CreationDate,2025-08-23T18:52:09+02:00*
G04 #@! TF.ProjectId,Pico2Breakout,5069636f-3242-4726-9561-6b6f75742e6b,rev?*
G04 #@! TF.SameCoordinates,Original*
G04 #@! TF.FileFunction,Other,Comment*
%FSLAX46Y46*%
G04 Gerber Fmt 4.6, Leading zero omitted, Abs format (unit mm)*
G04 Created by KiCad (PCBNEW 9.0.2) date 2025-08-23 18:52:09*
%MOMM*%
%LPD*%
G01*
G04 APERTURE LIST*
%ADD10C,0.150000*%
G04 APERTURE END LIST*
D10*
X124124285Y-89215180D02*
X124124285Y-90215180D01*
X123552857Y-89215180D02*
X123981428Y-89786609D01*
X123552857Y-90215180D02*
X124124285Y-89643752D01*
X122743333Y-89262800D02*
X122838571Y-89215180D01*
X122838571Y-89215180D02*
X123029047Y-89215180D01*
X123029047Y-89215180D02*
X123124285Y-89262800D01*
X123124285Y-89262800D02*
X123171904Y-89358038D01*
X123171904Y-89358038D02*
X123171904Y-89738990D01*
X123171904Y-89738990D02*
X123124285Y-89834228D01*
X123124285Y-89834228D02*
X123029047Y-89881847D01*
X123029047Y-89881847D02*
X122838571Y-89881847D01*
X122838571Y-89881847D02*
X122743333Y-89834228D01*
X122743333Y-89834228D02*
X122695714Y-89738990D01*
X122695714Y-89738990D02*
X122695714Y-89643752D01*
X122695714Y-89643752D02*
X123171904Y-89548514D01*
X121886190Y-89262800D02*
X121981428Y-89215180D01*
X121981428Y-89215180D02*
X122171904Y-89215180D01*
X122171904Y-89215180D02*
X122267142Y-89262800D01*
X122267142Y-89262800D02*
X122314761Y-89358038D01*
X122314761Y-89358038D02*
X122314761Y-89738990D01*
X122314761Y-89738990D02*
X122267142Y-89834228D01*
X122267142Y-89834228D02*
X122171904Y-89881847D01*
X122171904Y-89881847D02*
X121981428Y-89881847D01*
X121981428Y-89881847D02*
X121886190Y-89834228D01*
X121886190Y-89834228D02*
X121838571Y-89738990D01*
X121838571Y-89738990D02*
X121838571Y-89643752D01*
X121838571Y-89643752D02*
X122314761Y-89548514D01*
X121409999Y-89881847D02*
X121409999Y-88881847D01*
X121409999Y-89834228D02*
X121314761Y-89881847D01*
X121314761Y-89881847D02*
X121124285Y-89881847D01*
X121124285Y-89881847D02*
X121029047Y-89834228D01*
X121029047Y-89834228D02*
X120981428Y-89786609D01*
X120981428Y-89786609D02*
X120933809Y-89691371D01*
X120933809Y-89691371D02*
X120933809Y-89405657D01*
X120933809Y-89405657D02*
X120981428Y-89310419D01*
X120981428Y-89310419D02*
X121029047Y-89262800D01*
X121029047Y-89262800D02*
X121124285Y-89215180D01*
X121124285Y-89215180D02*
X121314761Y-89215180D01*
X121314761Y-89215180D02*
X121409999Y-89262800D01*
X119552856Y-90215180D02*
X119362380Y-90215180D01*
X119362380Y-90215180D02*
X119267142Y-90167561D01*
X119267142Y-90167561D02*
X119171904Y-90072323D01*
X119171904Y-90072323D02*
X119124285Y-89881847D01*
X119124285Y-89881847D02*
X119124285Y-89548514D01*
X119124285Y-89548514D02*
X119171904Y-89358038D01*
X119171904Y-89358038D02*
X119267142Y-89262800D01*
X119267142Y-89262800D02*
X119362380Y-89215180D01*
X119362380Y-89215180D02*
X119552856Y-89215180D01*
X119552856Y-89215180D02*
X119648094Y-89262800D01*
X119648094Y-89262800D02*
X119743332Y-89358038D01*
X119743332Y-89358038D02*
X119790951Y-89548514D01*
X119790951Y-89548514D02*
X119790951Y-89881847D01*
X119790951Y-89881847D02*
X119743332Y-90072323D01*
X119743332Y-90072323D02*
X119648094Y-90167561D01*
X119648094Y-90167561D02*
X119552856Y-90215180D01*
X118267142Y-89881847D02*
X118267142Y-89215180D01*
X118695713Y-89881847D02*
X118695713Y-89358038D01*
X118695713Y-89358038D02*
X118648094Y-89262800D01*
X118648094Y-89262800D02*
X118552856Y-89215180D01*
X118552856Y-89215180D02*
X118409999Y-89215180D01*
X118409999Y-89215180D02*
X118314761Y-89262800D01*
X118314761Y-89262800D02*
X118267142Y-89310419D01*
X117933808Y-89881847D02*
X117552856Y-89881847D01*
X117790951Y-90215180D02*
X117790951Y-89358038D01*
X117790951Y-89358038D02*
X117743332Y-89262800D01*
X117743332Y-89262800D02*
X117648094Y-89215180D01*
X117648094Y-89215180D02*
X117552856Y-89215180D01*
X127148095Y-91120180D02*
X127148095Y-92120180D01*
X127148095Y-92120180D02*
X126767143Y-92120180D01*
X126767143Y-92120180D02*
X126671905Y-92072561D01*
X126671905Y-92072561D02*
X126624286Y-92024942D01*
X126624286Y-92024942D02*
X126576667Y-91929704D01*
X126576667Y-91929704D02*
X126576667Y-91786847D01*
X126576667Y-91786847D02*
X126624286Y-91691609D01*
X126624286Y-91691609D02*
X126671905Y-91643990D01*
X126671905Y-91643990D02*
X126767143Y-91596371D01*
X126767143Y-91596371D02*
X127148095Y-91596371D01*
X126005238Y-91120180D02*
X126100476Y-91167800D01*
X126100476Y-91167800D02*
X126148095Y-91215419D01*
X126148095Y-91215419D02*
X126195714Y-91310657D01*
X126195714Y-91310657D02*
X126195714Y-91596371D01*
X126195714Y-91596371D02*
X126148095Y-91691609D01*
X126148095Y-91691609D02*
X126100476Y-91739228D01*
X126100476Y-91739228D02*
X126005238Y-91786847D01*
X126005238Y-91786847D02*
X125862381Y-91786847D01*
X125862381Y-91786847D02*
X125767143Y-91739228D01*
X125767143Y-91739228D02*
X125719524Y-91691609D01*
X125719524Y-91691609D02*
X125671905Y-91596371D01*
X125671905Y-91596371D02*
X125671905Y-91310657D01*
X125671905Y-91310657D02*
X125719524Y-91215419D01*
X125719524Y-91215419D02*
X125767143Y-91167800D01*
X125767143Y-91167800D02*
X125862381Y-91120180D01*
X125862381Y-91120180D02*
X126005238Y-91120180D01*
X125290952Y-91167800D02*
X125195714Y-91120180D01*
X125195714Y-91120180D02*
X125005238Y-91120180D01*
X125005238Y-91120180D02*
X124910000Y-91167800D01*
X124910000Y-91167800D02*
X124862381Y-91263038D01*
X124862381Y-91263038D02*
X124862381Y-91310657D01*
X124862381Y-91310657D02*
X124910000Y-91405895D01*
X124910000Y-91405895D02*
X125005238Y-91453514D01*
X125005238Y-91453514D02*
X125148095Y-91453514D01*
X125148095Y-91453514D02*
X125243333Y-91501133D01*
X125243333Y-91501133D02*
X125290952Y-91596371D01*
X125290952Y-91596371D02*
X125290952Y-91643990D01*
X125290952Y-91643990D02*
X125243333Y-91739228D01*
X125243333Y-91739228D02*
X125148095Y-91786847D01*
X125148095Y-91786847D02*
X125005238Y-91786847D01*
X125005238Y-91786847D02*
X124910000Y-91739228D01*
X124481428Y-91167800D02*
X124386190Y-91120180D01*
X124386190Y-91120180D02*
X124195714Y-91120180D01*
X124195714Y-91120180D02*
X124100476Y-91167800D01*
X124100476Y-91167800D02*
X124052857Y-91263038D01*
X124052857Y-91263038D02*
X124052857Y-91310657D01*
X124052857Y-91310657D02*
X124100476Y-91405895D01*
X124100476Y-91405895D02*
X124195714Y-91453514D01*
X124195714Y-91453514D02*
X124338571Y-91453514D01*
X124338571Y-91453514D02*
X124433809Y-91501133D01*
X124433809Y-91501133D02*
X124481428Y-91596371D01*
X124481428Y-91596371D02*
X124481428Y-91643990D01*
X124481428Y-91643990D02*
X124433809Y-91739228D01*
X124433809Y-91739228D02*
X124338571Y-91786847D01*
X124338571Y-91786847D02*
X124195714Y-91786847D01*
X124195714Y-91786847D02*
X124100476Y-91739228D01*
X123624285Y-91120180D02*
X123624285Y-91786847D01*
X123624285Y-92120180D02*
X123671904Y-92072561D01*
X123671904Y-92072561D02*
X123624285Y-92024942D01*
X123624285Y-92024942D02*
X123576666Y-92072561D01*
X123576666Y-92072561D02*
X123624285Y-92120180D01*
X123624285Y-92120180D02*
X123624285Y-92024942D01*
X123148095Y-91120180D02*
X123148095Y-92120180D01*
X123148095Y-91739228D02*
X123052857Y-91786847D01*
X123052857Y-91786847D02*
X122862381Y-91786847D01*
X122862381Y-91786847D02*
X122767143Y-91739228D01*
X122767143Y-91739228D02*
X122719524Y-91691609D01*
X122719524Y-91691609D02*
X122671905Y-91596371D01*
X122671905Y-91596371D02*
X122671905Y-91310657D01*
X122671905Y-91310657D02*
X122719524Y-91215419D01*
X122719524Y-91215419D02*
X122767143Y-91167800D01*
X122767143Y-91167800D02*
X122862381Y-91120180D01*
X122862381Y-91120180D02*
X123052857Y-91120180D01*
X123052857Y-91120180D02*
X123148095Y-91167800D01*
X122100476Y-91120180D02*
X122195714Y-91167800D01*
X122195714Y-91167800D02*
X122243333Y-91263038D01*
X122243333Y-91263038D02*
X122243333Y-92120180D01*
X121338571Y-91167800D02*
X121433809Y-91120180D01*
X121433809Y-91120180D02*
X121624285Y-91120180D01*
X121624285Y-91120180D02*
X121719523Y-91167800D01*
X121719523Y-91167800D02*
X121767142Y-91263038D01*
X121767142Y-91263038D02*
X121767142Y-91643990D01*
X121767142Y-91643990D02*
X121719523Y-91739228D01*
X121719523Y-91739228D02*
X121624285Y-91786847D01*
X121624285Y-91786847D02*
X121433809Y-91786847D01*
X121433809Y-91786847D02*
X121338571Y-91739228D01*
X121338571Y-91739228D02*
X121290952Y-91643990D01*
X121290952Y-91643990D02*
X121290952Y-91548752D01*
X121290952Y-91548752D02*
X121767142Y-91453514D01*
X120148094Y-91405895D02*
X119671904Y-91405895D01*
X120243332Y-91120180D02*
X119909999Y-92120180D01*
X119909999Y-92120180D02*
X119576666Y-91120180D01*
X119243332Y-91786847D02*
X119243332Y-91120180D01*
X119243332Y-91691609D02*
X119195713Y-91739228D01*
X119195713Y-91739228D02*
X119100475Y-91786847D01*
X119100475Y-91786847D02*
X118957618Y-91786847D01*
X118957618Y-91786847D02*
X118862380Y-91739228D01*
X118862380Y-91739228D02*
X118814761Y-91643990D01*
X118814761Y-91643990D02*
X118814761Y-91120180D01*
X118481427Y-91786847D02*
X118100475Y-91786847D01*
X118338570Y-92120180D02*
X118338570Y-91263038D01*
X118338570Y-91263038D02*
X118290951Y-91167800D01*
X118290951Y-91167800D02*
X118195713Y-91120180D01*
X118195713Y-91120180D02*
X118100475Y-91120180D01*
X117386189Y-91167800D02*
X117481427Y-91120180D01*
X117481427Y-91120180D02*
X117671903Y-91120180D01*
X117671903Y-91120180D02*
X117767141Y-91167800D01*
X117767141Y-91167800D02*
X117814760Y-91263038D01*
X117814760Y-91263038D02*
X117814760Y-91643990D01*
X117814760Y-91643990D02*
X117767141Y-91739228D01*
X117767141Y-91739228D02*
X117671903Y-91786847D01*
X117671903Y-91786847D02*
X117481427Y-91786847D01*
X117481427Y-91786847D02*
X117386189Y-91739228D01*
X117386189Y-91739228D02*
X117338570Y-91643990D01*
X117338570Y-91643990D02*
X117338570Y-91548752D01*
X117338570Y-91548752D02*
X117814760Y-91453514D01*
X116909998Y-91786847D02*
X116909998Y-91120180D01*
X116909998Y-91691609D02*
X116862379Y-91739228D01*
X116862379Y-91739228D02*
X116767141Y-91786847D01*
X116767141Y-91786847D02*
X116624284Y-91786847D01*
X116624284Y-91786847D02*
X116529046Y-91739228D01*
X116529046Y-91739228D02*
X116481427Y-91643990D01*
X116481427Y-91643990D02*
X116481427Y-91120180D01*
X116005236Y-91786847D02*
X116005236Y-91120180D01*
X116005236Y-91691609D02*
X115957617Y-91739228D01*
X115957617Y-91739228D02*
X115862379Y-91786847D01*
X115862379Y-91786847D02*
X115719522Y-91786847D01*
X115719522Y-91786847D02*
X115624284Y-91739228D01*
X115624284Y-91739228D02*
X115576665Y-91643990D01*
X115576665Y-91643990D02*
X115576665Y-91120180D01*
X114671903Y-91120180D02*
X114671903Y-91643990D01*
X114671903Y-91643990D02*
X114719522Y-91739228D01*
X114719522Y-91739228D02*
X114814760Y-91786847D01*
X114814760Y-91786847D02*
X115005236Y-91786847D01*
X115005236Y-91786847D02*
X115100474Y-91739228D01*
X114671903Y-91167800D02*
X114767141Y-91120180D01*
X114767141Y-91120180D02*
X115005236Y-91120180D01*
X115005236Y-91120180D02*
X115100474Y-91167800D01*
X115100474Y-91167800D02*
X115148093Y-91263038D01*
X115148093Y-91263038D02*
X115148093Y-91358276D01*
X115148093Y-91358276D02*
X115100474Y-91453514D01*
X115100474Y-91453514D02*
X115005236Y-91501133D01*
X115005236Y-91501133D02*
X114767141Y-91501133D01*
X114767141Y-91501133D02*
X114671903Y-91548752D01*
M02*
