G04 #@! TF.GenerationSoftware,KiCad,Pcbnew,9.0.2*
G04 #@! TF.CreationDate,2025-08-23T18:52:09+02:00*
G04 #@! TF.ProjectId,Pico2Breakout,5069636f-3242-4726-9561-6b6f75742e6b,rev?*
G04 #@! TF.SameCoordinates,Original*
G04 #@! TF.FileFunction,Soldermask,Bot*
G04 #@! TF.FilePolarity,Negative*
%FSLAX46Y46*%
G04 Gerber Fmt 4.6, Leading zero omitted, Abs format (unit mm)*
G04 Created by KiCad (PCBNEW 9.0.2) date 2025-08-23 18:52:09*
%MOMM*%
%LPD*%
G01*
G04 APERTURE LIST*
G04 Aperture macros list*
%AMRoundRect*
0 Rectangle with rounded corners*
0 $1 Rounding radius*
0 $2 $3 $4 $5 $6 $7 $8 $9 X,Y pos of 4 corners*
0 Add a 4 corners polygon primitive as box body*
4,1,4,$2,$3,$4,$5,$6,$7,$8,$9,$2,$3,0*
0 Add four circle primitives for the rounded corners*
1,1,$1+$1,$2,$3*
1,1,$1+$1,$4,$5*
1,1,$1+$1,$6,$7*
1,1,$1+$1,$8,$9*
0 Add four rect primitives between the rounded corners*
20,1,$1+$1,$2,$3,$4,$5,0*
20,1,$1+$1,$4,$5,$6,$7,0*
20,1,$1+$1,$6,$7,$8,$9,0*
20,1,$1+$1,$8,$9,$2,$3,0*%
%AMFreePoly0*
4,1,37,0.603843,0.796157,0.639018,0.796157,0.711114,0.766294,0.766294,0.711114,0.796157,0.639018,0.796157,0.603843,0.800000,0.600000,0.800000,-0.600000,0.796157,-0.603843,0.796157,-0.639018,0.766294,-0.711114,0.711114,-0.766294,0.639018,-0.796157,0.603843,-0.796157,0.600000,-0.800000,0.000000,-0.800000,0.000000,-0.796148,-0.078414,-0.796148,-0.232228,-0.765552,-0.377117,-0.705537,
-0.507515,-0.618408,-0.618408,-0.507515,-0.705537,-0.377117,-0.765552,-0.232228,-0.796148,-0.078414,-0.796148,0.078414,-0.765552,0.232228,-0.705537,0.377117,-0.618408,0.507515,-0.507515,0.618408,-0.377117,0.705537,-0.232228,0.765552,-0.078414,0.796148,0.000000,0.796148,0.000000,0.800000,0.600000,0.800000,0.603843,0.796157,0.603843,0.796157,$1*%
%AMFreePoly1*
4,1,37,0.000000,0.796148,0.078414,0.796148,0.232228,0.765552,0.377117,0.705537,0.507515,0.618408,0.618408,0.507515,0.705537,0.377117,0.765552,0.232228,0.796148,0.078414,0.796148,-0.078414,0.765552,-0.232228,0.705537,-0.377117,0.618408,-0.507515,0.507515,-0.618408,0.377117,-0.705537,0.232228,-0.765552,0.078414,-0.796148,0.000000,-0.796148,0.000000,-0.800000,-0.600000,-0.800000,
-0.603843,-0.796157,-0.639018,-0.796157,-0.711114,-0.766294,-0.766294,-0.711114,-0.796157,-0.639018,-0.796157,-0.603843,-0.800000,-0.600000,-0.800000,0.600000,-0.796157,0.603843,-0.796157,0.639018,-0.766294,0.711114,-0.711114,0.766294,-0.639018,0.796157,-0.603843,0.796157,-0.600000,0.800000,0.000000,0.800000,0.000000,0.796148,0.000000,0.796148,$1*%
G04 Aperture macros list end*
%ADD10R,1.700000X1.700000*%
%ADD11C,1.700000*%
%ADD12RoundRect,0.650000X0.650000X0.650000X-0.650000X0.650000X-0.650000X-0.650000X0.650000X-0.650000X0*%
%ADD13C,2.600000*%
%ADD14RoundRect,0.250000X-1.000000X-1.000000X1.000000X-1.000000X1.000000X1.000000X-1.000000X1.000000X0*%
%ADD15C,2.500000*%
%ADD16C,1.320800*%
%ADD17C,1.574800*%
%ADD18RoundRect,0.250000X-1.000000X1.000000X-1.000000X-1.000000X1.000000X-1.000000X1.000000X1.000000X0*%
%ADD19C,1.066800*%
%ADD20RoundRect,0.250000X-0.350000X-0.625000X0.350000X-0.625000X0.350000X0.625000X-0.350000X0.625000X0*%
%ADD21O,1.200000X1.750000*%
%ADD22RoundRect,0.250000X-0.625000X0.350000X-0.625000X-0.350000X0.625000X-0.350000X0.625000X0.350000X0*%
%ADD23O,1.750000X1.200000*%
%ADD24RoundRect,0.200000X0.600000X0.600000X-0.600000X0.600000X-0.600000X-0.600000X0.600000X-0.600000X0*%
%ADD25C,1.600000*%
%ADD26FreePoly0,180.000000*%
%ADD27FreePoly1,180.000000*%
G04 APERTURE END LIST*
D10*
G04 #@! TO.C,J17*
X130425000Y-57250000D03*
D11*
X127885000Y-57250000D03*
X130425000Y-54710000D03*
X127885000Y-54710000D03*
G04 #@! TD*
D10*
G04 #@! TO.C,J13*
X100150000Y-57343400D03*
D11*
X97610000Y-57343400D03*
X100150000Y-54803400D03*
X97610000Y-54803400D03*
G04 #@! TD*
D12*
G04 #@! TO.C,JP5*
X171340000Y-47326297D03*
D13*
X166260000Y-47326297D03*
G04 #@! TD*
D12*
G04 #@! TO.C,JP1*
X170200001Y-120049999D03*
D13*
X165120001Y-120049999D03*
G04 #@! TD*
D14*
G04 #@! TO.C,J21*
X69400000Y-134900000D03*
D15*
X74400000Y-134900000D03*
G04 #@! TD*
D16*
G04 #@! TO.C,J16*
X113000003Y-49010001D03*
X124999999Y-49010001D03*
D17*
X122000000Y-47050000D03*
X119000001Y-47050000D03*
X116000002Y-47050000D03*
G04 #@! TD*
D18*
G04 #@! TO.C,J19*
X49200000Y-92150000D03*
D15*
X49200000Y-97150000D03*
G04 #@! TD*
D10*
G04 #@! TO.C,J12*
X106800000Y-137220000D03*
D11*
X104260000Y-137220000D03*
X106800000Y-134680000D03*
X104260000Y-134680000D03*
X106800000Y-132140000D03*
X104260000Y-132140000D03*
X106800000Y-129600000D03*
X104260000Y-129600000D03*
G04 #@! TD*
D10*
G04 #@! TO.C,J9*
X143100000Y-76550000D03*
D11*
X143100000Y-74010000D03*
X143100000Y-71470000D03*
X143100000Y-68930000D03*
G04 #@! TD*
D16*
G04 #@! TO.C,J27*
X82600000Y-121300000D03*
X82600000Y-109300004D03*
D17*
X80639999Y-112300003D03*
X80639999Y-115300002D03*
X80639999Y-118300001D03*
G04 #@! TD*
D19*
G04 #@! TO.C,J1*
X184000001Y-119299998D03*
X184000001Y-134299999D03*
D17*
X180060001Y-131299997D03*
X180060001Y-128299998D03*
X180060001Y-125299999D03*
X180060001Y-122300000D03*
X183060000Y-131299997D03*
X183060000Y-128299998D03*
X183060000Y-125299999D03*
X183060000Y-122300000D03*
G04 #@! TD*
D10*
G04 #@! TO.C,J22*
X90560000Y-87360000D03*
D11*
X93100000Y-87360000D03*
X90560000Y-89900000D03*
X93100000Y-89900000D03*
G04 #@! TD*
D19*
G04 #@! TO.C,J2*
X184000000Y-101100000D03*
X184000000Y-116100001D03*
D17*
X180060000Y-113099999D03*
X180060000Y-110100000D03*
X180060000Y-107100001D03*
X180060000Y-104100002D03*
X183059999Y-113099999D03*
X183059999Y-110100000D03*
X183059999Y-107100001D03*
X183059999Y-104100002D03*
G04 #@! TD*
D20*
G04 #@! TO.C,J29*
X86200000Y-61600000D03*
D21*
X88200000Y-61600000D03*
X90200000Y-61600000D03*
G04 #@! TD*
D10*
G04 #@! TO.C,J26*
X90760000Y-116400000D03*
D11*
X93300000Y-116400000D03*
X90760000Y-118940000D03*
X93300000Y-118940000D03*
G04 #@! TD*
D10*
G04 #@! TO.C,J15*
X115551700Y-57148300D03*
D11*
X113011700Y-57148300D03*
X115551700Y-54608300D03*
X113011700Y-54608300D03*
G04 #@! TD*
D22*
G04 #@! TO.C,J37*
X74100000Y-47100000D03*
D23*
X74100000Y-49100000D03*
G04 #@! TD*
D22*
G04 #@! TO.C,J38*
X68100000Y-47100000D03*
D23*
X68100000Y-49100000D03*
G04 #@! TD*
D20*
G04 #@! TO.C,J34*
X75017938Y-73597500D03*
D21*
X77017938Y-73597500D03*
X79017938Y-73597500D03*
G04 #@! TD*
D10*
G04 #@! TO.C,J7*
X143041901Y-112931901D03*
D11*
X143041901Y-110391901D03*
X143041901Y-107851901D03*
X143041901Y-105311901D03*
G04 #@! TD*
D16*
G04 #@! TO.C,J23*
X82578700Y-92099998D03*
X82578700Y-80100002D03*
D17*
X80618699Y-83100001D03*
X80618699Y-86100000D03*
X80618699Y-89099999D03*
G04 #@! TD*
D10*
G04 #@! TO.C,J10*
X143081499Y-58173703D03*
D11*
X143081499Y-55633703D03*
X143081499Y-53093703D03*
X143081499Y-50553703D03*
G04 #@! TD*
D22*
G04 #@! TO.C,J41*
X92200000Y-47100000D03*
D23*
X92200000Y-49100000D03*
G04 #@! TD*
D12*
G04 #@! TO.C,JP2*
X170300000Y-101750001D03*
D13*
X165220000Y-101750001D03*
G04 #@! TD*
D16*
G04 #@! TO.C,J14*
X98044915Y-49010001D03*
X110044911Y-49010001D03*
D17*
X107044912Y-47050000D03*
X104044913Y-47050000D03*
X101044914Y-47050000D03*
G04 #@! TD*
D22*
G04 #@! TO.C,J36*
X80200000Y-47100000D03*
D23*
X80200000Y-49100000D03*
G04 #@! TD*
D22*
G04 #@! TO.C,J40*
X56200000Y-47200000D03*
D23*
X56200000Y-49200000D03*
G04 #@! TD*
D12*
G04 #@! TO.C,JP3*
X170554141Y-83556347D03*
D13*
X165474141Y-83556347D03*
G04 #@! TD*
D19*
G04 #@! TO.C,J4*
X183949050Y-64809049D03*
X183949050Y-79809050D03*
D17*
X180009050Y-76809048D03*
X180009050Y-73809049D03*
X180009050Y-70809050D03*
X180009050Y-67809051D03*
X183009049Y-76809048D03*
X183009049Y-73809049D03*
X183009049Y-70809050D03*
X183009049Y-67809051D03*
G04 #@! TD*
D16*
G04 #@! TO.C,J25*
X82560001Y-106599998D03*
X82560001Y-94600002D03*
D17*
X80600000Y-97600001D03*
X80600000Y-100600000D03*
X80600000Y-103599999D03*
G04 #@! TD*
D22*
G04 #@! TO.C,J35*
X86200000Y-47100000D03*
D23*
X86200000Y-49100000D03*
G04 #@! TD*
D20*
G04 #@! TO.C,J33*
X86200000Y-73600000D03*
D21*
X88200000Y-73600000D03*
X90200000Y-73600000D03*
G04 #@! TD*
D10*
G04 #@! TO.C,J11*
X134880000Y-136850000D03*
D11*
X137420000Y-136850000D03*
X139960000Y-136850000D03*
X142500000Y-136850000D03*
G04 #@! TD*
D20*
G04 #@! TO.C,J30*
X75017938Y-61597500D03*
D21*
X77017938Y-61597500D03*
X79017938Y-61597500D03*
G04 #@! TD*
D20*
G04 #@! TO.C,J32*
X75017938Y-67597500D03*
D21*
X77017938Y-67597500D03*
X79017938Y-67597500D03*
G04 #@! TD*
D22*
G04 #@! TO.C,J39*
X62200000Y-47100000D03*
D23*
X62200000Y-49100000D03*
G04 #@! TD*
D20*
G04 #@! TO.C,J31*
X86200000Y-67600000D03*
D21*
X88200000Y-67600000D03*
X90200000Y-67600000D03*
G04 #@! TD*
D18*
G04 #@! TO.C,J20*
X49250000Y-79700000D03*
D15*
X49250000Y-84700000D03*
G04 #@! TD*
D10*
G04 #@! TO.C,J24*
X90760000Y-102200000D03*
D11*
X93300000Y-102200000D03*
X90760000Y-104740000D03*
X93300000Y-104740000D03*
G04 #@! TD*
D19*
G04 #@! TO.C,J3*
X183962240Y-82960049D03*
X183962240Y-97960050D03*
D17*
X180022240Y-94960048D03*
X180022240Y-91960049D03*
X180022240Y-88960050D03*
X180022240Y-85960051D03*
X183022239Y-94960048D03*
X183022239Y-91960049D03*
X183022239Y-88960050D03*
X183022239Y-85960051D03*
G04 #@! TD*
D10*
G04 #@! TO.C,J8*
X143108099Y-95263702D03*
D11*
X143108099Y-92723702D03*
X143108099Y-90183702D03*
X143108099Y-87643702D03*
G04 #@! TD*
D19*
G04 #@! TO.C,J5*
X183940001Y-46699999D03*
X183940001Y-61700000D03*
D17*
X180000001Y-58699998D03*
X180000001Y-55699999D03*
X180000001Y-52700000D03*
X180000001Y-49700001D03*
X183000000Y-58699998D03*
X183000000Y-55699999D03*
X183000000Y-52700000D03*
X183000000Y-49700001D03*
G04 #@! TD*
D10*
G04 #@! TO.C,J28*
X76767938Y-57387500D03*
D11*
X74227938Y-57387500D03*
X76767938Y-54847500D03*
X74227938Y-54847500D03*
G04 #@! TD*
D12*
G04 #@! TO.C,JP4*
X170600000Y-64900000D03*
D13*
X165520000Y-64900000D03*
G04 #@! TD*
D24*
G04 #@! TO.C,A1*
X129800000Y-135390000D03*
D25*
X129800000Y-132850000D03*
D26*
X129800000Y-130310000D03*
D25*
X129800000Y-127770000D03*
X129800000Y-125230000D03*
X129800000Y-122690000D03*
X129800000Y-120150000D03*
D26*
X129800000Y-117610000D03*
D25*
X129800000Y-115070000D03*
X129800000Y-112530000D03*
X129800000Y-109990000D03*
X129800000Y-107450000D03*
D26*
X129800000Y-104910000D03*
D25*
X129800000Y-102370000D03*
X129800000Y-99830000D03*
X129800000Y-97290000D03*
X129800000Y-94750000D03*
D26*
X129800000Y-92210000D03*
D25*
X129800000Y-89670000D03*
X129800000Y-87130000D03*
X112020000Y-87130000D03*
X112020000Y-89670000D03*
D27*
X112020000Y-92210000D03*
D25*
X112020000Y-94750000D03*
X112020000Y-97290000D03*
X112020000Y-99830000D03*
X112020000Y-102370000D03*
D27*
X112020000Y-104910000D03*
D25*
X112020000Y-107450000D03*
X112020000Y-109990000D03*
X112020000Y-112530000D03*
X112020000Y-115070000D03*
D27*
X112020000Y-117610000D03*
D25*
X112020000Y-120150000D03*
X112020000Y-122690000D03*
X112020000Y-125230000D03*
X112020000Y-127770000D03*
D27*
X112020000Y-130310000D03*
D25*
X112020000Y-132850000D03*
X112020000Y-135390000D03*
G04 #@! TD*
D16*
G04 #@! TO.C,J18*
X127900002Y-49028700D03*
X139899998Y-49028700D03*
D17*
X136899999Y-47068699D03*
X133900000Y-47068699D03*
X130900001Y-47068699D03*
G04 #@! TD*
D10*
G04 #@! TO.C,J6*
X143181800Y-131150000D03*
D11*
X143181800Y-128610000D03*
X143181800Y-126070000D03*
X143181800Y-123530000D03*
G04 #@! TD*
M02*
