G04 #@! TF.GenerationSoftware,KiCad,Pcbnew,9.0.2*
G04 #@! TF.CreationDate,2025-08-23T18:52:09+02:00*
G04 #@! TF.ProjectId,Pico2Breakout,5069636f-3242-4726-9561-6b6f75742e6b,rev?*
G04 #@! TF.SameCoordinates,Original*
G04 #@! TF.FileFunction,Other,User*
%FSLAX46Y46*%
G04 Gerber Fmt 4.6, Leading zero omitted, Abs format (unit mm)*
G04 Created by KiCad (PCBNEW 9.0.2) date 2025-08-23 18:52:09*
%MOMM*%
%LPD*%
G01*
G04 APERTURE LIST*
%ADD10C,0.050000*%
%ADD11C,0.152400*%
G04 APERTURE END LIST*
D10*
G04 #@! TO.C,R4*
X65110000Y-67572500D02*
X66570000Y-67572500D01*
X65110000Y-70532500D02*
X65110000Y-67572500D01*
X66570000Y-67572500D02*
X66570000Y-70532500D01*
X66570000Y-70532500D02*
X65110000Y-70532500D01*
D11*
G04 #@! TO.C,CR10*
X171842990Y-91921699D02*
X171842990Y-90880299D01*
X172744690Y-89648399D02*
X172744690Y-90880299D01*
X172744690Y-89648399D02*
X174649690Y-89648399D01*
X172744690Y-90880299D02*
X171842990Y-90880299D01*
X172744690Y-91921699D02*
X171842990Y-91921699D01*
X172744690Y-93153599D02*
X172744690Y-91921699D01*
X174649690Y-89648399D02*
X174649690Y-89930299D01*
X174649690Y-89930299D02*
X175551390Y-89930299D01*
X174649690Y-92871699D02*
X175551390Y-92871699D01*
X174649690Y-93153599D02*
X172744690Y-93153599D01*
X174649690Y-93153599D02*
X174649690Y-92871699D01*
X175551390Y-92871699D02*
X175551390Y-89930299D01*
G04 #@! TO.C,CR2*
X54264800Y-115721600D02*
X55941200Y-115721600D01*
X54264800Y-122884400D02*
X54264800Y-115721600D01*
X55941200Y-115467600D02*
X55941200Y-115721600D01*
X55941200Y-115467600D02*
X60157600Y-115467600D01*
X56030100Y-122884400D02*
X54264800Y-122884400D01*
X56030100Y-123138400D02*
X56030100Y-122884400D01*
X56030100Y-123138400D02*
X60068700Y-123138400D01*
X60068700Y-123138400D02*
X60068700Y-122884400D01*
X60157600Y-115467600D02*
X60157600Y-115721600D01*
X61834000Y-115721600D02*
X60157600Y-115721600D01*
X61834000Y-115721600D02*
X61834000Y-122884400D01*
X61834000Y-122884400D02*
X60068700Y-122884400D01*
D10*
G04 #@! TO.C,C40*
X99980000Y-133590000D02*
X101940000Y-133590000D01*
X99980000Y-136990000D02*
X99980000Y-133590000D01*
X101940000Y-133590000D02*
X101940000Y-136990000D01*
X101940000Y-136990000D02*
X99980000Y-136990000D01*
D11*
G04 #@! TO.C,U1*
X63544100Y-74114600D02*
X63861600Y-74114600D01*
X63544100Y-78610400D02*
X63544100Y-74114600D01*
X63861600Y-72654100D02*
X63861600Y-74114600D01*
X63861600Y-72654100D02*
X68738400Y-72654100D01*
X63861600Y-78610400D02*
X63544100Y-78610400D01*
X63861600Y-80070900D02*
X63861600Y-78610400D01*
X68738400Y-72654100D02*
X68738400Y-74114600D01*
X68738400Y-74114600D02*
X69055900Y-74114600D01*
X68738400Y-80070900D02*
X63861600Y-80070900D01*
X68738400Y-80070900D02*
X68738400Y-78610400D01*
X69055900Y-74114600D02*
X69055900Y-78610400D01*
X69055900Y-78610400D02*
X68738400Y-78610400D01*
D10*
G04 #@! TO.C,R44*
X98750000Y-112107500D02*
X100650000Y-112107500D01*
X98750000Y-115467500D02*
X98750000Y-112107500D01*
X100650000Y-112107500D02*
X100650000Y-115467500D01*
X100650000Y-115467500D02*
X98750000Y-115467500D01*
D11*
G04 #@! TO.C,K3*
X88596000Y-110206000D02*
X89995999Y-110206000D01*
X88596000Y-114054000D02*
X88596000Y-110206000D01*
X88596000Y-114054000D02*
X89995999Y-114054000D01*
X89995999Y-110026000D02*
X95054000Y-110026000D01*
X89995999Y-110206000D02*
X89995999Y-110026000D01*
X89995999Y-114234000D02*
X89995999Y-114054000D01*
X95054000Y-110026000D02*
X95054000Y-110206000D01*
X95054000Y-110206000D02*
X96454000Y-110206000D01*
X95054000Y-114054000D02*
X95054000Y-114234000D01*
X95054000Y-114234000D02*
X89995999Y-114234000D01*
X96454000Y-110206000D02*
X96454000Y-114054000D01*
X96454000Y-114054000D02*
X95054000Y-114054000D01*
D10*
G04 #@! TO.C,R3*
X69410000Y-74472500D02*
X70870000Y-74472500D01*
X69410000Y-77432500D02*
X69410000Y-74472500D01*
X70870000Y-74472500D02*
X70870000Y-77432500D01*
X70870000Y-77432500D02*
X69410000Y-77432500D01*
G04 #@! TO.C,FB4*
X145070000Y-99800000D02*
X146530000Y-99800000D01*
X145070000Y-103100000D02*
X145070000Y-99800000D01*
X146530000Y-99800000D02*
X146530000Y-103100000D01*
X146530000Y-103100000D02*
X145070000Y-103100000D01*
D11*
G04 #@! TO.C,CR16*
X171729800Y-55570699D02*
X171729800Y-54529299D01*
X172631500Y-53297399D02*
X172631500Y-54529299D01*
X172631500Y-53297399D02*
X174536500Y-53297399D01*
X172631500Y-54529299D02*
X171729800Y-54529299D01*
X172631500Y-55570699D02*
X171729800Y-55570699D01*
X172631500Y-56802599D02*
X172631500Y-55570699D01*
X174536500Y-53297399D02*
X174536500Y-53579299D01*
X174536500Y-53579299D02*
X175438200Y-53579299D01*
X174536500Y-56520699D02*
X175438200Y-56520699D01*
X174536500Y-56802599D02*
X172631500Y-56802599D01*
X174536500Y-56802599D02*
X174536500Y-56520699D01*
X175438200Y-56520699D02*
X175438200Y-53579299D01*
D10*
G04 #@! TO.C,C36*
X147341500Y-46743703D02*
X150301500Y-46743703D01*
X147341500Y-48203703D02*
X147341500Y-46743703D01*
X150301500Y-46743703D02*
X150301500Y-48203703D01*
X150301500Y-48203703D02*
X147341500Y-48203703D01*
G04 #@! TO.C,J17*
X126105000Y-52930000D02*
X126105000Y-59020000D01*
X126105000Y-59020000D02*
X132195000Y-59020000D01*
X132195000Y-52930000D02*
X126105000Y-52930000D01*
X132195000Y-59020000D02*
X132195000Y-52930000D01*
G04 #@! TO.C,J13*
X95830000Y-53023400D02*
X95830000Y-59113400D01*
X95830000Y-59113400D02*
X101920000Y-59113400D01*
X101920000Y-53023400D02*
X95830000Y-53023400D01*
X101920000Y-59113400D02*
X101920000Y-53023400D01*
G04 #@! TO.C,JP5*
X164460000Y-45526297D02*
X164460000Y-49126297D01*
X164460000Y-45526297D02*
X173140000Y-45526297D01*
X173140000Y-49126297D02*
X164460000Y-49126297D01*
X173140000Y-49126297D02*
X173140000Y-45526297D01*
G04 #@! TO.C,C26*
X167344999Y-114370001D02*
X170304999Y-114370001D01*
X167344999Y-115830001D02*
X167344999Y-114370001D01*
X170304999Y-114370001D02*
X170304999Y-115830001D01*
X170304999Y-115830001D02*
X167344999Y-115830001D01*
G04 #@! TO.C,D9*
X96582500Y-95137500D02*
X99942500Y-95137500D01*
X96582500Y-97037500D02*
X96582500Y-95137500D01*
X99942500Y-95137500D02*
X99942500Y-97037500D01*
X99942500Y-97037500D02*
X96582500Y-97037500D01*
G04 #@! TO.C,D16*
X107600000Y-66750000D02*
X107600000Y-68650000D01*
X107600000Y-66750000D02*
X110800000Y-66750000D01*
X107600000Y-68650000D02*
X110800000Y-68650000D01*
X110800000Y-66750000D02*
X110800000Y-68650000D01*
G04 #@! TO.C,JP1*
X163320001Y-118249999D02*
X163320001Y-121849999D01*
X163320001Y-118249999D02*
X172000001Y-118249999D01*
X172000001Y-121849999D02*
X163320001Y-121849999D01*
X172000001Y-121849999D02*
X172000001Y-118249999D01*
D11*
G04 #@! TO.C,U19*
X97144800Y-70322701D02*
X97449600Y-70322701D01*
X97144800Y-75377301D02*
X97144800Y-70322701D01*
X97449600Y-68849101D02*
X97449600Y-70322701D01*
X97449600Y-68849101D02*
X107660400Y-68849101D01*
X97449600Y-75377301D02*
X97144800Y-75377301D01*
X97449600Y-76850901D02*
X97449600Y-75377301D01*
X107660400Y-68849101D02*
X107660400Y-70322701D01*
X107660400Y-70322701D02*
X107965200Y-70322701D01*
X107660400Y-76850901D02*
X97449600Y-76850901D01*
X107660400Y-76850901D02*
X107660400Y-75377301D01*
X107965200Y-70322701D02*
X107965200Y-75377301D01*
X107965200Y-75377301D02*
X107660400Y-75377301D01*
D10*
G04 #@! TO.C,R50*
X106050000Y-77020000D02*
X107950000Y-77020000D01*
X106050000Y-80380000D02*
X106050000Y-77020000D01*
X107950000Y-77020000D02*
X107950000Y-80380000D01*
X107950000Y-80380000D02*
X106050000Y-80380000D01*
G04 #@! TO.C,C46*
X102220000Y-51671700D02*
X103680000Y-51671700D01*
X102220000Y-54631700D02*
X102220000Y-51671700D01*
X103680000Y-51671700D02*
X103680000Y-54631700D01*
X103680000Y-54631700D02*
X102220000Y-54631700D01*
G04 #@! TO.C,C62*
X107320000Y-106950000D02*
X109280000Y-106950000D01*
X107320000Y-110350000D02*
X107320000Y-106950000D01*
X109280000Y-106950000D02*
X109280000Y-110350000D01*
X109280000Y-110350000D02*
X107320000Y-110350000D01*
G04 #@! TO.C,FB7*
X145091500Y-44923703D02*
X146551500Y-44923703D01*
X145091500Y-48223703D02*
X145091500Y-44923703D01*
X146551500Y-44923703D02*
X146551500Y-48223703D01*
X146551500Y-48223703D02*
X145091500Y-48223703D01*
G04 #@! TO.C,J21*
X66400000Y-130400000D02*
X66400000Y-139400000D01*
X66400000Y-139400000D02*
X77400000Y-139400000D01*
X77400000Y-130400000D02*
X66400000Y-130400000D01*
X77400000Y-139400000D02*
X77400000Y-130400000D01*
G04 #@! TO.C,R11*
X65659400Y-110670000D02*
X68619400Y-110670000D01*
X65659400Y-112130000D02*
X65659400Y-110670000D01*
X68619400Y-110670000D02*
X68619400Y-112130000D01*
X68619400Y-112130000D02*
X65659400Y-112130000D01*
D11*
G04 #@! TO.C,CR4*
X171911601Y-127770698D02*
X171911601Y-126729298D01*
X172813301Y-125497398D02*
X172813301Y-126729298D01*
X172813301Y-125497398D02*
X174718301Y-125497398D01*
X172813301Y-126729298D02*
X171911601Y-126729298D01*
X172813301Y-127770698D02*
X171911601Y-127770698D01*
X172813301Y-129002598D02*
X172813301Y-127770698D01*
X174718301Y-125497398D02*
X174718301Y-125779298D01*
X174718301Y-125779298D02*
X175620001Y-125779298D01*
X174718301Y-128720698D02*
X175620001Y-128720698D01*
X174718301Y-129002598D02*
X172813301Y-129002598D01*
X174718301Y-129002598D02*
X174718301Y-128720698D01*
X175620001Y-128720698D02*
X175620001Y-125779298D01*
G04 #@! TO.C,J16*
X112085601Y-43696001D02*
X112085601Y-49924401D01*
X112085601Y-49924401D02*
X125914401Y-49924401D01*
X125914401Y-43696001D02*
X112085601Y-43696001D01*
X125914401Y-49924401D02*
X125914401Y-43696001D01*
D10*
G04 #@! TO.C,J19*
X44700000Y-89150000D02*
X44700000Y-100150000D01*
X44700000Y-100150000D02*
X53700000Y-100150000D01*
X53700000Y-89150000D02*
X44700000Y-89150000D01*
X53700000Y-100150000D02*
X53700000Y-89150000D01*
G04 #@! TO.C,C27*
X145070000Y-96218702D02*
X146530000Y-96218702D01*
X145070000Y-99178702D02*
X145070000Y-96218702D01*
X146530000Y-96218702D02*
X146530000Y-99178702D01*
X146530000Y-99178702D02*
X145070000Y-99178702D01*
G04 #@! TO.C,R33*
X134530000Y-79545000D02*
X135990000Y-79545000D01*
X134530000Y-82505000D02*
X134530000Y-79545000D01*
X135990000Y-79545000D02*
X135990000Y-82505000D01*
X135990000Y-82505000D02*
X134530000Y-82505000D01*
G04 #@! TO.C,J12*
X102480000Y-127830000D02*
X102480000Y-138990000D01*
X102480000Y-138990000D02*
X108570000Y-138990000D01*
X108570000Y-127830000D02*
X102480000Y-127830000D01*
X108570000Y-138990000D02*
X108570000Y-127830000D01*
G04 #@! TO.C,C45*
X102220000Y-54696700D02*
X103680000Y-54696700D01*
X102220000Y-57656700D02*
X102220000Y-54696700D01*
X103680000Y-54696700D02*
X103680000Y-57656700D01*
X103680000Y-57656700D02*
X102220000Y-57656700D01*
G04 #@! TO.C,C37*
X167260000Y-58370000D02*
X170220000Y-58370000D01*
X167260000Y-59830000D02*
X167260000Y-58370000D01*
X170220000Y-58370000D02*
X170220000Y-59830000D01*
X170220000Y-59830000D02*
X167260000Y-59830000D01*
G04 #@! TO.C,J9*
X141330000Y-67160000D02*
X141330000Y-78320000D01*
X141330000Y-78320000D02*
X144870000Y-78320000D01*
X144870000Y-67160000D02*
X141330000Y-67160000D01*
X144870000Y-78320000D02*
X144870000Y-67160000D01*
G04 #@! TO.C,L3*
X80680000Y-127080000D02*
X85240000Y-127080000D01*
X80680000Y-130240000D02*
X80680000Y-127080000D01*
X85240000Y-127080000D02*
X85240000Y-130240000D01*
X85240000Y-130240000D02*
X80680000Y-130240000D01*
G04 #@! TO.C,U14*
X124454999Y-78125001D02*
X124454999Y-65375001D01*
X135955001Y-65375001D02*
X124454999Y-65375001D01*
X135955001Y-78125001D02*
X124454999Y-78125001D01*
X135955001Y-78125001D02*
X135955001Y-65375001D01*
G04 #@! TO.C,R35*
X119166700Y-51774150D02*
X122526700Y-51774150D01*
X119166700Y-53674150D02*
X119166700Y-51774150D01*
X122526700Y-51774150D02*
X122526700Y-53674150D01*
X122526700Y-53674150D02*
X119166700Y-53674150D01*
G04 #@! TO.C,D13*
X117600000Y-66750000D02*
X117600000Y-68650000D01*
X117600000Y-66750000D02*
X120800000Y-66750000D01*
X117600000Y-68650000D02*
X120800000Y-68650000D01*
X120800000Y-66750000D02*
X120800000Y-68650000D01*
D11*
G04 #@! TO.C,CR1*
X55765400Y-75674100D02*
X57441800Y-75674100D01*
X55765400Y-82836900D02*
X55765400Y-75674100D01*
X57441800Y-75420100D02*
X57441800Y-75674100D01*
X57441800Y-75420100D02*
X61658200Y-75420100D01*
X57530700Y-82836900D02*
X55765400Y-82836900D01*
X57530700Y-83090900D02*
X57530700Y-82836900D01*
X57530700Y-83090900D02*
X61569300Y-83090900D01*
X61569300Y-83090900D02*
X61569300Y-82836900D01*
X61658200Y-75420100D02*
X61658200Y-75674100D01*
X63334600Y-75674100D02*
X61658200Y-75674100D01*
X63334600Y-75674100D02*
X63334600Y-82836900D01*
X63334600Y-82836900D02*
X61569300Y-82836900D01*
G04 #@! TO.C,C1*
X54750800Y-87434300D02*
X55754100Y-87434300D01*
X54750800Y-89110700D02*
X54750800Y-87434300D01*
X55754100Y-84614900D02*
X63069300Y-84614900D01*
X55754100Y-87434300D02*
X55754100Y-84614900D01*
X55754100Y-89110700D02*
X54750800Y-89110700D01*
X55754100Y-91930100D02*
X55754100Y-89110700D01*
X63069300Y-84614900D02*
X63069300Y-87434300D01*
X63069300Y-87434300D02*
X64072600Y-87434300D01*
X63069300Y-89110700D02*
X63069300Y-91930100D01*
X63069300Y-91930100D02*
X55754100Y-91930100D01*
X64072600Y-87434300D02*
X64072600Y-89110700D01*
X64072600Y-89110700D02*
X63069300Y-89110700D01*
D10*
G04 #@! TO.C,FB5*
X145070000Y-81575000D02*
X146530000Y-81575000D01*
X145070000Y-84875000D02*
X145070000Y-81575000D01*
X146530000Y-81575000D02*
X146530000Y-84875000D01*
X146530000Y-84875000D02*
X145070000Y-84875000D01*
G04 #@! TO.C,C59*
X107320000Y-94800000D02*
X109280000Y-94800000D01*
X107320000Y-98200000D02*
X107320000Y-94800000D01*
X109280000Y-94800000D02*
X109280000Y-98200000D01*
X109280000Y-98200000D02*
X107320000Y-98200000D01*
D11*
G04 #@! TO.C,J27*
X77286000Y-108385602D02*
X77286000Y-122214402D01*
X77286000Y-122214402D02*
X83514400Y-122214402D01*
X83514400Y-108385602D02*
X77286000Y-108385602D01*
X83514400Y-122214402D02*
X83514400Y-108385602D01*
G04 #@! TO.C,J1*
X177343001Y-118468798D02*
X177343001Y-135131198D01*
X177343001Y-135131198D02*
X186614001Y-135131198D01*
X186614001Y-118468798D02*
X177343001Y-118468798D01*
X186614001Y-135131198D02*
X186614001Y-118468798D01*
D10*
G04 #@! TO.C,R20*
X160424141Y-94632644D02*
X163384141Y-94632644D01*
X160424141Y-96092644D02*
X160424141Y-94632644D01*
X163384141Y-94632644D02*
X163384141Y-96092644D01*
X163384141Y-96092644D02*
X160424141Y-96092644D01*
G04 #@! TO.C,C58*
X107320000Y-91200000D02*
X109280000Y-91200000D01*
X107320000Y-94600000D02*
X107320000Y-91200000D01*
X109280000Y-91200000D02*
X109280000Y-94600000D01*
X109280000Y-94600000D02*
X107320000Y-94600000D01*
G04 #@! TO.C,R9*
X67809400Y-116020000D02*
X69269400Y-116020000D01*
X67809400Y-118980000D02*
X67809400Y-116020000D01*
X69269400Y-116020000D02*
X69269400Y-118980000D01*
X69269400Y-118980000D02*
X67809400Y-118980000D01*
G04 #@! TO.C,C22*
X167345001Y-132569999D02*
X170305001Y-132569999D01*
X167345001Y-134029999D02*
X167345001Y-132569999D01*
X170305001Y-132569999D02*
X170305001Y-134029999D01*
X170305001Y-134029999D02*
X167345001Y-134029999D01*
G04 #@! TO.C,R45*
X96650000Y-112107500D02*
X98550000Y-112107500D01*
X96650000Y-115467500D02*
X96650000Y-112107500D01*
X98550000Y-112107500D02*
X98550000Y-115467500D01*
X98550000Y-115467500D02*
X96650000Y-115467500D01*
G04 #@! TO.C,J22*
X88790000Y-85590000D02*
X88790000Y-91680000D01*
X88790000Y-91680000D02*
X94880000Y-91680000D01*
X94880000Y-85590000D02*
X88790000Y-85590000D01*
X94880000Y-91680000D02*
X94880000Y-85590000D01*
G04 #@! TO.C,R24*
X159669050Y-67429050D02*
X162629050Y-67429050D01*
X159669050Y-68889050D02*
X159669050Y-67429050D01*
X162629050Y-67429050D02*
X162629050Y-68889050D01*
X162629050Y-68889050D02*
X159669050Y-68889050D01*
G04 #@! TO.C,U11*
X146721499Y-61103703D02*
X146721499Y-48353703D01*
X158221501Y-48353703D02*
X146721499Y-48353703D01*
X158221501Y-61103703D02*
X146721499Y-61103703D01*
X158221501Y-61103703D02*
X158221501Y-48353703D01*
G04 #@! TO.C,C19*
X145151800Y-132795000D02*
X146611800Y-132795000D01*
X145151800Y-135755000D02*
X145151800Y-132795000D01*
X146611800Y-132795000D02*
X146611800Y-135755000D01*
X146611800Y-135755000D02*
X145151800Y-135755000D01*
G04 #@! TO.C,C17*
X62349400Y-107030000D02*
X65749400Y-107030000D01*
X62349400Y-108990000D02*
X62349400Y-107030000D01*
X65749400Y-107030000D02*
X65749400Y-108990000D01*
X65749400Y-108990000D02*
X62349400Y-108990000D01*
G04 #@! TO.C,U9*
X146699999Y-79480000D02*
X146699999Y-66730000D01*
X158200001Y-66730000D02*
X146699999Y-66730000D01*
X158200001Y-79480000D02*
X146699999Y-79480000D01*
X158200001Y-79480000D02*
X158200001Y-66730000D01*
G04 #@! TO.C,C41*
X85430000Y-125480000D02*
X86890000Y-125480000D01*
X85430000Y-128440000D02*
X85430000Y-125480000D01*
X86890000Y-125480000D02*
X86890000Y-128440000D01*
X86890000Y-128440000D02*
X85430000Y-128440000D01*
G04 #@! TO.C,U10*
X160004050Y-70434050D02*
X160204050Y-70434050D01*
X160004050Y-74834050D02*
X160004050Y-70434050D01*
X160204050Y-68934050D02*
X170204050Y-68934050D01*
X160204050Y-70434050D02*
X160204050Y-68934050D01*
X160204050Y-74834050D02*
X160004050Y-74834050D01*
X160204050Y-76334050D02*
X160204050Y-74834050D01*
X170204050Y-68934050D02*
X170204050Y-70434050D01*
X170204050Y-70434050D02*
X170404050Y-70434050D01*
X170204050Y-74834050D02*
X170204050Y-76334050D01*
X170204050Y-76334050D02*
X160204050Y-76334050D01*
X170404050Y-70434050D02*
X170404050Y-74834050D01*
X170404050Y-74834050D02*
X170204050Y-74834050D01*
G04 #@! TO.C,C2*
X65100000Y-84882500D02*
X68500000Y-84882500D01*
X65100000Y-86842500D02*
X65100000Y-84882500D01*
X68500000Y-84882500D02*
X68500000Y-86842500D01*
X68500000Y-86842500D02*
X65100000Y-86842500D01*
G04 #@! TO.C,R10*
X64109400Y-109120000D02*
X65569400Y-109120000D01*
X64109400Y-112080000D02*
X64109400Y-109120000D01*
X65569400Y-109120000D02*
X65569400Y-112080000D01*
X65569400Y-112080000D02*
X64109400Y-112080000D01*
G04 #@! TO.C,R47*
X115300000Y-77020000D02*
X117200000Y-77020000D01*
X115300000Y-80380000D02*
X115300000Y-77020000D01*
X117200000Y-77020000D02*
X117200000Y-80380000D01*
X117200000Y-80380000D02*
X115300000Y-80380000D01*
G04 #@! TO.C,C60*
X107320000Y-99100000D02*
X109280000Y-99100000D01*
X107320000Y-102500000D02*
X107320000Y-99100000D01*
X109280000Y-99100000D02*
X109280000Y-102500000D01*
X109280000Y-102500000D02*
X107320000Y-102500000D01*
G04 #@! TO.C,C47*
X107357500Y-51891300D02*
X110317500Y-51891300D01*
X107357500Y-53351300D02*
X107357500Y-51891300D01*
X110317500Y-51891300D02*
X110317500Y-53351300D01*
X110317500Y-53351300D02*
X107357500Y-53351300D01*
D11*
G04 #@! TO.C,J2*
X177343000Y-100268800D02*
X177343000Y-116931200D01*
X177343000Y-116931200D02*
X186614000Y-116931200D01*
X186614000Y-100268800D02*
X177343000Y-100268800D01*
X186614000Y-116931200D02*
X186614000Y-100268800D01*
D10*
G04 #@! TO.C,C31*
X145070000Y-77895000D02*
X146530000Y-77895000D01*
X145070000Y-80855000D02*
X145070000Y-77895000D01*
X146530000Y-77895000D02*
X146530000Y-80855000D01*
X146530000Y-80855000D02*
X145070000Y-80855000D01*
D11*
G04 #@! TO.C,CR5*
X172545801Y-131200799D02*
X172545801Y-134142199D01*
X173447501Y-130918899D02*
X173447501Y-131200799D01*
X173447501Y-130918899D02*
X175352501Y-130918899D01*
X173447501Y-131200799D02*
X172545801Y-131200799D01*
X173447501Y-134142199D02*
X172545801Y-134142199D01*
X173447501Y-134424099D02*
X173447501Y-134142199D01*
X175352501Y-130918899D02*
X175352501Y-132150799D01*
X175352501Y-132150799D02*
X176254201Y-132150799D01*
X175352501Y-133192199D02*
X176254201Y-133192199D01*
X175352501Y-134424099D02*
X173447501Y-134424099D01*
X175352501Y-134424099D02*
X175352501Y-133192199D01*
X176254201Y-132150799D02*
X176254201Y-133192199D01*
D10*
G04 #@! TO.C,C4*
X65140000Y-80652500D02*
X68100000Y-80652500D01*
X65140000Y-82112500D02*
X65140000Y-80652500D01*
X68100000Y-80652500D02*
X68100000Y-82112500D01*
X68100000Y-82112500D02*
X65140000Y-82112500D01*
G04 #@! TO.C,J29*
X83750000Y-59400000D02*
X83750000Y-64900000D01*
X83750000Y-64900000D02*
X92650000Y-64900000D01*
X92650000Y-59400000D02*
X83750000Y-59400000D01*
X92650000Y-64900000D02*
X92650000Y-59400000D01*
D11*
G04 #@! TO.C,U17*
X134006800Y-55302100D02*
X134324300Y-55302100D01*
X134006800Y-59797900D02*
X134006800Y-55302100D01*
X134324300Y-53841600D02*
X134324300Y-55302100D01*
X134324300Y-53841600D02*
X139175700Y-53841600D01*
X134324300Y-59797900D02*
X134006800Y-59797900D01*
X134324300Y-61258400D02*
X134324300Y-59797900D01*
X139175700Y-53841600D02*
X139175700Y-55302100D01*
X139175700Y-55302100D02*
X139493200Y-55302100D01*
X139175700Y-61258400D02*
X134324300Y-61258400D01*
X139175700Y-61258400D02*
X139175700Y-59797900D01*
X139493200Y-55302100D02*
X139493200Y-59797900D01*
X139493200Y-59797900D02*
X139175700Y-59797900D01*
D10*
G04 #@! TO.C,R13*
X167676801Y-121919999D02*
X170636801Y-121919999D01*
X167676801Y-123379999D02*
X167676801Y-121919999D01*
X170636801Y-121919999D02*
X170636801Y-123379999D01*
X170636801Y-123379999D02*
X167676801Y-123379999D01*
G04 #@! TO.C,C39*
X81860000Y-124880000D02*
X85260000Y-124880000D01*
X81860000Y-126840000D02*
X81860000Y-124880000D01*
X85260000Y-124880000D02*
X85260000Y-126840000D01*
X85260000Y-126840000D02*
X81860000Y-126840000D01*
D11*
G04 #@! TO.C,C16*
X56780200Y-97621800D02*
X57783500Y-97621800D01*
X56780200Y-99298200D02*
X56780200Y-97621800D01*
X57783500Y-94802400D02*
X65098700Y-94802400D01*
X57783500Y-97621800D02*
X57783500Y-94802400D01*
X57783500Y-99298200D02*
X56780200Y-99298200D01*
X57783500Y-102117600D02*
X57783500Y-99298200D01*
X65098700Y-94802400D02*
X65098700Y-97621800D01*
X65098700Y-97621800D02*
X66102000Y-97621800D01*
X65098700Y-99298200D02*
X65098700Y-102117600D01*
X65098700Y-102117600D02*
X57783500Y-102117600D01*
X66102000Y-97621800D02*
X66102000Y-99298200D01*
X66102000Y-99298200D02*
X65098700Y-99298200D01*
D10*
G04 #@! TO.C,D1*
X70750000Y-89850000D02*
X70750000Y-85350000D01*
X72950000Y-85350000D02*
X70750000Y-85350000D01*
X72950000Y-85350000D02*
X72950000Y-89850000D01*
X72950000Y-89850000D02*
X70750000Y-89850000D01*
D11*
G04 #@! TO.C,CR15*
X172370799Y-49429300D02*
X172370799Y-52370700D01*
X173272499Y-49147400D02*
X173272499Y-49429300D01*
X173272499Y-49147400D02*
X175177499Y-49147400D01*
X173272499Y-49429300D02*
X172370799Y-49429300D01*
X173272499Y-52370700D02*
X172370799Y-52370700D01*
X173272499Y-52652600D02*
X173272499Y-52370700D01*
X175177499Y-49147400D02*
X175177499Y-50379300D01*
X175177499Y-50379300D02*
X176079199Y-50379300D01*
X175177499Y-51420700D02*
X176079199Y-51420700D01*
X175177499Y-52652600D02*
X173272499Y-52652600D01*
X175177499Y-52652600D02*
X175177499Y-51420700D01*
X176079199Y-50379300D02*
X176079199Y-51420700D01*
D10*
G04 #@! TO.C,J26*
X88990000Y-114630000D02*
X88990000Y-120720000D01*
X88990000Y-120720000D02*
X95080000Y-120720000D01*
X95080000Y-114630000D02*
X88990000Y-114630000D01*
X95080000Y-120720000D02*
X95080000Y-114630000D01*
G04 #@! TO.C,J15*
X111231700Y-52828300D02*
X111231700Y-58918300D01*
X111231700Y-58918300D02*
X117321700Y-58918300D01*
X117321700Y-52828300D02*
X111231700Y-52828300D01*
X117321700Y-58918300D02*
X117321700Y-52828300D01*
G04 #@! TO.C,R14*
X160376801Y-131019999D02*
X163336801Y-131019999D01*
X160376801Y-132479999D02*
X160376801Y-131019999D01*
X163336801Y-131019999D02*
X163336801Y-132479999D01*
X163336801Y-132479999D02*
X160376801Y-132479999D01*
G04 #@! TO.C,R7*
X66546900Y-127650000D02*
X69906900Y-127650000D01*
X66546900Y-129550000D02*
X66546900Y-127650000D01*
X69906900Y-127650000D02*
X69906900Y-129550000D01*
X69906900Y-129550000D02*
X66546900Y-129550000D01*
D11*
G04 #@! TO.C,L1*
X50297600Y-62068200D02*
X53942500Y-62068200D01*
X50297600Y-75073000D02*
X50297600Y-62068200D01*
X53942500Y-62068200D02*
X53942500Y-62068200D01*
X53942500Y-62068200D02*
X59657500Y-62068200D01*
X53942500Y-75073000D02*
X50297600Y-75073000D01*
X53942500Y-75073000D02*
X53942500Y-75073000D01*
X59657500Y-62068200D02*
X59657500Y-62068200D01*
X59657500Y-62068200D02*
X63302400Y-62068200D01*
X59657500Y-75073000D02*
X53942500Y-75073000D01*
X59657500Y-75073000D02*
X59657500Y-75073000D01*
X63302400Y-62068200D02*
X63302400Y-75073000D01*
X63302400Y-75073000D02*
X59657500Y-75073000D01*
D10*
G04 #@! TO.C,C18*
X62349400Y-103030000D02*
X65749400Y-103030000D01*
X62349400Y-104990000D02*
X62349400Y-103030000D01*
X65749400Y-103030000D02*
X65749400Y-104990000D01*
X65749400Y-104990000D02*
X62349400Y-104990000D01*
G04 #@! TO.C,FB1*
X64450000Y-87612500D02*
X66150000Y-87612500D01*
X64450000Y-91112500D02*
X64450000Y-87612500D01*
X66150000Y-87612500D02*
X66150000Y-91112500D01*
X66150000Y-91112500D02*
X64450000Y-91112500D01*
G04 #@! TO.C,J37*
X70800000Y-44650000D02*
X70800000Y-51550000D01*
X70800000Y-51550000D02*
X76300000Y-51550000D01*
X76300000Y-44650000D02*
X70800000Y-44650000D01*
X76300000Y-51550000D02*
X76300000Y-44650000D01*
G04 #@! TO.C,J38*
X64800000Y-44650000D02*
X64800000Y-51550000D01*
X64800000Y-51550000D02*
X70300000Y-51550000D01*
X70300000Y-44650000D02*
X64800000Y-44650000D01*
X70300000Y-51550000D02*
X70300000Y-44650000D01*
G04 #@! TO.C,D19*
X94000000Y-68350000D02*
X94000000Y-70250000D01*
X94000000Y-68350000D02*
X97200000Y-68350000D01*
X94000000Y-70250000D02*
X97200000Y-70250000D01*
X97200000Y-68350000D02*
X97200000Y-70250000D01*
G04 #@! TO.C,J34*
X72567938Y-71397500D02*
X72567938Y-76897500D01*
X72567938Y-76897500D02*
X81467938Y-76897500D01*
X81467938Y-71397500D02*
X72567938Y-71397500D01*
X81467938Y-76897500D02*
X81467938Y-71397500D01*
D11*
G04 #@! TO.C,U18*
X108944800Y-70322699D02*
X109249600Y-70322699D01*
X108944800Y-75377299D02*
X108944800Y-70322699D01*
X109249600Y-68849099D02*
X109249600Y-70322699D01*
X109249600Y-68849099D02*
X119460400Y-68849099D01*
X109249600Y-75377299D02*
X108944800Y-75377299D01*
X109249600Y-76850899D02*
X109249600Y-75377299D01*
X119460400Y-68849099D02*
X119460400Y-70322699D01*
X119460400Y-70322699D02*
X119765200Y-70322699D01*
X119460400Y-76850899D02*
X109249600Y-76850899D01*
X119460400Y-76850899D02*
X119460400Y-75377299D01*
X119765200Y-70322699D02*
X119765200Y-75377299D01*
X119765200Y-75377299D02*
X119460400Y-75377299D01*
D10*
G04 #@! TO.C,R49*
X110200000Y-77020000D02*
X112100000Y-77020000D01*
X110200000Y-80380000D02*
X110200000Y-77020000D01*
X112100000Y-77020000D02*
X112100000Y-80380000D01*
X112100000Y-80380000D02*
X110200000Y-80380000D01*
G04 #@! TO.C,J7*
X141271901Y-103541901D02*
X141271901Y-114701901D01*
X141271901Y-114701901D02*
X144811901Y-114701901D01*
X144811901Y-103541901D02*
X141271901Y-103541901D01*
X144811901Y-114701901D02*
X144811901Y-103541901D01*
G04 #@! TO.C,U6*
X160055000Y-106725001D02*
X160255000Y-106725001D01*
X160055000Y-111125001D02*
X160055000Y-106725001D01*
X160255000Y-105225001D02*
X170255000Y-105225001D01*
X160255000Y-106725001D02*
X160255000Y-105225001D01*
X160255000Y-111125001D02*
X160055000Y-111125001D01*
X160255000Y-112625001D02*
X160255000Y-111125001D01*
X170255000Y-105225001D02*
X170255000Y-106725001D01*
X170255000Y-106725001D02*
X170455000Y-106725001D01*
X170255000Y-111125001D02*
X170255000Y-112625001D01*
X170255000Y-112625001D02*
X160255000Y-112625001D01*
X170455000Y-106725001D02*
X170455000Y-111125001D01*
X170455000Y-111125001D02*
X170255000Y-111125001D01*
D11*
G04 #@! TO.C,C7*
X58620800Y-56334300D02*
X59624100Y-56334300D01*
X58620800Y-58010700D02*
X58620800Y-56334300D01*
X59624100Y-53514900D02*
X66939300Y-53514900D01*
X59624100Y-56334300D02*
X59624100Y-53514900D01*
X59624100Y-58010700D02*
X58620800Y-58010700D01*
X59624100Y-60830100D02*
X59624100Y-58010700D01*
X66939300Y-53514900D02*
X66939300Y-56334300D01*
X66939300Y-56334300D02*
X67942600Y-56334300D01*
X66939300Y-58010700D02*
X66939300Y-60830100D01*
X66939300Y-60830100D02*
X59624100Y-60830100D01*
X67942600Y-56334300D02*
X67942600Y-58010700D01*
X67942600Y-58010700D02*
X66939300Y-58010700D01*
G04 #@! TO.C,J23*
X77264700Y-79185600D02*
X77264700Y-93014400D01*
X77264700Y-93014400D02*
X83493100Y-93014400D01*
X83493100Y-79185600D02*
X77264700Y-79185600D01*
X83493100Y-93014400D02*
X83493100Y-79185600D01*
D10*
G04 #@! TO.C,R32*
X130530000Y-79545000D02*
X131990000Y-79545000D01*
X130530000Y-82505000D02*
X130530000Y-79545000D01*
X131990000Y-79545000D02*
X131990000Y-82505000D01*
X131990000Y-82505000D02*
X130530000Y-82505000D01*
G04 #@! TO.C,J10*
X141311499Y-48783703D02*
X141311499Y-59943703D01*
X141311499Y-59943703D02*
X144851499Y-59943703D01*
X144851499Y-48783703D02*
X141311499Y-48783703D01*
X144851499Y-59943703D02*
X144851499Y-48783703D01*
G04 #@! TO.C,R8*
X67859400Y-119350000D02*
X71219400Y-119350000D01*
X67859400Y-121250000D02*
X67859400Y-119350000D01*
X71219400Y-119350000D02*
X71219400Y-121250000D01*
X71219400Y-121250000D02*
X67859400Y-121250000D01*
G04 #@! TO.C,C38*
X167285000Y-59970000D02*
X170245000Y-59970000D01*
X167285000Y-61430000D02*
X167285000Y-59970000D01*
X170245000Y-59970000D02*
X170245000Y-61430000D01*
X170245000Y-61430000D02*
X167285000Y-61430000D01*
G04 #@! TO.C,C23*
X145011901Y-114576901D02*
X146471901Y-114576901D01*
X145011901Y-117536901D02*
X145011901Y-114576901D01*
X146471901Y-114576901D02*
X146471901Y-117536901D01*
X146471901Y-117536901D02*
X145011901Y-117536901D01*
G04 #@! TO.C,J41*
X88900000Y-44650000D02*
X88900000Y-51550000D01*
X88900000Y-51550000D02*
X94400000Y-51550000D01*
X94400000Y-44650000D02*
X88900000Y-44650000D01*
X94400000Y-51550000D02*
X94400000Y-44650000D01*
G04 #@! TO.C,C32*
X147320000Y-65120000D02*
X150280000Y-65120000D01*
X147320000Y-66580000D02*
X147320000Y-65120000D01*
X150280000Y-65120000D02*
X150280000Y-66580000D01*
X150280000Y-66580000D02*
X147320000Y-66580000D01*
G04 #@! TO.C,C42*
X122820000Y-75470000D02*
X124280000Y-75470000D01*
X122820000Y-78430000D02*
X122820000Y-75470000D01*
X124280000Y-75470000D02*
X124280000Y-78430000D01*
X124280000Y-78430000D02*
X122820000Y-78430000D01*
G04 #@! TO.C,D8*
X83750000Y-84450000D02*
X88250000Y-84450000D01*
X83750000Y-91750000D02*
X83750000Y-84450000D01*
X88250000Y-84450000D02*
X88250000Y-91750000D01*
X88250000Y-91750000D02*
X83750000Y-91750000D01*
G04 #@! TO.C,D11*
X96782500Y-109737500D02*
X100142500Y-109737500D01*
X96782500Y-111637500D02*
X96782500Y-109737500D01*
X100142500Y-109737500D02*
X100142500Y-111637500D01*
X100142500Y-111637500D02*
X96782500Y-111637500D01*
G04 #@! TO.C,R19*
X168661641Y-85456347D02*
X171621641Y-85456347D01*
X168661641Y-86916347D02*
X168661641Y-85456347D01*
X171621641Y-85456347D02*
X171621641Y-86916347D01*
X171621641Y-86916347D02*
X168661641Y-86916347D01*
G04 #@! TO.C,JP2*
X163420000Y-99950001D02*
X163420000Y-103550001D01*
X163420000Y-99950001D02*
X172100000Y-99950001D01*
X172100000Y-103550001D02*
X163420000Y-103550001D01*
X172100000Y-103550001D02*
X172100000Y-99950001D01*
G04 #@! TO.C,C33*
X167269049Y-76479050D02*
X170229049Y-76479050D01*
X167269049Y-77939050D02*
X167269049Y-76479050D01*
X170229049Y-76479050D02*
X170229049Y-77939050D01*
X170229049Y-77939050D02*
X167269049Y-77939050D01*
G04 #@! TO.C,C24*
X147320000Y-101620000D02*
X150280000Y-101620000D01*
X147320000Y-103080000D02*
X147320000Y-101620000D01*
X150280000Y-101620000D02*
X150280000Y-103080000D01*
X150280000Y-103080000D02*
X147320000Y-103080000D01*
D11*
G04 #@! TO.C,CR6*
X172271701Y-102411202D02*
X172271701Y-105352602D01*
X173173401Y-102129302D02*
X173173401Y-102411202D01*
X173173401Y-102129302D02*
X175078401Y-102129302D01*
X173173401Y-102411202D02*
X172271701Y-102411202D01*
X173173401Y-105352602D02*
X172271701Y-105352602D01*
X173173401Y-105634502D02*
X173173401Y-105352602D01*
X175078401Y-102129302D02*
X175078401Y-103361202D01*
X175078401Y-103361202D02*
X175980101Y-103361202D01*
X175078401Y-104402602D02*
X175980101Y-104402602D01*
X175078401Y-105634502D02*
X173173401Y-105634502D01*
X175078401Y-105634502D02*
X175078401Y-104402602D01*
X175980101Y-103361202D02*
X175980101Y-104402602D01*
D10*
G04 #@! TO.C,R41*
X96410000Y-83192500D02*
X98310000Y-83192500D01*
X96410000Y-86552500D02*
X96410000Y-83192500D01*
X98310000Y-83192500D02*
X98310000Y-86552500D01*
X98310000Y-86552500D02*
X96410000Y-86552500D01*
D11*
G04 #@! TO.C,J14*
X97130513Y-43696001D02*
X97130513Y-49924401D01*
X97130513Y-49924401D02*
X110959313Y-49924401D01*
X110959313Y-43696001D02*
X97130513Y-43696001D01*
X110959313Y-49924401D02*
X110959313Y-43696001D01*
G04 #@! TO.C,CR14*
X172494850Y-76709850D02*
X172494850Y-79651250D01*
X173396550Y-76427950D02*
X173396550Y-76709850D01*
X173396550Y-76427950D02*
X175301550Y-76427950D01*
X173396550Y-76709850D02*
X172494850Y-76709850D01*
X173396550Y-79651250D02*
X172494850Y-79651250D01*
X173396550Y-79933150D02*
X173396550Y-79651250D01*
X175301550Y-76427950D02*
X175301550Y-77659850D01*
X175301550Y-77659850D02*
X176203250Y-77659850D01*
X175301550Y-78701250D02*
X176203250Y-78701250D01*
X175301550Y-79933150D02*
X173396550Y-79933150D01*
X175301550Y-79933150D02*
X175301550Y-78701250D01*
X176203250Y-77659850D02*
X176203250Y-78701250D01*
D10*
G04 #@! TO.C,C13*
X63569400Y-121680000D02*
X66529400Y-121680000D01*
X63569400Y-123140000D02*
X63569400Y-121680000D01*
X66529400Y-121680000D02*
X66529400Y-123140000D01*
X66529400Y-123140000D02*
X63569400Y-123140000D01*
G04 #@! TO.C,D15*
X110850000Y-66750000D02*
X110850000Y-68650000D01*
X110850000Y-66750000D02*
X114050000Y-66750000D01*
X110850000Y-68650000D02*
X114050000Y-68650000D01*
X114050000Y-66750000D02*
X114050000Y-68650000D01*
G04 #@! TO.C,R40*
X98610000Y-83192500D02*
X100510000Y-83192500D01*
X98610000Y-86552500D02*
X98610000Y-83192500D01*
X100510000Y-83192500D02*
X100510000Y-86552500D01*
X100510000Y-86552500D02*
X98610000Y-86552500D01*
G04 #@! TO.C,J36*
X76900000Y-44650000D02*
X76900000Y-51550000D01*
X76900000Y-51550000D02*
X82400000Y-51550000D01*
X82400000Y-44650000D02*
X76900000Y-44650000D01*
X82400000Y-51550000D02*
X82400000Y-44650000D01*
G04 #@! TO.C,R21*
X159769740Y-85480050D02*
X162729740Y-85480050D01*
X159769740Y-86940050D02*
X159769740Y-85480050D01*
X162729740Y-85480050D02*
X162729740Y-86940050D01*
X162729740Y-86940050D02*
X159769740Y-86940050D01*
G04 #@! TO.C,C48*
X117616700Y-58844150D02*
X119076700Y-58844150D01*
X117616700Y-61804150D02*
X117616700Y-58844150D01*
X119076700Y-58844150D02*
X119076700Y-61804150D01*
X119076700Y-61804150D02*
X117616700Y-61804150D01*
G04 #@! TO.C,R17*
X160395000Y-112820001D02*
X163355000Y-112820001D01*
X160395000Y-114280001D02*
X160395000Y-112820001D01*
X163355000Y-112820001D02*
X163355000Y-114280001D01*
X163355000Y-114280001D02*
X160395000Y-114280001D01*
D11*
G04 #@! TO.C,C10*
X54930200Y-127771800D02*
X55933500Y-127771800D01*
X54930200Y-129448200D02*
X54930200Y-127771800D01*
X55933500Y-124952400D02*
X63248700Y-124952400D01*
X55933500Y-127771800D02*
X55933500Y-124952400D01*
X55933500Y-129448200D02*
X54930200Y-129448200D01*
X55933500Y-132267600D02*
X55933500Y-129448200D01*
X63248700Y-124952400D02*
X63248700Y-127771800D01*
X63248700Y-127771800D02*
X64252000Y-127771800D01*
X63248700Y-129448200D02*
X63248700Y-132267600D01*
X63248700Y-132267600D02*
X55933500Y-132267600D01*
X64252000Y-127771800D02*
X64252000Y-129448200D01*
X64252000Y-129448200D02*
X63248700Y-129448200D01*
G04 #@! TO.C,CR17*
X172485801Y-58600800D02*
X172485801Y-61542200D01*
X173387501Y-58318900D02*
X173387501Y-58600800D01*
X173387501Y-58318900D02*
X175292501Y-58318900D01*
X173387501Y-58600800D02*
X172485801Y-58600800D01*
X173387501Y-61542200D02*
X172485801Y-61542200D01*
X173387501Y-61824100D02*
X173387501Y-61542200D01*
X175292501Y-58318900D02*
X175292501Y-59550800D01*
X175292501Y-59550800D02*
X176194201Y-59550800D01*
X175292501Y-60592200D02*
X176194201Y-60592200D01*
X175292501Y-61824100D02*
X173387501Y-61824100D01*
X175292501Y-61824100D02*
X175292501Y-60592200D01*
X176194201Y-59550800D02*
X176194201Y-60592200D01*
G04 #@! TO.C,CR13*
X172020751Y-73656046D02*
X172020751Y-72614646D01*
X172922451Y-71382746D02*
X172922451Y-72614646D01*
X172922451Y-71382746D02*
X174827451Y-71382746D01*
X172922451Y-72614646D02*
X172020751Y-72614646D01*
X172922451Y-73656046D02*
X172020751Y-73656046D01*
X172922451Y-74887946D02*
X172922451Y-73656046D01*
X174827451Y-71382746D02*
X174827451Y-71664646D01*
X174827451Y-71664646D02*
X175729151Y-71664646D01*
X174827451Y-74606046D02*
X175729151Y-74606046D01*
X174827451Y-74887946D02*
X172922451Y-74887946D01*
X174827451Y-74887946D02*
X174827451Y-74606046D01*
X175729151Y-74606046D02*
X175729151Y-71664646D01*
D10*
G04 #@! TO.C,R54*
X98850000Y-76920000D02*
X100750000Y-76920000D01*
X98850000Y-80280000D02*
X98850000Y-76920000D01*
X100750000Y-76920000D02*
X100750000Y-80280000D01*
X100750000Y-80280000D02*
X98850000Y-80280000D01*
G04 #@! TO.C,R23*
X160281550Y-76429050D02*
X163241550Y-76429050D01*
X160281550Y-77889050D02*
X160281550Y-76429050D01*
X163241550Y-76429050D02*
X163241550Y-77889050D01*
X163241550Y-77889050D02*
X160281550Y-77889050D01*
G04 #@! TO.C,C6*
X63510000Y-67572500D02*
X64970000Y-67572500D01*
X63510000Y-70532500D02*
X63510000Y-67572500D01*
X64970000Y-67572500D02*
X64970000Y-70532500D01*
X64970000Y-70532500D02*
X63510000Y-70532500D01*
G04 #@! TO.C,C34*
X167294049Y-78079050D02*
X170254049Y-78079050D01*
X167294049Y-79539050D02*
X167294049Y-78079050D01*
X170254049Y-78079050D02*
X170254049Y-79539050D01*
X170254049Y-79539050D02*
X167294049Y-79539050D01*
G04 #@! TO.C,J40*
X52900000Y-44750000D02*
X52900000Y-51650000D01*
X52900000Y-51650000D02*
X58400000Y-51650000D01*
X58400000Y-44750000D02*
X52900000Y-44750000D01*
X58400000Y-51650000D02*
X58400000Y-44750000D01*
G04 #@! TO.C,JP3*
X163674141Y-81756347D02*
X163674141Y-85356347D01*
X163674141Y-81756347D02*
X172354141Y-81756347D01*
X172354141Y-85356347D02*
X163674141Y-85356347D01*
X172354141Y-85356347D02*
X172354141Y-81756347D01*
D11*
G04 #@! TO.C,CR7*
X171871701Y-109552601D02*
X171871701Y-108511201D01*
X172773401Y-107279301D02*
X172773401Y-108511201D01*
X172773401Y-107279301D02*
X174678401Y-107279301D01*
X172773401Y-108511201D02*
X171871701Y-108511201D01*
X172773401Y-109552601D02*
X171871701Y-109552601D01*
X172773401Y-110784501D02*
X172773401Y-109552601D01*
X174678401Y-107279301D02*
X174678401Y-107561201D01*
X174678401Y-107561201D02*
X175580101Y-107561201D01*
X174678401Y-110502601D02*
X175580101Y-110502601D01*
X174678401Y-110784501D02*
X172773401Y-110784501D01*
X174678401Y-110784501D02*
X174678401Y-110502601D01*
X175580101Y-110502601D02*
X175580101Y-107561201D01*
G04 #@! TO.C,J4*
X177292050Y-63977849D02*
X177292050Y-80640249D01*
X177292050Y-80640249D02*
X186563050Y-80640249D01*
X186563050Y-63977849D02*
X177292050Y-63977849D01*
X186563050Y-80640249D02*
X186563050Y-63977849D01*
G04 #@! TO.C,CR9*
X172374990Y-85630299D02*
X172374990Y-88571699D01*
X173276690Y-85348399D02*
X173276690Y-85630299D01*
X173276690Y-85348399D02*
X175181690Y-85348399D01*
X173276690Y-85630299D02*
X172374990Y-85630299D01*
X173276690Y-88571699D02*
X172374990Y-88571699D01*
X173276690Y-88853599D02*
X173276690Y-88571699D01*
X175181690Y-85348399D02*
X175181690Y-86580299D01*
X175181690Y-86580299D02*
X176083390Y-86580299D01*
X175181690Y-87621699D02*
X176083390Y-87621699D01*
X175181690Y-88853599D02*
X173276690Y-88853599D01*
X175181690Y-88853599D02*
X175181690Y-87621699D01*
X176083390Y-86580299D02*
X176083390Y-87621699D01*
D10*
G04 #@! TO.C,R2*
X69120000Y-78912500D02*
X72480000Y-78912500D01*
X69120000Y-80812500D02*
X69120000Y-78912500D01*
X72480000Y-78912500D02*
X72480000Y-80812500D01*
X72480000Y-80812500D02*
X69120000Y-80812500D01*
G04 #@! TO.C,R36*
X133970000Y-51550000D02*
X137330000Y-51550000D01*
X133970000Y-53450000D02*
X133970000Y-51550000D01*
X137330000Y-51550000D02*
X137330000Y-53450000D01*
X137330000Y-53450000D02*
X133970000Y-53450000D01*
G04 #@! TO.C,R38*
X132310000Y-78670000D02*
X134210000Y-78670000D01*
X132310000Y-82030000D02*
X132310000Y-78670000D01*
X134210000Y-78670000D02*
X134210000Y-82030000D01*
X134210000Y-82030000D02*
X132310000Y-82030000D01*
G04 #@! TO.C,R18*
X159765599Y-103638100D02*
X162725599Y-103638100D01*
X159765599Y-105098100D02*
X159765599Y-103638100D01*
X162725599Y-103638100D02*
X162725599Y-105098100D01*
X162725599Y-105098100D02*
X159765599Y-105098100D01*
D11*
G04 #@! TO.C,K1*
X88356000Y-81066000D02*
X89755999Y-81066000D01*
X88356000Y-84914000D02*
X88356000Y-81066000D01*
X88356000Y-84914000D02*
X89755999Y-84914000D01*
X89755999Y-80886000D02*
X94814000Y-80886000D01*
X89755999Y-81066000D02*
X89755999Y-80886000D01*
X89755999Y-85094000D02*
X89755999Y-84914000D01*
X94814000Y-80886000D02*
X94814000Y-81066000D01*
X94814000Y-81066000D02*
X96214000Y-81066000D01*
X94814000Y-84914000D02*
X94814000Y-85094000D01*
X94814000Y-85094000D02*
X89755999Y-85094000D01*
X96214000Y-81066000D02*
X96214000Y-84914000D01*
X96214000Y-84914000D02*
X94814000Y-84914000D01*
D10*
G04 #@! TO.C,R30*
X121066699Y-61551748D02*
X124026699Y-61551748D01*
X121066699Y-63011748D02*
X121066699Y-61551748D01*
X124026699Y-61551748D02*
X124026699Y-63011748D01*
X124026699Y-63011748D02*
X121066699Y-63011748D01*
G04 #@! TO.C,C55*
X132250000Y-51545000D02*
X133710000Y-51545000D01*
X132250000Y-54505000D02*
X132250000Y-51545000D01*
X133710000Y-51545000D02*
X133710000Y-54505000D01*
X133710000Y-54505000D02*
X132250000Y-54505000D01*
G04 #@! TO.C,D6*
X65899400Y-103430000D02*
X67799400Y-103430000D01*
X65899400Y-106790000D02*
X65899400Y-103430000D01*
X67799400Y-103430000D02*
X67799400Y-106790000D01*
X67799400Y-106790000D02*
X65899400Y-106790000D01*
G04 #@! TO.C,R12*
X62359400Y-105050000D02*
X65719400Y-105050000D01*
X62359400Y-106950000D02*
X62359400Y-105050000D01*
X65719400Y-105050000D02*
X65719400Y-106950000D01*
X65719400Y-106950000D02*
X62359400Y-106950000D01*
D11*
G04 #@! TO.C,J25*
X77246001Y-93685600D02*
X77246001Y-107514400D01*
X77246001Y-107514400D02*
X83474401Y-107514400D01*
X83474401Y-93685600D02*
X77246001Y-93685600D01*
X83474401Y-107514400D02*
X83474401Y-93685600D01*
D10*
G04 #@! TO.C,U5*
X146699999Y-115980000D02*
X146699999Y-103230000D01*
X158200001Y-103230000D02*
X146699999Y-103230000D01*
X158200001Y-115980000D02*
X146699999Y-115980000D01*
X158200001Y-115980000D02*
X158200001Y-103230000D01*
G04 #@! TO.C,D7*
X96480000Y-80410000D02*
X99840000Y-80410000D01*
X96480000Y-82310000D02*
X96480000Y-80410000D01*
X99840000Y-80410000D02*
X99840000Y-82310000D01*
X99840000Y-82310000D02*
X96480000Y-82310000D01*
D11*
G04 #@! TO.C,U13*
X87257000Y-123887600D02*
X99271200Y-123887600D01*
X87257000Y-139432400D02*
X87257000Y-123887600D01*
X99271200Y-123887600D02*
X99271200Y-139432400D01*
X99271200Y-139432400D02*
X87257000Y-139432400D01*
D10*
G04 #@! TO.C,D4*
X70450000Y-130300000D02*
X70450000Y-125800000D01*
X72650000Y-125800000D02*
X70450000Y-125800000D01*
X72650000Y-125800000D02*
X72650000Y-130300000D01*
X72650000Y-130300000D02*
X70450000Y-130300000D01*
G04 #@! TO.C,D5*
X70099400Y-122280000D02*
X71999400Y-122280000D01*
X70099400Y-125640000D02*
X70099400Y-122280000D01*
X71999400Y-122280000D02*
X71999400Y-125640000D01*
X71999400Y-125640000D02*
X70099400Y-125640000D01*
G04 #@! TO.C,J35*
X82900000Y-44650000D02*
X82900000Y-51550000D01*
X82900000Y-51550000D02*
X88400000Y-51550000D01*
X88400000Y-44650000D02*
X82900000Y-44650000D01*
X88400000Y-51550000D02*
X88400000Y-44650000D01*
G04 #@! TO.C,D2*
X70850000Y-81745000D02*
X72750000Y-81745000D01*
X70850000Y-85105000D02*
X70850000Y-81745000D01*
X72750000Y-81745000D02*
X72750000Y-85105000D01*
X72750000Y-85105000D02*
X70850000Y-85105000D01*
G04 #@! TO.C,U3*
X146699999Y-134280001D02*
X146699999Y-121530001D01*
X158200001Y-121530001D02*
X146699999Y-121530001D01*
X158200001Y-134280001D02*
X146699999Y-134280001D01*
X158200001Y-134280001D02*
X158200001Y-121530001D01*
G04 #@! TO.C,R51*
X103250000Y-77007500D02*
X105150000Y-77007500D01*
X103250000Y-80367500D02*
X103250000Y-77007500D01*
X105150000Y-77007500D02*
X105150000Y-80367500D01*
X105150000Y-80367500D02*
X103250000Y-80367500D01*
G04 #@! TO.C,R26*
X160176001Y-58396297D02*
X163136001Y-58396297D01*
X160176001Y-59856297D02*
X160176001Y-58396297D01*
X163136001Y-58396297D02*
X163136001Y-59856297D01*
X163136001Y-59856297D02*
X160176001Y-59856297D01*
G04 #@! TO.C,C51*
X117616700Y-51944150D02*
X119076700Y-51944150D01*
X117616700Y-54904150D02*
X117616700Y-51944150D01*
X119076700Y-51944150D02*
X119076700Y-54904150D01*
X119076700Y-54904150D02*
X117616700Y-54904150D01*
D11*
G04 #@! TO.C,CR8*
X172545799Y-113000801D02*
X172545799Y-115942201D01*
X173447499Y-112718901D02*
X173447499Y-113000801D01*
X173447499Y-112718901D02*
X175352499Y-112718901D01*
X173447499Y-113000801D02*
X172545799Y-113000801D01*
X173447499Y-115942201D02*
X172545799Y-115942201D01*
X173447499Y-116224101D02*
X173447499Y-115942201D01*
X175352499Y-112718901D02*
X175352499Y-113950801D01*
X175352499Y-113950801D02*
X176254199Y-113950801D01*
X175352499Y-114992201D02*
X176254199Y-114992201D01*
X175352499Y-116224101D02*
X173447499Y-116224101D01*
X175352499Y-116224101D02*
X175352499Y-114992201D01*
X176254199Y-113950801D02*
X176254199Y-114992201D01*
D10*
G04 #@! TO.C,C28*
X147278099Y-83343703D02*
X150238099Y-83343703D01*
X147278099Y-84803703D02*
X147278099Y-83343703D01*
X150238099Y-83343703D02*
X150238099Y-84803703D01*
X150238099Y-84803703D02*
X147278099Y-84803703D01*
G04 #@! TO.C,D18*
X100880000Y-66700000D02*
X100880000Y-68600000D01*
X100880000Y-66700000D02*
X104080000Y-66700000D01*
X100880000Y-68600000D02*
X104080000Y-68600000D01*
X104080000Y-66700000D02*
X104080000Y-68600000D01*
D11*
G04 #@! TO.C,K2*
X88396000Y-95793500D02*
X89795999Y-95793500D01*
X88396000Y-99641500D02*
X88396000Y-95793500D01*
X88396000Y-99641500D02*
X89795999Y-99641500D01*
X89795999Y-95613500D02*
X94854000Y-95613500D01*
X89795999Y-95793500D02*
X89795999Y-95613500D01*
X89795999Y-99821500D02*
X89795999Y-99641500D01*
X94854000Y-95613500D02*
X94854000Y-95793500D01*
X94854000Y-95793500D02*
X96254000Y-95793500D01*
X94854000Y-99641500D02*
X94854000Y-99821500D01*
X94854000Y-99821500D02*
X89795999Y-99821500D01*
X96254000Y-95793500D02*
X96254000Y-99641500D01*
X96254000Y-99641500D02*
X94854000Y-99641500D01*
D10*
G04 #@! TO.C,C25*
X167319999Y-112770001D02*
X170279999Y-112770001D01*
X167319999Y-114230001D02*
X167319999Y-112770001D01*
X170279999Y-112770001D02*
X170279999Y-114230001D01*
X170279999Y-114230001D02*
X167319999Y-114230001D01*
G04 #@! TO.C,C14*
X62344400Y-112230000D02*
X65304400Y-112230000D01*
X62344400Y-113690000D02*
X62344400Y-112230000D01*
X65304400Y-112230000D02*
X65304400Y-113690000D01*
X65304400Y-113690000D02*
X62344400Y-113690000D01*
G04 #@! TO.C,C15*
X62369400Y-109080000D02*
X63829400Y-109080000D01*
X62369400Y-112040000D02*
X62369400Y-109080000D01*
X63829400Y-109080000D02*
X63829400Y-112040000D01*
X63829400Y-112040000D02*
X62369400Y-112040000D01*
G04 #@! TO.C,J33*
X83750000Y-71400000D02*
X83750000Y-76900000D01*
X83750000Y-76900000D02*
X92650000Y-76900000D01*
X92650000Y-71400000D02*
X83750000Y-71400000D01*
X92650000Y-76900000D02*
X92650000Y-71400000D01*
G04 #@! TO.C,J11*
X133110000Y-135080000D02*
X133110000Y-138620000D01*
X133110000Y-138620000D02*
X144270000Y-138620000D01*
X144270000Y-135080000D02*
X133110000Y-135080000D01*
X144270000Y-138620000D02*
X144270000Y-135080000D01*
G04 #@! TO.C,C52*
X132250000Y-58320000D02*
X133710000Y-58320000D01*
X132250000Y-61280000D02*
X132250000Y-58320000D01*
X133710000Y-58320000D02*
X133710000Y-61280000D01*
X133710000Y-61280000D02*
X132250000Y-61280000D01*
D11*
G04 #@! TO.C,U15*
X103901800Y-55477950D02*
X104219300Y-55477950D01*
X103901800Y-59973750D02*
X103901800Y-55477950D01*
X104219300Y-54017450D02*
X104219300Y-55477950D01*
X104219300Y-54017450D02*
X109070700Y-54017450D01*
X104219300Y-59973750D02*
X103901800Y-59973750D01*
X104219300Y-61434250D02*
X104219300Y-59973750D01*
X109070700Y-54017450D02*
X109070700Y-55477950D01*
X109070700Y-55477950D02*
X109388200Y-55477950D01*
X109070700Y-61434250D02*
X104219300Y-61434250D01*
X109070700Y-61434250D02*
X109070700Y-59973750D01*
X109388200Y-55477950D02*
X109388200Y-59973750D01*
X109388200Y-59973750D02*
X109070700Y-59973750D01*
D10*
G04 #@! TO.C,C12*
X63499400Y-123380000D02*
X66899400Y-123380000D01*
X63499400Y-125340000D02*
X63499400Y-123380000D01*
X66899400Y-123380000D02*
X66899400Y-125340000D01*
X66899400Y-125340000D02*
X63499400Y-125340000D01*
D11*
G04 #@! TO.C,L2*
X49147000Y-102207600D02*
X52791900Y-102207600D01*
X49147000Y-115212400D02*
X49147000Y-102207600D01*
X52791900Y-102207600D02*
X52791900Y-102207600D01*
X52791900Y-102207600D02*
X58506900Y-102207600D01*
X52791900Y-115212400D02*
X49147000Y-115212400D01*
X52791900Y-115212400D02*
X52791900Y-115212400D01*
X58506900Y-102207600D02*
X58506900Y-102207600D01*
X58506900Y-102207600D02*
X62151800Y-102207600D01*
X58506900Y-115212400D02*
X52791900Y-115212400D01*
X58506900Y-115212400D02*
X58506900Y-115212400D01*
X62151800Y-102207600D02*
X62151800Y-115212400D01*
X62151800Y-115212400D02*
X58506900Y-115212400D01*
D10*
G04 #@! TO.C,J30*
X72567938Y-59397500D02*
X72567938Y-64897500D01*
X72567938Y-64897500D02*
X81467938Y-64897500D01*
X81467938Y-59397500D02*
X72567938Y-59397500D01*
X81467938Y-64897500D02*
X81467938Y-59397500D01*
G04 #@! TO.C,J32*
X72567938Y-65397500D02*
X72567938Y-70897500D01*
X72567938Y-70897500D02*
X81467938Y-70897500D01*
X81467938Y-65397500D02*
X72567938Y-65397500D01*
X81467938Y-70897500D02*
X81467938Y-65397500D01*
G04 #@! TO.C,R25*
X168013501Y-49296297D02*
X170973501Y-49296297D01*
X168013501Y-50756297D02*
X168013501Y-49296297D01*
X170973501Y-49296297D02*
X170973501Y-50756297D01*
X170973501Y-50756297D02*
X168013501Y-50756297D01*
G04 #@! TO.C,R52*
X78937938Y-56447500D02*
X82297938Y-56447500D01*
X78937938Y-58347500D02*
X78937938Y-56447500D01*
X82297938Y-56447500D02*
X82297938Y-58347500D01*
X82297938Y-58347500D02*
X78937938Y-58347500D01*
G04 #@! TO.C,R31*
X126530000Y-79620000D02*
X127990000Y-79620000D01*
X126530000Y-82580000D02*
X126530000Y-79620000D01*
X127990000Y-79620000D02*
X127990000Y-82580000D01*
X127990000Y-82580000D02*
X126530000Y-82580000D01*
G04 #@! TO.C,R37*
X124310000Y-78670000D02*
X126210000Y-78670000D01*
X124310000Y-82030000D02*
X124310000Y-78670000D01*
X126210000Y-78670000D02*
X126210000Y-82030000D01*
X126210000Y-82030000D02*
X124310000Y-82030000D01*
G04 #@! TO.C,FB3*
X145151800Y-118100000D02*
X146611800Y-118100000D01*
X145151800Y-121400000D02*
X145151800Y-118100000D01*
X146611800Y-118100000D02*
X146611800Y-121400000D01*
X146611800Y-121400000D02*
X145151800Y-121400000D01*
G04 #@! TO.C,FB8*
X121070000Y-65300000D02*
X122530000Y-65300000D01*
X121070000Y-68600000D02*
X121070000Y-65300000D01*
X122530000Y-65300000D02*
X122530000Y-68600000D01*
X122530000Y-68600000D02*
X121070000Y-68600000D01*
G04 #@! TO.C,J39*
X58900000Y-44650000D02*
X58900000Y-51550000D01*
X58900000Y-51550000D02*
X64400000Y-51550000D01*
X64400000Y-44650000D02*
X58900000Y-44650000D01*
X64400000Y-51550000D02*
X64400000Y-44650000D01*
G04 #@! TO.C,R15*
X159895001Y-121819999D02*
X162855001Y-121819999D01*
X159895001Y-123279999D02*
X159895001Y-121819999D01*
X162855001Y-121819999D02*
X162855001Y-123279999D01*
X162855001Y-123279999D02*
X159895001Y-123279999D01*
G04 #@! TO.C,FB6*
X145070000Y-63300000D02*
X146530000Y-63300000D01*
X145070000Y-66600000D02*
X145070000Y-63300000D01*
X146530000Y-63300000D02*
X146530000Y-66600000D01*
X146530000Y-66600000D02*
X145070000Y-66600000D01*
D11*
G04 #@! TO.C,U16*
X119403500Y-55376250D02*
X119721000Y-55376250D01*
X119403500Y-59872050D02*
X119403500Y-55376250D01*
X119721000Y-53915750D02*
X119721000Y-55376250D01*
X119721000Y-53915750D02*
X124572400Y-53915750D01*
X119721000Y-59872050D02*
X119403500Y-59872050D01*
X119721000Y-61332550D02*
X119721000Y-59872050D01*
X124572400Y-53915750D02*
X124572400Y-55376250D01*
X124572400Y-55376250D02*
X124889900Y-55376250D01*
X124572400Y-61332550D02*
X119721000Y-61332550D01*
X124572400Y-61332550D02*
X124572400Y-59872050D01*
X124889900Y-55376250D02*
X124889900Y-59872050D01*
X124889900Y-59872050D02*
X124572400Y-59872050D01*
D10*
G04 #@! TO.C,C8*
X63600000Y-65482500D02*
X67000000Y-65482500D01*
X63600000Y-67442500D02*
X63600000Y-65482500D01*
X67000000Y-65482500D02*
X67000000Y-67442500D01*
X67000000Y-67442500D02*
X63600000Y-67442500D01*
G04 #@! TO.C,C44*
X102270000Y-58450400D02*
X103730000Y-58450400D01*
X102270000Y-61410400D02*
X102270000Y-58450400D01*
X103730000Y-58450400D02*
X103730000Y-61410400D01*
X103730000Y-61410400D02*
X102270000Y-61410400D01*
G04 #@! TO.C,R1*
X66620000Y-87412500D02*
X69980000Y-87412500D01*
X66620000Y-89312500D02*
X66620000Y-87412500D01*
X69980000Y-87412500D02*
X69980000Y-89312500D01*
X69980000Y-89312500D02*
X66620000Y-89312500D01*
D11*
G04 #@! TO.C,U2*
X62088500Y-115386250D02*
X62406000Y-115386250D01*
X62088500Y-119882050D02*
X62088500Y-115386250D01*
X62406000Y-113925750D02*
X62406000Y-115386250D01*
X62406000Y-113925750D02*
X67282800Y-113925750D01*
X62406000Y-119882050D02*
X62088500Y-119882050D01*
X62406000Y-121342550D02*
X62406000Y-119882050D01*
X67282800Y-113925750D02*
X67282800Y-115386250D01*
X67282800Y-115386250D02*
X67600300Y-115386250D01*
X67282800Y-121342550D02*
X62406000Y-121342550D01*
X67282800Y-121342550D02*
X67282800Y-119882050D01*
X67600300Y-115386250D02*
X67600300Y-119882050D01*
X67600300Y-119882050D02*
X67282800Y-119882050D01*
D10*
G04 #@! TO.C,D12*
X83850000Y-113600000D02*
X88350000Y-113600000D01*
X83850000Y-120900000D02*
X83850000Y-113600000D01*
X88350000Y-113600000D02*
X88350000Y-120900000D01*
X88350000Y-120900000D02*
X83850000Y-120900000D01*
G04 #@! TO.C,R22*
X167944050Y-67329050D02*
X170904050Y-67329050D01*
X167944050Y-68789050D02*
X167944050Y-67329050D01*
X170904050Y-67329050D02*
X170904050Y-68789050D01*
X170904050Y-68789050D02*
X167944050Y-68789050D01*
G04 #@! TO.C,R42*
X98550000Y-97707500D02*
X100450000Y-97707500D01*
X98550000Y-101067500D02*
X98550000Y-97707500D01*
X100450000Y-97707500D02*
X100450000Y-101067500D01*
X100450000Y-101067500D02*
X98550000Y-101067500D01*
G04 #@! TO.C,C49*
X117616700Y-55044150D02*
X119076700Y-55044150D01*
X117616700Y-58004150D02*
X117616700Y-55044150D01*
X119076700Y-55044150D02*
X119076700Y-58004150D01*
X119076700Y-58004150D02*
X117616700Y-58004150D01*
G04 #@! TO.C,C21*
X167320001Y-130969999D02*
X170280001Y-130969999D01*
X167320001Y-132429999D02*
X167320001Y-130969999D01*
X170280001Y-130969999D02*
X170280001Y-132429999D01*
X170280001Y-132429999D02*
X167320001Y-132429999D01*
G04 #@! TO.C,D14*
X114200000Y-66750000D02*
X114200000Y-68650000D01*
X114200000Y-66750000D02*
X117400000Y-66750000D01*
X114200000Y-68650000D02*
X117400000Y-68650000D01*
X117400000Y-66750000D02*
X117400000Y-68650000D01*
G04 #@! TO.C,R5*
X66660000Y-69022500D02*
X69620000Y-69022500D01*
X66660000Y-70482500D02*
X66660000Y-69022500D01*
X69620000Y-69022500D02*
X69620000Y-70482500D01*
X69620000Y-70482500D02*
X66660000Y-70482500D01*
G04 #@! TO.C,J31*
X83750000Y-65400000D02*
X83750000Y-70900000D01*
X83750000Y-70900000D02*
X92650000Y-70900000D01*
X92650000Y-65400000D02*
X83750000Y-65400000D01*
X92650000Y-70900000D02*
X92650000Y-65400000D01*
G04 #@! TO.C,C43*
X122770000Y-65345000D02*
X124230000Y-65345000D01*
X122770000Y-68305000D02*
X122770000Y-65345000D01*
X124230000Y-65345000D02*
X124230000Y-68305000D01*
X124230000Y-68305000D02*
X122770000Y-68305000D01*
G04 #@! TO.C,C11*
X63499400Y-125580000D02*
X66899400Y-125580000D01*
X63499400Y-127540000D02*
X63499400Y-125580000D01*
X66899400Y-125580000D02*
X66899400Y-127540000D01*
X66899400Y-127540000D02*
X63499400Y-127540000D01*
G04 #@! TO.C,J20*
X44750000Y-76700000D02*
X44750000Y-87700000D01*
X44750000Y-87700000D02*
X53750000Y-87700000D01*
X53750000Y-76700000D02*
X44750000Y-76700000D01*
X53750000Y-87700000D02*
X53750000Y-76700000D01*
G04 #@! TO.C,U7*
X146658098Y-97703703D02*
X146658098Y-84953703D01*
X158158100Y-84953703D02*
X146658098Y-84953703D01*
X158158100Y-97703703D02*
X146658098Y-97703703D01*
X158158100Y-97703703D02*
X158158100Y-84953703D01*
G04 #@! TO.C,D17*
X104180000Y-66700000D02*
X104180000Y-68600000D01*
X104180000Y-66700000D02*
X107380000Y-66700000D01*
X104180000Y-68600000D02*
X107380000Y-68600000D01*
X107380000Y-66700000D02*
X107380000Y-68600000D01*
G04 #@! TO.C,R_ESR1*
X67130000Y-65822500D02*
X68590000Y-65822500D01*
X67130000Y-68782500D02*
X67130000Y-65822500D01*
X68590000Y-65822500D02*
X68590000Y-68782500D01*
X68590000Y-68782500D02*
X67130000Y-68782500D01*
G04 #@! TO.C,C56*
X127950000Y-82620000D02*
X131350000Y-82620000D01*
X127950000Y-84580000D02*
X127950000Y-82620000D01*
X131350000Y-82620000D02*
X131350000Y-84580000D01*
X131350000Y-84580000D02*
X127950000Y-84580000D01*
D11*
G04 #@! TO.C,CR12*
X172420751Y-66914647D02*
X172420751Y-69856047D01*
X173322451Y-66632747D02*
X173322451Y-66914647D01*
X173322451Y-66632747D02*
X175227451Y-66632747D01*
X173322451Y-66914647D02*
X172420751Y-66914647D01*
X173322451Y-69856047D02*
X172420751Y-69856047D01*
X173322451Y-70137947D02*
X173322451Y-69856047D01*
X175227451Y-66632747D02*
X175227451Y-67864647D01*
X175227451Y-67864647D02*
X176129151Y-67864647D01*
X175227451Y-68906047D02*
X176129151Y-68906047D01*
X175227451Y-70137947D02*
X173322451Y-70137947D01*
X175227451Y-70137947D02*
X175227451Y-68906047D01*
X176129151Y-67864647D02*
X176129151Y-68906047D01*
D10*
G04 #@! TO.C,J24*
X88990000Y-100430000D02*
X88990000Y-106520000D01*
X88990000Y-106520000D02*
X95080000Y-106520000D01*
X95080000Y-100430000D02*
X88990000Y-100430000D01*
X95080000Y-106520000D02*
X95080000Y-100430000D01*
G04 #@! TO.C,R_ESR2*
X65869400Y-107430000D02*
X67329400Y-107430000D01*
X65869400Y-110390000D02*
X65869400Y-107430000D01*
X67329400Y-107430000D02*
X67329400Y-110390000D01*
X67329400Y-110390000D02*
X65869400Y-110390000D01*
G04 #@! TO.C,R27*
X160113501Y-49196297D02*
X163073501Y-49196297D01*
X160113501Y-50656297D02*
X160113501Y-49196297D01*
X163073501Y-49196297D02*
X163073501Y-50656297D01*
X163073501Y-50656297D02*
X160113501Y-50656297D01*
G04 #@! TO.C,R16*
X168357500Y-103720001D02*
X171317500Y-103720001D01*
X168357500Y-105180001D02*
X168357500Y-103720001D01*
X171317500Y-103720001D02*
X171317500Y-105180001D01*
X171317500Y-105180001D02*
X168357500Y-105180001D01*
G04 #@! TO.C,C50*
X122666700Y-51994150D02*
X125626700Y-51994150D01*
X122666700Y-53454150D02*
X122666700Y-51994150D01*
X125626700Y-51994150D02*
X125626700Y-53454150D01*
X125626700Y-53454150D02*
X122666700Y-53454150D01*
G04 #@! TO.C,C53*
X132250000Y-54645000D02*
X133710000Y-54645000D01*
X132250000Y-57605000D02*
X132250000Y-54645000D01*
X133710000Y-54645000D02*
X133710000Y-57605000D01*
X133710000Y-57605000D02*
X132250000Y-57605000D01*
G04 #@! TO.C,R6*
X63660000Y-63502500D02*
X67020000Y-63502500D01*
X63660000Y-65402500D02*
X63660000Y-63502500D01*
X67020000Y-63502500D02*
X67020000Y-65402500D01*
X67020000Y-65402500D02*
X63660000Y-65402500D01*
G04 #@! TO.C,U4*
X160055001Y-124924999D02*
X160255001Y-124924999D01*
X160055001Y-129324999D02*
X160055001Y-124924999D01*
X160255001Y-123424999D02*
X170255001Y-123424999D01*
X160255001Y-124924999D02*
X160255001Y-123424999D01*
X160255001Y-129324999D02*
X160055001Y-129324999D01*
X160255001Y-130824999D02*
X160255001Y-129324999D01*
X170255001Y-123424999D02*
X170255001Y-124924999D01*
X170255001Y-124924999D02*
X170455001Y-124924999D01*
X170255001Y-129324999D02*
X170255001Y-130824999D01*
X170255001Y-130824999D02*
X160255001Y-130824999D01*
X170455001Y-124924999D02*
X170455001Y-129324999D01*
X170455001Y-129324999D02*
X170255001Y-129324999D01*
G04 #@! TO.C,R29*
X135475000Y-61444150D02*
X138435000Y-61444150D01*
X135475000Y-62904150D02*
X135475000Y-61444150D01*
X138435000Y-61444150D02*
X138435000Y-62904150D01*
X138435000Y-62904150D02*
X135475000Y-62904150D01*
G04 #@! TO.C,C35*
X145051499Y-59618703D02*
X146511499Y-59618703D01*
X145051499Y-62578703D02*
X145051499Y-59618703D01*
X146511499Y-59618703D02*
X146511499Y-62578703D01*
X146511499Y-62578703D02*
X145051499Y-62578703D01*
D11*
G04 #@! TO.C,J3*
X177305240Y-82128849D02*
X177305240Y-98791249D01*
X177305240Y-98791249D02*
X186576240Y-98791249D01*
X186576240Y-82128849D02*
X177305240Y-82128849D01*
X186576240Y-98791249D02*
X186576240Y-82128849D01*
D10*
G04 #@! TO.C,J8*
X141338099Y-85873702D02*
X141338099Y-97033702D01*
X141338099Y-97033702D02*
X144878099Y-97033702D01*
X144878099Y-85873702D02*
X141338099Y-85873702D01*
X144878099Y-97033702D02*
X144878099Y-85873702D01*
G04 #@! TO.C,C29*
X167249141Y-94659149D02*
X170209141Y-94659149D01*
X167249141Y-96119149D02*
X167249141Y-94659149D01*
X170209141Y-94659149D02*
X170209141Y-96119149D01*
X170209141Y-96119149D02*
X167249141Y-96119149D01*
D11*
G04 #@! TO.C,J5*
X177283001Y-45868799D02*
X177283001Y-62531199D01*
X177283001Y-62531199D02*
X186554001Y-62531199D01*
X186554001Y-45868799D02*
X177283001Y-45868799D01*
X186554001Y-62531199D02*
X186554001Y-45868799D01*
D10*
G04 #@! TO.C,C30*
X167307239Y-96230050D02*
X170267239Y-96230050D01*
X167307239Y-97690050D02*
X167307239Y-96230050D01*
X170267239Y-96230050D02*
X170267239Y-97690050D01*
X170267239Y-97690050D02*
X167307239Y-97690050D01*
G04 #@! TO.C,C5*
X63570000Y-71132500D02*
X66530000Y-71132500D01*
X63570000Y-72592500D02*
X63570000Y-71132500D01*
X66530000Y-71132500D02*
X66530000Y-72592500D01*
X66530000Y-72592500D02*
X63570000Y-72592500D01*
G04 #@! TO.C,R53*
X78925438Y-53897500D02*
X82285438Y-53897500D01*
X78925438Y-55797500D02*
X78925438Y-53897500D01*
X82285438Y-53897500D02*
X82285438Y-55797500D01*
X82285438Y-55797500D02*
X78925438Y-55797500D01*
G04 #@! TO.C,R48*
X112800000Y-77020000D02*
X114700000Y-77020000D01*
X112800000Y-80380000D02*
X112800000Y-77020000D01*
X114700000Y-77020000D02*
X114700000Y-80380000D01*
X114700000Y-80380000D02*
X112800000Y-80380000D01*
G04 #@! TO.C,R34*
X103907500Y-51671300D02*
X107267500Y-51671300D01*
X103907500Y-53571300D02*
X103907500Y-51671300D01*
X107267500Y-51671300D02*
X107267500Y-53571300D01*
X107267500Y-53571300D02*
X103907500Y-53571300D01*
G04 #@! TO.C,R46*
X117850000Y-77020000D02*
X119750000Y-77020000D01*
X117850000Y-80380000D02*
X117850000Y-77020000D01*
X119750000Y-77020000D02*
X119750000Y-80380000D01*
X119750000Y-80380000D02*
X117850000Y-80380000D01*
G04 #@! TO.C,C3*
X65100000Y-82382500D02*
X68500000Y-82382500D01*
X65100000Y-84342500D02*
X65100000Y-82382500D01*
X68500000Y-82382500D02*
X68500000Y-84342500D01*
X68500000Y-84342500D02*
X65100000Y-84342500D01*
G04 #@! TO.C,C57*
X107320000Y-86000000D02*
X109280000Y-86000000D01*
X107320000Y-89400000D02*
X107320000Y-86000000D01*
X109280000Y-86000000D02*
X109280000Y-89400000D01*
X109280000Y-89400000D02*
X107320000Y-89400000D01*
G04 #@! TO.C,J28*
X72447938Y-53067500D02*
X72447938Y-59157500D01*
X72447938Y-59157500D02*
X78537938Y-59157500D01*
X78537938Y-53067500D02*
X72447938Y-53067500D01*
X78537938Y-59157500D02*
X78537938Y-53067500D01*
G04 #@! TO.C,FB2*
X64599400Y-127910000D02*
X66299400Y-127910000D01*
X64599400Y-131410000D02*
X64599400Y-127910000D01*
X66299400Y-127910000D02*
X66299400Y-131410000D01*
X66299400Y-131410000D02*
X64599400Y-131410000D01*
G04 #@! TO.C,JP4*
X163720000Y-63100000D02*
X163720000Y-66700000D01*
X163720000Y-63100000D02*
X172400000Y-63100000D01*
X172400000Y-66700000D02*
X163720000Y-66700000D01*
X172400000Y-66700000D02*
X172400000Y-63100000D01*
G04 #@! TO.C,U12*
X159995001Y-52325000D02*
X160195001Y-52325000D01*
X159995001Y-56725000D02*
X159995001Y-52325000D01*
X160195001Y-50825000D02*
X170195001Y-50825000D01*
X160195001Y-52325000D02*
X160195001Y-50825000D01*
X160195001Y-56725000D02*
X159995001Y-56725000D01*
X160195001Y-58225000D02*
X160195001Y-56725000D01*
X170195001Y-50825000D02*
X170195001Y-52325000D01*
X170195001Y-52325000D02*
X170395001Y-52325000D01*
X170195001Y-56725000D02*
X170195001Y-58225000D01*
X170195001Y-58225000D02*
X160195001Y-58225000D01*
X170395001Y-52325000D02*
X170395001Y-56725000D01*
X170395001Y-56725000D02*
X170195001Y-56725000D01*
G04 #@! TO.C,A1*
X132450000Y-137010000D02*
X125410000Y-137010000D01*
X125410000Y-138560000D01*
X116410000Y-138560000D01*
X116410000Y-137010000D01*
X109370000Y-137010000D01*
X109370000Y-84710000D01*
X132450000Y-84710000D01*
X132450000Y-137010000D01*
G04 #@! TO.C,R43*
X96450000Y-97707500D02*
X98350000Y-97707500D01*
X96450000Y-101067500D02*
X96450000Y-97707500D01*
X98350000Y-97707500D02*
X98350000Y-101067500D01*
X98350000Y-101067500D02*
X96450000Y-101067500D01*
G04 #@! TO.C,U8*
X160017240Y-88585050D02*
X160217240Y-88585050D01*
X160017240Y-92985050D02*
X160017240Y-88585050D01*
X160217240Y-87085050D02*
X170217240Y-87085050D01*
X160217240Y-88585050D02*
X160217240Y-87085050D01*
X160217240Y-92985050D02*
X160017240Y-92985050D01*
X160217240Y-94485050D02*
X160217240Y-92985050D01*
X170217240Y-87085050D02*
X170217240Y-88585050D01*
X170217240Y-88585050D02*
X170417240Y-88585050D01*
X170217240Y-92985050D02*
X170217240Y-94485050D01*
X170217240Y-94485050D02*
X160217240Y-94485050D01*
X170417240Y-88585050D02*
X170417240Y-92985050D01*
X170417240Y-92985050D02*
X170217240Y-92985050D01*
G04 #@! TO.C,C9*
X63600000Y-61432500D02*
X67000000Y-61432500D01*
X63600000Y-63392500D02*
X63600000Y-61432500D01*
X67000000Y-61432500D02*
X67000000Y-63392500D01*
X67000000Y-63392500D02*
X63600000Y-63392500D01*
D11*
G04 #@! TO.C,J18*
X126985600Y-43714700D02*
X126985600Y-49943100D01*
X126985600Y-49943100D02*
X140814400Y-49943100D01*
X140814400Y-43714700D02*
X126985600Y-43714700D01*
X140814400Y-49943100D02*
X140814400Y-43714700D01*
G04 #@! TO.C,CR11*
X172508040Y-94860850D02*
X172508040Y-97802250D01*
X173409740Y-94578950D02*
X173409740Y-94860850D01*
X173409740Y-94578950D02*
X175314740Y-94578950D01*
X173409740Y-94860850D02*
X172508040Y-94860850D01*
X173409740Y-97802250D02*
X172508040Y-97802250D01*
X173409740Y-98084150D02*
X173409740Y-97802250D01*
X175314740Y-94578950D02*
X175314740Y-95810850D01*
X175314740Y-95810850D02*
X176216440Y-95810850D01*
X175314740Y-96852250D02*
X176216440Y-96852250D01*
X175314740Y-98084150D02*
X173409740Y-98084150D01*
X175314740Y-98084150D02*
X175314740Y-96852250D01*
X176216440Y-95810850D02*
X176216440Y-96852250D01*
D10*
G04 #@! TO.C,C61*
X107320000Y-102800000D02*
X109280000Y-102800000D01*
X107320000Y-106200000D02*
X107320000Y-102800000D01*
X109280000Y-102800000D02*
X109280000Y-106200000D01*
X109280000Y-106200000D02*
X107320000Y-106200000D01*
G04 #@! TO.C,R28*
X105470000Y-61671700D02*
X108430000Y-61671700D01*
X105470000Y-63131700D02*
X105470000Y-61671700D01*
X108430000Y-61671700D02*
X108430000Y-63131700D01*
X108430000Y-63131700D02*
X105470000Y-63131700D01*
G04 #@! TO.C,C20*
X147320000Y-119920000D02*
X150280000Y-119920000D01*
X147320000Y-121380000D02*
X147320000Y-119920000D01*
X150280000Y-119920000D02*
X150280000Y-121380000D01*
X150280000Y-121380000D02*
X147320000Y-121380000D01*
G04 #@! TO.C,D3*
X67190000Y-61810000D02*
X69090000Y-61810000D01*
X67190000Y-65170000D02*
X67190000Y-61810000D01*
X69090000Y-61810000D02*
X69090000Y-65170000D01*
X69090000Y-65170000D02*
X67190000Y-65170000D01*
G04 #@! TO.C,R39*
X128310000Y-78670000D02*
X130210000Y-78670000D01*
X128310000Y-82030000D02*
X128310000Y-78670000D01*
X130210000Y-78670000D02*
X130210000Y-82030000D01*
X130210000Y-82030000D02*
X128310000Y-82030000D01*
G04 #@! TO.C,C54*
X137470000Y-51770000D02*
X140430000Y-51770000D01*
X137470000Y-53230000D02*
X137470000Y-51770000D01*
X140430000Y-51770000D02*
X140430000Y-53230000D01*
X140430000Y-53230000D02*
X137470000Y-53230000D01*
G04 #@! TO.C,J6*
X141411800Y-121760000D02*
X141411800Y-132920000D01*
X141411800Y-132920000D02*
X144951800Y-132920000D01*
X144951800Y-121760000D02*
X141411800Y-121760000D01*
X144951800Y-132920000D02*
X144951800Y-121760000D01*
D11*
G04 #@! TO.C,CR3*
X172211601Y-120529299D02*
X172211601Y-123470699D01*
X173113301Y-120247399D02*
X173113301Y-120529299D01*
X173113301Y-120247399D02*
X175018301Y-120247399D01*
X173113301Y-120529299D02*
X172211601Y-120529299D01*
X173113301Y-123470699D02*
X172211601Y-123470699D01*
X173113301Y-123752599D02*
X173113301Y-123470699D01*
X175018301Y-120247399D02*
X175018301Y-121479299D01*
X175018301Y-121479299D02*
X175920001Y-121479299D01*
X175018301Y-122520699D02*
X175920001Y-122520699D01*
X175018301Y-123752599D02*
X173113301Y-123752599D01*
X175018301Y-123752599D02*
X175018301Y-122520699D01*
X175920001Y-121479299D02*
X175920001Y-122520699D01*
D10*
G04 #@! TO.C,D10*
X83750000Y-99200000D02*
X88250000Y-99200000D01*
X83750000Y-106500000D02*
X83750000Y-99200000D01*
X88250000Y-99200000D02*
X88250000Y-106500000D01*
X88250000Y-106500000D02*
X83750000Y-106500000D01*
G04 #@! TD*
M02*
