G04 #@! TF.GenerationSoftware,KiCad,Pcbnew,9.0.2*
G04 #@! TF.CreationDate,2025-08-23T18:52:09+02:00*
G04 #@! TF.ProjectId,Pico2Breakout,5069636f-3242-4726-9561-6b6f75742e6b,rev?*
G04 #@! TF.SameCoordinates,Original*
G04 #@! TF.FileFunction,Legend,Top*
G04 #@! TF.FilePolarity,Positive*
%FSLAX46Y46*%
G04 Gerber Fmt 4.6, Leading zero omitted, Abs format (unit mm)*
G04 Created by KiCad (PCBNEW 9.0.2) date 2025-08-23 18:52:09*
%MOMM*%
%LPD*%
G01*
G04 APERTURE LIST*
G04 Aperture macros list*
%AMRoundRect*
0 Rectangle with rounded corners*
0 $1 Rounding radius*
0 $2 $3 $4 $5 $6 $7 $8 $9 X,Y pos of 4 corners*
0 Add a 4 corners polygon primitive as box body*
4,1,4,$2,$3,$4,$5,$6,$7,$8,$9,$2,$3,0*
0 Add four circle primitives for the rounded corners*
1,1,$1+$1,$2,$3*
1,1,$1+$1,$4,$5*
1,1,$1+$1,$6,$7*
1,1,$1+$1,$8,$9*
0 Add four rect primitives between the rounded corners*
20,1,$1+$1,$2,$3,$4,$5,0*
20,1,$1+$1,$4,$5,$6,$7,0*
20,1,$1+$1,$6,$7,$8,$9,0*
20,1,$1+$1,$8,$9,$2,$3,0*%
%AMFreePoly0*
4,1,37,0.603843,0.796157,0.639018,0.796157,0.711114,0.766294,0.766294,0.711114,0.796157,0.639018,0.796157,0.603843,0.800000,0.600000,0.800000,-0.600000,0.796157,-0.603843,0.796157,-0.639018,0.766294,-0.711114,0.711114,-0.766294,0.639018,-0.796157,0.603843,-0.796157,0.600000,-0.800000,0.000000,-0.800000,0.000000,-0.796148,-0.078414,-0.796148,-0.232228,-0.765552,-0.377117,-0.705537,
-0.507515,-0.618408,-0.618408,-0.507515,-0.705537,-0.377117,-0.765552,-0.232228,-0.796148,-0.078414,-0.796148,0.078414,-0.765552,0.232228,-0.705537,0.377117,-0.618408,0.507515,-0.507515,0.618408,-0.377117,0.705537,-0.232228,0.765552,-0.078414,0.796148,0.000000,0.796148,0.000000,0.800000,0.600000,0.800000,0.603843,0.796157,0.603843,0.796157,$1*%
%AMFreePoly1*
4,1,37,0.000000,0.796148,0.078414,0.796148,0.232228,0.765552,0.377117,0.705537,0.507515,0.618408,0.618408,0.507515,0.705537,0.377117,0.765552,0.232228,0.796148,0.078414,0.796148,-0.078414,0.765552,-0.232228,0.705537,-0.377117,0.618408,-0.507515,0.507515,-0.618408,0.377117,-0.705537,0.232228,-0.765552,0.078414,-0.796148,0.000000,-0.796148,0.000000,-0.800000,-0.600000,-0.800000,
-0.603843,-0.796157,-0.639018,-0.796157,-0.711114,-0.766294,-0.766294,-0.711114,-0.796157,-0.639018,-0.796157,-0.603843,-0.800000,-0.600000,-0.800000,0.600000,-0.796157,0.603843,-0.796157,0.639018,-0.766294,0.711114,-0.711114,0.766294,-0.639018,0.796157,-0.603843,0.796157,-0.600000,0.800000,0.000000,0.800000,0.000000,0.796148,0.000000,0.796148,$1*%
G04 Aperture macros list end*
%ADD10C,0.100000*%
%ADD11C,0.200000*%
%ADD12C,0.300000*%
%ADD13C,0.150000*%
%ADD14C,0.120000*%
%ADD15C,0.152400*%
%ADD16C,0.508000*%
%ADD17RoundRect,0.200000X-0.275000X0.200000X-0.275000X-0.200000X0.275000X-0.200000X0.275000X0.200000X0*%
%ADD18R,1.168400X0.533400*%
%ADD19R,1.397000X1.473200*%
%ADD20R,3.759200X5.511800*%
%ADD21RoundRect,0.250000X0.475000X-0.250000X0.475000X0.250000X-0.475000X0.250000X-0.475000X-0.250000X0*%
%ADD22R,0.558800X1.460500*%
%ADD23R,3.098800X2.387600*%
%ADD24RoundRect,0.250000X-0.450000X0.262500X-0.450000X-0.262500X0.450000X-0.262500X0.450000X0.262500X0*%
%ADD25R,1.200000X0.800000*%
%ADD26RoundRect,0.200000X0.275000X-0.200000X0.275000X0.200000X-0.275000X0.200000X-0.275000X-0.200000X0*%
%ADD27RoundRect,0.237500X0.237500X-0.287500X0.237500X0.287500X-0.237500X0.287500X-0.237500X-0.287500X0*%
%ADD28RoundRect,0.225000X0.225000X0.250000X-0.225000X0.250000X-0.225000X-0.250000X0.225000X-0.250000X0*%
%ADD29R,1.700000X1.700000*%
%ADD30C,1.700000*%
%ADD31RoundRect,0.650000X0.650000X0.650000X-0.650000X0.650000X-0.650000X-0.650000X0.650000X-0.650000X0*%
%ADD32C,2.600000*%
%ADD33RoundRect,0.225000X-0.225000X-0.250000X0.225000X-0.250000X0.225000X0.250000X-0.225000X0.250000X0*%
%ADD34RoundRect,0.243750X-0.243750X-0.456250X0.243750X-0.456250X0.243750X0.456250X-0.243750X0.456250X0*%
%ADD35RoundRect,0.125000X-0.125000X-0.125000X0.125000X-0.125000X0.125000X0.125000X-0.125000X0.125000X0*%
%ADD36R,0.812800X1.193800*%
%ADD37RoundRect,0.225000X-0.250000X0.225000X-0.250000X-0.225000X0.250000X-0.225000X0.250000X0.225000X0*%
%ADD38RoundRect,0.250000X-1.000000X-1.000000X1.000000X-1.000000X1.000000X1.000000X-1.000000X1.000000X0*%
%ADD39C,2.500000*%
%ADD40RoundRect,0.200000X-0.200000X-0.275000X0.200000X-0.275000X0.200000X0.275000X-0.200000X0.275000X0*%
%ADD41C,1.320800*%
%ADD42C,1.574800*%
%ADD43RoundRect,0.250000X-1.000000X1.000000X-1.000000X-1.000000X1.000000X-1.000000X1.000000X1.000000X0*%
%ADD44RoundRect,0.225000X0.250000X-0.225000X0.250000X0.225000X-0.250000X0.225000X-0.250000X-0.225000X0*%
%ADD45RoundRect,0.250000X0.375000X1.075000X-0.375000X1.075000X-0.375000X-1.075000X0.375000X-1.075000X0*%
%ADD46R,0.650001X2.100001*%
%ADD47RoundRect,0.250000X0.262500X0.450000X-0.262500X0.450000X-0.262500X-0.450000X0.262500X-0.450000X0*%
%ADD48R,2.997200X1.168400*%
%ADD49RoundRect,0.250000X-0.475000X0.250000X-0.475000X-0.250000X0.475000X-0.250000X0.475000X0.250000X0*%
%ADD50C,1.066800*%
%ADD51RoundRect,0.200000X0.200000X0.275000X-0.200000X0.275000X-0.200000X-0.275000X0.200000X-0.275000X0*%
%ADD52RoundRect,0.250000X-0.250000X-0.475000X0.250000X-0.475000X0.250000X0.475000X-0.250000X0.475000X0*%
%ADD53RoundRect,0.150000X-0.150000X0.825000X-0.150000X-0.825000X0.150000X-0.825000X0.150000X0.825000X0*%
%ADD54RoundRect,0.250000X0.250000X0.475000X-0.250000X0.475000X-0.250000X-0.475000X0.250000X-0.475000X0*%
%ADD55RoundRect,0.250000X-0.350000X-0.625000X0.350000X-0.625000X0.350000X0.625000X-0.350000X0.625000X0*%
%ADD56O,1.200000X1.750000*%
%ADD57R,0.533400X1.460500*%
%ADD58R,1.200000X1.200000*%
%ADD59RoundRect,0.250000X-0.262500X-0.450000X0.262500X-0.450000X0.262500X0.450000X-0.262500X0.450000X0*%
%ADD60R,5.207000X2.413000*%
%ADD61RoundRect,0.218750X0.381250X-0.218750X0.381250X0.218750X-0.381250X0.218750X-0.381250X-0.218750X0*%
%ADD62RoundRect,0.250000X-0.625000X0.350000X-0.625000X-0.350000X0.625000X-0.350000X0.625000X0.350000X0*%
%ADD63O,1.750000X1.200000*%
%ADD64RoundRect,0.250000X0.900000X-1.000000X0.900000X1.000000X-0.900000X1.000000X-0.900000X-1.000000X0*%
%ADD65RoundRect,0.243750X-0.456250X0.243750X-0.456250X-0.243750X0.456250X-0.243750X0.456250X0.243750X0*%
%ADD66R,1.117600X0.457200*%
%ADD67RoundRect,0.200000X0.600000X0.600000X-0.600000X0.600000X-0.600000X-0.600000X0.600000X-0.600000X0*%
%ADD68C,1.600000*%
%ADD69FreePoly0,180.000000*%
%ADD70FreePoly1,180.000000*%
G04 APERTURE END LIST*
D10*
X158738095Y-82876760D02*
X159214285Y-82876760D01*
X158642857Y-83162475D02*
X158976190Y-82162475D01*
X158976190Y-82162475D02*
X159309523Y-83162475D01*
X159785714Y-83162475D02*
X159690476Y-83114856D01*
X159690476Y-83114856D02*
X159642857Y-83019617D01*
X159642857Y-83019617D02*
X159642857Y-82162475D01*
X160071429Y-82495808D02*
X160261905Y-83162475D01*
X160261905Y-83162475D02*
X160452381Y-82686284D01*
X160452381Y-82686284D02*
X160642857Y-83162475D01*
X160642857Y-83162475D02*
X160833333Y-82495808D01*
X161642857Y-83162475D02*
X161642857Y-82638665D01*
X161642857Y-82638665D02*
X161595238Y-82543427D01*
X161595238Y-82543427D02*
X161500000Y-82495808D01*
X161500000Y-82495808D02*
X161309524Y-82495808D01*
X161309524Y-82495808D02*
X161214286Y-82543427D01*
X161642857Y-83114856D02*
X161547619Y-83162475D01*
X161547619Y-83162475D02*
X161309524Y-83162475D01*
X161309524Y-83162475D02*
X161214286Y-83114856D01*
X161214286Y-83114856D02*
X161166667Y-83019617D01*
X161166667Y-83019617D02*
X161166667Y-82924379D01*
X161166667Y-82924379D02*
X161214286Y-82829141D01*
X161214286Y-82829141D02*
X161309524Y-82781522D01*
X161309524Y-82781522D02*
X161547619Y-82781522D01*
X161547619Y-82781522D02*
X161642857Y-82733903D01*
X162023810Y-82495808D02*
X162261905Y-83162475D01*
X162500000Y-82495808D02*
X162261905Y-83162475D01*
X162261905Y-83162475D02*
X162166667Y-83400570D01*
X162166667Y-83400570D02*
X162119048Y-83448189D01*
X162119048Y-83448189D02*
X162023810Y-83495808D01*
X162833334Y-83114856D02*
X162928572Y-83162475D01*
X162928572Y-83162475D02*
X163119048Y-83162475D01*
X163119048Y-83162475D02*
X163214286Y-83114856D01*
X163214286Y-83114856D02*
X163261905Y-83019617D01*
X163261905Y-83019617D02*
X163261905Y-82971998D01*
X163261905Y-82971998D02*
X163214286Y-82876760D01*
X163214286Y-82876760D02*
X163119048Y-82829141D01*
X163119048Y-82829141D02*
X162976191Y-82829141D01*
X162976191Y-82829141D02*
X162880953Y-82781522D01*
X162880953Y-82781522D02*
X162833334Y-82686284D01*
X162833334Y-82686284D02*
X162833334Y-82638665D01*
X162833334Y-82638665D02*
X162880953Y-82543427D01*
X162880953Y-82543427D02*
X162976191Y-82495808D01*
X162976191Y-82495808D02*
X163119048Y-82495808D01*
X163119048Y-82495808D02*
X163214286Y-82543427D01*
X160380952Y-83772419D02*
X160571428Y-83772419D01*
X160571428Y-83772419D02*
X160666666Y-83820038D01*
X160666666Y-83820038D02*
X160761904Y-83915276D01*
X160761904Y-83915276D02*
X160809523Y-84105752D01*
X160809523Y-84105752D02*
X160809523Y-84439085D01*
X160809523Y-84439085D02*
X160761904Y-84629561D01*
X160761904Y-84629561D02*
X160666666Y-84724800D01*
X160666666Y-84724800D02*
X160571428Y-84772419D01*
X160571428Y-84772419D02*
X160380952Y-84772419D01*
X160380952Y-84772419D02*
X160285714Y-84724800D01*
X160285714Y-84724800D02*
X160190476Y-84629561D01*
X160190476Y-84629561D02*
X160142857Y-84439085D01*
X160142857Y-84439085D02*
X160142857Y-84105752D01*
X160142857Y-84105752D02*
X160190476Y-83915276D01*
X160190476Y-83915276D02*
X160285714Y-83820038D01*
X160285714Y-83820038D02*
X160380952Y-83772419D01*
X161238095Y-84772419D02*
X161238095Y-83772419D01*
X161238095Y-83772419D02*
X161809523Y-84772419D01*
X161809523Y-84772419D02*
X161809523Y-83772419D01*
D11*
G36*
X97694914Y-40130581D02*
G01*
X97766721Y-40140755D01*
X97820612Y-40161514D01*
X97868354Y-40193884D01*
X97910886Y-40239063D01*
X97942239Y-40292310D01*
X97961936Y-40356553D01*
X97968954Y-40434518D01*
X97964883Y-40495429D01*
X97953455Y-40546722D01*
X97935493Y-40589979D01*
X97910567Y-40629805D01*
X97882248Y-40662537D01*
X97850436Y-40688958D01*
X97797486Y-40719250D01*
X97745533Y-40736524D01*
X97665003Y-40746746D01*
X97535790Y-40750935D01*
X97403960Y-40750935D01*
X97403960Y-41130000D01*
X97201788Y-41130000D01*
X97201788Y-40582896D01*
X97403960Y-40582896D01*
X97514602Y-40582896D01*
X97624291Y-40577802D01*
X97674459Y-40566898D01*
X97710628Y-40546222D01*
X97737657Y-40516889D01*
X97754692Y-40480514D01*
X97760554Y-40437632D01*
X97756777Y-40401770D01*
X97746008Y-40371582D01*
X97728436Y-40345858D01*
X97705170Y-40324799D01*
X97678318Y-40309825D01*
X97647165Y-40300673D01*
X97601907Y-40295938D01*
X97501657Y-40293712D01*
X97403960Y-40293712D01*
X97403960Y-40582896D01*
X97201788Y-40582896D01*
X97201788Y-40125673D01*
X97526264Y-40125673D01*
X97694914Y-40130581D01*
G37*
G36*
X98276884Y-41130000D02*
G01*
X98037770Y-40125673D01*
X98244766Y-40125673D01*
X98395769Y-40815537D01*
X98578829Y-40125673D01*
X98819286Y-40125673D01*
X98994836Y-40827199D01*
X99148525Y-40125673D01*
X99352102Y-40125673D01*
X99108897Y-41130000D01*
X98894391Y-41130000D01*
X98694966Y-40379136D01*
X98496153Y-41130000D01*
X98276884Y-41130000D01*
G37*
G36*
X99452913Y-41130000D02*
G01*
X99452913Y-40125673D01*
X99755530Y-40125673D01*
X99937247Y-40810774D01*
X100116887Y-40125673D01*
X100420237Y-40125673D01*
X100420237Y-41130000D01*
X100232353Y-41130000D01*
X100232353Y-40339446D01*
X100033600Y-41130000D01*
X99838878Y-41130000D01*
X99640797Y-40339446D01*
X99640797Y-41130000D01*
X99452913Y-41130000D01*
G37*
G36*
X101650793Y-40758750D02*
G01*
X101846859Y-40821277D01*
X101818884Y-40902292D01*
X101784332Y-40968710D01*
X101743680Y-41022657D01*
X101696894Y-41065764D01*
X101642831Y-41099752D01*
X101581375Y-41124624D01*
X101511242Y-41140179D01*
X101430853Y-41145631D01*
X101351948Y-41139888D01*
X101280824Y-41123246D01*
X101216225Y-41096144D01*
X101157148Y-41058425D01*
X101102896Y-41009344D01*
X101058168Y-40953093D01*
X101022794Y-40888995D01*
X100996676Y-40815914D01*
X100980253Y-40732389D01*
X100974485Y-40636690D01*
X100980390Y-40534866D01*
X100997108Y-40446957D01*
X101023514Y-40370979D01*
X101059013Y-40305240D01*
X101103567Y-40248405D01*
X101157996Y-40198960D01*
X101218190Y-40160728D01*
X101284962Y-40133072D01*
X101359463Y-40115975D01*
X101443126Y-40110041D01*
X101533845Y-40117357D01*
X101612519Y-40138265D01*
X101681258Y-40171958D01*
X101741652Y-40218668D01*
X101781636Y-40265165D01*
X101815967Y-40325696D01*
X101844112Y-40403133D01*
X101643954Y-40450027D01*
X101627385Y-40400823D01*
X101602737Y-40360316D01*
X101569827Y-40327112D01*
X101530177Y-40302332D01*
X101485008Y-40287233D01*
X101432868Y-40281988D01*
X101378734Y-40287215D01*
X101331411Y-40302292D01*
X101289518Y-40327024D01*
X101252128Y-40362161D01*
X101224360Y-40403408D01*
X101202683Y-40458057D01*
X101188197Y-40529465D01*
X101182824Y-40621669D01*
X101188238Y-40720171D01*
X101202709Y-40795205D01*
X101224111Y-40851468D01*
X101251151Y-40892901D01*
X101288096Y-40928414D01*
X101329342Y-40953315D01*
X101375781Y-40968448D01*
X101428777Y-40973684D01*
X101480533Y-40967799D01*
X101526273Y-40950621D01*
X101567445Y-40921844D01*
X101600523Y-40883661D01*
X101628578Y-40830581D01*
X101650793Y-40758750D01*
G37*
D12*
X130754510Y-42729400D02*
X131897368Y-42729400D01*
X131325939Y-43300828D02*
X131325939Y-42157971D01*
X133683082Y-43229400D02*
X133825939Y-43300828D01*
X133825939Y-43300828D02*
X134111653Y-43300828D01*
X134111653Y-43300828D02*
X134254510Y-43229400D01*
X134254510Y-43229400D02*
X134325939Y-43086542D01*
X134325939Y-43086542D02*
X134325939Y-43015114D01*
X134325939Y-43015114D02*
X134254510Y-42872257D01*
X134254510Y-42872257D02*
X134111653Y-42800828D01*
X134111653Y-42800828D02*
X133897368Y-42800828D01*
X133897368Y-42800828D02*
X133754510Y-42729400D01*
X133754510Y-42729400D02*
X133683082Y-42586542D01*
X133683082Y-42586542D02*
X133683082Y-42515114D01*
X133683082Y-42515114D02*
X133754510Y-42372257D01*
X133754510Y-42372257D02*
X133897368Y-42300828D01*
X133897368Y-42300828D02*
X134111653Y-42300828D01*
X134111653Y-42300828D02*
X134254510Y-42372257D01*
X136111653Y-42729400D02*
X137254511Y-42729400D01*
X76129400Y-89345489D02*
X76129400Y-88202632D01*
X76700828Y-88774060D02*
X75557971Y-88774060D01*
X76629400Y-86416917D02*
X76700828Y-86274060D01*
X76700828Y-86274060D02*
X76700828Y-85988346D01*
X76700828Y-85988346D02*
X76629400Y-85845489D01*
X76629400Y-85845489D02*
X76486542Y-85774060D01*
X76486542Y-85774060D02*
X76415114Y-85774060D01*
X76415114Y-85774060D02*
X76272257Y-85845489D01*
X76272257Y-85845489D02*
X76200828Y-85988346D01*
X76200828Y-85988346D02*
X76200828Y-86202632D01*
X76200828Y-86202632D02*
X76129400Y-86345489D01*
X76129400Y-86345489D02*
X75986542Y-86416917D01*
X75986542Y-86416917D02*
X75915114Y-86416917D01*
X75915114Y-86416917D02*
X75772257Y-86345489D01*
X75772257Y-86345489D02*
X75700828Y-86202632D01*
X75700828Y-86202632D02*
X75700828Y-85988346D01*
X75700828Y-85988346D02*
X75772257Y-85845489D01*
X76129400Y-83988346D02*
X76129400Y-82845489D01*
D10*
X166438095Y-42976760D02*
X166914285Y-42976760D01*
X166342857Y-43262475D02*
X166676190Y-42262475D01*
X166676190Y-42262475D02*
X167009523Y-43262475D01*
X167485714Y-43262475D02*
X167390476Y-43214856D01*
X167390476Y-43214856D02*
X167342857Y-43119617D01*
X167342857Y-43119617D02*
X167342857Y-42262475D01*
X167771429Y-42595808D02*
X167961905Y-43262475D01*
X167961905Y-43262475D02*
X168152381Y-42786284D01*
X168152381Y-42786284D02*
X168342857Y-43262475D01*
X168342857Y-43262475D02*
X168533333Y-42595808D01*
X169342857Y-43262475D02*
X169342857Y-42738665D01*
X169342857Y-42738665D02*
X169295238Y-42643427D01*
X169295238Y-42643427D02*
X169200000Y-42595808D01*
X169200000Y-42595808D02*
X169009524Y-42595808D01*
X169009524Y-42595808D02*
X168914286Y-42643427D01*
X169342857Y-43214856D02*
X169247619Y-43262475D01*
X169247619Y-43262475D02*
X169009524Y-43262475D01*
X169009524Y-43262475D02*
X168914286Y-43214856D01*
X168914286Y-43214856D02*
X168866667Y-43119617D01*
X168866667Y-43119617D02*
X168866667Y-43024379D01*
X168866667Y-43024379D02*
X168914286Y-42929141D01*
X168914286Y-42929141D02*
X169009524Y-42881522D01*
X169009524Y-42881522D02*
X169247619Y-42881522D01*
X169247619Y-42881522D02*
X169342857Y-42833903D01*
X169723810Y-42595808D02*
X169961905Y-43262475D01*
X170200000Y-42595808D02*
X169961905Y-43262475D01*
X169961905Y-43262475D02*
X169866667Y-43500570D01*
X169866667Y-43500570D02*
X169819048Y-43548189D01*
X169819048Y-43548189D02*
X169723810Y-43595808D01*
X170533334Y-43214856D02*
X170628572Y-43262475D01*
X170628572Y-43262475D02*
X170819048Y-43262475D01*
X170819048Y-43262475D02*
X170914286Y-43214856D01*
X170914286Y-43214856D02*
X170961905Y-43119617D01*
X170961905Y-43119617D02*
X170961905Y-43071998D01*
X170961905Y-43071998D02*
X170914286Y-42976760D01*
X170914286Y-42976760D02*
X170819048Y-42929141D01*
X170819048Y-42929141D02*
X170676191Y-42929141D01*
X170676191Y-42929141D02*
X170580953Y-42881522D01*
X170580953Y-42881522D02*
X170533334Y-42786284D01*
X170533334Y-42786284D02*
X170533334Y-42738665D01*
X170533334Y-42738665D02*
X170580953Y-42643427D01*
X170580953Y-42643427D02*
X170676191Y-42595808D01*
X170676191Y-42595808D02*
X170819048Y-42595808D01*
X170819048Y-42595808D02*
X170914286Y-42643427D01*
X168080952Y-43872419D02*
X168271428Y-43872419D01*
X168271428Y-43872419D02*
X168366666Y-43920038D01*
X168366666Y-43920038D02*
X168461904Y-44015276D01*
X168461904Y-44015276D02*
X168509523Y-44205752D01*
X168509523Y-44205752D02*
X168509523Y-44539085D01*
X168509523Y-44539085D02*
X168461904Y-44729561D01*
X168461904Y-44729561D02*
X168366666Y-44824800D01*
X168366666Y-44824800D02*
X168271428Y-44872419D01*
X168271428Y-44872419D02*
X168080952Y-44872419D01*
X168080952Y-44872419D02*
X167985714Y-44824800D01*
X167985714Y-44824800D02*
X167890476Y-44729561D01*
X167890476Y-44729561D02*
X167842857Y-44539085D01*
X167842857Y-44539085D02*
X167842857Y-44205752D01*
X167842857Y-44205752D02*
X167890476Y-44015276D01*
X167890476Y-44015276D02*
X167985714Y-43920038D01*
X167985714Y-43920038D02*
X168080952Y-43872419D01*
X168938095Y-44872419D02*
X168938095Y-43872419D01*
X168938095Y-43872419D02*
X169509523Y-44872419D01*
X169509523Y-44872419D02*
X169509523Y-43872419D01*
D12*
X76429400Y-118345489D02*
X76429400Y-117202632D01*
X77000828Y-117774060D02*
X75857971Y-117774060D01*
X76929400Y-115416917D02*
X77000828Y-115274060D01*
X77000828Y-115274060D02*
X77000828Y-114988346D01*
X77000828Y-114988346D02*
X76929400Y-114845489D01*
X76929400Y-114845489D02*
X76786542Y-114774060D01*
X76786542Y-114774060D02*
X76715114Y-114774060D01*
X76715114Y-114774060D02*
X76572257Y-114845489D01*
X76572257Y-114845489D02*
X76500828Y-114988346D01*
X76500828Y-114988346D02*
X76500828Y-115202632D01*
X76500828Y-115202632D02*
X76429400Y-115345489D01*
X76429400Y-115345489D02*
X76286542Y-115416917D01*
X76286542Y-115416917D02*
X76215114Y-115416917D01*
X76215114Y-115416917D02*
X76072257Y-115345489D01*
X76072257Y-115345489D02*
X76000828Y-115202632D01*
X76000828Y-115202632D02*
X76000828Y-114988346D01*
X76000828Y-114988346D02*
X76072257Y-114845489D01*
X76429400Y-112988346D02*
X76429400Y-111845489D01*
D10*
X69241466Y-60746115D02*
X69241466Y-59984211D01*
X69622419Y-60365163D02*
X68860514Y-60365163D01*
X68622419Y-59031830D02*
X68622419Y-59508020D01*
X68622419Y-59508020D02*
X69098609Y-59555639D01*
X69098609Y-59555639D02*
X69050990Y-59508020D01*
X69050990Y-59508020D02*
X69003371Y-59412782D01*
X69003371Y-59412782D02*
X69003371Y-59174687D01*
X69003371Y-59174687D02*
X69050990Y-59079449D01*
X69050990Y-59079449D02*
X69098609Y-59031830D01*
X69098609Y-59031830D02*
X69193847Y-58984211D01*
X69193847Y-58984211D02*
X69431942Y-58984211D01*
X69431942Y-58984211D02*
X69527180Y-59031830D01*
X69527180Y-59031830D02*
X69574800Y-59079449D01*
X69574800Y-59079449D02*
X69622419Y-59174687D01*
X69622419Y-59174687D02*
X69622419Y-59412782D01*
X69622419Y-59412782D02*
X69574800Y-59508020D01*
X69574800Y-59508020D02*
X69527180Y-59555639D01*
X68622419Y-58698496D02*
X69622419Y-58365163D01*
X69622419Y-58365163D02*
X68622419Y-58031830D01*
X69622419Y-56793734D02*
X69574800Y-56888972D01*
X69574800Y-56888972D02*
X69527180Y-56936591D01*
X69527180Y-56936591D02*
X69431942Y-56984210D01*
X69431942Y-56984210D02*
X69146228Y-56984210D01*
X69146228Y-56984210D02*
X69050990Y-56936591D01*
X69050990Y-56936591D02*
X69003371Y-56888972D01*
X69003371Y-56888972D02*
X68955752Y-56793734D01*
X68955752Y-56793734D02*
X68955752Y-56650877D01*
X68955752Y-56650877D02*
X69003371Y-56555639D01*
X69003371Y-56555639D02*
X69050990Y-56508020D01*
X69050990Y-56508020D02*
X69146228Y-56460401D01*
X69146228Y-56460401D02*
X69431942Y-56460401D01*
X69431942Y-56460401D02*
X69527180Y-56508020D01*
X69527180Y-56508020D02*
X69574800Y-56555639D01*
X69574800Y-56555639D02*
X69622419Y-56650877D01*
X69622419Y-56650877D02*
X69622419Y-56793734D01*
X69622419Y-56031829D02*
X68622419Y-56031829D01*
X69241466Y-55936591D02*
X69622419Y-55650877D01*
X68955752Y-55650877D02*
X69336704Y-56031829D01*
X158838095Y-64076760D02*
X159314285Y-64076760D01*
X158742857Y-64362475D02*
X159076190Y-63362475D01*
X159076190Y-63362475D02*
X159409523Y-64362475D01*
X159885714Y-64362475D02*
X159790476Y-64314856D01*
X159790476Y-64314856D02*
X159742857Y-64219617D01*
X159742857Y-64219617D02*
X159742857Y-63362475D01*
X160171429Y-63695808D02*
X160361905Y-64362475D01*
X160361905Y-64362475D02*
X160552381Y-63886284D01*
X160552381Y-63886284D02*
X160742857Y-64362475D01*
X160742857Y-64362475D02*
X160933333Y-63695808D01*
X161742857Y-64362475D02*
X161742857Y-63838665D01*
X161742857Y-63838665D02*
X161695238Y-63743427D01*
X161695238Y-63743427D02*
X161600000Y-63695808D01*
X161600000Y-63695808D02*
X161409524Y-63695808D01*
X161409524Y-63695808D02*
X161314286Y-63743427D01*
X161742857Y-64314856D02*
X161647619Y-64362475D01*
X161647619Y-64362475D02*
X161409524Y-64362475D01*
X161409524Y-64362475D02*
X161314286Y-64314856D01*
X161314286Y-64314856D02*
X161266667Y-64219617D01*
X161266667Y-64219617D02*
X161266667Y-64124379D01*
X161266667Y-64124379D02*
X161314286Y-64029141D01*
X161314286Y-64029141D02*
X161409524Y-63981522D01*
X161409524Y-63981522D02*
X161647619Y-63981522D01*
X161647619Y-63981522D02*
X161742857Y-63933903D01*
X162123810Y-63695808D02*
X162361905Y-64362475D01*
X162600000Y-63695808D02*
X162361905Y-64362475D01*
X162361905Y-64362475D02*
X162266667Y-64600570D01*
X162266667Y-64600570D02*
X162219048Y-64648189D01*
X162219048Y-64648189D02*
X162123810Y-64695808D01*
X162933334Y-64314856D02*
X163028572Y-64362475D01*
X163028572Y-64362475D02*
X163219048Y-64362475D01*
X163219048Y-64362475D02*
X163314286Y-64314856D01*
X163314286Y-64314856D02*
X163361905Y-64219617D01*
X163361905Y-64219617D02*
X163361905Y-64171998D01*
X163361905Y-64171998D02*
X163314286Y-64076760D01*
X163314286Y-64076760D02*
X163219048Y-64029141D01*
X163219048Y-64029141D02*
X163076191Y-64029141D01*
X163076191Y-64029141D02*
X162980953Y-63981522D01*
X162980953Y-63981522D02*
X162933334Y-63886284D01*
X162933334Y-63886284D02*
X162933334Y-63838665D01*
X162933334Y-63838665D02*
X162980953Y-63743427D01*
X162980953Y-63743427D02*
X163076191Y-63695808D01*
X163076191Y-63695808D02*
X163219048Y-63695808D01*
X163219048Y-63695808D02*
X163314286Y-63743427D01*
X160480952Y-64972419D02*
X160671428Y-64972419D01*
X160671428Y-64972419D02*
X160766666Y-65020038D01*
X160766666Y-65020038D02*
X160861904Y-65115276D01*
X160861904Y-65115276D02*
X160909523Y-65305752D01*
X160909523Y-65305752D02*
X160909523Y-65639085D01*
X160909523Y-65639085D02*
X160861904Y-65829561D01*
X160861904Y-65829561D02*
X160766666Y-65924800D01*
X160766666Y-65924800D02*
X160671428Y-65972419D01*
X160671428Y-65972419D02*
X160480952Y-65972419D01*
X160480952Y-65972419D02*
X160385714Y-65924800D01*
X160385714Y-65924800D02*
X160290476Y-65829561D01*
X160290476Y-65829561D02*
X160242857Y-65639085D01*
X160242857Y-65639085D02*
X160242857Y-65305752D01*
X160242857Y-65305752D02*
X160290476Y-65115276D01*
X160290476Y-65115276D02*
X160385714Y-65020038D01*
X160385714Y-65020038D02*
X160480952Y-64972419D01*
X161338095Y-65972419D02*
X161338095Y-64972419D01*
X161338095Y-64972419D02*
X161909523Y-65972419D01*
X161909523Y-65972419D02*
X161909523Y-64972419D01*
D12*
X115854510Y-42729400D02*
X116997368Y-42729400D01*
X116425939Y-43300828D02*
X116425939Y-42157971D01*
X118783082Y-43229400D02*
X118925939Y-43300828D01*
X118925939Y-43300828D02*
X119211653Y-43300828D01*
X119211653Y-43300828D02*
X119354510Y-43229400D01*
X119354510Y-43229400D02*
X119425939Y-43086542D01*
X119425939Y-43086542D02*
X119425939Y-43015114D01*
X119425939Y-43015114D02*
X119354510Y-42872257D01*
X119354510Y-42872257D02*
X119211653Y-42800828D01*
X119211653Y-42800828D02*
X118997368Y-42800828D01*
X118997368Y-42800828D02*
X118854510Y-42729400D01*
X118854510Y-42729400D02*
X118783082Y-42586542D01*
X118783082Y-42586542D02*
X118783082Y-42515114D01*
X118783082Y-42515114D02*
X118854510Y-42372257D01*
X118854510Y-42372257D02*
X118997368Y-42300828D01*
X118997368Y-42300828D02*
X119211653Y-42300828D01*
X119211653Y-42300828D02*
X119354510Y-42372257D01*
X121211653Y-42729400D02*
X122354511Y-42729400D01*
X75929400Y-103845489D02*
X75929400Y-102702632D01*
X76500828Y-103274060D02*
X75357971Y-103274060D01*
X76429400Y-100916917D02*
X76500828Y-100774060D01*
X76500828Y-100774060D02*
X76500828Y-100488346D01*
X76500828Y-100488346D02*
X76429400Y-100345489D01*
X76429400Y-100345489D02*
X76286542Y-100274060D01*
X76286542Y-100274060D02*
X76215114Y-100274060D01*
X76215114Y-100274060D02*
X76072257Y-100345489D01*
X76072257Y-100345489D02*
X76000828Y-100488346D01*
X76000828Y-100488346D02*
X76000828Y-100702632D01*
X76000828Y-100702632D02*
X75929400Y-100845489D01*
X75929400Y-100845489D02*
X75786542Y-100916917D01*
X75786542Y-100916917D02*
X75715114Y-100916917D01*
X75715114Y-100916917D02*
X75572257Y-100845489D01*
X75572257Y-100845489D02*
X75500828Y-100702632D01*
X75500828Y-100702632D02*
X75500828Y-100488346D01*
X75500828Y-100488346D02*
X75572257Y-100345489D01*
X75929400Y-98488346D02*
X75929400Y-97345489D01*
D10*
X74796115Y-131808533D02*
X74034211Y-131808533D01*
X74415163Y-131427580D02*
X74415163Y-132189485D01*
X73034211Y-131427580D02*
X73605639Y-131427580D01*
X73319925Y-131427580D02*
X73319925Y-132427580D01*
X73319925Y-132427580D02*
X73415163Y-132284723D01*
X73415163Y-132284723D02*
X73510401Y-132189485D01*
X73510401Y-132189485D02*
X73605639Y-132141866D01*
X72653258Y-132332342D02*
X72605639Y-132379961D01*
X72605639Y-132379961D02*
X72510401Y-132427580D01*
X72510401Y-132427580D02*
X72272306Y-132427580D01*
X72272306Y-132427580D02*
X72177068Y-132379961D01*
X72177068Y-132379961D02*
X72129449Y-132332342D01*
X72129449Y-132332342D02*
X72081830Y-132237104D01*
X72081830Y-132237104D02*
X72081830Y-132141866D01*
X72081830Y-132141866D02*
X72129449Y-131999009D01*
X72129449Y-131999009D02*
X72700877Y-131427580D01*
X72700877Y-131427580D02*
X72081830Y-131427580D01*
X71796115Y-132427580D02*
X71462782Y-131427580D01*
X71462782Y-131427580D02*
X71129449Y-132427580D01*
X70177067Y-132427580D02*
X69605639Y-132427580D01*
X69891353Y-131427580D02*
X69891353Y-132427580D01*
X69272305Y-131427580D02*
X69272305Y-132427580D01*
X69272305Y-132427580D02*
X68891353Y-132427580D01*
X68891353Y-132427580D02*
X68796115Y-132379961D01*
X68796115Y-132379961D02*
X68748496Y-132332342D01*
X68748496Y-132332342D02*
X68700877Y-132237104D01*
X68700877Y-132237104D02*
X68700877Y-132094247D01*
X68700877Y-132094247D02*
X68748496Y-131999009D01*
X68748496Y-131999009D02*
X68796115Y-131951390D01*
X68796115Y-131951390D02*
X68891353Y-131903771D01*
X68891353Y-131903771D02*
X69272305Y-131903771D01*
D11*
G36*
X112594914Y-40130581D02*
G01*
X112666721Y-40140755D01*
X112720612Y-40161514D01*
X112768354Y-40193884D01*
X112810886Y-40239063D01*
X112842239Y-40292310D01*
X112861936Y-40356553D01*
X112868954Y-40434518D01*
X112864883Y-40495429D01*
X112853455Y-40546722D01*
X112835493Y-40589979D01*
X112810567Y-40629805D01*
X112782248Y-40662537D01*
X112750436Y-40688958D01*
X112697486Y-40719250D01*
X112645533Y-40736524D01*
X112565003Y-40746746D01*
X112435790Y-40750935D01*
X112303960Y-40750935D01*
X112303960Y-41130000D01*
X112101788Y-41130000D01*
X112101788Y-40582896D01*
X112303960Y-40582896D01*
X112414602Y-40582896D01*
X112524291Y-40577802D01*
X112574459Y-40566898D01*
X112610628Y-40546222D01*
X112637657Y-40516889D01*
X112654692Y-40480514D01*
X112660554Y-40437632D01*
X112656777Y-40401770D01*
X112646008Y-40371582D01*
X112628436Y-40345858D01*
X112605170Y-40324799D01*
X112578318Y-40309825D01*
X112547165Y-40300673D01*
X112501907Y-40295938D01*
X112401657Y-40293712D01*
X112303960Y-40293712D01*
X112303960Y-40582896D01*
X112101788Y-40582896D01*
X112101788Y-40125673D01*
X112426264Y-40125673D01*
X112594914Y-40130581D01*
G37*
G36*
X113176884Y-41130000D02*
G01*
X112937770Y-40125673D01*
X113144766Y-40125673D01*
X113295769Y-40815537D01*
X113478829Y-40125673D01*
X113719286Y-40125673D01*
X113894836Y-40827199D01*
X114048525Y-40125673D01*
X114252102Y-40125673D01*
X114008897Y-41130000D01*
X113794391Y-41130000D01*
X113594966Y-40379136D01*
X113396153Y-41130000D01*
X113176884Y-41130000D01*
G37*
G36*
X114352913Y-41130000D02*
G01*
X114352913Y-40125673D01*
X114655530Y-40125673D01*
X114837247Y-40810774D01*
X115016887Y-40125673D01*
X115320237Y-40125673D01*
X115320237Y-41130000D01*
X115132353Y-41130000D01*
X115132353Y-40339446D01*
X114933600Y-41130000D01*
X114738878Y-41130000D01*
X114540797Y-40339446D01*
X114540797Y-41130000D01*
X114352913Y-41130000D01*
G37*
G36*
X116422299Y-40128609D02*
G01*
X116488267Y-40135626D01*
X116543999Y-40151072D01*
X116592803Y-40177025D01*
X116634658Y-40213273D01*
X116669617Y-40260861D01*
X116686594Y-40296828D01*
X116696877Y-40335715D01*
X116700392Y-40378220D01*
X116696144Y-40424126D01*
X116683569Y-40466996D01*
X116662473Y-40507608D01*
X116634194Y-40543581D01*
X116600140Y-40572856D01*
X116559647Y-40595901D01*
X116617560Y-40618744D01*
X116663846Y-40649151D01*
X116700331Y-40687126D01*
X116727496Y-40732202D01*
X116743902Y-40782245D01*
X116749546Y-40838618D01*
X116746063Y-40883623D01*
X116735577Y-40927916D01*
X116717794Y-40971974D01*
X116693681Y-41012785D01*
X116664832Y-41047082D01*
X116631027Y-41075533D01*
X116592730Y-41097473D01*
X116547917Y-41113480D01*
X116495411Y-41123161D01*
X116427555Y-41127051D01*
X116251535Y-41130000D01*
X115910694Y-41130000D01*
X115910694Y-40961960D01*
X116112927Y-40961960D01*
X116300078Y-40961960D01*
X116399618Y-40959906D01*
X116438747Y-40955793D01*
X116479954Y-40941401D01*
X116512142Y-40915554D01*
X116527482Y-40892703D01*
X116537096Y-40864619D01*
X116540535Y-40829886D01*
X116534839Y-40787149D01*
X116518675Y-40752889D01*
X116492457Y-40725893D01*
X116455478Y-40706788D01*
X116402238Y-40697035D01*
X116276203Y-40692316D01*
X116112927Y-40692316D01*
X116112927Y-40961960D01*
X115910694Y-40961960D01*
X115910694Y-40524277D01*
X116112927Y-40524277D01*
X116245429Y-40524277D01*
X116392341Y-40520858D01*
X116439840Y-40508379D01*
X116473918Y-40485198D01*
X116490194Y-40463818D01*
X116500149Y-40438249D01*
X116503654Y-40407285D01*
X116496943Y-40364531D01*
X116478009Y-40332180D01*
X116459141Y-40316036D01*
X116434280Y-40304231D01*
X116401866Y-40297131D01*
X116229064Y-40293712D01*
X116112927Y-40293712D01*
X116112927Y-40524277D01*
X115910694Y-40524277D01*
X115910694Y-40125673D01*
X116311008Y-40125673D01*
X116422299Y-40128609D01*
G37*
D12*
X100854510Y-42729400D02*
X101997368Y-42729400D01*
X101425939Y-43300828D02*
X101425939Y-42157971D01*
X103783082Y-43229400D02*
X103925939Y-43300828D01*
X103925939Y-43300828D02*
X104211653Y-43300828D01*
X104211653Y-43300828D02*
X104354510Y-43229400D01*
X104354510Y-43229400D02*
X104425939Y-43086542D01*
X104425939Y-43086542D02*
X104425939Y-43015114D01*
X104425939Y-43015114D02*
X104354510Y-42872257D01*
X104354510Y-42872257D02*
X104211653Y-42800828D01*
X104211653Y-42800828D02*
X103997368Y-42800828D01*
X103997368Y-42800828D02*
X103854510Y-42729400D01*
X103854510Y-42729400D02*
X103783082Y-42586542D01*
X103783082Y-42586542D02*
X103783082Y-42515114D01*
X103783082Y-42515114D02*
X103854510Y-42372257D01*
X103854510Y-42372257D02*
X103997368Y-42300828D01*
X103997368Y-42300828D02*
X104211653Y-42300828D01*
X104211653Y-42300828D02*
X104354510Y-42372257D01*
X106211653Y-42729400D02*
X107354511Y-42729400D01*
D11*
G36*
X89636299Y-79029501D02*
G01*
X89711415Y-79039276D01*
X89761304Y-79052784D01*
X89806380Y-79075411D01*
X89844970Y-79107234D01*
X89877808Y-79149260D01*
X89901877Y-79197109D01*
X89916503Y-79249599D01*
X89921528Y-79307834D01*
X89917099Y-79363744D01*
X89904382Y-79412826D01*
X89883806Y-79456254D01*
X89855216Y-79494924D01*
X89820028Y-79526900D01*
X89776354Y-79553246D01*
X89722695Y-79573810D01*
X89657135Y-79587920D01*
X89718320Y-79629120D01*
X89765396Y-79672001D01*
X89810020Y-79727770D01*
X89880556Y-79834605D01*
X90002800Y-80030000D01*
X89760999Y-80030000D01*
X89614820Y-79811769D01*
X89541806Y-79706484D01*
X89508269Y-79664734D01*
X89477928Y-79638630D01*
X89447452Y-79623152D01*
X89410602Y-79615230D01*
X89345664Y-79611856D01*
X89304692Y-79611856D01*
X89304692Y-80030000D01*
X89102459Y-80030000D01*
X89102459Y-79451632D01*
X89304692Y-79451632D01*
X89454291Y-79451632D01*
X89586502Y-79447425D01*
X89636008Y-79439176D01*
X89668431Y-79422054D01*
X89692672Y-79396189D01*
X89707771Y-79362912D01*
X89713189Y-79319924D01*
X89709937Y-79286666D01*
X89700809Y-79259468D01*
X89686200Y-79237065D01*
X89654558Y-79211782D01*
X89610057Y-79197192D01*
X89462473Y-79193712D01*
X89304692Y-79193712D01*
X89304692Y-79451632D01*
X89102459Y-79451632D01*
X89102459Y-79025673D01*
X89528053Y-79025673D01*
X89636299Y-79029501D01*
G37*
G36*
X90466564Y-79290825D02*
G01*
X90534197Y-79311426D01*
X90592394Y-79344712D01*
X90642716Y-79391304D01*
X90673793Y-79434714D01*
X90698936Y-79487549D01*
X90717727Y-79551504D01*
X90729268Y-79628633D01*
X90732231Y-79721277D01*
X90251317Y-79721277D01*
X90257978Y-79776333D01*
X90273747Y-79819639D01*
X90297784Y-79853717D01*
X90329898Y-79880063D01*
X90366301Y-79895677D01*
X90408426Y-79901039D01*
X90450647Y-79894800D01*
X90484263Y-79876981D01*
X90510180Y-79847351D01*
X90530730Y-79799434D01*
X90721973Y-79830697D01*
X90691642Y-79898081D01*
X90652852Y-79951703D01*
X90605469Y-79993607D01*
X90549926Y-80023893D01*
X90484331Y-80042836D01*
X90406350Y-80049539D01*
X90330464Y-80043911D01*
X90266290Y-80028039D01*
X90211827Y-80002886D01*
X90165512Y-79968633D01*
X90126325Y-79924670D01*
X90095873Y-79873307D01*
X90073508Y-79814917D01*
X90059494Y-79748313D01*
X90054579Y-79672062D01*
X90059530Y-79604040D01*
X90254736Y-79604040D01*
X90541660Y-79604040D01*
X90535290Y-79549331D01*
X90520580Y-79507595D01*
X90498613Y-79475935D01*
X90469012Y-79451385D01*
X90436178Y-79436990D01*
X90398900Y-79432093D01*
X90359047Y-79437336D01*
X90324906Y-79452587D01*
X90295036Y-79478377D01*
X90273048Y-79511423D01*
X90259355Y-79552563D01*
X90254736Y-79604040D01*
X90059530Y-79604040D01*
X90061204Y-79581047D01*
X90079805Y-79504766D01*
X90109129Y-79440678D01*
X90148857Y-79386786D01*
X90199375Y-79341447D01*
X90255118Y-79309597D01*
X90317195Y-79290261D01*
X90387238Y-79283593D01*
X90466564Y-79290825D01*
G37*
G36*
X90888302Y-80030000D02*
G01*
X90888302Y-79025673D01*
X91080216Y-79025673D01*
X91080216Y-80030000D01*
X90888302Y-80030000D01*
G37*
G36*
X91646615Y-79287780D02*
G01*
X91708538Y-79298665D01*
X91751823Y-79314185D01*
X91791254Y-79337601D01*
X91820153Y-79363466D01*
X91840300Y-79391854D01*
X91852807Y-79424976D01*
X91862165Y-79479732D01*
X91865945Y-79564717D01*
X91863930Y-79790153D01*
X91866670Y-79880013D01*
X91873150Y-79932058D01*
X91885900Y-79978026D01*
X91907650Y-80030000D01*
X91717751Y-80030000D01*
X91699310Y-79974068D01*
X91692472Y-79951842D01*
X91640779Y-79995149D01*
X91587264Y-80025115D01*
X91529667Y-80043374D01*
X91467707Y-80049539D01*
X91411951Y-80045294D01*
X91364887Y-80033324D01*
X91324999Y-80014335D01*
X91291120Y-79988417D01*
X91262864Y-79955810D01*
X91242923Y-79919719D01*
X91230775Y-79879418D01*
X91226578Y-79833872D01*
X91228304Y-79813234D01*
X91418492Y-79813234D01*
X91421826Y-79839021D01*
X91431680Y-79862108D01*
X91448534Y-79883271D01*
X91470119Y-79899507D01*
X91495274Y-79909336D01*
X91525043Y-79912763D01*
X91558583Y-79909070D01*
X91591376Y-79897863D01*
X91624084Y-79878447D01*
X91653261Y-79849044D01*
X91669879Y-79814638D01*
X91675022Y-79784377D01*
X91677390Y-79720605D01*
X91677390Y-79682198D01*
X91560580Y-79711690D01*
X91487986Y-79730842D01*
X91456045Y-79745334D01*
X91434703Y-79765375D01*
X91422569Y-79787679D01*
X91418492Y-79813234D01*
X91228304Y-79813234D01*
X91229954Y-79793509D01*
X91239785Y-79757012D01*
X91255949Y-79723658D01*
X91278064Y-79693993D01*
X91305304Y-79669399D01*
X91338258Y-79649530D01*
X91397523Y-79627004D01*
X91490910Y-79604528D01*
X91614769Y-79577401D01*
X91677390Y-79557145D01*
X91677390Y-79537484D01*
X91673803Y-79500553D01*
X91664337Y-79474451D01*
X91650034Y-79456334D01*
X91630020Y-79444271D01*
X91597401Y-79435573D01*
X91546903Y-79432093D01*
X91499394Y-79437812D01*
X91466974Y-79452915D01*
X91442426Y-79479421D01*
X91420568Y-79525882D01*
X91246362Y-79494619D01*
X91271934Y-79426493D01*
X91305695Y-79374345D01*
X91347418Y-79335312D01*
X91383828Y-79314384D01*
X91430013Y-79298183D01*
X91488100Y-79287501D01*
X91560580Y-79283593D01*
X91646615Y-79287780D01*
G37*
G36*
X91963948Y-79303133D02*
G01*
X92168196Y-79303133D01*
X92341669Y-79820500D01*
X92511113Y-79303133D01*
X92709865Y-79303133D01*
X92453715Y-80003072D01*
X92407981Y-80131849D01*
X92381672Y-80191019D01*
X92359804Y-80228691D01*
X92334839Y-80259361D01*
X92307170Y-80282974D01*
X92275057Y-80301045D01*
X92234080Y-80315397D01*
X92189143Y-80323950D01*
X92136078Y-80326999D01*
X92081168Y-80324104D01*
X92027451Y-80315458D01*
X92010354Y-80165615D01*
X92054480Y-80172486D01*
X92091625Y-80174591D01*
X92134456Y-80169673D01*
X92166594Y-80156226D01*
X92190666Y-80134902D01*
X92218331Y-80091260D01*
X92239881Y-80033907D01*
X91963948Y-79303133D01*
G37*
G36*
X94072984Y-80030000D02*
G01*
X93852983Y-80030000D01*
X93765544Y-79803342D01*
X93365291Y-79803342D01*
X93282615Y-80030000D01*
X93068108Y-80030000D01*
X93221399Y-79635303D01*
X93427451Y-79635303D01*
X93700697Y-79635303D01*
X93562700Y-79260146D01*
X93427451Y-79635303D01*
X93221399Y-79635303D01*
X93458164Y-79025673D01*
X93671999Y-79025673D01*
X94072984Y-80030000D01*
G37*
G36*
X88536299Y-94149501D02*
G01*
X88611415Y-94159276D01*
X88661304Y-94172784D01*
X88706380Y-94195411D01*
X88744970Y-94227234D01*
X88777808Y-94269260D01*
X88801877Y-94317109D01*
X88816503Y-94369599D01*
X88821528Y-94427834D01*
X88817099Y-94483744D01*
X88804382Y-94532826D01*
X88783806Y-94576254D01*
X88755216Y-94614924D01*
X88720028Y-94646900D01*
X88676354Y-94673246D01*
X88622695Y-94693810D01*
X88557135Y-94707920D01*
X88618320Y-94749120D01*
X88665396Y-94792001D01*
X88710020Y-94847770D01*
X88780556Y-94954605D01*
X88902800Y-95150000D01*
X88660999Y-95150000D01*
X88514820Y-94931769D01*
X88441806Y-94826484D01*
X88408269Y-94784734D01*
X88377928Y-94758630D01*
X88347452Y-94743152D01*
X88310602Y-94735230D01*
X88245664Y-94731856D01*
X88204692Y-94731856D01*
X88204692Y-95150000D01*
X88002459Y-95150000D01*
X88002459Y-94571632D01*
X88204692Y-94571632D01*
X88354291Y-94571632D01*
X88486502Y-94567425D01*
X88536008Y-94559176D01*
X88568431Y-94542054D01*
X88592672Y-94516189D01*
X88607771Y-94482912D01*
X88613189Y-94439924D01*
X88609937Y-94406666D01*
X88600809Y-94379468D01*
X88586200Y-94357065D01*
X88554558Y-94331782D01*
X88510057Y-94317192D01*
X88362473Y-94313712D01*
X88204692Y-94313712D01*
X88204692Y-94571632D01*
X88002459Y-94571632D01*
X88002459Y-94145673D01*
X88428053Y-94145673D01*
X88536299Y-94149501D01*
G37*
G36*
X89366564Y-94410825D02*
G01*
X89434197Y-94431426D01*
X89492394Y-94464712D01*
X89542716Y-94511304D01*
X89573793Y-94554714D01*
X89598936Y-94607549D01*
X89617727Y-94671504D01*
X89629268Y-94748633D01*
X89632231Y-94841277D01*
X89151317Y-94841277D01*
X89157978Y-94896333D01*
X89173747Y-94939639D01*
X89197784Y-94973717D01*
X89229898Y-95000063D01*
X89266301Y-95015677D01*
X89308426Y-95021039D01*
X89350647Y-95014800D01*
X89384263Y-94996981D01*
X89410180Y-94967351D01*
X89430730Y-94919434D01*
X89621973Y-94950697D01*
X89591642Y-95018081D01*
X89552852Y-95071703D01*
X89505469Y-95113607D01*
X89449926Y-95143893D01*
X89384331Y-95162836D01*
X89306350Y-95169539D01*
X89230464Y-95163911D01*
X89166290Y-95148039D01*
X89111827Y-95122886D01*
X89065512Y-95088633D01*
X89026325Y-95044670D01*
X88995873Y-94993307D01*
X88973508Y-94934917D01*
X88959494Y-94868313D01*
X88954579Y-94792062D01*
X88959530Y-94724040D01*
X89154736Y-94724040D01*
X89441660Y-94724040D01*
X89435290Y-94669331D01*
X89420580Y-94627595D01*
X89398613Y-94595935D01*
X89369012Y-94571385D01*
X89336178Y-94556990D01*
X89298900Y-94552093D01*
X89259047Y-94557336D01*
X89224906Y-94572587D01*
X89195036Y-94598377D01*
X89173048Y-94631423D01*
X89159355Y-94672563D01*
X89154736Y-94724040D01*
X88959530Y-94724040D01*
X88961204Y-94701047D01*
X88979805Y-94624766D01*
X89009129Y-94560678D01*
X89048857Y-94506786D01*
X89099375Y-94461447D01*
X89155118Y-94429597D01*
X89217195Y-94410261D01*
X89287238Y-94403593D01*
X89366564Y-94410825D01*
G37*
G36*
X89788302Y-95150000D02*
G01*
X89788302Y-94145673D01*
X89980216Y-94145673D01*
X89980216Y-95150000D01*
X89788302Y-95150000D01*
G37*
G36*
X90546615Y-94407780D02*
G01*
X90608538Y-94418665D01*
X90651823Y-94434185D01*
X90691254Y-94457601D01*
X90720153Y-94483466D01*
X90740300Y-94511854D01*
X90752807Y-94544976D01*
X90762165Y-94599732D01*
X90765945Y-94684717D01*
X90763930Y-94910153D01*
X90766670Y-95000013D01*
X90773150Y-95052058D01*
X90785900Y-95098026D01*
X90807650Y-95150000D01*
X90617751Y-95150000D01*
X90599310Y-95094068D01*
X90592472Y-95071842D01*
X90540779Y-95115149D01*
X90487264Y-95145115D01*
X90429667Y-95163374D01*
X90367707Y-95169539D01*
X90311951Y-95165294D01*
X90264887Y-95153324D01*
X90224999Y-95134335D01*
X90191120Y-95108417D01*
X90162864Y-95075810D01*
X90142923Y-95039719D01*
X90130775Y-94999418D01*
X90126578Y-94953872D01*
X90128304Y-94933234D01*
X90318492Y-94933234D01*
X90321826Y-94959021D01*
X90331680Y-94982108D01*
X90348534Y-95003271D01*
X90370119Y-95019507D01*
X90395274Y-95029336D01*
X90425043Y-95032763D01*
X90458583Y-95029070D01*
X90491376Y-95017863D01*
X90524084Y-94998447D01*
X90553261Y-94969044D01*
X90569879Y-94934638D01*
X90575022Y-94904377D01*
X90577390Y-94840605D01*
X90577390Y-94802198D01*
X90460580Y-94831690D01*
X90387986Y-94850842D01*
X90356045Y-94865334D01*
X90334703Y-94885375D01*
X90322569Y-94907679D01*
X90318492Y-94933234D01*
X90128304Y-94933234D01*
X90129954Y-94913509D01*
X90139785Y-94877012D01*
X90155949Y-94843658D01*
X90178064Y-94813993D01*
X90205304Y-94789399D01*
X90238258Y-94769530D01*
X90297523Y-94747004D01*
X90390910Y-94724528D01*
X90514769Y-94697401D01*
X90577390Y-94677145D01*
X90577390Y-94657484D01*
X90573803Y-94620553D01*
X90564337Y-94594451D01*
X90550034Y-94576334D01*
X90530020Y-94564271D01*
X90497401Y-94555573D01*
X90446903Y-94552093D01*
X90399394Y-94557812D01*
X90366974Y-94572915D01*
X90342426Y-94599421D01*
X90320568Y-94645882D01*
X90146362Y-94614619D01*
X90171934Y-94546493D01*
X90205695Y-94494345D01*
X90247418Y-94455312D01*
X90283828Y-94434384D01*
X90330013Y-94418183D01*
X90388100Y-94407501D01*
X90460580Y-94403593D01*
X90546615Y-94407780D01*
G37*
G36*
X90863948Y-94423133D02*
G01*
X91068196Y-94423133D01*
X91241669Y-94940500D01*
X91411113Y-94423133D01*
X91609865Y-94423133D01*
X91353715Y-95123072D01*
X91307981Y-95251849D01*
X91281672Y-95311019D01*
X91259804Y-95348691D01*
X91234839Y-95379361D01*
X91207170Y-95402974D01*
X91175057Y-95421045D01*
X91134080Y-95435397D01*
X91089143Y-95443950D01*
X91036078Y-95446999D01*
X90981168Y-95444104D01*
X90927451Y-95435458D01*
X90910354Y-95285615D01*
X90954480Y-95292486D01*
X90991625Y-95294591D01*
X91034456Y-95289673D01*
X91066594Y-95276226D01*
X91090666Y-95254902D01*
X91118331Y-95211260D01*
X91139881Y-95153907D01*
X90863948Y-94423133D01*
G37*
G36*
X92634930Y-94148609D02*
G01*
X92700898Y-94155626D01*
X92756630Y-94171072D01*
X92805434Y-94197025D01*
X92847289Y-94233273D01*
X92882248Y-94280861D01*
X92899225Y-94316828D01*
X92909508Y-94355715D01*
X92913023Y-94398220D01*
X92908775Y-94444126D01*
X92896200Y-94486996D01*
X92875104Y-94527608D01*
X92846825Y-94563581D01*
X92812770Y-94592856D01*
X92772278Y-94615901D01*
X92830191Y-94638744D01*
X92876477Y-94669151D01*
X92912962Y-94707126D01*
X92940127Y-94752202D01*
X92956533Y-94802245D01*
X92962177Y-94858618D01*
X92958694Y-94903623D01*
X92948208Y-94947916D01*
X92930425Y-94991974D01*
X92906312Y-95032785D01*
X92877463Y-95067082D01*
X92843658Y-95095533D01*
X92805361Y-95117473D01*
X92760548Y-95133480D01*
X92708042Y-95143161D01*
X92640185Y-95147051D01*
X92464166Y-95150000D01*
X92123325Y-95150000D01*
X92123325Y-94981960D01*
X92325558Y-94981960D01*
X92512709Y-94981960D01*
X92612249Y-94979906D01*
X92651378Y-94975793D01*
X92692585Y-94961401D01*
X92724773Y-94935554D01*
X92740113Y-94912703D01*
X92749727Y-94884619D01*
X92753166Y-94849886D01*
X92747470Y-94807149D01*
X92731306Y-94772889D01*
X92705088Y-94745893D01*
X92668108Y-94726788D01*
X92614869Y-94717035D01*
X92488834Y-94712316D01*
X92325558Y-94712316D01*
X92325558Y-94981960D01*
X92123325Y-94981960D01*
X92123325Y-94544277D01*
X92325558Y-94544277D01*
X92458060Y-94544277D01*
X92604972Y-94540858D01*
X92652471Y-94528379D01*
X92686549Y-94505198D01*
X92702825Y-94483818D01*
X92712780Y-94458249D01*
X92716285Y-94427285D01*
X92709574Y-94384531D01*
X92690640Y-94352180D01*
X92671771Y-94336036D01*
X92646910Y-94324231D01*
X92614497Y-94317131D01*
X92441695Y-94313712D01*
X92325558Y-94313712D01*
X92325558Y-94544277D01*
X92123325Y-94544277D01*
X92123325Y-94145673D01*
X92523639Y-94145673D01*
X92634930Y-94148609D01*
G37*
D10*
X68830866Y-107456115D02*
X68830866Y-106694211D01*
X69211819Y-107075163D02*
X68449914Y-107075163D01*
X69211819Y-105694211D02*
X69211819Y-106265639D01*
X69211819Y-105979925D02*
X68211819Y-105979925D01*
X68211819Y-105979925D02*
X68354676Y-106075163D01*
X68354676Y-106075163D02*
X68449914Y-106170401D01*
X68449914Y-106170401D02*
X68497533Y-106265639D01*
X68307057Y-105313258D02*
X68259438Y-105265639D01*
X68259438Y-105265639D02*
X68211819Y-105170401D01*
X68211819Y-105170401D02*
X68211819Y-104932306D01*
X68211819Y-104932306D02*
X68259438Y-104837068D01*
X68259438Y-104837068D02*
X68307057Y-104789449D01*
X68307057Y-104789449D02*
X68402295Y-104741830D01*
X68402295Y-104741830D02*
X68497533Y-104741830D01*
X68497533Y-104741830D02*
X68640390Y-104789449D01*
X68640390Y-104789449D02*
X69211819Y-105360877D01*
X69211819Y-105360877D02*
X69211819Y-104741830D01*
X68211819Y-104456115D02*
X69211819Y-104122782D01*
X69211819Y-104122782D02*
X68211819Y-103789449D01*
X69211819Y-102551353D02*
X69164200Y-102646591D01*
X69164200Y-102646591D02*
X69116580Y-102694210D01*
X69116580Y-102694210D02*
X69021342Y-102741829D01*
X69021342Y-102741829D02*
X68735628Y-102741829D01*
X68735628Y-102741829D02*
X68640390Y-102694210D01*
X68640390Y-102694210D02*
X68592771Y-102646591D01*
X68592771Y-102646591D02*
X68545152Y-102551353D01*
X68545152Y-102551353D02*
X68545152Y-102408496D01*
X68545152Y-102408496D02*
X68592771Y-102313258D01*
X68592771Y-102313258D02*
X68640390Y-102265639D01*
X68640390Y-102265639D02*
X68735628Y-102218020D01*
X68735628Y-102218020D02*
X69021342Y-102218020D01*
X69021342Y-102218020D02*
X69116580Y-102265639D01*
X69116580Y-102265639D02*
X69164200Y-102313258D01*
X69164200Y-102313258D02*
X69211819Y-102408496D01*
X69211819Y-102408496D02*
X69211819Y-102551353D01*
X69211819Y-101789448D02*
X68211819Y-101789448D01*
X68830866Y-101694210D02*
X69211819Y-101408496D01*
X68545152Y-101408496D02*
X68926104Y-101789448D01*
X68505752Y-126367544D02*
X69172419Y-126367544D01*
X68124800Y-126605639D02*
X68839085Y-126843734D01*
X68839085Y-126843734D02*
X68839085Y-126224687D01*
X68600990Y-125700877D02*
X68553371Y-125796115D01*
X68553371Y-125796115D02*
X68505752Y-125843734D01*
X68505752Y-125843734D02*
X68410514Y-125891353D01*
X68410514Y-125891353D02*
X68362895Y-125891353D01*
X68362895Y-125891353D02*
X68267657Y-125843734D01*
X68267657Y-125843734D02*
X68220038Y-125796115D01*
X68220038Y-125796115D02*
X68172419Y-125700877D01*
X68172419Y-125700877D02*
X68172419Y-125510401D01*
X68172419Y-125510401D02*
X68220038Y-125415163D01*
X68220038Y-125415163D02*
X68267657Y-125367544D01*
X68267657Y-125367544D02*
X68362895Y-125319925D01*
X68362895Y-125319925D02*
X68410514Y-125319925D01*
X68410514Y-125319925D02*
X68505752Y-125367544D01*
X68505752Y-125367544D02*
X68553371Y-125415163D01*
X68553371Y-125415163D02*
X68600990Y-125510401D01*
X68600990Y-125510401D02*
X68600990Y-125700877D01*
X68600990Y-125700877D02*
X68648609Y-125796115D01*
X68648609Y-125796115D02*
X68696228Y-125843734D01*
X68696228Y-125843734D02*
X68791466Y-125891353D01*
X68791466Y-125891353D02*
X68981942Y-125891353D01*
X68981942Y-125891353D02*
X69077180Y-125843734D01*
X69077180Y-125843734D02*
X69124800Y-125796115D01*
X69124800Y-125796115D02*
X69172419Y-125700877D01*
X69172419Y-125700877D02*
X69172419Y-125510401D01*
X69172419Y-125510401D02*
X69124800Y-125415163D01*
X69124800Y-125415163D02*
X69077180Y-125367544D01*
X69077180Y-125367544D02*
X68981942Y-125319925D01*
X68981942Y-125319925D02*
X68791466Y-125319925D01*
X68791466Y-125319925D02*
X68696228Y-125367544D01*
X68696228Y-125367544D02*
X68648609Y-125415163D01*
X68648609Y-125415163D02*
X68600990Y-125510401D01*
X68172419Y-125034210D02*
X69172419Y-124700877D01*
X69172419Y-124700877D02*
X68172419Y-124367544D01*
X69172419Y-123272305D02*
X68505752Y-123272305D01*
X68172419Y-123272305D02*
X68220038Y-123319924D01*
X68220038Y-123319924D02*
X68267657Y-123272305D01*
X68267657Y-123272305D02*
X68220038Y-123224686D01*
X68220038Y-123224686D02*
X68172419Y-123272305D01*
X68172419Y-123272305D02*
X68267657Y-123272305D01*
X68505752Y-122796115D02*
X69172419Y-122796115D01*
X68600990Y-122796115D02*
X68553371Y-122748496D01*
X68553371Y-122748496D02*
X68505752Y-122653258D01*
X68505752Y-122653258D02*
X68505752Y-122510401D01*
X68505752Y-122510401D02*
X68553371Y-122415163D01*
X68553371Y-122415163D02*
X68648609Y-122367544D01*
X68648609Y-122367544D02*
X69172419Y-122367544D01*
X52467544Y-101469247D02*
X52467544Y-100802580D01*
X52705639Y-101850200D02*
X52943734Y-101135914D01*
X52943734Y-101135914D02*
X52324687Y-101135914D01*
X52038972Y-101802580D02*
X51372306Y-101802580D01*
X51372306Y-101802580D02*
X51800877Y-100802580D01*
X50562782Y-101469247D02*
X50562782Y-100802580D01*
X50991353Y-101469247D02*
X50991353Y-100945438D01*
X50991353Y-100945438D02*
X50943734Y-100850200D01*
X50943734Y-100850200D02*
X50848496Y-100802580D01*
X50848496Y-100802580D02*
X50705639Y-100802580D01*
X50705639Y-100802580D02*
X50610401Y-100850200D01*
X50610401Y-100850200D02*
X50562782Y-100897819D01*
X50086591Y-100802580D02*
X50086591Y-101802580D01*
X50086591Y-101326390D02*
X49515163Y-101326390D01*
X49515163Y-100802580D02*
X49515163Y-101802580D01*
X158438095Y-100876760D02*
X158914285Y-100876760D01*
X158342857Y-101162475D02*
X158676190Y-100162475D01*
X158676190Y-100162475D02*
X159009523Y-101162475D01*
X159485714Y-101162475D02*
X159390476Y-101114856D01*
X159390476Y-101114856D02*
X159342857Y-101019617D01*
X159342857Y-101019617D02*
X159342857Y-100162475D01*
X159771429Y-100495808D02*
X159961905Y-101162475D01*
X159961905Y-101162475D02*
X160152381Y-100686284D01*
X160152381Y-100686284D02*
X160342857Y-101162475D01*
X160342857Y-101162475D02*
X160533333Y-100495808D01*
X161342857Y-101162475D02*
X161342857Y-100638665D01*
X161342857Y-100638665D02*
X161295238Y-100543427D01*
X161295238Y-100543427D02*
X161200000Y-100495808D01*
X161200000Y-100495808D02*
X161009524Y-100495808D01*
X161009524Y-100495808D02*
X160914286Y-100543427D01*
X161342857Y-101114856D02*
X161247619Y-101162475D01*
X161247619Y-101162475D02*
X161009524Y-101162475D01*
X161009524Y-101162475D02*
X160914286Y-101114856D01*
X160914286Y-101114856D02*
X160866667Y-101019617D01*
X160866667Y-101019617D02*
X160866667Y-100924379D01*
X160866667Y-100924379D02*
X160914286Y-100829141D01*
X160914286Y-100829141D02*
X161009524Y-100781522D01*
X161009524Y-100781522D02*
X161247619Y-100781522D01*
X161247619Y-100781522D02*
X161342857Y-100733903D01*
X161723810Y-100495808D02*
X161961905Y-101162475D01*
X162200000Y-100495808D02*
X161961905Y-101162475D01*
X161961905Y-101162475D02*
X161866667Y-101400570D01*
X161866667Y-101400570D02*
X161819048Y-101448189D01*
X161819048Y-101448189D02*
X161723810Y-101495808D01*
X162533334Y-101114856D02*
X162628572Y-101162475D01*
X162628572Y-101162475D02*
X162819048Y-101162475D01*
X162819048Y-101162475D02*
X162914286Y-101114856D01*
X162914286Y-101114856D02*
X162961905Y-101019617D01*
X162961905Y-101019617D02*
X162961905Y-100971998D01*
X162961905Y-100971998D02*
X162914286Y-100876760D01*
X162914286Y-100876760D02*
X162819048Y-100829141D01*
X162819048Y-100829141D02*
X162676191Y-100829141D01*
X162676191Y-100829141D02*
X162580953Y-100781522D01*
X162580953Y-100781522D02*
X162533334Y-100686284D01*
X162533334Y-100686284D02*
X162533334Y-100638665D01*
X162533334Y-100638665D02*
X162580953Y-100543427D01*
X162580953Y-100543427D02*
X162676191Y-100495808D01*
X162676191Y-100495808D02*
X162819048Y-100495808D01*
X162819048Y-100495808D02*
X162914286Y-100543427D01*
X160080952Y-101772419D02*
X160271428Y-101772419D01*
X160271428Y-101772419D02*
X160366666Y-101820038D01*
X160366666Y-101820038D02*
X160461904Y-101915276D01*
X160461904Y-101915276D02*
X160509523Y-102105752D01*
X160509523Y-102105752D02*
X160509523Y-102439085D01*
X160509523Y-102439085D02*
X160461904Y-102629561D01*
X160461904Y-102629561D02*
X160366666Y-102724800D01*
X160366666Y-102724800D02*
X160271428Y-102772419D01*
X160271428Y-102772419D02*
X160080952Y-102772419D01*
X160080952Y-102772419D02*
X159985714Y-102724800D01*
X159985714Y-102724800D02*
X159890476Y-102629561D01*
X159890476Y-102629561D02*
X159842857Y-102439085D01*
X159842857Y-102439085D02*
X159842857Y-102105752D01*
X159842857Y-102105752D02*
X159890476Y-101915276D01*
X159890476Y-101915276D02*
X159985714Y-101820038D01*
X159985714Y-101820038D02*
X160080952Y-101772419D01*
X160938095Y-102772419D02*
X160938095Y-101772419D01*
X160938095Y-101772419D02*
X161509523Y-102772419D01*
X161509523Y-102772419D02*
X161509523Y-101772419D01*
X158238096Y-119126759D02*
X158714286Y-119126759D01*
X158142858Y-119412474D02*
X158476191Y-118412474D01*
X158476191Y-118412474D02*
X158809524Y-119412474D01*
X159285715Y-119412474D02*
X159190477Y-119364855D01*
X159190477Y-119364855D02*
X159142858Y-119269616D01*
X159142858Y-119269616D02*
X159142858Y-118412474D01*
X159571430Y-118745807D02*
X159761906Y-119412474D01*
X159761906Y-119412474D02*
X159952382Y-118936283D01*
X159952382Y-118936283D02*
X160142858Y-119412474D01*
X160142858Y-119412474D02*
X160333334Y-118745807D01*
X161142858Y-119412474D02*
X161142858Y-118888664D01*
X161142858Y-118888664D02*
X161095239Y-118793426D01*
X161095239Y-118793426D02*
X161000001Y-118745807D01*
X161000001Y-118745807D02*
X160809525Y-118745807D01*
X160809525Y-118745807D02*
X160714287Y-118793426D01*
X161142858Y-119364855D02*
X161047620Y-119412474D01*
X161047620Y-119412474D02*
X160809525Y-119412474D01*
X160809525Y-119412474D02*
X160714287Y-119364855D01*
X160714287Y-119364855D02*
X160666668Y-119269616D01*
X160666668Y-119269616D02*
X160666668Y-119174378D01*
X160666668Y-119174378D02*
X160714287Y-119079140D01*
X160714287Y-119079140D02*
X160809525Y-119031521D01*
X160809525Y-119031521D02*
X161047620Y-119031521D01*
X161047620Y-119031521D02*
X161142858Y-118983902D01*
X161523811Y-118745807D02*
X161761906Y-119412474D01*
X162000001Y-118745807D02*
X161761906Y-119412474D01*
X161761906Y-119412474D02*
X161666668Y-119650569D01*
X161666668Y-119650569D02*
X161619049Y-119698188D01*
X161619049Y-119698188D02*
X161523811Y-119745807D01*
X162333335Y-119364855D02*
X162428573Y-119412474D01*
X162428573Y-119412474D02*
X162619049Y-119412474D01*
X162619049Y-119412474D02*
X162714287Y-119364855D01*
X162714287Y-119364855D02*
X162761906Y-119269616D01*
X162761906Y-119269616D02*
X162761906Y-119221997D01*
X162761906Y-119221997D02*
X162714287Y-119126759D01*
X162714287Y-119126759D02*
X162619049Y-119079140D01*
X162619049Y-119079140D02*
X162476192Y-119079140D01*
X162476192Y-119079140D02*
X162380954Y-119031521D01*
X162380954Y-119031521D02*
X162333335Y-118936283D01*
X162333335Y-118936283D02*
X162333335Y-118888664D01*
X162333335Y-118888664D02*
X162380954Y-118793426D01*
X162380954Y-118793426D02*
X162476192Y-118745807D01*
X162476192Y-118745807D02*
X162619049Y-118745807D01*
X162619049Y-118745807D02*
X162714287Y-118793426D01*
X159880953Y-120022418D02*
X160071429Y-120022418D01*
X160071429Y-120022418D02*
X160166667Y-120070037D01*
X160166667Y-120070037D02*
X160261905Y-120165275D01*
X160261905Y-120165275D02*
X160309524Y-120355751D01*
X160309524Y-120355751D02*
X160309524Y-120689084D01*
X160309524Y-120689084D02*
X160261905Y-120879560D01*
X160261905Y-120879560D02*
X160166667Y-120974799D01*
X160166667Y-120974799D02*
X160071429Y-121022418D01*
X160071429Y-121022418D02*
X159880953Y-121022418D01*
X159880953Y-121022418D02*
X159785715Y-120974799D01*
X159785715Y-120974799D02*
X159690477Y-120879560D01*
X159690477Y-120879560D02*
X159642858Y-120689084D01*
X159642858Y-120689084D02*
X159642858Y-120355751D01*
X159642858Y-120355751D02*
X159690477Y-120165275D01*
X159690477Y-120165275D02*
X159785715Y-120070037D01*
X159785715Y-120070037D02*
X159880953Y-120022418D01*
X160738096Y-121022418D02*
X160738096Y-120022418D01*
X160738096Y-120022418D02*
X161309524Y-121022418D01*
X161309524Y-121022418D02*
X161309524Y-120022418D01*
D11*
G36*
X127494914Y-40130581D02*
G01*
X127566721Y-40140755D01*
X127620612Y-40161514D01*
X127668354Y-40193884D01*
X127710886Y-40239063D01*
X127742239Y-40292310D01*
X127761936Y-40356553D01*
X127768954Y-40434518D01*
X127764883Y-40495429D01*
X127753455Y-40546722D01*
X127735493Y-40589979D01*
X127710567Y-40629805D01*
X127682248Y-40662537D01*
X127650436Y-40688958D01*
X127597486Y-40719250D01*
X127545533Y-40736524D01*
X127465003Y-40746746D01*
X127335790Y-40750935D01*
X127203960Y-40750935D01*
X127203960Y-41130000D01*
X127001788Y-41130000D01*
X127001788Y-40582896D01*
X127203960Y-40582896D01*
X127314602Y-40582896D01*
X127424291Y-40577802D01*
X127474459Y-40566898D01*
X127510628Y-40546222D01*
X127537657Y-40516889D01*
X127554692Y-40480514D01*
X127560554Y-40437632D01*
X127556777Y-40401770D01*
X127546008Y-40371582D01*
X127528436Y-40345858D01*
X127505170Y-40324799D01*
X127478318Y-40309825D01*
X127447165Y-40300673D01*
X127401907Y-40295938D01*
X127301657Y-40293712D01*
X127203960Y-40293712D01*
X127203960Y-40582896D01*
X127001788Y-40582896D01*
X127001788Y-40125673D01*
X127326264Y-40125673D01*
X127494914Y-40130581D01*
G37*
G36*
X128076884Y-41130000D02*
G01*
X127837770Y-40125673D01*
X128044766Y-40125673D01*
X128195769Y-40815537D01*
X128378829Y-40125673D01*
X128619286Y-40125673D01*
X128794836Y-40827199D01*
X128948525Y-40125673D01*
X129152102Y-40125673D01*
X128908897Y-41130000D01*
X128694391Y-41130000D01*
X128494966Y-40379136D01*
X128296153Y-41130000D01*
X128076884Y-41130000D01*
G37*
G36*
X129252913Y-41130000D02*
G01*
X129252913Y-40125673D01*
X129555530Y-40125673D01*
X129737247Y-40810774D01*
X129916887Y-40125673D01*
X130220237Y-40125673D01*
X130220237Y-41130000D01*
X130032353Y-41130000D01*
X130032353Y-40339446D01*
X129833600Y-41130000D01*
X129638878Y-41130000D01*
X129440797Y-40339446D01*
X129440797Y-41130000D01*
X129252913Y-41130000D01*
G37*
G36*
X131660354Y-41130000D02*
G01*
X131440352Y-41130000D01*
X131352913Y-40903342D01*
X130952660Y-40903342D01*
X130869984Y-41130000D01*
X130655478Y-41130000D01*
X130808768Y-40735303D01*
X131014820Y-40735303D01*
X131288066Y-40735303D01*
X131150069Y-40360146D01*
X131014820Y-40735303D01*
X130808768Y-40735303D01*
X131045533Y-40125673D01*
X131259368Y-40125673D01*
X131660354Y-41130000D01*
G37*
D10*
X51891466Y-84896115D02*
X51891466Y-84134211D01*
X52272419Y-84515163D02*
X51510514Y-84515163D01*
X51272419Y-83181830D02*
X51272419Y-83658020D01*
X51272419Y-83658020D02*
X51748609Y-83705639D01*
X51748609Y-83705639D02*
X51700990Y-83658020D01*
X51700990Y-83658020D02*
X51653371Y-83562782D01*
X51653371Y-83562782D02*
X51653371Y-83324687D01*
X51653371Y-83324687D02*
X51700990Y-83229449D01*
X51700990Y-83229449D02*
X51748609Y-83181830D01*
X51748609Y-83181830D02*
X51843847Y-83134211D01*
X51843847Y-83134211D02*
X52081942Y-83134211D01*
X52081942Y-83134211D02*
X52177180Y-83181830D01*
X52177180Y-83181830D02*
X52224800Y-83229449D01*
X52224800Y-83229449D02*
X52272419Y-83324687D01*
X52272419Y-83324687D02*
X52272419Y-83562782D01*
X52272419Y-83562782D02*
X52224800Y-83658020D01*
X52224800Y-83658020D02*
X52177180Y-83705639D01*
X51272419Y-82848496D02*
X52272419Y-82515163D01*
X52272419Y-82515163D02*
X51272419Y-82181830D01*
X51272419Y-81229448D02*
X51272419Y-80658020D01*
X52272419Y-80943734D02*
X51272419Y-80943734D01*
X52272419Y-80324686D02*
X51272419Y-80324686D01*
X51272419Y-80324686D02*
X51272419Y-79943734D01*
X51272419Y-79943734D02*
X51320038Y-79848496D01*
X51320038Y-79848496D02*
X51367657Y-79800877D01*
X51367657Y-79800877D02*
X51462895Y-79753258D01*
X51462895Y-79753258D02*
X51605752Y-79753258D01*
X51605752Y-79753258D02*
X51700990Y-79800877D01*
X51700990Y-79800877D02*
X51748609Y-79848496D01*
X51748609Y-79848496D02*
X51796228Y-79943734D01*
X51796228Y-79943734D02*
X51796228Y-80324686D01*
X53914153Y-61665080D02*
X53295106Y-61665080D01*
X53295106Y-61665080D02*
X53628439Y-61284128D01*
X53628439Y-61284128D02*
X53485582Y-61284128D01*
X53485582Y-61284128D02*
X53390344Y-61236509D01*
X53390344Y-61236509D02*
X53342725Y-61188890D01*
X53342725Y-61188890D02*
X53295106Y-61093652D01*
X53295106Y-61093652D02*
X53295106Y-60855557D01*
X53295106Y-60855557D02*
X53342725Y-60760319D01*
X53342725Y-60760319D02*
X53390344Y-60712700D01*
X53390344Y-60712700D02*
X53485582Y-60665080D01*
X53485582Y-60665080D02*
X53771296Y-60665080D01*
X53771296Y-60665080D02*
X53866534Y-60712700D01*
X53866534Y-60712700D02*
X53914153Y-60760319D01*
X52961772Y-61665080D02*
X52342725Y-61665080D01*
X52342725Y-61665080D02*
X52676058Y-61284128D01*
X52676058Y-61284128D02*
X52533201Y-61284128D01*
X52533201Y-61284128D02*
X52437963Y-61236509D01*
X52437963Y-61236509D02*
X52390344Y-61188890D01*
X52390344Y-61188890D02*
X52342725Y-61093652D01*
X52342725Y-61093652D02*
X52342725Y-60855557D01*
X52342725Y-60855557D02*
X52390344Y-60760319D01*
X52390344Y-60760319D02*
X52437963Y-60712700D01*
X52437963Y-60712700D02*
X52533201Y-60665080D01*
X52533201Y-60665080D02*
X52818915Y-60665080D01*
X52818915Y-60665080D02*
X52914153Y-60712700D01*
X52914153Y-60712700D02*
X52961772Y-60760319D01*
X51485582Y-61331747D02*
X51485582Y-60665080D01*
X51914153Y-61331747D02*
X51914153Y-60807938D01*
X51914153Y-60807938D02*
X51866534Y-60712700D01*
X51866534Y-60712700D02*
X51771296Y-60665080D01*
X51771296Y-60665080D02*
X51628439Y-60665080D01*
X51628439Y-60665080D02*
X51533201Y-60712700D01*
X51533201Y-60712700D02*
X51485582Y-60760319D01*
X51009391Y-60665080D02*
X51009391Y-61665080D01*
X51009391Y-61188890D02*
X50437963Y-61188890D01*
X50437963Y-60665080D02*
X50437963Y-61665080D01*
X69805752Y-85130044D02*
X70472419Y-85130044D01*
X69424800Y-85368139D02*
X70139085Y-85606234D01*
X70139085Y-85606234D02*
X70139085Y-84987187D01*
X69900990Y-84463377D02*
X69853371Y-84558615D01*
X69853371Y-84558615D02*
X69805752Y-84606234D01*
X69805752Y-84606234D02*
X69710514Y-84653853D01*
X69710514Y-84653853D02*
X69662895Y-84653853D01*
X69662895Y-84653853D02*
X69567657Y-84606234D01*
X69567657Y-84606234D02*
X69520038Y-84558615D01*
X69520038Y-84558615D02*
X69472419Y-84463377D01*
X69472419Y-84463377D02*
X69472419Y-84272901D01*
X69472419Y-84272901D02*
X69520038Y-84177663D01*
X69520038Y-84177663D02*
X69567657Y-84130044D01*
X69567657Y-84130044D02*
X69662895Y-84082425D01*
X69662895Y-84082425D02*
X69710514Y-84082425D01*
X69710514Y-84082425D02*
X69805752Y-84130044D01*
X69805752Y-84130044D02*
X69853371Y-84177663D01*
X69853371Y-84177663D02*
X69900990Y-84272901D01*
X69900990Y-84272901D02*
X69900990Y-84463377D01*
X69900990Y-84463377D02*
X69948609Y-84558615D01*
X69948609Y-84558615D02*
X69996228Y-84606234D01*
X69996228Y-84606234D02*
X70091466Y-84653853D01*
X70091466Y-84653853D02*
X70281942Y-84653853D01*
X70281942Y-84653853D02*
X70377180Y-84606234D01*
X70377180Y-84606234D02*
X70424800Y-84558615D01*
X70424800Y-84558615D02*
X70472419Y-84463377D01*
X70472419Y-84463377D02*
X70472419Y-84272901D01*
X70472419Y-84272901D02*
X70424800Y-84177663D01*
X70424800Y-84177663D02*
X70377180Y-84130044D01*
X70377180Y-84130044D02*
X70281942Y-84082425D01*
X70281942Y-84082425D02*
X70091466Y-84082425D01*
X70091466Y-84082425D02*
X69996228Y-84130044D01*
X69996228Y-84130044D02*
X69948609Y-84177663D01*
X69948609Y-84177663D02*
X69900990Y-84272901D01*
X69472419Y-83796710D02*
X70472419Y-83463377D01*
X70472419Y-83463377D02*
X69472419Y-83130044D01*
X70472419Y-82034805D02*
X69805752Y-82034805D01*
X69472419Y-82034805D02*
X69520038Y-82082424D01*
X69520038Y-82082424D02*
X69567657Y-82034805D01*
X69567657Y-82034805D02*
X69520038Y-81987186D01*
X69520038Y-81987186D02*
X69472419Y-82034805D01*
X69472419Y-82034805D02*
X69567657Y-82034805D01*
X69805752Y-81558615D02*
X70472419Y-81558615D01*
X69900990Y-81558615D02*
X69853371Y-81510996D01*
X69853371Y-81510996D02*
X69805752Y-81415758D01*
X69805752Y-81415758D02*
X69805752Y-81272901D01*
X69805752Y-81272901D02*
X69853371Y-81177663D01*
X69853371Y-81177663D02*
X69948609Y-81130044D01*
X69948609Y-81130044D02*
X70472419Y-81130044D01*
D11*
G36*
X89636299Y-108649501D02*
G01*
X89711415Y-108659276D01*
X89761304Y-108672784D01*
X89806380Y-108695411D01*
X89844970Y-108727234D01*
X89877808Y-108769260D01*
X89901877Y-108817109D01*
X89916503Y-108869599D01*
X89921528Y-108927834D01*
X89917099Y-108983744D01*
X89904382Y-109032826D01*
X89883806Y-109076254D01*
X89855216Y-109114924D01*
X89820028Y-109146900D01*
X89776354Y-109173246D01*
X89722695Y-109193810D01*
X89657135Y-109207920D01*
X89718320Y-109249120D01*
X89765396Y-109292001D01*
X89810020Y-109347770D01*
X89880556Y-109454605D01*
X90002800Y-109650000D01*
X89760999Y-109650000D01*
X89614820Y-109431769D01*
X89541806Y-109326484D01*
X89508269Y-109284734D01*
X89477928Y-109258630D01*
X89447452Y-109243152D01*
X89410602Y-109235230D01*
X89345664Y-109231856D01*
X89304692Y-109231856D01*
X89304692Y-109650000D01*
X89102459Y-109650000D01*
X89102459Y-109071632D01*
X89304692Y-109071632D01*
X89454291Y-109071632D01*
X89586502Y-109067425D01*
X89636008Y-109059176D01*
X89668431Y-109042054D01*
X89692672Y-109016189D01*
X89707771Y-108982912D01*
X89713189Y-108939924D01*
X89709937Y-108906666D01*
X89700809Y-108879468D01*
X89686200Y-108857065D01*
X89654558Y-108831782D01*
X89610057Y-108817192D01*
X89462473Y-108813712D01*
X89304692Y-108813712D01*
X89304692Y-109071632D01*
X89102459Y-109071632D01*
X89102459Y-108645673D01*
X89528053Y-108645673D01*
X89636299Y-108649501D01*
G37*
G36*
X90466564Y-108910825D02*
G01*
X90534197Y-108931426D01*
X90592394Y-108964712D01*
X90642716Y-109011304D01*
X90673793Y-109054714D01*
X90698936Y-109107549D01*
X90717727Y-109171504D01*
X90729268Y-109248633D01*
X90732231Y-109341277D01*
X90251317Y-109341277D01*
X90257978Y-109396333D01*
X90273747Y-109439639D01*
X90297784Y-109473717D01*
X90329898Y-109500063D01*
X90366301Y-109515677D01*
X90408426Y-109521039D01*
X90450647Y-109514800D01*
X90484263Y-109496981D01*
X90510180Y-109467351D01*
X90530730Y-109419434D01*
X90721973Y-109450697D01*
X90691642Y-109518081D01*
X90652852Y-109571703D01*
X90605469Y-109613607D01*
X90549926Y-109643893D01*
X90484331Y-109662836D01*
X90406350Y-109669539D01*
X90330464Y-109663911D01*
X90266290Y-109648039D01*
X90211827Y-109622886D01*
X90165512Y-109588633D01*
X90126325Y-109544670D01*
X90095873Y-109493307D01*
X90073508Y-109434917D01*
X90059494Y-109368313D01*
X90054579Y-109292062D01*
X90059530Y-109224040D01*
X90254736Y-109224040D01*
X90541660Y-109224040D01*
X90535290Y-109169331D01*
X90520580Y-109127595D01*
X90498613Y-109095935D01*
X90469012Y-109071385D01*
X90436178Y-109056990D01*
X90398900Y-109052093D01*
X90359047Y-109057336D01*
X90324906Y-109072587D01*
X90295036Y-109098377D01*
X90273048Y-109131423D01*
X90259355Y-109172563D01*
X90254736Y-109224040D01*
X90059530Y-109224040D01*
X90061204Y-109201047D01*
X90079805Y-109124766D01*
X90109129Y-109060678D01*
X90148857Y-109006786D01*
X90199375Y-108961447D01*
X90255118Y-108929597D01*
X90317195Y-108910261D01*
X90387238Y-108903593D01*
X90466564Y-108910825D01*
G37*
G36*
X90888302Y-109650000D02*
G01*
X90888302Y-108645673D01*
X91080216Y-108645673D01*
X91080216Y-109650000D01*
X90888302Y-109650000D01*
G37*
G36*
X91646615Y-108907780D02*
G01*
X91708538Y-108918665D01*
X91751823Y-108934185D01*
X91791254Y-108957601D01*
X91820153Y-108983466D01*
X91840300Y-109011854D01*
X91852807Y-109044976D01*
X91862165Y-109099732D01*
X91865945Y-109184717D01*
X91863930Y-109410153D01*
X91866670Y-109500013D01*
X91873150Y-109552058D01*
X91885900Y-109598026D01*
X91907650Y-109650000D01*
X91717751Y-109650000D01*
X91699310Y-109594068D01*
X91692472Y-109571842D01*
X91640779Y-109615149D01*
X91587264Y-109645115D01*
X91529667Y-109663374D01*
X91467707Y-109669539D01*
X91411951Y-109665294D01*
X91364887Y-109653324D01*
X91324999Y-109634335D01*
X91291120Y-109608417D01*
X91262864Y-109575810D01*
X91242923Y-109539719D01*
X91230775Y-109499418D01*
X91226578Y-109453872D01*
X91228304Y-109433234D01*
X91418492Y-109433234D01*
X91421826Y-109459021D01*
X91431680Y-109482108D01*
X91448534Y-109503271D01*
X91470119Y-109519507D01*
X91495274Y-109529336D01*
X91525043Y-109532763D01*
X91558583Y-109529070D01*
X91591376Y-109517863D01*
X91624084Y-109498447D01*
X91653261Y-109469044D01*
X91669879Y-109434638D01*
X91675022Y-109404377D01*
X91677390Y-109340605D01*
X91677390Y-109302198D01*
X91560580Y-109331690D01*
X91487986Y-109350842D01*
X91456045Y-109365334D01*
X91434703Y-109385375D01*
X91422569Y-109407679D01*
X91418492Y-109433234D01*
X91228304Y-109433234D01*
X91229954Y-109413509D01*
X91239785Y-109377012D01*
X91255949Y-109343658D01*
X91278064Y-109313993D01*
X91305304Y-109289399D01*
X91338258Y-109269530D01*
X91397523Y-109247004D01*
X91490910Y-109224528D01*
X91614769Y-109197401D01*
X91677390Y-109177145D01*
X91677390Y-109157484D01*
X91673803Y-109120553D01*
X91664337Y-109094451D01*
X91650034Y-109076334D01*
X91630020Y-109064271D01*
X91597401Y-109055573D01*
X91546903Y-109052093D01*
X91499394Y-109057812D01*
X91466974Y-109072915D01*
X91442426Y-109099421D01*
X91420568Y-109145882D01*
X91246362Y-109114619D01*
X91271934Y-109046493D01*
X91305695Y-108994345D01*
X91347418Y-108955312D01*
X91383828Y-108934384D01*
X91430013Y-108918183D01*
X91488100Y-108907501D01*
X91560580Y-108903593D01*
X91646615Y-108907780D01*
G37*
G36*
X91963948Y-108923133D02*
G01*
X92168196Y-108923133D01*
X92341669Y-109440500D01*
X92511113Y-108923133D01*
X92709865Y-108923133D01*
X92453715Y-109623072D01*
X92407981Y-109751849D01*
X92381672Y-109811019D01*
X92359804Y-109848691D01*
X92334839Y-109879361D01*
X92307170Y-109902974D01*
X92275057Y-109921045D01*
X92234080Y-109935397D01*
X92189143Y-109943950D01*
X92136078Y-109946999D01*
X92081168Y-109944104D01*
X92027451Y-109935458D01*
X92010354Y-109785615D01*
X92054480Y-109792486D01*
X92091625Y-109794591D01*
X92134456Y-109789673D01*
X92166594Y-109776226D01*
X92190666Y-109754902D01*
X92218331Y-109711260D01*
X92239881Y-109653907D01*
X91963948Y-108923133D01*
G37*
G36*
X93863424Y-109278750D02*
G01*
X94059490Y-109341277D01*
X94031515Y-109422292D01*
X93996963Y-109488710D01*
X93956310Y-109542657D01*
X93909525Y-109585764D01*
X93855462Y-109619752D01*
X93794006Y-109644624D01*
X93723873Y-109660179D01*
X93643483Y-109665631D01*
X93564579Y-109659888D01*
X93493455Y-109643246D01*
X93428856Y-109616144D01*
X93369779Y-109578425D01*
X93315526Y-109529344D01*
X93270799Y-109473093D01*
X93235425Y-109408995D01*
X93209307Y-109335914D01*
X93192884Y-109252389D01*
X93187116Y-109156690D01*
X93193021Y-109054866D01*
X93209739Y-108966957D01*
X93236145Y-108890979D01*
X93271644Y-108825240D01*
X93316198Y-108768405D01*
X93370626Y-108718960D01*
X93430821Y-108680728D01*
X93497592Y-108653072D01*
X93572093Y-108635975D01*
X93655757Y-108630041D01*
X93746475Y-108637357D01*
X93825150Y-108658265D01*
X93893889Y-108691958D01*
X93954282Y-108738668D01*
X93994267Y-108785165D01*
X94028598Y-108845696D01*
X94056742Y-108923133D01*
X93856585Y-108970027D01*
X93840016Y-108920823D01*
X93815368Y-108880316D01*
X93782458Y-108847112D01*
X93742808Y-108822332D01*
X93697639Y-108807233D01*
X93645498Y-108801988D01*
X93591364Y-108807215D01*
X93544042Y-108822292D01*
X93502148Y-108847024D01*
X93464759Y-108882161D01*
X93436991Y-108923408D01*
X93415314Y-108978057D01*
X93400828Y-109049465D01*
X93395455Y-109141669D01*
X93400869Y-109240171D01*
X93415340Y-109315205D01*
X93436742Y-109371468D01*
X93463782Y-109412901D01*
X93500727Y-109448414D01*
X93541973Y-109473315D01*
X93588412Y-109488448D01*
X93641407Y-109493684D01*
X93693164Y-109487799D01*
X93738904Y-109470621D01*
X93780076Y-109441844D01*
X93813154Y-109403661D01*
X93841209Y-109350581D01*
X93863424Y-109278750D01*
G37*
D13*
X62148019Y-79340649D02*
X62386114Y-79340649D01*
X62290876Y-79578744D02*
X62386114Y-79340649D01*
X62386114Y-79340649D02*
X62290876Y-79102554D01*
X62576590Y-79483506D02*
X62386114Y-79340649D01*
X62386114Y-79340649D02*
X62576590Y-79197792D01*
X62148019Y-79340649D02*
X62386114Y-79340649D01*
X62290876Y-79578744D02*
X62386114Y-79340649D01*
X62386114Y-79340649D02*
X62290876Y-79102554D01*
X62576590Y-79483506D02*
X62386114Y-79340649D01*
X62386114Y-79340649D02*
X62576590Y-79197792D01*
X93263094Y-111675180D02*
X93263094Y-112675180D01*
X92691666Y-111675180D02*
X93120237Y-112246609D01*
X92691666Y-112675180D02*
X93263094Y-112103752D01*
X92358332Y-112675180D02*
X91739285Y-112675180D01*
X91739285Y-112675180D02*
X92072618Y-112294228D01*
X92072618Y-112294228D02*
X91929761Y-112294228D01*
X91929761Y-112294228D02*
X91834523Y-112246609D01*
X91834523Y-112246609D02*
X91786904Y-112198990D01*
X91786904Y-112198990D02*
X91739285Y-112103752D01*
X91739285Y-112103752D02*
X91739285Y-111865657D01*
X91739285Y-111865657D02*
X91786904Y-111770419D01*
X91786904Y-111770419D02*
X91834523Y-111722800D01*
X91834523Y-111722800D02*
X91929761Y-111675180D01*
X91929761Y-111675180D02*
X92215475Y-111675180D01*
X92215475Y-111675180D02*
X92310713Y-111722800D01*
X92310713Y-111722800D02*
X92358332Y-111770419D01*
X95599999Y-115107180D02*
X95599999Y-114869085D01*
X95838094Y-114964323D02*
X95599999Y-114869085D01*
X95599999Y-114869085D02*
X95361904Y-114964323D01*
X95742856Y-114678609D02*
X95599999Y-114869085D01*
X95599999Y-114869085D02*
X95457142Y-114678609D01*
X103100180Y-71611906D02*
X102290657Y-71611906D01*
X102290657Y-71611906D02*
X102195419Y-71659525D01*
X102195419Y-71659525D02*
X102147800Y-71707144D01*
X102147800Y-71707144D02*
X102100180Y-71802382D01*
X102100180Y-71802382D02*
X102100180Y-71992858D01*
X102100180Y-71992858D02*
X102147800Y-72088096D01*
X102147800Y-72088096D02*
X102195419Y-72135715D01*
X102195419Y-72135715D02*
X102290657Y-72183334D01*
X102290657Y-72183334D02*
X103100180Y-72183334D01*
X102100180Y-73183334D02*
X102100180Y-72611906D01*
X102100180Y-72897620D02*
X103100180Y-72897620D01*
X103100180Y-72897620D02*
X102957323Y-72802382D01*
X102957323Y-72802382D02*
X102862085Y-72707144D01*
X102862085Y-72707144D02*
X102814466Y-72611906D01*
X102100180Y-73659525D02*
X102100180Y-73850001D01*
X102100180Y-73850001D02*
X102147800Y-73945239D01*
X102147800Y-73945239D02*
X102195419Y-73992858D01*
X102195419Y-73992858D02*
X102338276Y-74088096D01*
X102338276Y-74088096D02*
X102528752Y-74135715D01*
X102528752Y-74135715D02*
X102909704Y-74135715D01*
X102909704Y-74135715D02*
X103004942Y-74088096D01*
X103004942Y-74088096D02*
X103052561Y-74040477D01*
X103052561Y-74040477D02*
X103100180Y-73945239D01*
X103100180Y-73945239D02*
X103100180Y-73754763D01*
X103100180Y-73754763D02*
X103052561Y-73659525D01*
X103052561Y-73659525D02*
X103004942Y-73611906D01*
X103004942Y-73611906D02*
X102909704Y-73564287D01*
X102909704Y-73564287D02*
X102671609Y-73564287D01*
X102671609Y-73564287D02*
X102576371Y-73611906D01*
X102576371Y-73611906D02*
X102528752Y-73659525D01*
X102528752Y-73659525D02*
X102481133Y-73754763D01*
X102481133Y-73754763D02*
X102481133Y-73945239D01*
X102481133Y-73945239D02*
X102528752Y-74040477D01*
X102528752Y-74040477D02*
X102576371Y-74088096D01*
X102576371Y-74088096D02*
X102671609Y-74135715D01*
X129659819Y-72988094D02*
X130469342Y-72988094D01*
X130469342Y-72988094D02*
X130564580Y-72940475D01*
X130564580Y-72940475D02*
X130612200Y-72892856D01*
X130612200Y-72892856D02*
X130659819Y-72797618D01*
X130659819Y-72797618D02*
X130659819Y-72607142D01*
X130659819Y-72607142D02*
X130612200Y-72511904D01*
X130612200Y-72511904D02*
X130564580Y-72464285D01*
X130564580Y-72464285D02*
X130469342Y-72416666D01*
X130469342Y-72416666D02*
X129659819Y-72416666D01*
X130659819Y-71416666D02*
X130659819Y-71988094D01*
X130659819Y-71702380D02*
X129659819Y-71702380D01*
X129659819Y-71702380D02*
X129802676Y-71797618D01*
X129802676Y-71797618D02*
X129897914Y-71892856D01*
X129897914Y-71892856D02*
X129945533Y-71988094D01*
X129993152Y-70559523D02*
X130659819Y-70559523D01*
X129612200Y-70797618D02*
X130326485Y-71035713D01*
X130326485Y-71035713D02*
X130326485Y-70416666D01*
X59245033Y-88632080D02*
X59197414Y-88679700D01*
X59197414Y-88679700D02*
X59054557Y-88727319D01*
X59054557Y-88727319D02*
X58959319Y-88727319D01*
X58959319Y-88727319D02*
X58816462Y-88679700D01*
X58816462Y-88679700D02*
X58721224Y-88584461D01*
X58721224Y-88584461D02*
X58673605Y-88489223D01*
X58673605Y-88489223D02*
X58625986Y-88298747D01*
X58625986Y-88298747D02*
X58625986Y-88155890D01*
X58625986Y-88155890D02*
X58673605Y-87965414D01*
X58673605Y-87965414D02*
X58721224Y-87870176D01*
X58721224Y-87870176D02*
X58816462Y-87774938D01*
X58816462Y-87774938D02*
X58959319Y-87727319D01*
X58959319Y-87727319D02*
X59054557Y-87727319D01*
X59054557Y-87727319D02*
X59197414Y-87774938D01*
X59197414Y-87774938D02*
X59245033Y-87822557D01*
X60197414Y-88727319D02*
X59625986Y-88727319D01*
X59911700Y-88727319D02*
X59911700Y-87727319D01*
X59911700Y-87727319D02*
X59816462Y-87870176D01*
X59816462Y-87870176D02*
X59721224Y-87965414D01*
X59721224Y-87965414D02*
X59625986Y-88013033D01*
X185545181Y-124966665D02*
X184830896Y-124966665D01*
X184830896Y-124966665D02*
X184688039Y-124919046D01*
X184688039Y-124919046D02*
X184592801Y-124823808D01*
X184592801Y-124823808D02*
X184545181Y-124680951D01*
X184545181Y-124680951D02*
X184545181Y-124585713D01*
X184545181Y-125966665D02*
X184545181Y-125395237D01*
X184545181Y-125680951D02*
X185545181Y-125680951D01*
X185545181Y-125680951D02*
X185402324Y-125585713D01*
X185402324Y-125585713D02*
X185307086Y-125490475D01*
X185307086Y-125490475D02*
X185259467Y-125395237D01*
X151904819Y-73866903D02*
X152714342Y-73866903D01*
X152714342Y-73866903D02*
X152809580Y-73819284D01*
X152809580Y-73819284D02*
X152857200Y-73771665D01*
X152857200Y-73771665D02*
X152904819Y-73676427D01*
X152904819Y-73676427D02*
X152904819Y-73485951D01*
X152904819Y-73485951D02*
X152857200Y-73390713D01*
X152857200Y-73390713D02*
X152809580Y-73343094D01*
X152809580Y-73343094D02*
X152714342Y-73295475D01*
X152714342Y-73295475D02*
X151904819Y-73295475D01*
X152904819Y-72771665D02*
X152904819Y-72581189D01*
X152904819Y-72581189D02*
X152857200Y-72485951D01*
X152857200Y-72485951D02*
X152809580Y-72438332D01*
X152809580Y-72438332D02*
X152666723Y-72343094D01*
X152666723Y-72343094D02*
X152476247Y-72295475D01*
X152476247Y-72295475D02*
X152095295Y-72295475D01*
X152095295Y-72295475D02*
X152000057Y-72343094D01*
X152000057Y-72343094D02*
X151952438Y-72390713D01*
X151952438Y-72390713D02*
X151904819Y-72485951D01*
X151904819Y-72485951D02*
X151904819Y-72676427D01*
X151904819Y-72676427D02*
X151952438Y-72771665D01*
X151952438Y-72771665D02*
X152000057Y-72819284D01*
X152000057Y-72819284D02*
X152095295Y-72866903D01*
X152095295Y-72866903D02*
X152333390Y-72866903D01*
X152333390Y-72866903D02*
X152428628Y-72819284D01*
X152428628Y-72819284D02*
X152476247Y-72771665D01*
X152476247Y-72771665D02*
X152523866Y-72676427D01*
X152523866Y-72676427D02*
X152523866Y-72485951D01*
X152523866Y-72485951D02*
X152476247Y-72390713D01*
X152476247Y-72390713D02*
X152428628Y-72343094D01*
X152428628Y-72343094D02*
X152333390Y-72295475D01*
X185545180Y-106766668D02*
X184830895Y-106766668D01*
X184830895Y-106766668D02*
X184688038Y-106719049D01*
X184688038Y-106719049D02*
X184592800Y-106623811D01*
X184592800Y-106623811D02*
X184545180Y-106480954D01*
X184545180Y-106480954D02*
X184545180Y-106385716D01*
X185449942Y-107195240D02*
X185497561Y-107242859D01*
X185497561Y-107242859D02*
X185545180Y-107338097D01*
X185545180Y-107338097D02*
X185545180Y-107576192D01*
X185545180Y-107576192D02*
X185497561Y-107671430D01*
X185497561Y-107671430D02*
X185449942Y-107719049D01*
X185449942Y-107719049D02*
X185354704Y-107766668D01*
X185354704Y-107766668D02*
X185259466Y-107766668D01*
X185259466Y-107766668D02*
X185116609Y-107719049D01*
X185116609Y-107719049D02*
X184545180Y-107147621D01*
X184545180Y-107147621D02*
X184545180Y-107766668D01*
X136204819Y-58788094D02*
X137014342Y-58788094D01*
X137014342Y-58788094D02*
X137109580Y-58740475D01*
X137109580Y-58740475D02*
X137157200Y-58692856D01*
X137157200Y-58692856D02*
X137204819Y-58597618D01*
X137204819Y-58597618D02*
X137204819Y-58407142D01*
X137204819Y-58407142D02*
X137157200Y-58311904D01*
X137157200Y-58311904D02*
X137109580Y-58264285D01*
X137109580Y-58264285D02*
X137014342Y-58216666D01*
X137014342Y-58216666D02*
X136204819Y-58216666D01*
X137204819Y-57216666D02*
X137204819Y-57788094D01*
X137204819Y-57502380D02*
X136204819Y-57502380D01*
X136204819Y-57502380D02*
X136347676Y-57597618D01*
X136347676Y-57597618D02*
X136442914Y-57692856D01*
X136442914Y-57692856D02*
X136490533Y-57788094D01*
X136204819Y-56883332D02*
X136204819Y-56216666D01*
X136204819Y-56216666D02*
X137204819Y-56645237D01*
X132623419Y-60528149D02*
X132861514Y-60528149D01*
X132766276Y-60766244D02*
X132861514Y-60528149D01*
X132861514Y-60528149D02*
X132766276Y-60290054D01*
X133051990Y-60671006D02*
X132861514Y-60528149D01*
X132861514Y-60528149D02*
X133051990Y-60385292D01*
X132623419Y-60528149D02*
X132861514Y-60528149D01*
X132766276Y-60766244D02*
X132861514Y-60528149D01*
X132861514Y-60528149D02*
X132766276Y-60290054D01*
X133051990Y-60671006D02*
X132861514Y-60528149D01*
X132861514Y-60528149D02*
X133051990Y-60385292D01*
X60798242Y-98819580D02*
X60750623Y-98867200D01*
X60750623Y-98867200D02*
X60607766Y-98914819D01*
X60607766Y-98914819D02*
X60512528Y-98914819D01*
X60512528Y-98914819D02*
X60369671Y-98867200D01*
X60369671Y-98867200D02*
X60274433Y-98771961D01*
X60274433Y-98771961D02*
X60226814Y-98676723D01*
X60226814Y-98676723D02*
X60179195Y-98486247D01*
X60179195Y-98486247D02*
X60179195Y-98343390D01*
X60179195Y-98343390D02*
X60226814Y-98152914D01*
X60226814Y-98152914D02*
X60274433Y-98057676D01*
X60274433Y-98057676D02*
X60369671Y-97962438D01*
X60369671Y-97962438D02*
X60512528Y-97914819D01*
X60512528Y-97914819D02*
X60607766Y-97914819D01*
X60607766Y-97914819D02*
X60750623Y-97962438D01*
X60750623Y-97962438D02*
X60798242Y-98010057D01*
X61750623Y-98914819D02*
X61179195Y-98914819D01*
X61464909Y-98914819D02*
X61464909Y-97914819D01*
X61464909Y-97914819D02*
X61369671Y-98057676D01*
X61369671Y-98057676D02*
X61274433Y-98152914D01*
X61274433Y-98152914D02*
X61179195Y-98200533D01*
X62607766Y-97914819D02*
X62417290Y-97914819D01*
X62417290Y-97914819D02*
X62322052Y-97962438D01*
X62322052Y-97962438D02*
X62274433Y-98010057D01*
X62274433Y-98010057D02*
X62179195Y-98152914D01*
X62179195Y-98152914D02*
X62131576Y-98343390D01*
X62131576Y-98343390D02*
X62131576Y-98724342D01*
X62131576Y-98724342D02*
X62179195Y-98819580D01*
X62179195Y-98819580D02*
X62226814Y-98867200D01*
X62226814Y-98867200D02*
X62322052Y-98914819D01*
X62322052Y-98914819D02*
X62512528Y-98914819D01*
X62512528Y-98914819D02*
X62607766Y-98867200D01*
X62607766Y-98867200D02*
X62655385Y-98819580D01*
X62655385Y-98819580D02*
X62703004Y-98724342D01*
X62703004Y-98724342D02*
X62703004Y-98486247D01*
X62703004Y-98486247D02*
X62655385Y-98391009D01*
X62655385Y-98391009D02*
X62607766Y-98343390D01*
X62607766Y-98343390D02*
X62512528Y-98295771D01*
X62512528Y-98295771D02*
X62322052Y-98295771D01*
X62322052Y-98295771D02*
X62226814Y-98343390D01*
X62226814Y-98343390D02*
X62179195Y-98391009D01*
X62179195Y-98391009D02*
X62131576Y-98486247D01*
X56345180Y-68403933D02*
X56345180Y-67927743D01*
X56345180Y-67927743D02*
X57345180Y-67927743D01*
X56345180Y-69261076D02*
X56345180Y-68689648D01*
X56345180Y-68975362D02*
X57345180Y-68975362D01*
X57345180Y-68975362D02*
X57202323Y-68880124D01*
X57202323Y-68880124D02*
X57107085Y-68784886D01*
X57107085Y-68784886D02*
X57059466Y-68689648D01*
X114900180Y-71611904D02*
X114090657Y-71611904D01*
X114090657Y-71611904D02*
X113995419Y-71659523D01*
X113995419Y-71659523D02*
X113947800Y-71707142D01*
X113947800Y-71707142D02*
X113900180Y-71802380D01*
X113900180Y-71802380D02*
X113900180Y-71992856D01*
X113900180Y-71992856D02*
X113947800Y-72088094D01*
X113947800Y-72088094D02*
X113995419Y-72135713D01*
X113995419Y-72135713D02*
X114090657Y-72183332D01*
X114090657Y-72183332D02*
X114900180Y-72183332D01*
X113900180Y-73183332D02*
X113900180Y-72611904D01*
X113900180Y-72897618D02*
X114900180Y-72897618D01*
X114900180Y-72897618D02*
X114757323Y-72802380D01*
X114757323Y-72802380D02*
X114662085Y-72707142D01*
X114662085Y-72707142D02*
X114614466Y-72611904D01*
X114471609Y-73754761D02*
X114519228Y-73659523D01*
X114519228Y-73659523D02*
X114566847Y-73611904D01*
X114566847Y-73611904D02*
X114662085Y-73564285D01*
X114662085Y-73564285D02*
X114709704Y-73564285D01*
X114709704Y-73564285D02*
X114804942Y-73611904D01*
X114804942Y-73611904D02*
X114852561Y-73659523D01*
X114852561Y-73659523D02*
X114900180Y-73754761D01*
X114900180Y-73754761D02*
X114900180Y-73945237D01*
X114900180Y-73945237D02*
X114852561Y-74040475D01*
X114852561Y-74040475D02*
X114804942Y-74088094D01*
X114804942Y-74088094D02*
X114709704Y-74135713D01*
X114709704Y-74135713D02*
X114662085Y-74135713D01*
X114662085Y-74135713D02*
X114566847Y-74088094D01*
X114566847Y-74088094D02*
X114519228Y-74040475D01*
X114519228Y-74040475D02*
X114471609Y-73945237D01*
X114471609Y-73945237D02*
X114471609Y-73754761D01*
X114471609Y-73754761D02*
X114423990Y-73659523D01*
X114423990Y-73659523D02*
X114376371Y-73611904D01*
X114376371Y-73611904D02*
X114281133Y-73564285D01*
X114281133Y-73564285D02*
X114090657Y-73564285D01*
X114090657Y-73564285D02*
X113995419Y-73611904D01*
X113995419Y-73611904D02*
X113947800Y-73659523D01*
X113947800Y-73659523D02*
X113900180Y-73754761D01*
X113900180Y-73754761D02*
X113900180Y-73945237D01*
X113900180Y-73945237D02*
X113947800Y-74040475D01*
X113947800Y-74040475D02*
X113995419Y-74088094D01*
X113995419Y-74088094D02*
X114090657Y-74135713D01*
X114090657Y-74135713D02*
X114281133Y-74135713D01*
X114281133Y-74135713D02*
X114376371Y-74088094D01*
X114376371Y-74088094D02*
X114423990Y-74040475D01*
X114423990Y-74040475D02*
X114471609Y-73945237D01*
X161954819Y-109861904D02*
X162764342Y-109861904D01*
X162764342Y-109861904D02*
X162859580Y-109814285D01*
X162859580Y-109814285D02*
X162907200Y-109766666D01*
X162907200Y-109766666D02*
X162954819Y-109671428D01*
X162954819Y-109671428D02*
X162954819Y-109480952D01*
X162954819Y-109480952D02*
X162907200Y-109385714D01*
X162907200Y-109385714D02*
X162859580Y-109338095D01*
X162859580Y-109338095D02*
X162764342Y-109290476D01*
X162764342Y-109290476D02*
X161954819Y-109290476D01*
X161954819Y-108385714D02*
X161954819Y-108576190D01*
X161954819Y-108576190D02*
X162002438Y-108671428D01*
X162002438Y-108671428D02*
X162050057Y-108719047D01*
X162050057Y-108719047D02*
X162192914Y-108814285D01*
X162192914Y-108814285D02*
X162383390Y-108861904D01*
X162383390Y-108861904D02*
X162764342Y-108861904D01*
X162764342Y-108861904D02*
X162859580Y-108814285D01*
X162859580Y-108814285D02*
X162907200Y-108766666D01*
X162907200Y-108766666D02*
X162954819Y-108671428D01*
X162954819Y-108671428D02*
X162954819Y-108480952D01*
X162954819Y-108480952D02*
X162907200Y-108385714D01*
X162907200Y-108385714D02*
X162859580Y-108338095D01*
X162859580Y-108338095D02*
X162764342Y-108290476D01*
X162764342Y-108290476D02*
X162526247Y-108290476D01*
X162526247Y-108290476D02*
X162431009Y-108338095D01*
X162431009Y-108338095D02*
X162383390Y-108385714D01*
X162383390Y-108385714D02*
X162335771Y-108480952D01*
X162335771Y-108480952D02*
X162335771Y-108671428D01*
X162335771Y-108671428D02*
X162383390Y-108766666D01*
X162383390Y-108766666D02*
X162431009Y-108814285D01*
X162431009Y-108814285D02*
X162526247Y-108861904D01*
X58948242Y-128969580D02*
X58900623Y-129017200D01*
X58900623Y-129017200D02*
X58757766Y-129064819D01*
X58757766Y-129064819D02*
X58662528Y-129064819D01*
X58662528Y-129064819D02*
X58519671Y-129017200D01*
X58519671Y-129017200D02*
X58424433Y-128921961D01*
X58424433Y-128921961D02*
X58376814Y-128826723D01*
X58376814Y-128826723D02*
X58329195Y-128636247D01*
X58329195Y-128636247D02*
X58329195Y-128493390D01*
X58329195Y-128493390D02*
X58376814Y-128302914D01*
X58376814Y-128302914D02*
X58424433Y-128207676D01*
X58424433Y-128207676D02*
X58519671Y-128112438D01*
X58519671Y-128112438D02*
X58662528Y-128064819D01*
X58662528Y-128064819D02*
X58757766Y-128064819D01*
X58757766Y-128064819D02*
X58900623Y-128112438D01*
X58900623Y-128112438D02*
X58948242Y-128160057D01*
X59900623Y-129064819D02*
X59329195Y-129064819D01*
X59614909Y-129064819D02*
X59614909Y-128064819D01*
X59614909Y-128064819D02*
X59519671Y-128207676D01*
X59519671Y-128207676D02*
X59424433Y-128302914D01*
X59424433Y-128302914D02*
X59329195Y-128350533D01*
X60519671Y-128064819D02*
X60614909Y-128064819D01*
X60614909Y-128064819D02*
X60710147Y-128112438D01*
X60710147Y-128112438D02*
X60757766Y-128160057D01*
X60757766Y-128160057D02*
X60805385Y-128255295D01*
X60805385Y-128255295D02*
X60853004Y-128445771D01*
X60853004Y-128445771D02*
X60853004Y-128683866D01*
X60853004Y-128683866D02*
X60805385Y-128874342D01*
X60805385Y-128874342D02*
X60757766Y-128969580D01*
X60757766Y-128969580D02*
X60710147Y-129017200D01*
X60710147Y-129017200D02*
X60614909Y-129064819D01*
X60614909Y-129064819D02*
X60519671Y-129064819D01*
X60519671Y-129064819D02*
X60424433Y-129017200D01*
X60424433Y-129017200D02*
X60376814Y-128969580D01*
X60376814Y-128969580D02*
X60329195Y-128874342D01*
X60329195Y-128874342D02*
X60281576Y-128683866D01*
X60281576Y-128683866D02*
X60281576Y-128445771D01*
X60281576Y-128445771D02*
X60329195Y-128255295D01*
X60329195Y-128255295D02*
X60376814Y-128160057D01*
X60376814Y-128160057D02*
X60424433Y-128112438D01*
X60424433Y-128112438D02*
X60519671Y-128064819D01*
X185494230Y-70475716D02*
X184779945Y-70475716D01*
X184779945Y-70475716D02*
X184637088Y-70428097D01*
X184637088Y-70428097D02*
X184541850Y-70332859D01*
X184541850Y-70332859D02*
X184494230Y-70190002D01*
X184494230Y-70190002D02*
X184494230Y-70094764D01*
X185160897Y-71380478D02*
X184494230Y-71380478D01*
X185541850Y-71142383D02*
X184827564Y-70904288D01*
X184827564Y-70904288D02*
X184827564Y-71523335D01*
X93023094Y-82535180D02*
X93023094Y-83535180D01*
X92451666Y-82535180D02*
X92880237Y-83106609D01*
X92451666Y-83535180D02*
X93023094Y-82963752D01*
X91499285Y-82535180D02*
X92070713Y-82535180D01*
X91784999Y-82535180D02*
X91784999Y-83535180D01*
X91784999Y-83535180D02*
X91880237Y-83392323D01*
X91880237Y-83392323D02*
X91975475Y-83297085D01*
X91975475Y-83297085D02*
X92070713Y-83249466D01*
X95359999Y-85967180D02*
X95359999Y-85729085D01*
X95598094Y-85824323D02*
X95359999Y-85729085D01*
X95359999Y-85729085D02*
X95121904Y-85824323D01*
X95502856Y-85538609D02*
X95359999Y-85729085D01*
X95359999Y-85729085D02*
X95217142Y-85538609D01*
X151904819Y-110366903D02*
X152714342Y-110366903D01*
X152714342Y-110366903D02*
X152809580Y-110319284D01*
X152809580Y-110319284D02*
X152857200Y-110271665D01*
X152857200Y-110271665D02*
X152904819Y-110176427D01*
X152904819Y-110176427D02*
X152904819Y-109985951D01*
X152904819Y-109985951D02*
X152857200Y-109890713D01*
X152857200Y-109890713D02*
X152809580Y-109843094D01*
X152809580Y-109843094D02*
X152714342Y-109795475D01*
X152714342Y-109795475D02*
X151904819Y-109795475D01*
X151904819Y-108843094D02*
X151904819Y-109319284D01*
X151904819Y-109319284D02*
X152381009Y-109366903D01*
X152381009Y-109366903D02*
X152333390Y-109319284D01*
X152333390Y-109319284D02*
X152285771Y-109224046D01*
X152285771Y-109224046D02*
X152285771Y-108985951D01*
X152285771Y-108985951D02*
X152333390Y-108890713D01*
X152333390Y-108890713D02*
X152381009Y-108843094D01*
X152381009Y-108843094D02*
X152476247Y-108795475D01*
X152476247Y-108795475D02*
X152714342Y-108795475D01*
X152714342Y-108795475D02*
X152809580Y-108843094D01*
X152809580Y-108843094D02*
X152857200Y-108890713D01*
X152857200Y-108890713D02*
X152904819Y-108985951D01*
X152904819Y-108985951D02*
X152904819Y-109224046D01*
X152904819Y-109224046D02*
X152857200Y-109319284D01*
X152857200Y-109319284D02*
X152809580Y-109366903D01*
X92026005Y-131114819D02*
X92026005Y-131924342D01*
X92026005Y-131924342D02*
X92073624Y-132019580D01*
X92073624Y-132019580D02*
X92121243Y-132067200D01*
X92121243Y-132067200D02*
X92216481Y-132114819D01*
X92216481Y-132114819D02*
X92406957Y-132114819D01*
X92406957Y-132114819D02*
X92502195Y-132067200D01*
X92502195Y-132067200D02*
X92549814Y-132019580D01*
X92549814Y-132019580D02*
X92597433Y-131924342D01*
X92597433Y-131924342D02*
X92597433Y-131114819D01*
X93597433Y-132114819D02*
X93026005Y-132114819D01*
X93311719Y-132114819D02*
X93311719Y-131114819D01*
X93311719Y-131114819D02*
X93216481Y-131257676D01*
X93216481Y-131257676D02*
X93121243Y-131352914D01*
X93121243Y-131352914D02*
X93026005Y-131400533D01*
X93930767Y-131114819D02*
X94549814Y-131114819D01*
X94549814Y-131114819D02*
X94216481Y-131495771D01*
X94216481Y-131495771D02*
X94359338Y-131495771D01*
X94359338Y-131495771D02*
X94454576Y-131543390D01*
X94454576Y-131543390D02*
X94502195Y-131591009D01*
X94502195Y-131591009D02*
X94549814Y-131686247D01*
X94549814Y-131686247D02*
X94549814Y-131924342D01*
X94549814Y-131924342D02*
X94502195Y-132019580D01*
X94502195Y-132019580D02*
X94454576Y-132067200D01*
X94454576Y-132067200D02*
X94359338Y-132114819D01*
X94359338Y-132114819D02*
X94073624Y-132114819D01*
X94073624Y-132114819D02*
X93978386Y-132067200D01*
X93978386Y-132067200D02*
X93930767Y-132019580D01*
X151904819Y-128666904D02*
X152714342Y-128666904D01*
X152714342Y-128666904D02*
X152809580Y-128619285D01*
X152809580Y-128619285D02*
X152857200Y-128571666D01*
X152857200Y-128571666D02*
X152904819Y-128476428D01*
X152904819Y-128476428D02*
X152904819Y-128285952D01*
X152904819Y-128285952D02*
X152857200Y-128190714D01*
X152857200Y-128190714D02*
X152809580Y-128143095D01*
X152809580Y-128143095D02*
X152714342Y-128095476D01*
X152714342Y-128095476D02*
X151904819Y-128095476D01*
X151904819Y-127714523D02*
X151904819Y-127095476D01*
X151904819Y-127095476D02*
X152285771Y-127428809D01*
X152285771Y-127428809D02*
X152285771Y-127285952D01*
X152285771Y-127285952D02*
X152333390Y-127190714D01*
X152333390Y-127190714D02*
X152381009Y-127143095D01*
X152381009Y-127143095D02*
X152476247Y-127095476D01*
X152476247Y-127095476D02*
X152714342Y-127095476D01*
X152714342Y-127095476D02*
X152809580Y-127143095D01*
X152809580Y-127143095D02*
X152857200Y-127190714D01*
X152857200Y-127190714D02*
X152904819Y-127285952D01*
X152904819Y-127285952D02*
X152904819Y-127571666D01*
X152904819Y-127571666D02*
X152857200Y-127666904D01*
X152857200Y-127666904D02*
X152809580Y-127714523D01*
X93063094Y-97262680D02*
X93063094Y-98262680D01*
X92491666Y-97262680D02*
X92920237Y-97834109D01*
X92491666Y-98262680D02*
X93063094Y-97691252D01*
X92110713Y-98167442D02*
X92063094Y-98215061D01*
X92063094Y-98215061D02*
X91967856Y-98262680D01*
X91967856Y-98262680D02*
X91729761Y-98262680D01*
X91729761Y-98262680D02*
X91634523Y-98215061D01*
X91634523Y-98215061D02*
X91586904Y-98167442D01*
X91586904Y-98167442D02*
X91539285Y-98072204D01*
X91539285Y-98072204D02*
X91539285Y-97976966D01*
X91539285Y-97976966D02*
X91586904Y-97834109D01*
X91586904Y-97834109D02*
X92158332Y-97262680D01*
X92158332Y-97262680D02*
X91539285Y-97262680D01*
X95949999Y-100632680D02*
X95949999Y-100394585D01*
X96188094Y-100489823D02*
X95949999Y-100394585D01*
X95949999Y-100394585D02*
X95711904Y-100489823D01*
X96092856Y-100204109D02*
X95949999Y-100394585D01*
X95949999Y-100394585D02*
X95807142Y-100204109D01*
X106099819Y-58963944D02*
X106909342Y-58963944D01*
X106909342Y-58963944D02*
X107004580Y-58916325D01*
X107004580Y-58916325D02*
X107052200Y-58868706D01*
X107052200Y-58868706D02*
X107099819Y-58773468D01*
X107099819Y-58773468D02*
X107099819Y-58582992D01*
X107099819Y-58582992D02*
X107052200Y-58487754D01*
X107052200Y-58487754D02*
X107004580Y-58440135D01*
X107004580Y-58440135D02*
X106909342Y-58392516D01*
X106909342Y-58392516D02*
X106099819Y-58392516D01*
X107099819Y-57392516D02*
X107099819Y-57963944D01*
X107099819Y-57678230D02*
X106099819Y-57678230D01*
X106099819Y-57678230D02*
X106242676Y-57773468D01*
X106242676Y-57773468D02*
X106337914Y-57868706D01*
X106337914Y-57868706D02*
X106385533Y-57963944D01*
X106099819Y-56487754D02*
X106099819Y-56963944D01*
X106099819Y-56963944D02*
X106576009Y-57011563D01*
X106576009Y-57011563D02*
X106528390Y-56963944D01*
X106528390Y-56963944D02*
X106480771Y-56868706D01*
X106480771Y-56868706D02*
X106480771Y-56630611D01*
X106480771Y-56630611D02*
X106528390Y-56535373D01*
X106528390Y-56535373D02*
X106576009Y-56487754D01*
X106576009Y-56487754D02*
X106671247Y-56440135D01*
X106671247Y-56440135D02*
X106909342Y-56440135D01*
X106909342Y-56440135D02*
X107004580Y-56487754D01*
X107004580Y-56487754D02*
X107052200Y-56535373D01*
X107052200Y-56535373D02*
X107099819Y-56630611D01*
X107099819Y-56630611D02*
X107099819Y-56868706D01*
X107099819Y-56868706D02*
X107052200Y-56963944D01*
X107052200Y-56963944D02*
X107004580Y-57011563D01*
X102518419Y-60703999D02*
X102756514Y-60703999D01*
X102661276Y-60942094D02*
X102756514Y-60703999D01*
X102756514Y-60703999D02*
X102661276Y-60465904D01*
X102946990Y-60846856D02*
X102756514Y-60703999D01*
X102756514Y-60703999D02*
X102946990Y-60561142D01*
X102518419Y-60703999D02*
X102756514Y-60703999D01*
X102661276Y-60942094D02*
X102756514Y-60703999D01*
X102756514Y-60703999D02*
X102661276Y-60465904D01*
X102946990Y-60846856D02*
X102756514Y-60703999D01*
X102756514Y-60703999D02*
X102946990Y-60561142D01*
X55194580Y-108543333D02*
X55194580Y-108067143D01*
X55194580Y-108067143D02*
X56194580Y-108067143D01*
X56099342Y-108829048D02*
X56146961Y-108876667D01*
X56146961Y-108876667D02*
X56194580Y-108971905D01*
X56194580Y-108971905D02*
X56194580Y-109210000D01*
X56194580Y-109210000D02*
X56146961Y-109305238D01*
X56146961Y-109305238D02*
X56099342Y-109352857D01*
X56099342Y-109352857D02*
X56004104Y-109400476D01*
X56004104Y-109400476D02*
X55908866Y-109400476D01*
X55908866Y-109400476D02*
X55766009Y-109352857D01*
X55766009Y-109352857D02*
X55194580Y-108781429D01*
X55194580Y-108781429D02*
X55194580Y-109400476D01*
X121601519Y-58862244D02*
X122411042Y-58862244D01*
X122411042Y-58862244D02*
X122506280Y-58814625D01*
X122506280Y-58814625D02*
X122553900Y-58767006D01*
X122553900Y-58767006D02*
X122601519Y-58671768D01*
X122601519Y-58671768D02*
X122601519Y-58481292D01*
X122601519Y-58481292D02*
X122553900Y-58386054D01*
X122553900Y-58386054D02*
X122506280Y-58338435D01*
X122506280Y-58338435D02*
X122411042Y-58290816D01*
X122411042Y-58290816D02*
X121601519Y-58290816D01*
X122601519Y-57290816D02*
X122601519Y-57862244D01*
X122601519Y-57576530D02*
X121601519Y-57576530D01*
X121601519Y-57576530D02*
X121744376Y-57671768D01*
X121744376Y-57671768D02*
X121839614Y-57767006D01*
X121839614Y-57767006D02*
X121887233Y-57862244D01*
X121601519Y-56433673D02*
X121601519Y-56624149D01*
X121601519Y-56624149D02*
X121649138Y-56719387D01*
X121649138Y-56719387D02*
X121696757Y-56767006D01*
X121696757Y-56767006D02*
X121839614Y-56862244D01*
X121839614Y-56862244D02*
X122030090Y-56909863D01*
X122030090Y-56909863D02*
X122411042Y-56909863D01*
X122411042Y-56909863D02*
X122506280Y-56862244D01*
X122506280Y-56862244D02*
X122553900Y-56814625D01*
X122553900Y-56814625D02*
X122601519Y-56719387D01*
X122601519Y-56719387D02*
X122601519Y-56528911D01*
X122601519Y-56528911D02*
X122553900Y-56433673D01*
X122553900Y-56433673D02*
X122506280Y-56386054D01*
X122506280Y-56386054D02*
X122411042Y-56338435D01*
X122411042Y-56338435D02*
X122172947Y-56338435D01*
X122172947Y-56338435D02*
X122077709Y-56386054D01*
X122077709Y-56386054D02*
X122030090Y-56433673D01*
X122030090Y-56433673D02*
X121982471Y-56528911D01*
X121982471Y-56528911D02*
X121982471Y-56719387D01*
X121982471Y-56719387D02*
X122030090Y-56814625D01*
X122030090Y-56814625D02*
X122077709Y-56862244D01*
X122077709Y-56862244D02*
X122172947Y-56909863D01*
X118020119Y-60602299D02*
X118258214Y-60602299D01*
X118162976Y-60840394D02*
X118258214Y-60602299D01*
X118258214Y-60602299D02*
X118162976Y-60364204D01*
X118448690Y-60745156D02*
X118258214Y-60602299D01*
X118258214Y-60602299D02*
X118448690Y-60459442D01*
X118020119Y-60602299D02*
X118258214Y-60602299D01*
X118162976Y-60840394D02*
X118258214Y-60602299D01*
X118258214Y-60602299D02*
X118162976Y-60364204D01*
X118448690Y-60745156D02*
X118258214Y-60602299D01*
X118258214Y-60602299D02*
X118448690Y-60459442D01*
X64299219Y-118396054D02*
X65108742Y-118396054D01*
X65108742Y-118396054D02*
X65203980Y-118348435D01*
X65203980Y-118348435D02*
X65251600Y-118300816D01*
X65251600Y-118300816D02*
X65299219Y-118205578D01*
X65299219Y-118205578D02*
X65299219Y-118015102D01*
X65299219Y-118015102D02*
X65251600Y-117919864D01*
X65251600Y-117919864D02*
X65203980Y-117872245D01*
X65203980Y-117872245D02*
X65108742Y-117824626D01*
X65108742Y-117824626D02*
X64299219Y-117824626D01*
X64394457Y-117396054D02*
X64346838Y-117348435D01*
X64346838Y-117348435D02*
X64299219Y-117253197D01*
X64299219Y-117253197D02*
X64299219Y-117015102D01*
X64299219Y-117015102D02*
X64346838Y-116919864D01*
X64346838Y-116919864D02*
X64394457Y-116872245D01*
X64394457Y-116872245D02*
X64489695Y-116824626D01*
X64489695Y-116824626D02*
X64584933Y-116824626D01*
X64584933Y-116824626D02*
X64727790Y-116872245D01*
X64727790Y-116872245D02*
X65299219Y-117443673D01*
X65299219Y-117443673D02*
X65299219Y-116824626D01*
X60692419Y-120612299D02*
X60930514Y-120612299D01*
X60835276Y-120850394D02*
X60930514Y-120612299D01*
X60930514Y-120612299D02*
X60835276Y-120374204D01*
X61120990Y-120755156D02*
X60930514Y-120612299D01*
X60930514Y-120612299D02*
X61120990Y-120469442D01*
X60692419Y-120612299D02*
X60930514Y-120612299D01*
X60835276Y-120850394D02*
X60930514Y-120612299D01*
X60930514Y-120612299D02*
X60835276Y-120374204D01*
X61120990Y-120755156D02*
X60930514Y-120612299D01*
X60930514Y-120612299D02*
X61120990Y-120469442D01*
X151862918Y-92090606D02*
X152672441Y-92090606D01*
X152672441Y-92090606D02*
X152767679Y-92042987D01*
X152767679Y-92042987D02*
X152815299Y-91995368D01*
X152815299Y-91995368D02*
X152862918Y-91900130D01*
X152862918Y-91900130D02*
X152862918Y-91709654D01*
X152862918Y-91709654D02*
X152815299Y-91614416D01*
X152815299Y-91614416D02*
X152767679Y-91566797D01*
X152767679Y-91566797D02*
X152672441Y-91519178D01*
X152672441Y-91519178D02*
X151862918Y-91519178D01*
X151862918Y-91138225D02*
X151862918Y-90471559D01*
X151862918Y-90471559D02*
X152862918Y-90900130D01*
X161954820Y-128061903D02*
X162764343Y-128061903D01*
X162764343Y-128061903D02*
X162859581Y-128014284D01*
X162859581Y-128014284D02*
X162907201Y-127966665D01*
X162907201Y-127966665D02*
X162954820Y-127871427D01*
X162954820Y-127871427D02*
X162954820Y-127680951D01*
X162954820Y-127680951D02*
X162907201Y-127585713D01*
X162907201Y-127585713D02*
X162859581Y-127538094D01*
X162859581Y-127538094D02*
X162764343Y-127490475D01*
X162764343Y-127490475D02*
X161954820Y-127490475D01*
X162288153Y-126585713D02*
X162954820Y-126585713D01*
X161907201Y-126823808D02*
X162621486Y-127061903D01*
X162621486Y-127061903D02*
X162621486Y-126442856D01*
X185507420Y-88626716D02*
X184793135Y-88626716D01*
X184793135Y-88626716D02*
X184650278Y-88579097D01*
X184650278Y-88579097D02*
X184555040Y-88483859D01*
X184555040Y-88483859D02*
X184507420Y-88341002D01*
X184507420Y-88341002D02*
X184507420Y-88245764D01*
X185507420Y-89007669D02*
X185507420Y-89626716D01*
X185507420Y-89626716D02*
X185126468Y-89293383D01*
X185126468Y-89293383D02*
X185126468Y-89436240D01*
X185126468Y-89436240D02*
X185078849Y-89531478D01*
X185078849Y-89531478D02*
X185031230Y-89579097D01*
X185031230Y-89579097D02*
X184935992Y-89626716D01*
X184935992Y-89626716D02*
X184697897Y-89626716D01*
X184697897Y-89626716D02*
X184602659Y-89579097D01*
X184602659Y-89579097D02*
X184555040Y-89531478D01*
X184555040Y-89531478D02*
X184507420Y-89436240D01*
X184507420Y-89436240D02*
X184507420Y-89150526D01*
X184507420Y-89150526D02*
X184555040Y-89055288D01*
X184555040Y-89055288D02*
X184602659Y-89007669D01*
X185485181Y-52366666D02*
X184770896Y-52366666D01*
X184770896Y-52366666D02*
X184628039Y-52319047D01*
X184628039Y-52319047D02*
X184532801Y-52223809D01*
X184532801Y-52223809D02*
X184485181Y-52080952D01*
X184485181Y-52080952D02*
X184485181Y-51985714D01*
X185485181Y-53319047D02*
X185485181Y-52842857D01*
X185485181Y-52842857D02*
X185008991Y-52795238D01*
X185008991Y-52795238D02*
X185056610Y-52842857D01*
X185056610Y-52842857D02*
X185104229Y-52938095D01*
X185104229Y-52938095D02*
X185104229Y-53176190D01*
X185104229Y-53176190D02*
X185056610Y-53271428D01*
X185056610Y-53271428D02*
X185008991Y-53319047D01*
X185008991Y-53319047D02*
X184913753Y-53366666D01*
X184913753Y-53366666D02*
X184675658Y-53366666D01*
X184675658Y-53366666D02*
X184580420Y-53319047D01*
X184580420Y-53319047D02*
X184532801Y-53271428D01*
X184532801Y-53271428D02*
X184485181Y-53176190D01*
X184485181Y-53176190D02*
X184485181Y-52938095D01*
X184485181Y-52938095D02*
X184532801Y-52842857D01*
X184532801Y-52842857D02*
X184580420Y-52795238D01*
X161917059Y-91721953D02*
X162726582Y-91721953D01*
X162726582Y-91721953D02*
X162821820Y-91674334D01*
X162821820Y-91674334D02*
X162869440Y-91626715D01*
X162869440Y-91626715D02*
X162917059Y-91531477D01*
X162917059Y-91531477D02*
X162917059Y-91341001D01*
X162917059Y-91341001D02*
X162869440Y-91245763D01*
X162869440Y-91245763D02*
X162821820Y-91198144D01*
X162821820Y-91198144D02*
X162726582Y-91150525D01*
X162726582Y-91150525D02*
X161917059Y-91150525D01*
X162345630Y-90531477D02*
X162298011Y-90626715D01*
X162298011Y-90626715D02*
X162250392Y-90674334D01*
X162250392Y-90674334D02*
X162155154Y-90721953D01*
X162155154Y-90721953D02*
X162107535Y-90721953D01*
X162107535Y-90721953D02*
X162012297Y-90674334D01*
X162012297Y-90674334D02*
X161964678Y-90626715D01*
X161964678Y-90626715D02*
X161917059Y-90531477D01*
X161917059Y-90531477D02*
X161917059Y-90341001D01*
X161917059Y-90341001D02*
X161964678Y-90245763D01*
X161964678Y-90245763D02*
X162012297Y-90198144D01*
X162012297Y-90198144D02*
X162107535Y-90150525D01*
X162107535Y-90150525D02*
X162155154Y-90150525D01*
X162155154Y-90150525D02*
X162250392Y-90198144D01*
X162250392Y-90198144D02*
X162298011Y-90245763D01*
X162298011Y-90245763D02*
X162345630Y-90341001D01*
X162345630Y-90341001D02*
X162345630Y-90531477D01*
X162345630Y-90531477D02*
X162393249Y-90626715D01*
X162393249Y-90626715D02*
X162440868Y-90674334D01*
X162440868Y-90674334D02*
X162536106Y-90721953D01*
X162536106Y-90721953D02*
X162726582Y-90721953D01*
X162726582Y-90721953D02*
X162821820Y-90674334D01*
X162821820Y-90674334D02*
X162869440Y-90626715D01*
X162869440Y-90626715D02*
X162917059Y-90531477D01*
X162917059Y-90531477D02*
X162917059Y-90341001D01*
X162917059Y-90341001D02*
X162869440Y-90245763D01*
X162869440Y-90245763D02*
X162821820Y-90198144D01*
X162821820Y-90198144D02*
X162726582Y-90150525D01*
X162726582Y-90150525D02*
X162536106Y-90150525D01*
X162536106Y-90150525D02*
X162440868Y-90198144D01*
X162440868Y-90198144D02*
X162393249Y-90245763D01*
X162393249Y-90245763D02*
X162345630Y-90341001D01*
D14*
G04 #@! TO.C,R4*
X65317500Y-68815242D02*
X65317500Y-69289758D01*
X66362500Y-68815242D02*
X66362500Y-69289758D01*
D15*
G04 #@! TO.C,CR10*
X172871690Y-89775399D02*
X172871690Y-90801559D01*
X172871690Y-92000439D02*
X172871690Y-93026599D01*
X172871690Y-93026599D02*
X174522690Y-93026599D01*
X174522690Y-89775399D02*
X172871690Y-89775399D01*
X174522690Y-91751560D02*
X174522690Y-91050438D01*
X175068790Y-94169599D02*
G75*
G02*
X174814790Y-94169599I-127000J0D01*
G01*
X174814790Y-94169599D02*
G75*
G02*
X175068790Y-94169599I127000J0D01*
G01*
G04 #@! TO.C,CR2*
X55547500Y-116102600D02*
X55547500Y-122503400D01*
X55547500Y-122503400D02*
X55951360Y-122503400D01*
X55837060Y-116102600D02*
X55547500Y-116102600D01*
X58049400Y-113435600D02*
X57414400Y-114197600D01*
X58049400Y-113435600D02*
X57541400Y-114197600D01*
X58049400Y-113435600D02*
X57668400Y-114197600D01*
X58049400Y-113435600D02*
X57795400Y-114197600D01*
X58049400Y-113435600D02*
X57922400Y-114197600D01*
X58049400Y-113435600D02*
X58176400Y-114197600D01*
X58049400Y-113435600D02*
X58303400Y-114197600D01*
X58049400Y-113435600D02*
X58430400Y-114197600D01*
X58049400Y-113435600D02*
X58557400Y-114197600D01*
X58049400Y-113435600D02*
X58684400Y-114197600D01*
X58049400Y-114451600D02*
X58049400Y-113181600D01*
X58684400Y-113435600D02*
X57414400Y-113435600D01*
X58684400Y-114197600D02*
X57414400Y-114197600D01*
X60147440Y-122503400D02*
X60551300Y-122503400D01*
X60551300Y-116102600D02*
X60261740Y-116102600D01*
X60551300Y-122503400D02*
X60551300Y-116102600D01*
D14*
G04 #@! TO.C,C40*
X100225000Y-135551252D02*
X100225000Y-135028748D01*
X101695000Y-135551252D02*
X101695000Y-135028748D01*
D15*
G04 #@! TO.C,U1*
X63671100Y-74241600D02*
X63671100Y-78483400D01*
X68928900Y-78483400D02*
X68928900Y-74241600D01*
D14*
G04 #@! TO.C,R44*
X98965000Y-113560436D02*
X98965000Y-114014564D01*
X100435000Y-113560436D02*
X100435000Y-114014564D01*
D15*
G04 #@! TO.C,K3*
X90122999Y-111584634D02*
X90122999Y-112675366D01*
X90178323Y-114107000D02*
X94871677Y-114107000D01*
X94871677Y-110153000D02*
X90178323Y-110153000D01*
X94927000Y-112675366D02*
X94927000Y-111584634D01*
D14*
G04 #@! TO.C,R3*
X69617500Y-76189758D02*
X69617500Y-75715242D01*
X70662500Y-76189758D02*
X70662500Y-75715242D01*
G04 #@! TO.C,FB4*
X145290000Y-101621267D02*
X145290000Y-101278733D01*
X146310000Y-101621267D02*
X146310000Y-101278733D01*
D15*
G04 #@! TO.C,CR16*
X172758500Y-53424399D02*
X172758500Y-54450559D01*
X172758500Y-55649439D02*
X172758500Y-56675599D01*
X172758500Y-56675599D02*
X174409500Y-56675599D01*
X174409500Y-53424399D02*
X172758500Y-53424399D01*
X174409500Y-55400560D02*
X174409500Y-54699438D01*
X174955600Y-57818599D02*
G75*
G02*
X174701600Y-57818599I-127000J0D01*
G01*
X174701600Y-57818599D02*
G75*
G02*
X174955600Y-57818599I127000J0D01*
G01*
D14*
G04 #@! TO.C,C36*
X148962080Y-46963703D02*
X148680920Y-46963703D01*
X148962080Y-47983703D02*
X148680920Y-47983703D01*
G04 #@! TO.C,J17*
X126505000Y-58630000D02*
X126505000Y-53330000D01*
X129155000Y-55980000D02*
X129155000Y-58630000D01*
X129155000Y-58630000D02*
X126505000Y-58630000D01*
X131805000Y-53330000D02*
X126505000Y-53330000D01*
X131805000Y-55980000D02*
X129155000Y-55980000D01*
X131805000Y-55980000D02*
X131805000Y-53330000D01*
X131805000Y-57250000D02*
X131805000Y-58630000D01*
X131805000Y-58630000D02*
X130425000Y-58630000D01*
G04 #@! TO.C,J13*
X96230000Y-58723400D02*
X96230000Y-53423400D01*
X98880000Y-56073400D02*
X98880000Y-58723400D01*
X98880000Y-58723400D02*
X96230000Y-58723400D01*
X101530000Y-53423400D02*
X96230000Y-53423400D01*
X101530000Y-56073400D02*
X98880000Y-56073400D01*
X101530000Y-56073400D02*
X101530000Y-53423400D01*
X101530000Y-57343400D02*
X101530000Y-58723400D01*
X101530000Y-58723400D02*
X100150000Y-58723400D01*
G04 #@! TO.C,JP5*
X164740000Y-45826297D02*
X164740000Y-48826297D01*
X164740000Y-45826297D02*
X172840000Y-45826297D01*
X172840000Y-48826297D02*
X164740000Y-48826297D01*
X172840000Y-48826297D02*
X172840000Y-45826297D01*
G04 #@! TO.C,C26*
X168684419Y-114590001D02*
X168965579Y-114590001D01*
X168684419Y-115610001D02*
X168965579Y-115610001D01*
G04 #@! TO.C,D9*
X96577500Y-95127500D02*
X96577500Y-97047500D01*
X96577500Y-97047500D02*
X99262500Y-97047500D01*
X99262500Y-95127500D02*
X96577500Y-95127500D01*
G04 #@! TO.C,D16*
X107590000Y-66850000D02*
X107590000Y-68550000D01*
X107590000Y-66850000D02*
X110250000Y-66850000D01*
X107590000Y-68550000D02*
X110250000Y-68550000D01*
G04 #@! TO.C,JP1*
X163600001Y-118549999D02*
X163600001Y-121549999D01*
X163600001Y-118549999D02*
X171700001Y-118549999D01*
X171700001Y-121549999D02*
X163600001Y-121549999D01*
X171700001Y-121549999D02*
X171700001Y-118549999D01*
D15*
G04 #@! TO.C,U19*
X97271800Y-70449701D02*
X97271800Y-75250301D01*
X107838200Y-75250301D02*
X107838200Y-70449701D01*
D14*
G04 #@! TO.C,R50*
X106265000Y-78472936D02*
X106265000Y-78927064D01*
X107735000Y-78472936D02*
X107735000Y-78927064D01*
G04 #@! TO.C,C46*
X102440000Y-53011120D02*
X102440000Y-53292280D01*
X103460000Y-53011120D02*
X103460000Y-53292280D01*
G04 #@! TO.C,C62*
X107565000Y-108911252D02*
X107565000Y-108388748D01*
X109035000Y-108911252D02*
X109035000Y-108388748D01*
G04 #@! TO.C,FB7*
X145311500Y-46744970D02*
X145311500Y-46402436D01*
X146331500Y-46744970D02*
X146331500Y-46402436D01*
G04 #@! TO.C,J21*
X66780000Y-130780000D02*
X66780000Y-139020000D01*
X66780000Y-130780000D02*
X77020000Y-130780000D01*
X66780000Y-132900000D02*
X77020000Y-132900000D01*
X66780000Y-136900000D02*
X77020000Y-136900000D01*
X66780000Y-139020000D02*
X69100000Y-139020000D01*
X69700000Y-139020000D02*
X77020000Y-139020000D01*
X77020000Y-130780000D02*
X77020000Y-139020000D01*
X69840000Y-139630000D02*
X68960000Y-139630000D01*
X69400000Y-139020000D01*
X69840000Y-139630000D01*
G36*
X69840000Y-139630000D02*
G01*
X68960000Y-139630000D01*
X69400000Y-139020000D01*
X69840000Y-139630000D01*
G37*
G04 #@! TO.C,R11*
X66902142Y-110877500D02*
X67376658Y-110877500D01*
X66902142Y-111922500D02*
X67376658Y-111922500D01*
D15*
G04 #@! TO.C,CR4*
X172940301Y-125624398D02*
X172940301Y-126650558D01*
X172940301Y-127849438D02*
X172940301Y-128875598D01*
X172940301Y-128875598D02*
X174591301Y-128875598D01*
X174591301Y-125624398D02*
X172940301Y-125624398D01*
X174591301Y-127600559D02*
X174591301Y-126899437D01*
X175137401Y-130018598D02*
G75*
G02*
X174883401Y-130018598I-127000J0D01*
G01*
X174883401Y-130018598D02*
G75*
G02*
X175137401Y-130018598I127000J0D01*
G01*
G04 #@! TO.C,J16*
X112548401Y-43823001D02*
X112548401Y-48125477D01*
X113768073Y-49639601D02*
X124231929Y-49639601D01*
X125451601Y-43823001D02*
X112548401Y-43823001D01*
X125451601Y-48125477D02*
X125451601Y-43823001D01*
D16*
X126467601Y-47050000D02*
G75*
G02*
X125705601Y-47050000I-381000J0D01*
G01*
X125705601Y-47050000D02*
G75*
G02*
X126467601Y-47050000I381000J0D01*
G01*
D14*
G04 #@! TO.C,J19*
X45080000Y-89530000D02*
X45080000Y-91850000D01*
X45080000Y-92450000D02*
X45080000Y-99770000D01*
X47200000Y-89530000D02*
X47200000Y-99770000D01*
X51200000Y-89530000D02*
X51200000Y-99770000D01*
X53320000Y-89530000D02*
X45080000Y-89530000D01*
X53320000Y-89530000D02*
X53320000Y-99770000D01*
X53320000Y-99770000D02*
X45080000Y-99770000D01*
X45080000Y-92150000D02*
X44470000Y-92590000D01*
X44470000Y-91710000D01*
X45080000Y-92150000D01*
G36*
X45080000Y-92150000D02*
G01*
X44470000Y-92590000D01*
X44470000Y-91710000D01*
X45080000Y-92150000D01*
G37*
G04 #@! TO.C,C27*
X145290000Y-97558122D02*
X145290000Y-97839282D01*
X146310000Y-97558122D02*
X146310000Y-97839282D01*
G04 #@! TO.C,R33*
X134737500Y-80787742D02*
X134737500Y-81262258D01*
X135782500Y-80787742D02*
X135782500Y-81262258D01*
G04 #@! TO.C,J12*
X102880000Y-138600000D02*
X102880000Y-128220000D01*
X105530000Y-135950000D02*
X105530000Y-138600000D01*
X105530000Y-138600000D02*
X102880000Y-138600000D01*
X108180000Y-128220000D02*
X102880000Y-128220000D01*
X108180000Y-135950000D02*
X105530000Y-135950000D01*
X108180000Y-135950000D02*
X108180000Y-128220000D01*
X108180000Y-137220000D02*
X108180000Y-138600000D01*
X108180000Y-138600000D02*
X106800000Y-138600000D01*
G04 #@! TO.C,C45*
X102440000Y-56317280D02*
X102440000Y-56036120D01*
X103460000Y-56317280D02*
X103460000Y-56036120D01*
G04 #@! TO.C,C37*
X168599420Y-58590000D02*
X168880580Y-58590000D01*
X168599420Y-59610000D02*
X168880580Y-59610000D01*
G04 #@! TO.C,J9*
X141720000Y-75280000D02*
X141720000Y-67550000D01*
X144480000Y-67550000D02*
X141720000Y-67550000D01*
X144480000Y-75280000D02*
X141720000Y-75280000D01*
X144480000Y-75280000D02*
X144480000Y-67550000D01*
X144480000Y-76550000D02*
X144480000Y-77930000D01*
X144480000Y-77930000D02*
X143100000Y-77930000D01*
G04 #@! TO.C,L3*
X83562064Y-127300000D02*
X82357936Y-127300000D01*
X83562064Y-130020000D02*
X82357936Y-130020000D01*
G04 #@! TO.C,R35*
X121073764Y-51989150D02*
X120619636Y-51989150D01*
X121073764Y-53459150D02*
X120619636Y-53459150D01*
G04 #@! TO.C,D13*
X117590000Y-66850000D02*
X117590000Y-68550000D01*
X117590000Y-66850000D02*
X120250000Y-66850000D01*
X117590000Y-68550000D02*
X120250000Y-68550000D01*
D15*
G04 #@! TO.C,CR1*
X57048100Y-76055100D02*
X57048100Y-82455900D01*
X57048100Y-82455900D02*
X57451960Y-82455900D01*
X57337660Y-76055100D02*
X57048100Y-76055100D01*
X59550000Y-73388100D02*
X58915000Y-74150100D01*
X59550000Y-73388100D02*
X59042000Y-74150100D01*
X59550000Y-73388100D02*
X59169000Y-74150100D01*
X59550000Y-73388100D02*
X59296000Y-74150100D01*
X59550000Y-73388100D02*
X59423000Y-74150100D01*
X59550000Y-73388100D02*
X59677000Y-74150100D01*
X59550000Y-73388100D02*
X59804000Y-74150100D01*
X59550000Y-73388100D02*
X59931000Y-74150100D01*
X59550000Y-73388100D02*
X60058000Y-74150100D01*
X59550000Y-73388100D02*
X60185000Y-74150100D01*
X59550000Y-74404100D02*
X59550000Y-73134100D01*
X60185000Y-73388100D02*
X58915000Y-73388100D01*
X60185000Y-74150100D02*
X58915000Y-74150100D01*
X61648040Y-82455900D02*
X62051900Y-82455900D01*
X62051900Y-76055100D02*
X61762340Y-76055100D01*
X62051900Y-82455900D02*
X62051900Y-76055100D01*
G04 #@! TO.C,C1*
X55881100Y-84741900D02*
X55881100Y-87355560D01*
X55881100Y-89189440D02*
X55881100Y-91803100D01*
X55881100Y-91803100D02*
X62942300Y-91803100D01*
X62942300Y-84741900D02*
X55881100Y-84741900D01*
X62942300Y-87355560D02*
X62942300Y-84741900D01*
X62942300Y-91803100D02*
X62942300Y-89189440D01*
D14*
G04 #@! TO.C,FB5*
X145290000Y-83396267D02*
X145290000Y-83053733D01*
X146310000Y-83396267D02*
X146310000Y-83053733D01*
G04 #@! TO.C,C59*
X107565000Y-96238748D02*
X107565000Y-96761252D01*
X109035000Y-96238748D02*
X109035000Y-96761252D01*
D15*
G04 #@! TO.C,J27*
X77413000Y-108848402D02*
X77413000Y-121751602D01*
X77413000Y-121751602D02*
X81715476Y-121751602D01*
X81715476Y-108848402D02*
X77413000Y-108848402D01*
X83229600Y-120531930D02*
X83229600Y-110068074D01*
D16*
X81020999Y-108213402D02*
G75*
G02*
X80258999Y-108213402I-381000J0D01*
G01*
X80258999Y-108213402D02*
G75*
G02*
X81020999Y-108213402I381000J0D01*
G01*
D15*
G04 #@! TO.C,J1*
X177470001Y-118595798D02*
X177470001Y-135004198D01*
X177470001Y-135004198D02*
X183495718Y-135004198D01*
X183495718Y-118595798D02*
X177470001Y-118595798D01*
X184504284Y-135004198D02*
X186487001Y-135004198D01*
X186487001Y-118595798D02*
X184504284Y-118595798D01*
X186487001Y-135004198D02*
X186487001Y-118595798D01*
D16*
X180441001Y-135639198D02*
G75*
G02*
X179679001Y-135639198I-381000J0D01*
G01*
X179679001Y-135639198D02*
G75*
G02*
X180441001Y-135639198I381000J0D01*
G01*
D14*
G04 #@! TO.C,R20*
X161666883Y-94840144D02*
X162141399Y-94840144D01*
X161666883Y-95885144D02*
X162141399Y-95885144D01*
G04 #@! TO.C,C58*
X107565000Y-93161252D02*
X107565000Y-92638748D01*
X109035000Y-93161252D02*
X109035000Y-92638748D01*
G04 #@! TO.C,R9*
X68016900Y-117737258D02*
X68016900Y-117262742D01*
X69061900Y-117737258D02*
X69061900Y-117262742D01*
G04 #@! TO.C,C22*
X168684421Y-132789999D02*
X168965581Y-132789999D01*
X168684421Y-133809999D02*
X168965581Y-133809999D01*
G04 #@! TO.C,R45*
X96865000Y-113560436D02*
X96865000Y-114014564D01*
X98335000Y-113560436D02*
X98335000Y-114014564D01*
G04 #@! TO.C,J22*
X89180000Y-85980000D02*
X90560000Y-85980000D01*
X89180000Y-87360000D02*
X89180000Y-85980000D01*
X89180000Y-88630000D02*
X89180000Y-91280000D01*
X89180000Y-88630000D02*
X91830000Y-88630000D01*
X89180000Y-91280000D02*
X94480000Y-91280000D01*
X91830000Y-85980000D02*
X94480000Y-85980000D01*
X91830000Y-88630000D02*
X91830000Y-85980000D01*
X94480000Y-85980000D02*
X94480000Y-91280000D01*
G04 #@! TO.C,R24*
X161386308Y-67636550D02*
X160911792Y-67636550D01*
X161386308Y-68681550D02*
X160911792Y-68681550D01*
G04 #@! TO.C,C19*
X145371800Y-134134420D02*
X145371800Y-134415580D01*
X146391800Y-134134420D02*
X146391800Y-134415580D01*
G04 #@! TO.C,C17*
X63788148Y-107275000D02*
X64310652Y-107275000D01*
X63788148Y-108745000D02*
X64310652Y-108745000D01*
G04 #@! TO.C,C41*
X85650000Y-126819420D02*
X85650000Y-127100580D01*
X86670000Y-126819420D02*
X86670000Y-127100580D01*
G04 #@! TO.C,U10*
X160144050Y-72634050D02*
X160144050Y-70684050D01*
X160144050Y-72634050D02*
X160144050Y-74584050D01*
X170264050Y-72634050D02*
X170264050Y-70684050D01*
X170264050Y-72634050D02*
X170264050Y-74584050D01*
X170539050Y-70174050D02*
X170209050Y-69934050D01*
X170539050Y-69694050D01*
X170539050Y-70174050D01*
G36*
X170539050Y-70174050D02*
G01*
X170209050Y-69934050D01*
X170539050Y-69694050D01*
X170539050Y-70174050D01*
G37*
G04 #@! TO.C,C2*
X67061252Y-85127500D02*
X66538748Y-85127500D01*
X67061252Y-86597500D02*
X66538748Y-86597500D01*
G04 #@! TO.C,R10*
X64316900Y-110362742D02*
X64316900Y-110837258D01*
X65361900Y-110362742D02*
X65361900Y-110837258D01*
G04 #@! TO.C,R47*
X115515000Y-78472936D02*
X115515000Y-78927064D01*
X116985000Y-78472936D02*
X116985000Y-78927064D01*
G04 #@! TO.C,C60*
X107565000Y-101061252D02*
X107565000Y-100538748D01*
X109035000Y-101061252D02*
X109035000Y-100538748D01*
G04 #@! TO.C,C47*
X108696920Y-52111300D02*
X108978080Y-52111300D01*
X108696920Y-53131300D02*
X108978080Y-53131300D01*
D15*
G04 #@! TO.C,J2*
X177470000Y-100395800D02*
X177470000Y-116804200D01*
X177470000Y-116804200D02*
X183495717Y-116804200D01*
X183495717Y-100395800D02*
X177470000Y-100395800D01*
X184504283Y-116804200D02*
X186487000Y-116804200D01*
X186487000Y-100395800D02*
X184504283Y-100395800D01*
X186487000Y-116804200D02*
X186487000Y-100395800D01*
D16*
X180441000Y-117439200D02*
G75*
G02*
X179679000Y-117439200I-381000J0D01*
G01*
X179679000Y-117439200D02*
G75*
G02*
X180441000Y-117439200I381000J0D01*
G01*
D14*
G04 #@! TO.C,C31*
X145290000Y-79234420D02*
X145290000Y-79515580D01*
X146310000Y-79234420D02*
X146310000Y-79515580D01*
D15*
G04 #@! TO.C,CR5*
X173574501Y-132320938D02*
X173574501Y-133022060D01*
X173574501Y-134297099D02*
X175225501Y-134297099D01*
X175225501Y-131045899D02*
X173574501Y-131045899D01*
X175225501Y-132072059D02*
X175225501Y-131045899D01*
X175225501Y-134297099D02*
X175225501Y-133270939D01*
X173282401Y-129902899D02*
G75*
G02*
X173028401Y-129902899I-127000J0D01*
G01*
X173028401Y-129902899D02*
G75*
G02*
X173282401Y-129902899I127000J0D01*
G01*
D14*
G04 #@! TO.C,C4*
X66760580Y-80872500D02*
X66479420Y-80872500D01*
X66760580Y-81892500D02*
X66479420Y-81892500D01*
G04 #@! TO.C,J29*
X83840000Y-59490000D02*
X83840000Y-60740000D01*
X84140000Y-59790000D02*
X84140000Y-64510000D01*
X84140000Y-61100000D02*
X84750000Y-61100000D01*
X84140000Y-62400000D02*
X84750000Y-62400000D01*
X84140000Y-64510000D02*
X92260000Y-64510000D01*
X84750000Y-60400000D02*
X84750000Y-63900000D01*
X84750000Y-63900000D02*
X91650000Y-63900000D01*
X85090000Y-59490000D02*
X83840000Y-59490000D01*
X85600000Y-59590000D02*
X85600000Y-59790000D01*
X85900000Y-59590000D02*
X85600000Y-59590000D01*
X85900000Y-59690000D02*
X85600000Y-59690000D01*
X85900000Y-59790000D02*
X85900000Y-59590000D01*
X86700000Y-59790000D02*
X86700000Y-60400000D01*
X86700000Y-60400000D02*
X84750000Y-60400000D01*
X87100000Y-63400000D02*
X87300000Y-63400000D01*
X87100000Y-63900000D02*
X87100000Y-63400000D01*
X87200000Y-63900000D02*
X87200000Y-63400000D01*
X87300000Y-63400000D02*
X87300000Y-63900000D01*
X89100000Y-63400000D02*
X89300000Y-63400000D01*
X89100000Y-63900000D02*
X89100000Y-63400000D01*
X89200000Y-63900000D02*
X89200000Y-63400000D01*
X89300000Y-63400000D02*
X89300000Y-63900000D01*
X89700000Y-60400000D02*
X89700000Y-59790000D01*
X91650000Y-60400000D02*
X89700000Y-60400000D01*
X91650000Y-63900000D02*
X91650000Y-60400000D01*
X92260000Y-59790000D02*
X84140000Y-59790000D01*
X92260000Y-61100000D02*
X91650000Y-61100000D01*
X92260000Y-62400000D02*
X91650000Y-62400000D01*
X92260000Y-64510000D02*
X92260000Y-59790000D01*
D15*
G04 #@! TO.C,U17*
X134133800Y-55429100D02*
X134133800Y-59670900D01*
X139366200Y-59670900D02*
X139366200Y-55429100D01*
D14*
G04 #@! TO.C,R13*
X169394059Y-122127499D02*
X168919543Y-122127499D01*
X169394059Y-123172499D02*
X168919543Y-123172499D01*
G04 #@! TO.C,C39*
X83298748Y-125125000D02*
X83821252Y-125125000D01*
X83298748Y-126595000D02*
X83821252Y-126595000D01*
D15*
G04 #@! TO.C,C16*
X57910500Y-94929400D02*
X57910500Y-97543060D01*
X57910500Y-99376940D02*
X57910500Y-101990600D01*
X57910500Y-101990600D02*
X64971700Y-101990600D01*
X64971700Y-94929400D02*
X57910500Y-94929400D01*
X64971700Y-97543060D02*
X64971700Y-94929400D01*
X64971700Y-101990600D02*
X64971700Y-99376940D01*
D14*
G04 #@! TO.C,D1*
X70900000Y-85340000D02*
X70900000Y-89000000D01*
X72800000Y-85340000D02*
X70900000Y-85340000D01*
X72800000Y-85340000D02*
X72800000Y-89000000D01*
D15*
G04 #@! TO.C,CR15*
X173399499Y-50549439D02*
X173399499Y-51250561D01*
X173399499Y-52525600D02*
X175050499Y-52525600D01*
X175050499Y-49274400D02*
X173399499Y-49274400D01*
X175050499Y-50300560D02*
X175050499Y-49274400D01*
X175050499Y-52525600D02*
X175050499Y-51499440D01*
X173107399Y-48131400D02*
G75*
G02*
X172853399Y-48131400I-127000J0D01*
G01*
X172853399Y-48131400D02*
G75*
G02*
X173107399Y-48131400I127000J0D01*
G01*
D14*
G04 #@! TO.C,J26*
X89380000Y-115020000D02*
X90760000Y-115020000D01*
X89380000Y-116400000D02*
X89380000Y-115020000D01*
X89380000Y-117670000D02*
X89380000Y-120320000D01*
X89380000Y-117670000D02*
X92030000Y-117670000D01*
X89380000Y-120320000D02*
X94680000Y-120320000D01*
X92030000Y-115020000D02*
X94680000Y-115020000D01*
X92030000Y-117670000D02*
X92030000Y-115020000D01*
X94680000Y-115020000D02*
X94680000Y-120320000D01*
G04 #@! TO.C,J15*
X111631700Y-58528300D02*
X111631700Y-53228300D01*
X114281700Y-55878300D02*
X114281700Y-58528300D01*
X114281700Y-58528300D02*
X111631700Y-58528300D01*
X116931700Y-53228300D02*
X111631700Y-53228300D01*
X116931700Y-55878300D02*
X114281700Y-55878300D01*
X116931700Y-55878300D02*
X116931700Y-53228300D01*
X116931700Y-57148300D02*
X116931700Y-58528300D01*
X116931700Y-58528300D02*
X115551700Y-58528300D01*
G04 #@! TO.C,R14*
X161619543Y-131227499D02*
X162094059Y-131227499D01*
X161619543Y-132272499D02*
X162094059Y-132272499D01*
G04 #@! TO.C,R7*
X67999836Y-127865000D02*
X68453964Y-127865000D01*
X67999836Y-129335000D02*
X68453964Y-129335000D01*
D15*
G04 #@! TO.C,L1*
X50424600Y-62195200D02*
X50424600Y-74946000D01*
X50424600Y-74946000D02*
X53888950Y-74946000D01*
X53888950Y-62195200D02*
X50424600Y-62195200D01*
X59711050Y-74946000D02*
X63175400Y-74946000D01*
X63175400Y-62195200D02*
X59711050Y-62195200D01*
X63175400Y-74946000D02*
X63175400Y-62195200D01*
D14*
G04 #@! TO.C,C18*
X63788148Y-103275000D02*
X64310652Y-103275000D01*
X63788148Y-104745000D02*
X64310652Y-104745000D01*
G04 #@! TO.C,FB1*
X64740000Y-89762122D02*
X64740000Y-88962878D01*
X65860000Y-89762122D02*
X65860000Y-88962878D01*
G04 #@! TO.C,J37*
X71190000Y-45040000D02*
X71190000Y-51160000D01*
X71190000Y-51160000D02*
X75910000Y-51160000D01*
X71800000Y-45650000D02*
X71800000Y-50550000D01*
X71800000Y-48000000D02*
X72300000Y-48000000D01*
X71800000Y-48100000D02*
X72300000Y-48100000D01*
X71800000Y-50550000D02*
X75300000Y-50550000D01*
X72300000Y-48000000D02*
X72300000Y-48200000D01*
X72300000Y-48200000D02*
X71800000Y-48200000D01*
X73300000Y-45040000D02*
X73300000Y-45650000D01*
X73300000Y-51160000D02*
X73300000Y-50550000D01*
X74600000Y-45040000D02*
X74600000Y-45650000D01*
X74600000Y-51160000D02*
X74600000Y-50550000D01*
X75300000Y-45650000D02*
X71800000Y-45650000D01*
X75300000Y-47600000D02*
X75300000Y-45650000D01*
X75300000Y-48600000D02*
X75910000Y-48600000D01*
X75300000Y-50550000D02*
X75300000Y-48600000D01*
X75910000Y-45040000D02*
X71190000Y-45040000D01*
X75910000Y-46800000D02*
X76110000Y-46800000D01*
X75910000Y-47600000D02*
X75300000Y-47600000D01*
X75910000Y-51160000D02*
X75910000Y-45040000D01*
X76010000Y-46800000D02*
X76010000Y-46500000D01*
X76110000Y-46500000D02*
X75910000Y-46500000D01*
X76110000Y-46800000D02*
X76110000Y-46500000D01*
X76210000Y-44740000D02*
X74960000Y-44740000D01*
X76210000Y-45990000D02*
X76210000Y-44740000D01*
G04 #@! TO.C,J38*
X65190000Y-45040000D02*
X65190000Y-51160000D01*
X65190000Y-51160000D02*
X69910000Y-51160000D01*
X65800000Y-45650000D02*
X65800000Y-50550000D01*
X65800000Y-48000000D02*
X66300000Y-48000000D01*
X65800000Y-48100000D02*
X66300000Y-48100000D01*
X65800000Y-50550000D02*
X69300000Y-50550000D01*
X66300000Y-48000000D02*
X66300000Y-48200000D01*
X66300000Y-48200000D02*
X65800000Y-48200000D01*
X67300000Y-45040000D02*
X67300000Y-45650000D01*
X67300000Y-51160000D02*
X67300000Y-50550000D01*
X68600000Y-45040000D02*
X68600000Y-45650000D01*
X68600000Y-51160000D02*
X68600000Y-50550000D01*
X69300000Y-45650000D02*
X65800000Y-45650000D01*
X69300000Y-47600000D02*
X69300000Y-45650000D01*
X69300000Y-48600000D02*
X69910000Y-48600000D01*
X69300000Y-50550000D02*
X69300000Y-48600000D01*
X69910000Y-45040000D02*
X65190000Y-45040000D01*
X69910000Y-46800000D02*
X70110000Y-46800000D01*
X69910000Y-47600000D02*
X69300000Y-47600000D01*
X69910000Y-51160000D02*
X69910000Y-45040000D01*
X70010000Y-46800000D02*
X70010000Y-46500000D01*
X70110000Y-46500000D02*
X69910000Y-46500000D01*
X70110000Y-46800000D02*
X70110000Y-46500000D01*
X70210000Y-44740000D02*
X68960000Y-44740000D01*
X70210000Y-45990000D02*
X70210000Y-44740000D01*
G04 #@! TO.C,D19*
X93990000Y-68450000D02*
X93990000Y-70150000D01*
X93990000Y-68450000D02*
X96650000Y-68450000D01*
X93990000Y-70150000D02*
X96650000Y-70150000D01*
G04 #@! TO.C,J34*
X72657938Y-71487500D02*
X72657938Y-72737500D01*
X72957938Y-71787500D02*
X72957938Y-76507500D01*
X72957938Y-73097500D02*
X73567938Y-73097500D01*
X72957938Y-74397500D02*
X73567938Y-74397500D01*
X72957938Y-76507500D02*
X81077938Y-76507500D01*
X73567938Y-72397500D02*
X73567938Y-75897500D01*
X73567938Y-75897500D02*
X80467938Y-75897500D01*
X73907938Y-71487500D02*
X72657938Y-71487500D01*
X74417938Y-71587500D02*
X74417938Y-71787500D01*
X74717938Y-71587500D02*
X74417938Y-71587500D01*
X74717938Y-71687500D02*
X74417938Y-71687500D01*
X74717938Y-71787500D02*
X74717938Y-71587500D01*
X75517938Y-71787500D02*
X75517938Y-72397500D01*
X75517938Y-72397500D02*
X73567938Y-72397500D01*
X75917938Y-75397500D02*
X76117938Y-75397500D01*
X75917938Y-75897500D02*
X75917938Y-75397500D01*
X76017938Y-75897500D02*
X76017938Y-75397500D01*
X76117938Y-75397500D02*
X76117938Y-75897500D01*
X77917938Y-75397500D02*
X78117938Y-75397500D01*
X77917938Y-75897500D02*
X77917938Y-75397500D01*
X78017938Y-75897500D02*
X78017938Y-75397500D01*
X78117938Y-75397500D02*
X78117938Y-75897500D01*
X78517938Y-72397500D02*
X78517938Y-71787500D01*
X80467938Y-72397500D02*
X78517938Y-72397500D01*
X80467938Y-75897500D02*
X80467938Y-72397500D01*
X81077938Y-71787500D02*
X72957938Y-71787500D01*
X81077938Y-73097500D02*
X80467938Y-73097500D01*
X81077938Y-74397500D02*
X80467938Y-74397500D01*
X81077938Y-76507500D02*
X81077938Y-71787500D01*
D15*
G04 #@! TO.C,U18*
X109071800Y-70449699D02*
X109071800Y-75250299D01*
X119638200Y-75250299D02*
X119638200Y-70449699D01*
D14*
G04 #@! TO.C,R49*
X110415000Y-78472936D02*
X110415000Y-78927064D01*
X111885000Y-78472936D02*
X111885000Y-78927064D01*
G04 #@! TO.C,J7*
X141661901Y-111661901D02*
X141661901Y-103931901D01*
X144421901Y-103931901D02*
X141661901Y-103931901D01*
X144421901Y-111661901D02*
X141661901Y-111661901D01*
X144421901Y-111661901D02*
X144421901Y-103931901D01*
X144421901Y-112931901D02*
X144421901Y-114311901D01*
X144421901Y-114311901D02*
X143041901Y-114311901D01*
G04 #@! TO.C,U6*
X160195000Y-108925001D02*
X160195000Y-106975001D01*
X160195000Y-108925001D02*
X160195000Y-110875001D01*
X170315000Y-108925001D02*
X170315000Y-106975001D01*
X170315000Y-108925001D02*
X170315000Y-110875001D01*
X170590000Y-106465001D02*
X170260000Y-106225001D01*
X170590000Y-105985001D01*
X170590000Y-106465001D01*
G36*
X170590000Y-106465001D02*
G01*
X170260000Y-106225001D01*
X170590000Y-105985001D01*
X170590000Y-106465001D01*
G37*
D15*
G04 #@! TO.C,C7*
X59751100Y-53641900D02*
X59751100Y-56255560D01*
X59751100Y-58089440D02*
X59751100Y-60703100D01*
X59751100Y-60703100D02*
X66812300Y-60703100D01*
X66812300Y-53641900D02*
X59751100Y-53641900D01*
X66812300Y-56255560D02*
X66812300Y-53641900D01*
X66812300Y-60703100D02*
X66812300Y-58089440D01*
G04 #@! TO.C,J23*
X77391700Y-79648400D02*
X77391700Y-92551600D01*
X77391700Y-92551600D02*
X81694176Y-92551600D01*
X81694176Y-79648400D02*
X77391700Y-79648400D01*
X83208300Y-91331928D02*
X83208300Y-80868072D01*
D16*
X80999699Y-79013400D02*
G75*
G02*
X80237699Y-79013400I-381000J0D01*
G01*
X80237699Y-79013400D02*
G75*
G02*
X80999699Y-79013400I381000J0D01*
G01*
D14*
G04 #@! TO.C,R32*
X130737500Y-80787742D02*
X130737500Y-81262258D01*
X131782500Y-80787742D02*
X131782500Y-81262258D01*
G04 #@! TO.C,J10*
X141701499Y-56903703D02*
X141701499Y-49173703D01*
X144461499Y-49173703D02*
X141701499Y-49173703D01*
X144461499Y-56903703D02*
X141701499Y-56903703D01*
X144461499Y-56903703D02*
X144461499Y-49173703D01*
X144461499Y-58173703D02*
X144461499Y-59553703D01*
X144461499Y-59553703D02*
X143081499Y-59553703D01*
G04 #@! TO.C,R8*
X69312336Y-119565000D02*
X69766464Y-119565000D01*
X69312336Y-121035000D02*
X69766464Y-121035000D01*
G04 #@! TO.C,C38*
X168624420Y-60190000D02*
X168905580Y-60190000D01*
X168624420Y-61210000D02*
X168905580Y-61210000D01*
G04 #@! TO.C,C23*
X145231901Y-115916321D02*
X145231901Y-116197481D01*
X146251901Y-115916321D02*
X146251901Y-116197481D01*
G04 #@! TO.C,J41*
X89290000Y-45040000D02*
X89290000Y-51160000D01*
X89290000Y-51160000D02*
X94010000Y-51160000D01*
X89900000Y-45650000D02*
X89900000Y-50550000D01*
X89900000Y-48000000D02*
X90400000Y-48000000D01*
X89900000Y-48100000D02*
X90400000Y-48100000D01*
X89900000Y-50550000D02*
X93400000Y-50550000D01*
X90400000Y-48000000D02*
X90400000Y-48200000D01*
X90400000Y-48200000D02*
X89900000Y-48200000D01*
X91400000Y-45040000D02*
X91400000Y-45650000D01*
X91400000Y-51160000D02*
X91400000Y-50550000D01*
X92700000Y-45040000D02*
X92700000Y-45650000D01*
X92700000Y-51160000D02*
X92700000Y-50550000D01*
X93400000Y-45650000D02*
X89900000Y-45650000D01*
X93400000Y-47600000D02*
X93400000Y-45650000D01*
X93400000Y-48600000D02*
X94010000Y-48600000D01*
X93400000Y-50550000D02*
X93400000Y-48600000D01*
X94010000Y-45040000D02*
X89290000Y-45040000D01*
X94010000Y-46800000D02*
X94210000Y-46800000D01*
X94010000Y-47600000D02*
X93400000Y-47600000D01*
X94010000Y-51160000D02*
X94010000Y-45040000D01*
X94110000Y-46800000D02*
X94110000Y-46500000D01*
X94210000Y-46500000D02*
X94010000Y-46500000D01*
X94210000Y-46800000D02*
X94210000Y-46500000D01*
X94310000Y-44740000D02*
X93060000Y-44740000D01*
X94310000Y-45990000D02*
X94310000Y-44740000D01*
G04 #@! TO.C,C32*
X148940580Y-65340000D02*
X148659420Y-65340000D01*
X148940580Y-66360000D02*
X148659420Y-66360000D01*
G04 #@! TO.C,C42*
X123040000Y-76809420D02*
X123040000Y-77090580D01*
X124060000Y-76809420D02*
X124060000Y-77090580D01*
G04 #@! TO.C,D8*
X83850000Y-91760000D02*
X83850000Y-85950000D01*
X83850000Y-91760000D02*
X88150000Y-91760000D01*
X88150000Y-91760000D02*
X88150000Y-85950000D01*
G04 #@! TO.C,D11*
X96777500Y-109727500D02*
X96777500Y-111647500D01*
X96777500Y-111647500D02*
X99462500Y-111647500D01*
X99462500Y-109727500D02*
X96777500Y-109727500D01*
G04 #@! TO.C,R19*
X170378899Y-85663847D02*
X169904383Y-85663847D01*
X170378899Y-86708847D02*
X169904383Y-86708847D01*
G04 #@! TO.C,JP2*
X163700000Y-100250001D02*
X163700000Y-103250001D01*
X163700000Y-100250001D02*
X171800000Y-100250001D01*
X171800000Y-103250001D02*
X163700000Y-103250001D01*
X171800000Y-103250001D02*
X171800000Y-100250001D01*
G04 #@! TO.C,C33*
X168608469Y-76699050D02*
X168889629Y-76699050D01*
X168608469Y-77719050D02*
X168889629Y-77719050D01*
G04 #@! TO.C,C24*
X148940580Y-101840000D02*
X148659420Y-101840000D01*
X148940580Y-102860000D02*
X148659420Y-102860000D01*
D15*
G04 #@! TO.C,CR6*
X173300401Y-103531341D02*
X173300401Y-104232463D01*
X173300401Y-105507502D02*
X174951401Y-105507502D01*
X174951401Y-102256302D02*
X173300401Y-102256302D01*
X174951401Y-103282462D02*
X174951401Y-102256302D01*
X174951401Y-105507502D02*
X174951401Y-104481342D01*
X173008301Y-101113302D02*
G75*
G02*
X172754301Y-101113302I-127000J0D01*
G01*
X172754301Y-101113302D02*
G75*
G02*
X173008301Y-101113302I127000J0D01*
G01*
D14*
G04 #@! TO.C,R41*
X96625000Y-84645436D02*
X96625000Y-85099564D01*
X98095000Y-84645436D02*
X98095000Y-85099564D01*
D15*
G04 #@! TO.C,J14*
X97593313Y-43823001D02*
X97593313Y-48125477D01*
X98812985Y-49639601D02*
X109276841Y-49639601D01*
X110496513Y-43823001D02*
X97593313Y-43823001D01*
X110496513Y-48125477D02*
X110496513Y-43823001D01*
D16*
X111512513Y-47050000D02*
G75*
G02*
X110750513Y-47050000I-381000J0D01*
G01*
X110750513Y-47050000D02*
G75*
G02*
X111512513Y-47050000I381000J0D01*
G01*
D15*
G04 #@! TO.C,CR14*
X173523550Y-77829989D02*
X173523550Y-78531111D01*
X173523550Y-79806150D02*
X175174550Y-79806150D01*
X175174550Y-76554950D02*
X173523550Y-76554950D01*
X175174550Y-77581110D02*
X175174550Y-76554950D01*
X175174550Y-79806150D02*
X175174550Y-78779990D01*
X173231450Y-75411950D02*
G75*
G02*
X172977450Y-75411950I-127000J0D01*
G01*
X172977450Y-75411950D02*
G75*
G02*
X173231450Y-75411950I127000J0D01*
G01*
D14*
G04 #@! TO.C,C13*
X65189980Y-121900000D02*
X64908820Y-121900000D01*
X65189980Y-122920000D02*
X64908820Y-122920000D01*
G04 #@! TO.C,D15*
X110840000Y-66850000D02*
X110840000Y-68550000D01*
X110840000Y-66850000D02*
X113500000Y-66850000D01*
X110840000Y-68550000D02*
X113500000Y-68550000D01*
G04 #@! TO.C,R40*
X98825000Y-84645436D02*
X98825000Y-85099564D01*
X100295000Y-84645436D02*
X100295000Y-85099564D01*
G04 #@! TO.C,J36*
X77290000Y-45040000D02*
X77290000Y-51160000D01*
X77290000Y-51160000D02*
X82010000Y-51160000D01*
X77900000Y-45650000D02*
X77900000Y-50550000D01*
X77900000Y-48000000D02*
X78400000Y-48000000D01*
X77900000Y-48100000D02*
X78400000Y-48100000D01*
X77900000Y-50550000D02*
X81400000Y-50550000D01*
X78400000Y-48000000D02*
X78400000Y-48200000D01*
X78400000Y-48200000D02*
X77900000Y-48200000D01*
X79400000Y-45040000D02*
X79400000Y-45650000D01*
X79400000Y-51160000D02*
X79400000Y-50550000D01*
X80700000Y-45040000D02*
X80700000Y-45650000D01*
X80700000Y-51160000D02*
X80700000Y-50550000D01*
X81400000Y-45650000D02*
X77900000Y-45650000D01*
X81400000Y-47600000D02*
X81400000Y-45650000D01*
X81400000Y-48600000D02*
X82010000Y-48600000D01*
X81400000Y-50550000D02*
X81400000Y-48600000D01*
X82010000Y-45040000D02*
X77290000Y-45040000D01*
X82010000Y-46800000D02*
X82210000Y-46800000D01*
X82010000Y-47600000D02*
X81400000Y-47600000D01*
X82010000Y-51160000D02*
X82010000Y-45040000D01*
X82110000Y-46800000D02*
X82110000Y-46500000D01*
X82210000Y-46500000D02*
X82010000Y-46500000D01*
X82210000Y-46800000D02*
X82210000Y-46500000D01*
X82310000Y-44740000D02*
X81060000Y-44740000D01*
X82310000Y-45990000D02*
X82310000Y-44740000D01*
G04 #@! TO.C,R21*
X161486998Y-85687550D02*
X161012482Y-85687550D01*
X161486998Y-86732550D02*
X161012482Y-86732550D01*
G04 #@! TO.C,C48*
X117836700Y-60183570D02*
X117836700Y-60464730D01*
X118856700Y-60183570D02*
X118856700Y-60464730D01*
G04 #@! TO.C,R17*
X161637742Y-113027501D02*
X162112258Y-113027501D01*
X161637742Y-114072501D02*
X162112258Y-114072501D01*
D15*
G04 #@! TO.C,C10*
X56060500Y-125079400D02*
X56060500Y-127693060D01*
X56060500Y-129526940D02*
X56060500Y-132140600D01*
X56060500Y-132140600D02*
X63121700Y-132140600D01*
X63121700Y-125079400D02*
X56060500Y-125079400D01*
X63121700Y-127693060D02*
X63121700Y-125079400D01*
X63121700Y-132140600D02*
X63121700Y-129526940D01*
G04 #@! TO.C,CR17*
X173514501Y-59720939D02*
X173514501Y-60422061D01*
X173514501Y-61697100D02*
X175165501Y-61697100D01*
X175165501Y-58445900D02*
X173514501Y-58445900D01*
X175165501Y-59472060D02*
X175165501Y-58445900D01*
X175165501Y-61697100D02*
X175165501Y-60670940D01*
X173222401Y-57302900D02*
G75*
G02*
X172968401Y-57302900I-127000J0D01*
G01*
X172968401Y-57302900D02*
G75*
G02*
X173222401Y-57302900I127000J0D01*
G01*
G04 #@! TO.C,CR13*
X173049451Y-71509746D02*
X173049451Y-72535906D01*
X173049451Y-73734786D02*
X173049451Y-74760946D01*
X173049451Y-74760946D02*
X174700451Y-74760946D01*
X174700451Y-71509746D02*
X173049451Y-71509746D01*
X174700451Y-73485907D02*
X174700451Y-72784785D01*
X175246551Y-75903946D02*
G75*
G02*
X174992551Y-75903946I-127000J0D01*
G01*
X174992551Y-75903946D02*
G75*
G02*
X175246551Y-75903946I127000J0D01*
G01*
D14*
G04 #@! TO.C,R54*
X99065000Y-78372936D02*
X99065000Y-78827064D01*
X100535000Y-78372936D02*
X100535000Y-78827064D01*
G04 #@! TO.C,R23*
X161524292Y-76636550D02*
X161998808Y-76636550D01*
X161524292Y-77681550D02*
X161998808Y-77681550D01*
G04 #@! TO.C,C6*
X63730000Y-69193080D02*
X63730000Y-68911920D01*
X64750000Y-69193080D02*
X64750000Y-68911920D01*
G04 #@! TO.C,C34*
X168633469Y-78299050D02*
X168914629Y-78299050D01*
X168633469Y-79319050D02*
X168914629Y-79319050D01*
G04 #@! TO.C,J40*
X53290000Y-45140000D02*
X53290000Y-51260000D01*
X53290000Y-51260000D02*
X58010000Y-51260000D01*
X53900000Y-45750000D02*
X53900000Y-50650000D01*
X53900000Y-48100000D02*
X54400000Y-48100000D01*
X53900000Y-48200000D02*
X54400000Y-48200000D01*
X53900000Y-50650000D02*
X57400000Y-50650000D01*
X54400000Y-48100000D02*
X54400000Y-48300000D01*
X54400000Y-48300000D02*
X53900000Y-48300000D01*
X55400000Y-45140000D02*
X55400000Y-45750000D01*
X55400000Y-51260000D02*
X55400000Y-50650000D01*
X56700000Y-45140000D02*
X56700000Y-45750000D01*
X56700000Y-51260000D02*
X56700000Y-50650000D01*
X57400000Y-45750000D02*
X53900000Y-45750000D01*
X57400000Y-47700000D02*
X57400000Y-45750000D01*
X57400000Y-48700000D02*
X58010000Y-48700000D01*
X57400000Y-50650000D02*
X57400000Y-48700000D01*
X58010000Y-45140000D02*
X53290000Y-45140000D01*
X58010000Y-46900000D02*
X58210000Y-46900000D01*
X58010000Y-47700000D02*
X57400000Y-47700000D01*
X58010000Y-51260000D02*
X58010000Y-45140000D01*
X58110000Y-46900000D02*
X58110000Y-46600000D01*
X58210000Y-46600000D02*
X58010000Y-46600000D01*
X58210000Y-46900000D02*
X58210000Y-46600000D01*
X58310000Y-44840000D02*
X57060000Y-44840000D01*
X58310000Y-46090000D02*
X58310000Y-44840000D01*
G04 #@! TO.C,JP3*
X163954141Y-82056347D02*
X163954141Y-85056347D01*
X163954141Y-82056347D02*
X172054141Y-82056347D01*
X172054141Y-85056347D02*
X163954141Y-85056347D01*
X172054141Y-85056347D02*
X172054141Y-82056347D01*
D15*
G04 #@! TO.C,CR7*
X172900401Y-107406301D02*
X172900401Y-108432461D01*
X172900401Y-109631341D02*
X172900401Y-110657501D01*
X172900401Y-110657501D02*
X174551401Y-110657501D01*
X174551401Y-107406301D02*
X172900401Y-107406301D01*
X174551401Y-109382462D02*
X174551401Y-108681340D01*
X175097501Y-111800501D02*
G75*
G02*
X174843501Y-111800501I-127000J0D01*
G01*
X174843501Y-111800501D02*
G75*
G02*
X175097501Y-111800501I127000J0D01*
G01*
G04 #@! TO.C,J4*
X177419050Y-64104849D02*
X177419050Y-80513249D01*
X177419050Y-80513249D02*
X183444767Y-80513249D01*
X183444767Y-64104849D02*
X177419050Y-64104849D01*
X184453333Y-80513249D02*
X186436050Y-80513249D01*
X186436050Y-64104849D02*
X184453333Y-64104849D01*
X186436050Y-80513249D02*
X186436050Y-64104849D01*
D16*
X180390050Y-81148249D02*
G75*
G02*
X179628050Y-81148249I-381000J0D01*
G01*
X179628050Y-81148249D02*
G75*
G02*
X180390050Y-81148249I381000J0D01*
G01*
D15*
G04 #@! TO.C,CR9*
X173403690Y-86750438D02*
X173403690Y-87451560D01*
X173403690Y-88726599D02*
X175054690Y-88726599D01*
X175054690Y-85475399D02*
X173403690Y-85475399D01*
X175054690Y-86501559D02*
X175054690Y-85475399D01*
X175054690Y-88726599D02*
X175054690Y-87700439D01*
X173111590Y-84332399D02*
G75*
G02*
X172857590Y-84332399I-127000J0D01*
G01*
X172857590Y-84332399D02*
G75*
G02*
X173111590Y-84332399I127000J0D01*
G01*
D14*
G04 #@! TO.C,R2*
X70572936Y-79127500D02*
X71027064Y-79127500D01*
X70572936Y-80597500D02*
X71027064Y-80597500D01*
G04 #@! TO.C,R36*
X135877064Y-51765000D02*
X135422936Y-51765000D01*
X135877064Y-53235000D02*
X135422936Y-53235000D01*
G04 #@! TO.C,R38*
X132525000Y-80122936D02*
X132525000Y-80577064D01*
X133995000Y-80122936D02*
X133995000Y-80577064D01*
G04 #@! TO.C,R18*
X161482857Y-103845600D02*
X161008341Y-103845600D01*
X161482857Y-104890600D02*
X161008341Y-104890600D01*
D15*
G04 #@! TO.C,K1*
X89882999Y-82444634D02*
X89882999Y-83535366D01*
X89938323Y-84967000D02*
X94631677Y-84967000D01*
X94631677Y-81013000D02*
X89938323Y-81013000D01*
X94687000Y-83535366D02*
X94687000Y-82444634D01*
D14*
G04 #@! TO.C,R30*
X122309441Y-61759248D02*
X122783957Y-61759248D01*
X122309441Y-62804248D02*
X122783957Y-62804248D01*
G04 #@! TO.C,C55*
X132470000Y-52884420D02*
X132470000Y-53165580D01*
X133490000Y-52884420D02*
X133490000Y-53165580D01*
G04 #@! TO.C,D6*
X65889400Y-103425000D02*
X65889400Y-106110000D01*
X67809400Y-103425000D02*
X65889400Y-103425000D01*
X67809400Y-106110000D02*
X67809400Y-103425000D01*
G04 #@! TO.C,R12*
X63812336Y-105265000D02*
X64266464Y-105265000D01*
X63812336Y-106735000D02*
X64266464Y-106735000D01*
D15*
G04 #@! TO.C,J25*
X77373001Y-94148400D02*
X77373001Y-107051600D01*
X77373001Y-107051600D02*
X81675477Y-107051600D01*
X81675477Y-94148400D02*
X77373001Y-94148400D01*
X83189601Y-105831928D02*
X83189601Y-95368072D01*
D16*
X80981000Y-93513400D02*
G75*
G02*
X80219000Y-93513400I-381000J0D01*
G01*
X80219000Y-93513400D02*
G75*
G02*
X80981000Y-93513400I381000J0D01*
G01*
D14*
G04 #@! TO.C,D7*
X96475000Y-80400000D02*
X96475000Y-82320000D01*
X96475000Y-82320000D02*
X99160000Y-82320000D01*
X99160000Y-80400000D02*
X96475000Y-80400000D01*
D15*
G04 #@! TO.C,U13*
X87790400Y-123913000D02*
X87790400Y-125978660D01*
X87790400Y-127101340D02*
X87790400Y-128518660D01*
X87790400Y-129641340D02*
X87790400Y-133598660D01*
X87790400Y-134721340D02*
X87790400Y-136138660D01*
X87790400Y-137261340D02*
X87790400Y-139407000D01*
X87790400Y-139407000D02*
X98737800Y-139407000D01*
X98737800Y-123913000D02*
X87790400Y-123913000D01*
X98737800Y-125978660D02*
X98737800Y-123913000D01*
X98737800Y-133598660D02*
X98737800Y-127101340D01*
X98737800Y-139407000D02*
X98737800Y-134721340D01*
D14*
G04 #@! TO.C,D4*
X70600000Y-125790000D02*
X70600000Y-129450000D01*
X72500000Y-125790000D02*
X70600000Y-125790000D01*
X72500000Y-125790000D02*
X72500000Y-129450000D01*
G04 #@! TO.C,D5*
X70089400Y-122275000D02*
X70089400Y-124960000D01*
X72009400Y-122275000D02*
X70089400Y-122275000D01*
X72009400Y-124960000D02*
X72009400Y-122275000D01*
G04 #@! TO.C,J35*
X83290000Y-45040000D02*
X83290000Y-51160000D01*
X83290000Y-51160000D02*
X88010000Y-51160000D01*
X83900000Y-45650000D02*
X83900000Y-50550000D01*
X83900000Y-48000000D02*
X84400000Y-48000000D01*
X83900000Y-48100000D02*
X84400000Y-48100000D01*
X83900000Y-50550000D02*
X87400000Y-50550000D01*
X84400000Y-48000000D02*
X84400000Y-48200000D01*
X84400000Y-48200000D02*
X83900000Y-48200000D01*
X85400000Y-45040000D02*
X85400000Y-45650000D01*
X85400000Y-51160000D02*
X85400000Y-50550000D01*
X86700000Y-45040000D02*
X86700000Y-45650000D01*
X86700000Y-51160000D02*
X86700000Y-50550000D01*
X87400000Y-45650000D02*
X83900000Y-45650000D01*
X87400000Y-47600000D02*
X87400000Y-45650000D01*
X87400000Y-48600000D02*
X88010000Y-48600000D01*
X87400000Y-50550000D02*
X87400000Y-48600000D01*
X88010000Y-45040000D02*
X83290000Y-45040000D01*
X88010000Y-46800000D02*
X88210000Y-46800000D01*
X88010000Y-47600000D02*
X87400000Y-47600000D01*
X88010000Y-51160000D02*
X88010000Y-45040000D01*
X88110000Y-46800000D02*
X88110000Y-46500000D01*
X88210000Y-46500000D02*
X88010000Y-46500000D01*
X88210000Y-46800000D02*
X88210000Y-46500000D01*
X88310000Y-44740000D02*
X87060000Y-44740000D01*
X88310000Y-45990000D02*
X88310000Y-44740000D01*
G04 #@! TO.C,D2*
X70840000Y-81740000D02*
X70840000Y-84425000D01*
X72760000Y-81740000D02*
X70840000Y-81740000D01*
X72760000Y-84425000D02*
X72760000Y-81740000D01*
G04 #@! TO.C,R51*
X103465000Y-78460436D02*
X103465000Y-78914564D01*
X104935000Y-78460436D02*
X104935000Y-78914564D01*
G04 #@! TO.C,R26*
X161418743Y-58603797D02*
X161893259Y-58603797D01*
X161418743Y-59648797D02*
X161893259Y-59648797D01*
G04 #@! TO.C,C51*
X117836700Y-53283570D02*
X117836700Y-53564730D01*
X118856700Y-53283570D02*
X118856700Y-53564730D01*
D15*
G04 #@! TO.C,CR8*
X173574499Y-114120940D02*
X173574499Y-114822062D01*
X173574499Y-116097101D02*
X175225499Y-116097101D01*
X175225499Y-112845901D02*
X173574499Y-112845901D01*
X175225499Y-113872061D02*
X175225499Y-112845901D01*
X175225499Y-116097101D02*
X175225499Y-115070941D01*
X173282399Y-111702901D02*
G75*
G02*
X173028399Y-111702901I-127000J0D01*
G01*
X173028399Y-111702901D02*
G75*
G02*
X173282399Y-111702901I127000J0D01*
G01*
D14*
G04 #@! TO.C,C28*
X148898679Y-83563703D02*
X148617519Y-83563703D01*
X148898679Y-84583703D02*
X148617519Y-84583703D01*
G04 #@! TO.C,D18*
X100870000Y-66800000D02*
X100870000Y-68500000D01*
X100870000Y-66800000D02*
X103530000Y-66800000D01*
X100870000Y-68500000D02*
X103530000Y-68500000D01*
D15*
G04 #@! TO.C,K2*
X89922999Y-97172134D02*
X89922999Y-98262866D01*
X89978323Y-99694500D02*
X94671677Y-99694500D01*
X94671677Y-95740500D02*
X89978323Y-95740500D01*
X94727000Y-98262866D02*
X94727000Y-97172134D01*
D14*
G04 #@! TO.C,C25*
X168659419Y-112990001D02*
X168940579Y-112990001D01*
X168659419Y-114010001D02*
X168940579Y-114010001D01*
G04 #@! TO.C,C14*
X63964980Y-112450000D02*
X63683820Y-112450000D01*
X63964980Y-113470000D02*
X63683820Y-113470000D01*
G04 #@! TO.C,C15*
X62589400Y-110700580D02*
X62589400Y-110419420D01*
X63609400Y-110700580D02*
X63609400Y-110419420D01*
G04 #@! TO.C,J33*
X83840000Y-71490000D02*
X83840000Y-72740000D01*
X84140000Y-71790000D02*
X84140000Y-76510000D01*
X84140000Y-73100000D02*
X84750000Y-73100000D01*
X84140000Y-74400000D02*
X84750000Y-74400000D01*
X84140000Y-76510000D02*
X92260000Y-76510000D01*
X84750000Y-72400000D02*
X84750000Y-75900000D01*
X84750000Y-75900000D02*
X91650000Y-75900000D01*
X85090000Y-71490000D02*
X83840000Y-71490000D01*
X85600000Y-71590000D02*
X85600000Y-71790000D01*
X85900000Y-71590000D02*
X85600000Y-71590000D01*
X85900000Y-71690000D02*
X85600000Y-71690000D01*
X85900000Y-71790000D02*
X85900000Y-71590000D01*
X86700000Y-71790000D02*
X86700000Y-72400000D01*
X86700000Y-72400000D02*
X84750000Y-72400000D01*
X87100000Y-75400000D02*
X87300000Y-75400000D01*
X87100000Y-75900000D02*
X87100000Y-75400000D01*
X87200000Y-75900000D02*
X87200000Y-75400000D01*
X87300000Y-75400000D02*
X87300000Y-75900000D01*
X89100000Y-75400000D02*
X89300000Y-75400000D01*
X89100000Y-75900000D02*
X89100000Y-75400000D01*
X89200000Y-75900000D02*
X89200000Y-75400000D01*
X89300000Y-75400000D02*
X89300000Y-75900000D01*
X89700000Y-72400000D02*
X89700000Y-71790000D01*
X91650000Y-72400000D02*
X89700000Y-72400000D01*
X91650000Y-75900000D02*
X91650000Y-72400000D01*
X92260000Y-71790000D02*
X84140000Y-71790000D01*
X92260000Y-73100000D02*
X91650000Y-73100000D01*
X92260000Y-74400000D02*
X91650000Y-74400000D01*
X92260000Y-76510000D02*
X92260000Y-71790000D01*
G04 #@! TO.C,J11*
X133500000Y-138230000D02*
X133500000Y-136850000D01*
X134880000Y-138230000D02*
X133500000Y-138230000D01*
X136150000Y-135470000D02*
X143880000Y-135470000D01*
X136150000Y-138230000D02*
X136150000Y-135470000D01*
X136150000Y-138230000D02*
X143880000Y-138230000D01*
X143880000Y-138230000D02*
X143880000Y-135470000D01*
G04 #@! TO.C,C52*
X132470000Y-59659420D02*
X132470000Y-59940580D01*
X133490000Y-59659420D02*
X133490000Y-59940580D01*
D15*
G04 #@! TO.C,U15*
X104028800Y-55604950D02*
X104028800Y-59846750D01*
X109261200Y-59846750D02*
X109261200Y-55604950D01*
D14*
G04 #@! TO.C,C12*
X65460652Y-123625000D02*
X64938148Y-123625000D01*
X65460652Y-125095000D02*
X64938148Y-125095000D01*
D15*
G04 #@! TO.C,L2*
X49274000Y-102334600D02*
X49274000Y-115085400D01*
X49274000Y-115085400D02*
X52738350Y-115085400D01*
X52738350Y-102334600D02*
X49274000Y-102334600D01*
X58560450Y-115085400D02*
X62024800Y-115085400D01*
X62024800Y-102334600D02*
X58560450Y-102334600D01*
X62024800Y-115085400D02*
X62024800Y-102334600D01*
D14*
G04 #@! TO.C,J30*
X72657938Y-59487500D02*
X72657938Y-60737500D01*
X72957938Y-59787500D02*
X72957938Y-64507500D01*
X72957938Y-61097500D02*
X73567938Y-61097500D01*
X72957938Y-62397500D02*
X73567938Y-62397500D01*
X72957938Y-64507500D02*
X81077938Y-64507500D01*
X73567938Y-60397500D02*
X73567938Y-63897500D01*
X73567938Y-63897500D02*
X80467938Y-63897500D01*
X73907938Y-59487500D02*
X72657938Y-59487500D01*
X74417938Y-59587500D02*
X74417938Y-59787500D01*
X74717938Y-59587500D02*
X74417938Y-59587500D01*
X74717938Y-59687500D02*
X74417938Y-59687500D01*
X74717938Y-59787500D02*
X74717938Y-59587500D01*
X75517938Y-59787500D02*
X75517938Y-60397500D01*
X75517938Y-60397500D02*
X73567938Y-60397500D01*
X75917938Y-63397500D02*
X76117938Y-63397500D01*
X75917938Y-63897500D02*
X75917938Y-63397500D01*
X76017938Y-63897500D02*
X76017938Y-63397500D01*
X76117938Y-63397500D02*
X76117938Y-63897500D01*
X77917938Y-63397500D02*
X78117938Y-63397500D01*
X77917938Y-63897500D02*
X77917938Y-63397500D01*
X78017938Y-63897500D02*
X78017938Y-63397500D01*
X78117938Y-63397500D02*
X78117938Y-63897500D01*
X78517938Y-60397500D02*
X78517938Y-59787500D01*
X80467938Y-60397500D02*
X78517938Y-60397500D01*
X80467938Y-63897500D02*
X80467938Y-60397500D01*
X81077938Y-59787500D02*
X72957938Y-59787500D01*
X81077938Y-61097500D02*
X80467938Y-61097500D01*
X81077938Y-62397500D02*
X80467938Y-62397500D01*
X81077938Y-64507500D02*
X81077938Y-59787500D01*
G04 #@! TO.C,J32*
X72657938Y-65487500D02*
X72657938Y-66737500D01*
X72957938Y-65787500D02*
X72957938Y-70507500D01*
X72957938Y-67097500D02*
X73567938Y-67097500D01*
X72957938Y-68397500D02*
X73567938Y-68397500D01*
X72957938Y-70507500D02*
X81077938Y-70507500D01*
X73567938Y-66397500D02*
X73567938Y-69897500D01*
X73567938Y-69897500D02*
X80467938Y-69897500D01*
X73907938Y-65487500D02*
X72657938Y-65487500D01*
X74417938Y-65587500D02*
X74417938Y-65787500D01*
X74717938Y-65587500D02*
X74417938Y-65587500D01*
X74717938Y-65687500D02*
X74417938Y-65687500D01*
X74717938Y-65787500D02*
X74717938Y-65587500D01*
X75517938Y-65787500D02*
X75517938Y-66397500D01*
X75517938Y-66397500D02*
X73567938Y-66397500D01*
X75917938Y-69397500D02*
X76117938Y-69397500D01*
X75917938Y-69897500D02*
X75917938Y-69397500D01*
X76017938Y-69897500D02*
X76017938Y-69397500D01*
X76117938Y-69397500D02*
X76117938Y-69897500D01*
X77917938Y-69397500D02*
X78117938Y-69397500D01*
X77917938Y-69897500D02*
X77917938Y-69397500D01*
X78017938Y-69897500D02*
X78017938Y-69397500D01*
X78117938Y-69397500D02*
X78117938Y-69897500D01*
X78517938Y-66397500D02*
X78517938Y-65787500D01*
X80467938Y-66397500D02*
X78517938Y-66397500D01*
X80467938Y-69897500D02*
X80467938Y-66397500D01*
X81077938Y-65787500D02*
X72957938Y-65787500D01*
X81077938Y-67097500D02*
X80467938Y-67097500D01*
X81077938Y-68397500D02*
X80467938Y-68397500D01*
X81077938Y-70507500D02*
X81077938Y-65787500D01*
G04 #@! TO.C,R25*
X169730759Y-49503797D02*
X169256243Y-49503797D01*
X169730759Y-50548797D02*
X169256243Y-50548797D01*
G04 #@! TO.C,R52*
X80845002Y-56662500D02*
X80390874Y-56662500D01*
X80845002Y-58132500D02*
X80390874Y-58132500D01*
G04 #@! TO.C,R31*
X126737500Y-80862742D02*
X126737500Y-81337258D01*
X127782500Y-80862742D02*
X127782500Y-81337258D01*
G04 #@! TO.C,R37*
X124525000Y-80122936D02*
X124525000Y-80577064D01*
X125995000Y-80122936D02*
X125995000Y-80577064D01*
G04 #@! TO.C,FB3*
X145371800Y-119921267D02*
X145371800Y-119578733D01*
X146391800Y-119921267D02*
X146391800Y-119578733D01*
G04 #@! TO.C,FB8*
X121290000Y-67121267D02*
X121290000Y-66778733D01*
X122310000Y-67121267D02*
X122310000Y-66778733D01*
G04 #@! TO.C,J39*
X59290000Y-45040000D02*
X59290000Y-51160000D01*
X59290000Y-51160000D02*
X64010000Y-51160000D01*
X59900000Y-45650000D02*
X59900000Y-50550000D01*
X59900000Y-48000000D02*
X60400000Y-48000000D01*
X59900000Y-48100000D02*
X60400000Y-48100000D01*
X59900000Y-50550000D02*
X63400000Y-50550000D01*
X60400000Y-48000000D02*
X60400000Y-48200000D01*
X60400000Y-48200000D02*
X59900000Y-48200000D01*
X61400000Y-45040000D02*
X61400000Y-45650000D01*
X61400000Y-51160000D02*
X61400000Y-50550000D01*
X62700000Y-45040000D02*
X62700000Y-45650000D01*
X62700000Y-51160000D02*
X62700000Y-50550000D01*
X63400000Y-45650000D02*
X59900000Y-45650000D01*
X63400000Y-47600000D02*
X63400000Y-45650000D01*
X63400000Y-48600000D02*
X64010000Y-48600000D01*
X63400000Y-50550000D02*
X63400000Y-48600000D01*
X64010000Y-45040000D02*
X59290000Y-45040000D01*
X64010000Y-46800000D02*
X64210000Y-46800000D01*
X64010000Y-47600000D02*
X63400000Y-47600000D01*
X64010000Y-51160000D02*
X64010000Y-45040000D01*
X64110000Y-46800000D02*
X64110000Y-46500000D01*
X64210000Y-46500000D02*
X64010000Y-46500000D01*
X64210000Y-46800000D02*
X64210000Y-46500000D01*
X64310000Y-44740000D02*
X63060000Y-44740000D01*
X64310000Y-45990000D02*
X64310000Y-44740000D01*
G04 #@! TO.C,R15*
X161612259Y-122027499D02*
X161137743Y-122027499D01*
X161612259Y-123072499D02*
X161137743Y-123072499D01*
G04 #@! TO.C,FB6*
X145290000Y-65121267D02*
X145290000Y-64778733D01*
X146310000Y-65121267D02*
X146310000Y-64778733D01*
D15*
G04 #@! TO.C,U16*
X119530500Y-55503250D02*
X119530500Y-59745050D01*
X124762900Y-59745050D02*
X124762900Y-55503250D01*
D14*
G04 #@! TO.C,C8*
X65038748Y-65727500D02*
X65561252Y-65727500D01*
X65038748Y-67197500D02*
X65561252Y-67197500D01*
G04 #@! TO.C,C44*
X102490000Y-59789820D02*
X102490000Y-60070980D01*
X103510000Y-59789820D02*
X103510000Y-60070980D01*
G04 #@! TO.C,R1*
X68072936Y-87627500D02*
X68527064Y-87627500D01*
X68072936Y-89097500D02*
X68527064Y-89097500D01*
D15*
G04 #@! TO.C,U2*
X62215500Y-115513250D02*
X62215500Y-119755050D01*
X67473300Y-119755050D02*
X67473300Y-115513250D01*
D14*
G04 #@! TO.C,D12*
X83950000Y-120910000D02*
X83950000Y-115100000D01*
X83950000Y-120910000D02*
X88250000Y-120910000D01*
X88250000Y-120910000D02*
X88250000Y-115100000D01*
G04 #@! TO.C,R22*
X169661308Y-67536550D02*
X169186792Y-67536550D01*
X169661308Y-68581550D02*
X169186792Y-68581550D01*
G04 #@! TO.C,R42*
X98765000Y-99160436D02*
X98765000Y-99614564D01*
X100235000Y-99160436D02*
X100235000Y-99614564D01*
G04 #@! TO.C,C49*
X117836700Y-56664730D02*
X117836700Y-56383570D01*
X118856700Y-56664730D02*
X118856700Y-56383570D01*
G04 #@! TO.C,C21*
X168659421Y-131189999D02*
X168940581Y-131189999D01*
X168659421Y-132209999D02*
X168940581Y-132209999D01*
G04 #@! TO.C,D14*
X114190000Y-66850000D02*
X114190000Y-68550000D01*
X114190000Y-66850000D02*
X116850000Y-66850000D01*
X114190000Y-68550000D02*
X116850000Y-68550000D01*
G04 #@! TO.C,R5*
X67902742Y-69230000D02*
X68377258Y-69230000D01*
X67902742Y-70275000D02*
X68377258Y-70275000D01*
G04 #@! TO.C,J31*
X83840000Y-65490000D02*
X83840000Y-66740000D01*
X84140000Y-65790000D02*
X84140000Y-70510000D01*
X84140000Y-67100000D02*
X84750000Y-67100000D01*
X84140000Y-68400000D02*
X84750000Y-68400000D01*
X84140000Y-70510000D02*
X92260000Y-70510000D01*
X84750000Y-66400000D02*
X84750000Y-69900000D01*
X84750000Y-69900000D02*
X91650000Y-69900000D01*
X85090000Y-65490000D02*
X83840000Y-65490000D01*
X85600000Y-65590000D02*
X85600000Y-65790000D01*
X85900000Y-65590000D02*
X85600000Y-65590000D01*
X85900000Y-65690000D02*
X85600000Y-65690000D01*
X85900000Y-65790000D02*
X85900000Y-65590000D01*
X86700000Y-65790000D02*
X86700000Y-66400000D01*
X86700000Y-66400000D02*
X84750000Y-66400000D01*
X87100000Y-69400000D02*
X87300000Y-69400000D01*
X87100000Y-69900000D02*
X87100000Y-69400000D01*
X87200000Y-69900000D02*
X87200000Y-69400000D01*
X87300000Y-69400000D02*
X87300000Y-69900000D01*
X89100000Y-69400000D02*
X89300000Y-69400000D01*
X89100000Y-69900000D02*
X89100000Y-69400000D01*
X89200000Y-69900000D02*
X89200000Y-69400000D01*
X89300000Y-69400000D02*
X89300000Y-69900000D01*
X89700000Y-66400000D02*
X89700000Y-65790000D01*
X91650000Y-66400000D02*
X89700000Y-66400000D01*
X91650000Y-69900000D02*
X91650000Y-66400000D01*
X92260000Y-65790000D02*
X84140000Y-65790000D01*
X92260000Y-67100000D02*
X91650000Y-67100000D01*
X92260000Y-68400000D02*
X91650000Y-68400000D01*
X92260000Y-70510000D02*
X92260000Y-65790000D01*
G04 #@! TO.C,C43*
X122990000Y-66684420D02*
X122990000Y-66965580D01*
X124010000Y-66684420D02*
X124010000Y-66965580D01*
G04 #@! TO.C,C11*
X65460652Y-125825000D02*
X64938148Y-125825000D01*
X65460652Y-127295000D02*
X64938148Y-127295000D01*
G04 #@! TO.C,J20*
X45130000Y-77080000D02*
X45130000Y-79400000D01*
X45130000Y-80000000D02*
X45130000Y-87320000D01*
X47250000Y-77080000D02*
X47250000Y-87320000D01*
X51250000Y-77080000D02*
X51250000Y-87320000D01*
X53370000Y-77080000D02*
X45130000Y-77080000D01*
X53370000Y-77080000D02*
X53370000Y-87320000D01*
X53370000Y-87320000D02*
X45130000Y-87320000D01*
X45130000Y-79700000D02*
X44520000Y-80140000D01*
X44520000Y-79260000D01*
X45130000Y-79700000D01*
G36*
X45130000Y-79700000D02*
G01*
X44520000Y-80140000D01*
X44520000Y-79260000D01*
X45130000Y-79700000D01*
G37*
G04 #@! TO.C,D17*
X104170000Y-66800000D02*
X104170000Y-68500000D01*
X104170000Y-66800000D02*
X106830000Y-66800000D01*
X104170000Y-68500000D02*
X106830000Y-68500000D01*
G04 #@! TO.C,R_ESR1*
X67337500Y-67065242D02*
X67337500Y-67539758D01*
X68382500Y-67065242D02*
X68382500Y-67539758D01*
G04 #@! TO.C,C56*
X129388748Y-82865000D02*
X129911252Y-82865000D01*
X129388748Y-84335000D02*
X129911252Y-84335000D01*
D15*
G04 #@! TO.C,CR12*
X173449451Y-68034786D02*
X173449451Y-68735908D01*
X173449451Y-70010947D02*
X175100451Y-70010947D01*
X175100451Y-66759747D02*
X173449451Y-66759747D01*
X175100451Y-67785907D02*
X175100451Y-66759747D01*
X175100451Y-70010947D02*
X175100451Y-68984787D01*
X173157351Y-65616747D02*
G75*
G02*
X172903351Y-65616747I-127000J0D01*
G01*
X172903351Y-65616747D02*
G75*
G02*
X173157351Y-65616747I127000J0D01*
G01*
D14*
G04 #@! TO.C,J24*
X89380000Y-100820000D02*
X90760000Y-100820000D01*
X89380000Y-102200000D02*
X89380000Y-100820000D01*
X89380000Y-103470000D02*
X89380000Y-106120000D01*
X89380000Y-103470000D02*
X92030000Y-103470000D01*
X89380000Y-106120000D02*
X94680000Y-106120000D01*
X92030000Y-100820000D02*
X94680000Y-100820000D01*
X92030000Y-103470000D02*
X92030000Y-100820000D01*
X94680000Y-100820000D02*
X94680000Y-106120000D01*
G04 #@! TO.C,R_ESR2*
X66076900Y-108672742D02*
X66076900Y-109147258D01*
X67121900Y-108672742D02*
X67121900Y-109147258D01*
G04 #@! TO.C,R27*
X161830759Y-49403797D02*
X161356243Y-49403797D01*
X161830759Y-50448797D02*
X161356243Y-50448797D01*
G04 #@! TO.C,R16*
X170074758Y-103927501D02*
X169600242Y-103927501D01*
X170074758Y-104972501D02*
X169600242Y-104972501D01*
G04 #@! TO.C,C50*
X124006120Y-52214150D02*
X124287280Y-52214150D01*
X124006120Y-53234150D02*
X124287280Y-53234150D01*
G04 #@! TO.C,C53*
X132470000Y-56265580D02*
X132470000Y-55984420D01*
X133490000Y-56265580D02*
X133490000Y-55984420D01*
G04 #@! TO.C,R6*
X65112936Y-63717500D02*
X65567064Y-63717500D01*
X65112936Y-65187500D02*
X65567064Y-65187500D01*
G04 #@! TO.C,U4*
X160195001Y-127124999D02*
X160195001Y-125174999D01*
X160195001Y-127124999D02*
X160195001Y-129074999D01*
X170315001Y-127124999D02*
X170315001Y-125174999D01*
X170315001Y-127124999D02*
X170315001Y-129074999D01*
X170590001Y-124664999D02*
X170260001Y-124424999D01*
X170590001Y-124184999D01*
X170590001Y-124664999D01*
G36*
X170590001Y-124664999D02*
G01*
X170260001Y-124424999D01*
X170590001Y-124184999D01*
X170590001Y-124664999D01*
G37*
G04 #@! TO.C,R29*
X137192258Y-61651650D02*
X136717742Y-61651650D01*
X137192258Y-62696650D02*
X136717742Y-62696650D01*
G04 #@! TO.C,C35*
X145271499Y-60958123D02*
X145271499Y-61239283D01*
X146291499Y-60958123D02*
X146291499Y-61239283D01*
D15*
G04 #@! TO.C,J3*
X177432240Y-82255849D02*
X177432240Y-98664249D01*
X177432240Y-98664249D02*
X183457957Y-98664249D01*
X183457957Y-82255849D02*
X177432240Y-82255849D01*
X184466523Y-98664249D02*
X186449240Y-98664249D01*
X186449240Y-82255849D02*
X184466523Y-82255849D01*
X186449240Y-98664249D02*
X186449240Y-82255849D01*
D16*
X180403240Y-99299249D02*
G75*
G02*
X179641240Y-99299249I-381000J0D01*
G01*
X179641240Y-99299249D02*
G75*
G02*
X180403240Y-99299249I381000J0D01*
G01*
D14*
G04 #@! TO.C,J8*
X141728099Y-93993702D02*
X141728099Y-86263702D01*
X144488099Y-86263702D02*
X141728099Y-86263702D01*
X144488099Y-93993702D02*
X141728099Y-93993702D01*
X144488099Y-93993702D02*
X144488099Y-86263702D01*
X144488099Y-95263702D02*
X144488099Y-96643702D01*
X144488099Y-96643702D02*
X143108099Y-96643702D01*
G04 #@! TO.C,C29*
X168588561Y-94879149D02*
X168869721Y-94879149D01*
X168588561Y-95899149D02*
X168869721Y-95899149D01*
D15*
G04 #@! TO.C,J5*
X177410001Y-45995799D02*
X177410001Y-62404199D01*
X177410001Y-62404199D02*
X183435718Y-62404199D01*
X183435718Y-45995799D02*
X177410001Y-45995799D01*
X184444284Y-62404199D02*
X186427001Y-62404199D01*
X186427001Y-45995799D02*
X184444284Y-45995799D01*
X186427001Y-62404199D02*
X186427001Y-45995799D01*
D16*
X180381001Y-63039199D02*
G75*
G02*
X179619001Y-63039199I-381000J0D01*
G01*
X179619001Y-63039199D02*
G75*
G02*
X180381001Y-63039199I381000J0D01*
G01*
D14*
G04 #@! TO.C,C30*
X168646659Y-96450050D02*
X168927819Y-96450050D01*
X168646659Y-97470050D02*
X168927819Y-97470050D01*
G04 #@! TO.C,C5*
X65190580Y-71352500D02*
X64909420Y-71352500D01*
X65190580Y-72372500D02*
X64909420Y-72372500D01*
G04 #@! TO.C,R53*
X80832502Y-54112500D02*
X80378374Y-54112500D01*
X80832502Y-55582500D02*
X80378374Y-55582500D01*
G04 #@! TO.C,R48*
X113015000Y-78472936D02*
X113015000Y-78927064D01*
X114485000Y-78472936D02*
X114485000Y-78927064D01*
G04 #@! TO.C,R34*
X105814564Y-51886300D02*
X105360436Y-51886300D01*
X105814564Y-53356300D02*
X105360436Y-53356300D01*
G04 #@! TO.C,R46*
X118065000Y-78472936D02*
X118065000Y-78927064D01*
X119535000Y-78472936D02*
X119535000Y-78927064D01*
G04 #@! TO.C,C3*
X67061252Y-82627500D02*
X66538748Y-82627500D01*
X67061252Y-84097500D02*
X66538748Y-84097500D01*
G04 #@! TO.C,C57*
X107565000Y-87961252D02*
X107565000Y-87438748D01*
X109035000Y-87961252D02*
X109035000Y-87438748D01*
G04 #@! TO.C,J28*
X72847938Y-58767500D02*
X72847938Y-53467500D01*
X75497938Y-56117500D02*
X75497938Y-58767500D01*
X75497938Y-58767500D02*
X72847938Y-58767500D01*
X78147938Y-53467500D02*
X72847938Y-53467500D01*
X78147938Y-56117500D02*
X75497938Y-56117500D01*
X78147938Y-56117500D02*
X78147938Y-53467500D01*
X78147938Y-57387500D02*
X78147938Y-58767500D01*
X78147938Y-58767500D02*
X76767938Y-58767500D01*
G04 #@! TO.C,FB2*
X64889400Y-130059622D02*
X64889400Y-129260378D01*
X66009400Y-130059622D02*
X66009400Y-129260378D01*
G04 #@! TO.C,JP4*
X164000000Y-63400000D02*
X164000000Y-66400000D01*
X164000000Y-63400000D02*
X172100000Y-63400000D01*
X172100000Y-66400000D02*
X164000000Y-66400000D01*
X172100000Y-66400000D02*
X172100000Y-63400000D01*
G04 #@! TO.C,U12*
X160135001Y-54525000D02*
X160135001Y-52575000D01*
X160135001Y-54525000D02*
X160135001Y-56475000D01*
X170255001Y-54525000D02*
X170255001Y-52575000D01*
X170255001Y-54525000D02*
X170255001Y-56475000D01*
X170530001Y-52065000D02*
X170200001Y-51825000D01*
X170530001Y-51585000D01*
X170530001Y-52065000D01*
G36*
X170530001Y-52065000D02*
G01*
X170200001Y-51825000D01*
X170530001Y-51585000D01*
X170530001Y-52065000D01*
G37*
G04 #@! TO.C,A1*
X110300000Y-136260000D02*
X110300000Y-86260000D01*
X110640000Y-85713000D02*
X110640000Y-136807000D01*
X110910000Y-136870000D02*
X113400000Y-136870000D01*
X113400000Y-86563520D02*
X113400000Y-85650000D01*
X113400000Y-133563520D02*
X113400000Y-88956480D01*
X113400000Y-136870000D02*
X113400000Y-135956480D01*
X114747939Y-85650000D02*
X110910000Y-85650000D01*
X114747939Y-136870000D02*
X113400000Y-136870000D01*
X115672061Y-85650000D02*
X117310000Y-85650000D01*
X116675000Y-136870000D02*
X115672061Y-136870000D01*
X116800000Y-137350000D02*
X117010000Y-137350000D01*
X116800000Y-138170000D02*
X116800000Y-137350000D01*
X117010000Y-132350000D02*
X124810000Y-132350000D01*
X117010000Y-133566000D02*
X117010000Y-132350000D01*
X117010000Y-137350000D02*
X117010000Y-135954000D01*
X117310000Y-85650000D02*
X124510000Y-85650000D01*
X124510000Y-85650000D02*
X126147939Y-85650000D01*
X124810000Y-133566000D02*
X124810000Y-132350000D01*
X124810000Y-137350000D02*
X124810000Y-135954000D01*
X125020000Y-137350000D02*
X124810000Y-137350000D01*
X125020000Y-138170000D02*
X116800000Y-138170000D01*
X125020000Y-138170000D02*
X125020000Y-137350000D01*
X125145000Y-136870000D02*
X116675000Y-136870000D01*
X126147939Y-136870000D02*
X125145000Y-136870000D01*
X128420000Y-86563520D02*
X128420000Y-85650000D01*
X128420000Y-133563520D02*
X128420000Y-88956480D01*
X128420000Y-136870000D02*
X127072060Y-136870000D01*
X128420000Y-136870000D02*
X128420000Y-135956480D01*
X130910000Y-85650000D02*
X127072061Y-85650000D01*
X130910000Y-136870000D02*
X128420000Y-136870000D01*
X131180000Y-136807000D02*
X131180000Y-85713000D01*
X131520000Y-136260000D02*
X131520000Y-86260000D01*
X131840000Y-134590000D02*
X131840000Y-136190000D01*
X110300000Y-86260000D02*
G75*
G02*
X110910000Y-85650000I610000J0D01*
G01*
X110910000Y-136870000D02*
G75*
G02*
X110300000Y-136260000I0J610000D01*
G01*
X130910000Y-85650000D02*
G75*
G02*
X131520000Y-86260000I99J-609901D01*
G01*
X131520000Y-136260000D02*
G75*
G02*
X130910000Y-136870000I-610000J0D01*
G01*
G04 #@! TO.C,R43*
X96665000Y-99160436D02*
X96665000Y-99614564D01*
X98135000Y-99160436D02*
X98135000Y-99614564D01*
G04 #@! TO.C,U8*
X160157240Y-90785050D02*
X160157240Y-88835050D01*
X160157240Y-90785050D02*
X160157240Y-92735050D01*
X170277240Y-90785050D02*
X170277240Y-88835050D01*
X170277240Y-90785050D02*
X170277240Y-92735050D01*
X170552240Y-88325050D02*
X170222240Y-88085050D01*
X170552240Y-87845050D01*
X170552240Y-88325050D01*
G36*
X170552240Y-88325050D02*
G01*
X170222240Y-88085050D01*
X170552240Y-87845050D01*
X170552240Y-88325050D01*
G37*
G04 #@! TO.C,C9*
X65038748Y-61677500D02*
X65561252Y-61677500D01*
X65038748Y-63147500D02*
X65561252Y-63147500D01*
D15*
G04 #@! TO.C,J18*
X127448400Y-43841700D02*
X127448400Y-48144176D01*
X128668072Y-49658300D02*
X139131928Y-49658300D01*
X140351600Y-43841700D02*
X127448400Y-43841700D01*
X140351600Y-48144176D02*
X140351600Y-43841700D01*
D16*
X141367600Y-47068699D02*
G75*
G02*
X140605600Y-47068699I-381000J0D01*
G01*
X140605600Y-47068699D02*
G75*
G02*
X141367600Y-47068699I381000J0D01*
G01*
D15*
G04 #@! TO.C,CR11*
X173536740Y-95980989D02*
X173536740Y-96682111D01*
X173536740Y-97957150D02*
X175187740Y-97957150D01*
X175187740Y-94705950D02*
X173536740Y-94705950D01*
X175187740Y-95732110D02*
X175187740Y-94705950D01*
X175187740Y-97957150D02*
X175187740Y-96930990D01*
X173244640Y-93562950D02*
G75*
G02*
X172990640Y-93562950I-127000J0D01*
G01*
X172990640Y-93562950D02*
G75*
G02*
X173244640Y-93562950I127000J0D01*
G01*
D14*
G04 #@! TO.C,C61*
X107565000Y-104238748D02*
X107565000Y-104761252D01*
X109035000Y-104238748D02*
X109035000Y-104761252D01*
G04 #@! TO.C,R28*
X107187258Y-61879200D02*
X106712742Y-61879200D01*
X107187258Y-62924200D02*
X106712742Y-62924200D01*
G04 #@! TO.C,C20*
X148940580Y-120140000D02*
X148659420Y-120140000D01*
X148940580Y-121160000D02*
X148659420Y-121160000D01*
G04 #@! TO.C,D3*
X67180000Y-61805000D02*
X67180000Y-64490000D01*
X69100000Y-61805000D02*
X67180000Y-61805000D01*
X69100000Y-64490000D02*
X69100000Y-61805000D01*
G04 #@! TO.C,R39*
X128525000Y-80122936D02*
X128525000Y-80577064D01*
X129995000Y-80122936D02*
X129995000Y-80577064D01*
G04 #@! TO.C,C54*
X138809420Y-51990000D02*
X139090580Y-51990000D01*
X138809420Y-53010000D02*
X139090580Y-53010000D01*
G04 #@! TO.C,J6*
X141801800Y-129880000D02*
X141801800Y-122150000D01*
X144561800Y-122150000D02*
X141801800Y-122150000D01*
X144561800Y-129880000D02*
X141801800Y-129880000D01*
X144561800Y-129880000D02*
X144561800Y-122150000D01*
X144561800Y-131150000D02*
X144561800Y-132530000D01*
X144561800Y-132530000D02*
X143181800Y-132530000D01*
D15*
G04 #@! TO.C,CR3*
X173240301Y-121649438D02*
X173240301Y-122350560D01*
X173240301Y-123625599D02*
X174891301Y-123625599D01*
X174891301Y-120374399D02*
X173240301Y-120374399D01*
X174891301Y-121400559D02*
X174891301Y-120374399D01*
X174891301Y-123625599D02*
X174891301Y-122599439D01*
X172948201Y-119231399D02*
G75*
G02*
X172694201Y-119231399I-127000J0D01*
G01*
X172694201Y-119231399D02*
G75*
G02*
X172948201Y-119231399I127000J0D01*
G01*
D14*
G04 #@! TO.C,D10*
X83850000Y-106510000D02*
X83850000Y-100700000D01*
X83850000Y-106510000D02*
X88150000Y-106510000D01*
X88150000Y-106510000D02*
X88150000Y-100700000D01*
G04 #@! TD*
%LPC*%
D17*
G04 #@! TO.C,R4*
X65840000Y-68227500D03*
X65840000Y-69877500D03*
G04 #@! TD*
D18*
G04 #@! TO.C,CR10*
X174713190Y-92351000D03*
X174713190Y-90450998D03*
X172681190Y-91400999D03*
G04 #@! TD*
D19*
G04 #@! TO.C,CR2*
X59116200Y-122097000D03*
X56982600Y-122097000D03*
D20*
X58049400Y-118375900D03*
G04 #@! TD*
D21*
G04 #@! TO.C,C40*
X100960000Y-136240000D03*
X100960000Y-134340000D03*
G04 #@! TD*
D22*
G04 #@! TO.C,U1*
X64395000Y-79086650D03*
X65665000Y-79086650D03*
X66935000Y-79086650D03*
X68205000Y-79086650D03*
X68205000Y-73638350D03*
X66935000Y-73638350D03*
X65665000Y-73638350D03*
X64395000Y-73638350D03*
D23*
X66300000Y-76362500D03*
G04 #@! TD*
D24*
G04 #@! TO.C,R44*
X99700000Y-112875000D03*
X99700000Y-114700000D03*
G04 #@! TD*
D25*
G04 #@! TO.C,K3*
X95600000Y-113400000D03*
X95600000Y-110860000D03*
X89450000Y-110860000D03*
X89450000Y-113400000D03*
G04 #@! TD*
D26*
G04 #@! TO.C,R3*
X70140000Y-76777500D03*
X70140000Y-75127500D03*
G04 #@! TD*
D27*
G04 #@! TO.C,FB4*
X145800000Y-102325000D03*
X145800000Y-100575000D03*
G04 #@! TD*
D18*
G04 #@! TO.C,CR16*
X174600000Y-56000000D03*
X174600000Y-54099998D03*
X172568000Y-55049999D03*
G04 #@! TD*
D28*
G04 #@! TO.C,C36*
X149596500Y-47473703D03*
X148046500Y-47473703D03*
G04 #@! TD*
D29*
G04 #@! TO.C,J17*
X130425000Y-57250000D03*
D30*
X127885000Y-57250000D03*
X130425000Y-54710000D03*
X127885000Y-54710000D03*
G04 #@! TD*
D29*
G04 #@! TO.C,J13*
X100150000Y-57343400D03*
D30*
X97610000Y-57343400D03*
X100150000Y-54803400D03*
X97610000Y-54803400D03*
G04 #@! TD*
D31*
G04 #@! TO.C,JP5*
X171340000Y-47326297D03*
D32*
X166260000Y-47326297D03*
G04 #@! TD*
D33*
G04 #@! TO.C,C26*
X168049999Y-115100001D03*
X169599999Y-115100001D03*
G04 #@! TD*
D34*
G04 #@! TO.C,D9*
X97325000Y-96087500D03*
X99200000Y-96087500D03*
G04 #@! TD*
D35*
G04 #@! TO.C,D16*
X108100000Y-67700000D03*
X110300000Y-67700000D03*
G04 #@! TD*
D31*
G04 #@! TO.C,JP1*
X170200001Y-120049999D03*
D32*
X165120001Y-120049999D03*
G04 #@! TD*
D36*
G04 #@! TO.C,U19*
X107000000Y-69700002D03*
X105730000Y-69700002D03*
X104460000Y-69700002D03*
X103190000Y-69700002D03*
X101920000Y-69700002D03*
X100650000Y-69700002D03*
X99380000Y-69700002D03*
X98110000Y-69700002D03*
X98110000Y-76000000D03*
X99380000Y-76000000D03*
X100650000Y-76000000D03*
X101920000Y-76000000D03*
X103190000Y-76000000D03*
X104460000Y-76000000D03*
X105730000Y-76000000D03*
X107000000Y-76000000D03*
G04 #@! TD*
D24*
G04 #@! TO.C,R50*
X107000000Y-77787500D03*
X107000000Y-79612500D03*
G04 #@! TD*
D37*
G04 #@! TO.C,C46*
X102950000Y-52376700D03*
X102950000Y-53926700D03*
G04 #@! TD*
D21*
G04 #@! TO.C,C62*
X108300000Y-109600000D03*
X108300000Y-107700000D03*
G04 #@! TD*
D27*
G04 #@! TO.C,FB7*
X145821500Y-47448703D03*
X145821500Y-45698703D03*
G04 #@! TD*
D38*
G04 #@! TO.C,J21*
X69400000Y-134900000D03*
D39*
X74400000Y-134900000D03*
G04 #@! TD*
D40*
G04 #@! TO.C,R11*
X66314400Y-111400000D03*
X67964400Y-111400000D03*
G04 #@! TD*
D18*
G04 #@! TO.C,CR4*
X174781801Y-128199999D03*
X174781801Y-126299997D03*
X172749801Y-127249998D03*
G04 #@! TD*
D41*
G04 #@! TO.C,J16*
X113000003Y-49010001D03*
X124999999Y-49010001D03*
D42*
X122000000Y-47050000D03*
X119000001Y-47050000D03*
X116000002Y-47050000D03*
G04 #@! TD*
D43*
G04 #@! TO.C,J19*
X49200000Y-92150000D03*
D39*
X49200000Y-97150000D03*
G04 #@! TD*
D37*
G04 #@! TO.C,C27*
X145800000Y-96923702D03*
X145800000Y-98473702D03*
G04 #@! TD*
D17*
G04 #@! TO.C,R33*
X135260000Y-80200000D03*
X135260000Y-81850000D03*
G04 #@! TD*
D29*
G04 #@! TO.C,J12*
X106800000Y-137220000D03*
D30*
X104260000Y-137220000D03*
X106800000Y-134680000D03*
X104260000Y-134680000D03*
X106800000Y-132140000D03*
X104260000Y-132140000D03*
X106800000Y-129600000D03*
X104260000Y-129600000D03*
G04 #@! TD*
D44*
G04 #@! TO.C,C45*
X102950000Y-56951700D03*
X102950000Y-55401700D03*
G04 #@! TD*
D33*
G04 #@! TO.C,C37*
X167965000Y-59100000D03*
X169515000Y-59100000D03*
G04 #@! TD*
D29*
G04 #@! TO.C,J9*
X143100000Y-76550000D03*
D30*
X143100000Y-74010000D03*
X143100000Y-71470000D03*
X143100000Y-68930000D03*
G04 #@! TD*
D45*
G04 #@! TO.C,L3*
X84360000Y-128660000D03*
X81560000Y-128660000D03*
G04 #@! TD*
D46*
G04 #@! TO.C,U14*
X125760000Y-76600000D03*
X127030000Y-76600000D03*
X128300000Y-76600000D03*
X129570000Y-76600000D03*
X130840000Y-76600000D03*
X132110000Y-76600000D03*
X133380000Y-76600000D03*
X134650000Y-76600000D03*
X134650000Y-66900000D03*
X133380000Y-66900000D03*
X132110000Y-66900000D03*
X130840000Y-66900000D03*
X129570000Y-66900000D03*
X128300000Y-66900000D03*
X127030000Y-66900000D03*
X125760000Y-66900000D03*
G04 #@! TD*
D47*
G04 #@! TO.C,R35*
X121759200Y-52724150D03*
X119934200Y-52724150D03*
G04 #@! TD*
D35*
G04 #@! TO.C,D13*
X118100000Y-67700000D03*
X120300000Y-67700000D03*
G04 #@! TD*
D19*
G04 #@! TO.C,CR1*
X60616800Y-82049500D03*
X58483200Y-82049500D03*
D20*
X59550000Y-78328400D03*
G04 #@! TD*
D48*
G04 #@! TO.C,C1*
X56503400Y-88272500D03*
X62320000Y-88272500D03*
G04 #@! TD*
D27*
G04 #@! TO.C,FB5*
X145800000Y-84100000D03*
X145800000Y-82350000D03*
G04 #@! TD*
D49*
G04 #@! TO.C,C59*
X108300000Y-95550000D03*
X108300000Y-97450000D03*
G04 #@! TD*
D41*
G04 #@! TO.C,J27*
X82600000Y-121300000D03*
X82600000Y-109300004D03*
D42*
X80639999Y-112300003D03*
X80639999Y-115300002D03*
X80639999Y-118300001D03*
G04 #@! TD*
D50*
G04 #@! TO.C,J1*
X184000001Y-119299998D03*
X184000001Y-134299999D03*
D42*
X180060001Y-131299997D03*
X180060001Y-128299998D03*
X180060001Y-125299999D03*
X180060001Y-122300000D03*
X183060000Y-131299997D03*
X183060000Y-128299998D03*
X183060000Y-125299999D03*
X183060000Y-122300000D03*
G04 #@! TD*
D40*
G04 #@! TO.C,R20*
X161079141Y-95362644D03*
X162729141Y-95362644D03*
G04 #@! TD*
D21*
G04 #@! TO.C,C58*
X108300000Y-93850000D03*
X108300000Y-91950000D03*
G04 #@! TD*
D26*
G04 #@! TO.C,R9*
X68539400Y-118325000D03*
X68539400Y-116675000D03*
G04 #@! TD*
D33*
G04 #@! TO.C,C22*
X168050001Y-133299999D03*
X169600001Y-133299999D03*
G04 #@! TD*
D24*
G04 #@! TO.C,R45*
X97600000Y-112875000D03*
X97600000Y-114700000D03*
G04 #@! TD*
D29*
G04 #@! TO.C,J22*
X90560000Y-87360000D03*
D30*
X93100000Y-87360000D03*
X90560000Y-89900000D03*
X93100000Y-89900000D03*
G04 #@! TD*
D51*
G04 #@! TO.C,R24*
X161974050Y-68159050D03*
X160324050Y-68159050D03*
G04 #@! TD*
D46*
G04 #@! TO.C,U11*
X148026500Y-59578702D03*
X149296500Y-59578702D03*
X150566500Y-59578702D03*
X151836500Y-59578702D03*
X153106500Y-59578702D03*
X154376500Y-59578702D03*
X155646500Y-59578702D03*
X156916500Y-59578702D03*
X156916500Y-49878702D03*
X155646500Y-49878702D03*
X154376500Y-49878702D03*
X153106500Y-49878702D03*
X151836500Y-49878702D03*
X150566500Y-49878702D03*
X149296500Y-49878702D03*
X148026500Y-49878702D03*
G04 #@! TD*
D37*
G04 #@! TO.C,C19*
X145881800Y-133500000D03*
X145881800Y-135050000D03*
G04 #@! TD*
D52*
G04 #@! TO.C,C17*
X63099400Y-108010000D03*
X64999400Y-108010000D03*
G04 #@! TD*
D46*
G04 #@! TO.C,U9*
X148005000Y-77954999D03*
X149275000Y-77954999D03*
X150545000Y-77954999D03*
X151815000Y-77954999D03*
X153085000Y-77954999D03*
X154355000Y-77954999D03*
X155625000Y-77954999D03*
X156895000Y-77954999D03*
X156895000Y-68254999D03*
X155625000Y-68254999D03*
X154355000Y-68254999D03*
X153085000Y-68254999D03*
X151815000Y-68254999D03*
X150545000Y-68254999D03*
X149275000Y-68254999D03*
X148005000Y-68254999D03*
G04 #@! TD*
D37*
G04 #@! TO.C,C41*
X86160000Y-126185000D03*
X86160000Y-127735000D03*
G04 #@! TD*
D53*
G04 #@! TO.C,U10*
X169649050Y-70159050D03*
X168379050Y-70159050D03*
X167109050Y-70159050D03*
X165839050Y-70159050D03*
X164569050Y-70159050D03*
X163299050Y-70159050D03*
X162029050Y-70159050D03*
X160759050Y-70159050D03*
X160759050Y-75109050D03*
X162029050Y-75109050D03*
X163299050Y-75109050D03*
X164569050Y-75109050D03*
X165839050Y-75109050D03*
X167109050Y-75109050D03*
X168379050Y-75109050D03*
X169649050Y-75109050D03*
G04 #@! TD*
D54*
G04 #@! TO.C,C2*
X67750000Y-85862500D03*
X65850000Y-85862500D03*
G04 #@! TD*
D17*
G04 #@! TO.C,R10*
X64839400Y-109775000D03*
X64839400Y-111425000D03*
G04 #@! TD*
D24*
G04 #@! TO.C,R47*
X116250000Y-77787500D03*
X116250000Y-79612500D03*
G04 #@! TD*
D21*
G04 #@! TO.C,C60*
X108300000Y-101750000D03*
X108300000Y-99850000D03*
G04 #@! TD*
D33*
G04 #@! TO.C,C47*
X108062500Y-52621300D03*
X109612500Y-52621300D03*
G04 #@! TD*
D50*
G04 #@! TO.C,J2*
X184000000Y-101100000D03*
X184000000Y-116100001D03*
D42*
X180060000Y-113099999D03*
X180060000Y-110100000D03*
X180060000Y-107100001D03*
X180060000Y-104100002D03*
X183059999Y-113099999D03*
X183059999Y-110100000D03*
X183059999Y-107100001D03*
X183059999Y-104100002D03*
G04 #@! TD*
D37*
G04 #@! TO.C,C31*
X145800000Y-78600000D03*
X145800000Y-80150000D03*
G04 #@! TD*
D18*
G04 #@! TO.C,CR5*
X173384001Y-131721498D03*
X173384001Y-133621500D03*
X175416001Y-132671499D03*
G04 #@! TD*
D28*
G04 #@! TO.C,C4*
X67395000Y-81382500D03*
X65845000Y-81382500D03*
G04 #@! TD*
D55*
G04 #@! TO.C,J29*
X86200000Y-61600000D03*
D56*
X88200000Y-61600000D03*
X90200000Y-61600000D03*
G04 #@! TD*
D57*
G04 #@! TO.C,U17*
X134845000Y-60274150D03*
X136115000Y-60274150D03*
X137385000Y-60274150D03*
X138655000Y-60274150D03*
X138655000Y-54825850D03*
X137385000Y-54825850D03*
X136115000Y-54825850D03*
X134845000Y-54825850D03*
G04 #@! TD*
D51*
G04 #@! TO.C,R13*
X169981801Y-122649999D03*
X168331801Y-122649999D03*
G04 #@! TD*
D52*
G04 #@! TO.C,C39*
X82610000Y-125860000D03*
X84510000Y-125860000D03*
G04 #@! TD*
D48*
G04 #@! TO.C,C16*
X58532800Y-98460000D03*
X64349400Y-98460000D03*
G04 #@! TD*
D58*
G04 #@! TO.C,D1*
X71850000Y-86200000D03*
X71850000Y-89000000D03*
G04 #@! TD*
D18*
G04 #@! TO.C,CR15*
X173208999Y-49949999D03*
X173208999Y-51850001D03*
X175240999Y-50900000D03*
G04 #@! TD*
D29*
G04 #@! TO.C,J26*
X90760000Y-116400000D03*
D30*
X93300000Y-116400000D03*
X90760000Y-118940000D03*
X93300000Y-118940000D03*
G04 #@! TD*
D29*
G04 #@! TO.C,J15*
X115551700Y-57148300D03*
D30*
X113011700Y-57148300D03*
X115551700Y-54608300D03*
X113011700Y-54608300D03*
G04 #@! TD*
D40*
G04 #@! TO.C,R14*
X161031801Y-131749999D03*
X162681801Y-131749999D03*
G04 #@! TD*
D59*
G04 #@! TO.C,R7*
X67314400Y-128600000D03*
X69139400Y-128600000D03*
G04 #@! TD*
D60*
G04 #@! TO.C,L1*
X56800000Y-63528700D03*
X56800000Y-73612500D03*
G04 #@! TD*
D52*
G04 #@! TO.C,C18*
X63099400Y-104010000D03*
X64999400Y-104010000D03*
G04 #@! TD*
D61*
G04 #@! TO.C,FB1*
X65300000Y-90425000D03*
X65300000Y-88300000D03*
G04 #@! TD*
D62*
G04 #@! TO.C,J37*
X74100000Y-47100000D03*
D63*
X74100000Y-49100000D03*
G04 #@! TD*
D62*
G04 #@! TO.C,J38*
X68100000Y-47100000D03*
D63*
X68100000Y-49100000D03*
G04 #@! TD*
D35*
G04 #@! TO.C,D19*
X94500000Y-69300000D03*
X96700000Y-69300000D03*
G04 #@! TD*
D55*
G04 #@! TO.C,J34*
X75017938Y-73597500D03*
D56*
X77017938Y-73597500D03*
X79017938Y-73597500D03*
G04 #@! TD*
D36*
G04 #@! TO.C,U18*
X118800000Y-69700000D03*
X117530000Y-69700000D03*
X116260000Y-69700000D03*
X114990000Y-69700000D03*
X113720000Y-69700000D03*
X112450000Y-69700000D03*
X111180000Y-69700000D03*
X109910000Y-69700000D03*
X109910000Y-75999998D03*
X111180000Y-75999998D03*
X112450000Y-75999998D03*
X113720000Y-75999998D03*
X114990000Y-75999998D03*
X116260000Y-75999998D03*
X117530000Y-75999998D03*
X118800000Y-75999998D03*
G04 #@! TD*
D24*
G04 #@! TO.C,R49*
X111150000Y-77787500D03*
X111150000Y-79612500D03*
G04 #@! TD*
D29*
G04 #@! TO.C,J7*
X143041901Y-112931901D03*
D30*
X143041901Y-110391901D03*
X143041901Y-107851901D03*
X143041901Y-105311901D03*
G04 #@! TD*
D53*
G04 #@! TO.C,U6*
X169700000Y-106450001D03*
X168430000Y-106450001D03*
X167160000Y-106450001D03*
X165890000Y-106450001D03*
X164620000Y-106450001D03*
X163350000Y-106450001D03*
X162080000Y-106450001D03*
X160810000Y-106450001D03*
X160810000Y-111400001D03*
X162080000Y-111400001D03*
X163350000Y-111400001D03*
X164620000Y-111400001D03*
X165890000Y-111400001D03*
X167160000Y-111400001D03*
X168430000Y-111400001D03*
X169700000Y-111400001D03*
G04 #@! TD*
D48*
G04 #@! TO.C,C7*
X60373400Y-57172500D03*
X66190000Y-57172500D03*
G04 #@! TD*
D41*
G04 #@! TO.C,J23*
X82578700Y-92099998D03*
X82578700Y-80100002D03*
D42*
X80618699Y-83100001D03*
X80618699Y-86100000D03*
X80618699Y-89099999D03*
G04 #@! TD*
D17*
G04 #@! TO.C,R32*
X131260000Y-80200000D03*
X131260000Y-81850000D03*
G04 #@! TD*
D29*
G04 #@! TO.C,J10*
X143081499Y-58173703D03*
D30*
X143081499Y-55633703D03*
X143081499Y-53093703D03*
X143081499Y-50553703D03*
G04 #@! TD*
D59*
G04 #@! TO.C,R8*
X68626900Y-120300000D03*
X70451900Y-120300000D03*
G04 #@! TD*
D33*
G04 #@! TO.C,C38*
X167990000Y-60700000D03*
X169540000Y-60700000D03*
G04 #@! TD*
D37*
G04 #@! TO.C,C23*
X145741901Y-115281901D03*
X145741901Y-116831901D03*
G04 #@! TD*
D62*
G04 #@! TO.C,J41*
X92200000Y-47100000D03*
D63*
X92200000Y-49100000D03*
G04 #@! TD*
D28*
G04 #@! TO.C,C32*
X149575000Y-65850000D03*
X148025000Y-65850000D03*
G04 #@! TD*
D37*
G04 #@! TO.C,C42*
X123550000Y-76175000D03*
X123550000Y-77725000D03*
G04 #@! TD*
D64*
G04 #@! TO.C,D8*
X86000000Y-90250000D03*
X86000000Y-85950000D03*
G04 #@! TD*
D34*
G04 #@! TO.C,D11*
X97525000Y-110687500D03*
X99400000Y-110687500D03*
G04 #@! TD*
D51*
G04 #@! TO.C,R19*
X170966641Y-86186347D03*
X169316641Y-86186347D03*
G04 #@! TD*
D31*
G04 #@! TO.C,JP2*
X170300000Y-101750001D03*
D32*
X165220000Y-101750001D03*
G04 #@! TD*
D33*
G04 #@! TO.C,C33*
X167974049Y-77209050D03*
X169524049Y-77209050D03*
G04 #@! TD*
D28*
G04 #@! TO.C,C24*
X149575000Y-102350000D03*
X148025000Y-102350000D03*
G04 #@! TD*
D18*
G04 #@! TO.C,CR6*
X173109901Y-102931901D03*
X173109901Y-104831903D03*
X175141901Y-103881902D03*
G04 #@! TD*
D24*
G04 #@! TO.C,R41*
X97360000Y-83960000D03*
X97360000Y-85785000D03*
G04 #@! TD*
D41*
G04 #@! TO.C,J14*
X98044915Y-49010001D03*
X110044911Y-49010001D03*
D42*
X107044912Y-47050000D03*
X104044913Y-47050000D03*
X101044914Y-47050000D03*
G04 #@! TD*
D18*
G04 #@! TO.C,CR14*
X173333050Y-77230549D03*
X173333050Y-79130551D03*
X175365050Y-78180550D03*
G04 #@! TD*
D28*
G04 #@! TO.C,C13*
X65824400Y-122410000D03*
X64274400Y-122410000D03*
G04 #@! TD*
D35*
G04 #@! TO.C,D15*
X111350000Y-67700000D03*
X113550000Y-67700000D03*
G04 #@! TD*
D24*
G04 #@! TO.C,R40*
X99560000Y-83960000D03*
X99560000Y-85785000D03*
G04 #@! TD*
D62*
G04 #@! TO.C,J36*
X80200000Y-47100000D03*
D63*
X80200000Y-49100000D03*
G04 #@! TD*
D51*
G04 #@! TO.C,R21*
X162074740Y-86210050D03*
X160424740Y-86210050D03*
G04 #@! TD*
D37*
G04 #@! TO.C,C48*
X118346700Y-59549150D03*
X118346700Y-61099150D03*
G04 #@! TD*
D40*
G04 #@! TO.C,R17*
X161050000Y-113550001D03*
X162700000Y-113550001D03*
G04 #@! TD*
D48*
G04 #@! TO.C,C10*
X56682800Y-128610000D03*
X62499400Y-128610000D03*
G04 #@! TD*
D18*
G04 #@! TO.C,CR17*
X173324001Y-59121499D03*
X173324001Y-61021501D03*
X175356001Y-60071500D03*
G04 #@! TD*
G04 #@! TO.C,CR13*
X174890951Y-74085347D03*
X174890951Y-72185345D03*
X172858951Y-73135346D03*
G04 #@! TD*
D24*
G04 #@! TO.C,R54*
X99800000Y-77687500D03*
X99800000Y-79512500D03*
G04 #@! TD*
D40*
G04 #@! TO.C,R23*
X160936550Y-77159050D03*
X162586550Y-77159050D03*
G04 #@! TD*
D44*
G04 #@! TO.C,C6*
X64240000Y-69827500D03*
X64240000Y-68277500D03*
G04 #@! TD*
D33*
G04 #@! TO.C,C34*
X167999049Y-78809050D03*
X169549049Y-78809050D03*
G04 #@! TD*
D62*
G04 #@! TO.C,J40*
X56200000Y-47200000D03*
D63*
X56200000Y-49200000D03*
G04 #@! TD*
D31*
G04 #@! TO.C,JP3*
X170554141Y-83556347D03*
D32*
X165474141Y-83556347D03*
G04 #@! TD*
D18*
G04 #@! TO.C,CR7*
X174741901Y-109981902D03*
X174741901Y-108081900D03*
X172709901Y-109031901D03*
G04 #@! TD*
D50*
G04 #@! TO.C,J4*
X183949050Y-64809049D03*
X183949050Y-79809050D03*
D42*
X180009050Y-76809048D03*
X180009050Y-73809049D03*
X180009050Y-70809050D03*
X180009050Y-67809051D03*
X183009049Y-76809048D03*
X183009049Y-73809049D03*
X183009049Y-70809050D03*
X183009049Y-67809051D03*
G04 #@! TD*
D18*
G04 #@! TO.C,CR9*
X173213190Y-86150998D03*
X173213190Y-88051000D03*
X175245190Y-87100999D03*
G04 #@! TD*
D59*
G04 #@! TO.C,R2*
X69887500Y-79862500D03*
X71712500Y-79862500D03*
G04 #@! TD*
D47*
G04 #@! TO.C,R36*
X136562500Y-52500000D03*
X134737500Y-52500000D03*
G04 #@! TD*
D24*
G04 #@! TO.C,R38*
X133260000Y-79437500D03*
X133260000Y-81262500D03*
G04 #@! TD*
D51*
G04 #@! TO.C,R18*
X162070599Y-104368100D03*
X160420599Y-104368100D03*
G04 #@! TD*
D25*
G04 #@! TO.C,K1*
X95360000Y-84260000D03*
X95360000Y-81720000D03*
X89210000Y-81720000D03*
X89210000Y-84260000D03*
G04 #@! TD*
D40*
G04 #@! TO.C,R30*
X121721699Y-62281748D03*
X123371699Y-62281748D03*
G04 #@! TD*
D37*
G04 #@! TO.C,C55*
X132980000Y-52250000D03*
X132980000Y-53800000D03*
G04 #@! TD*
D65*
G04 #@! TO.C,D6*
X66849400Y-104172500D03*
X66849400Y-106047500D03*
G04 #@! TD*
D59*
G04 #@! TO.C,R12*
X63126900Y-106000000D03*
X64951900Y-106000000D03*
G04 #@! TD*
D41*
G04 #@! TO.C,J25*
X82560001Y-106599998D03*
X82560001Y-94600002D03*
D42*
X80600000Y-97600001D03*
X80600000Y-100600000D03*
X80600000Y-103599999D03*
G04 #@! TD*
D46*
G04 #@! TO.C,U5*
X148005000Y-114454999D03*
X149275000Y-114454999D03*
X150545000Y-114454999D03*
X151815000Y-114454999D03*
X153085000Y-114454999D03*
X154355000Y-114454999D03*
X155625000Y-114454999D03*
X156895000Y-114454999D03*
X156895000Y-104754999D03*
X155625000Y-104754999D03*
X154355000Y-104754999D03*
X153085000Y-104754999D03*
X151815000Y-104754999D03*
X150545000Y-104754999D03*
X149275000Y-104754999D03*
X148005000Y-104754999D03*
G04 #@! TD*
D34*
G04 #@! TO.C,D7*
X97222500Y-81360000D03*
X99097500Y-81360000D03*
G04 #@! TD*
D66*
G04 #@! TO.C,U13*
X87968200Y-126540000D03*
X87968200Y-129080000D03*
X87968200Y-134160000D03*
X87968200Y-136700000D03*
X98560000Y-134160000D03*
X98560000Y-126540000D03*
G04 #@! TD*
D58*
G04 #@! TO.C,D4*
X71550000Y-126650000D03*
X71550000Y-129450000D03*
G04 #@! TD*
D65*
G04 #@! TO.C,D5*
X71049400Y-123022500D03*
X71049400Y-124897500D03*
G04 #@! TD*
D62*
G04 #@! TO.C,J35*
X86200000Y-47100000D03*
D63*
X86200000Y-49100000D03*
G04 #@! TD*
D65*
G04 #@! TO.C,D2*
X71800000Y-82487500D03*
X71800000Y-84362500D03*
G04 #@! TD*
D46*
G04 #@! TO.C,U3*
X148005000Y-132755000D03*
X149275000Y-132755000D03*
X150545000Y-132755000D03*
X151815000Y-132755000D03*
X153085000Y-132755000D03*
X154355000Y-132755000D03*
X155625000Y-132755000D03*
X156895000Y-132755000D03*
X156895000Y-123055000D03*
X155625000Y-123055000D03*
X154355000Y-123055000D03*
X153085000Y-123055000D03*
X151815000Y-123055000D03*
X150545000Y-123055000D03*
X149275000Y-123055000D03*
X148005000Y-123055000D03*
G04 #@! TD*
D24*
G04 #@! TO.C,R51*
X104200000Y-77775000D03*
X104200000Y-79600000D03*
G04 #@! TD*
D40*
G04 #@! TO.C,R26*
X160831001Y-59126297D03*
X162481001Y-59126297D03*
G04 #@! TD*
D37*
G04 #@! TO.C,C51*
X118346700Y-52649150D03*
X118346700Y-54199150D03*
G04 #@! TD*
D18*
G04 #@! TO.C,CR8*
X173383999Y-113521500D03*
X173383999Y-115421502D03*
X175415999Y-114471501D03*
G04 #@! TD*
D28*
G04 #@! TO.C,C28*
X149533099Y-84073703D03*
X147983099Y-84073703D03*
G04 #@! TD*
D35*
G04 #@! TO.C,D18*
X101380000Y-67650000D03*
X103580000Y-67650000D03*
G04 #@! TD*
D25*
G04 #@! TO.C,K2*
X95400000Y-98987500D03*
X95400000Y-96447500D03*
X89250000Y-96447500D03*
X89250000Y-98987500D03*
G04 #@! TD*
D33*
G04 #@! TO.C,C25*
X168024999Y-113500001D03*
X169574999Y-113500001D03*
G04 #@! TD*
D28*
G04 #@! TO.C,C14*
X64599400Y-112960000D03*
X63049400Y-112960000D03*
G04 #@! TD*
D44*
G04 #@! TO.C,C15*
X63099400Y-111335000D03*
X63099400Y-109785000D03*
G04 #@! TD*
D55*
G04 #@! TO.C,J33*
X86200000Y-73600000D03*
D56*
X88200000Y-73600000D03*
X90200000Y-73600000D03*
G04 #@! TD*
D29*
G04 #@! TO.C,J11*
X134880000Y-136850000D03*
D30*
X137420000Y-136850000D03*
X139960000Y-136850000D03*
X142500000Y-136850000D03*
G04 #@! TD*
D37*
G04 #@! TO.C,C52*
X132980000Y-59025000D03*
X132980000Y-60575000D03*
G04 #@! TD*
D57*
G04 #@! TO.C,U15*
X104740000Y-60450000D03*
X106010000Y-60450000D03*
X107280000Y-60450000D03*
X108550000Y-60450000D03*
X108550000Y-55001700D03*
X107280000Y-55001700D03*
X106010000Y-55001700D03*
X104740000Y-55001700D03*
G04 #@! TD*
D54*
G04 #@! TO.C,C12*
X66149400Y-124360000D03*
X64249400Y-124360000D03*
G04 #@! TD*
D60*
G04 #@! TO.C,L2*
X55649400Y-103668100D03*
X55649400Y-113751900D03*
G04 #@! TD*
D55*
G04 #@! TO.C,J30*
X75017938Y-61597500D03*
D56*
X77017938Y-61597500D03*
X79017938Y-61597500D03*
G04 #@! TD*
D55*
G04 #@! TO.C,J32*
X75017938Y-67597500D03*
D56*
X77017938Y-67597500D03*
X79017938Y-67597500D03*
G04 #@! TD*
D51*
G04 #@! TO.C,R25*
X170318501Y-50026297D03*
X168668501Y-50026297D03*
G04 #@! TD*
D47*
G04 #@! TO.C,R52*
X81530438Y-57397500D03*
X79705438Y-57397500D03*
G04 #@! TD*
D17*
G04 #@! TO.C,R31*
X127260000Y-80275000D03*
X127260000Y-81925000D03*
G04 #@! TD*
D24*
G04 #@! TO.C,R37*
X125260000Y-79437500D03*
X125260000Y-81262500D03*
G04 #@! TD*
D27*
G04 #@! TO.C,FB3*
X145881800Y-120625000D03*
X145881800Y-118875000D03*
G04 #@! TD*
G04 #@! TO.C,FB8*
X121800000Y-67825000D03*
X121800000Y-66075000D03*
G04 #@! TD*
D62*
G04 #@! TO.C,J39*
X62200000Y-47100000D03*
D63*
X62200000Y-49100000D03*
G04 #@! TD*
D51*
G04 #@! TO.C,R15*
X162200001Y-122549999D03*
X160550001Y-122549999D03*
G04 #@! TD*
D27*
G04 #@! TO.C,FB6*
X145800000Y-65825000D03*
X145800000Y-64075000D03*
G04 #@! TD*
D57*
G04 #@! TO.C,U16*
X120241700Y-60348300D03*
X121511700Y-60348300D03*
X122781700Y-60348300D03*
X124051700Y-60348300D03*
X124051700Y-54900000D03*
X122781700Y-54900000D03*
X121511700Y-54900000D03*
X120241700Y-54900000D03*
G04 #@! TD*
D52*
G04 #@! TO.C,C8*
X64350000Y-66462500D03*
X66250000Y-66462500D03*
G04 #@! TD*
D37*
G04 #@! TO.C,C44*
X103000000Y-59155400D03*
X103000000Y-60705400D03*
G04 #@! TD*
D59*
G04 #@! TO.C,R1*
X67387500Y-88362500D03*
X69212500Y-88362500D03*
G04 #@! TD*
D22*
G04 #@! TO.C,U2*
X62939400Y-120358300D03*
X64209400Y-120358300D03*
X65479400Y-120358300D03*
X66749400Y-120358300D03*
X66749400Y-114910000D03*
X65479400Y-114910000D03*
X64209400Y-114910000D03*
X62939400Y-114910000D03*
D23*
X64844400Y-117634150D03*
G04 #@! TD*
D64*
G04 #@! TO.C,D12*
X86100000Y-119400000D03*
X86100000Y-115100000D03*
G04 #@! TD*
D51*
G04 #@! TO.C,R22*
X170249050Y-68059050D03*
X168599050Y-68059050D03*
G04 #@! TD*
D24*
G04 #@! TO.C,R42*
X99500000Y-98475000D03*
X99500000Y-100300000D03*
G04 #@! TD*
D44*
G04 #@! TO.C,C49*
X118346700Y-57299150D03*
X118346700Y-55749150D03*
G04 #@! TD*
D33*
G04 #@! TO.C,C21*
X168025001Y-131699999D03*
X169575001Y-131699999D03*
G04 #@! TD*
D35*
G04 #@! TO.C,D14*
X114700000Y-67700000D03*
X116900000Y-67700000D03*
G04 #@! TD*
D40*
G04 #@! TO.C,R5*
X67315000Y-69752500D03*
X68965000Y-69752500D03*
G04 #@! TD*
D55*
G04 #@! TO.C,J31*
X86200000Y-67600000D03*
D56*
X88200000Y-67600000D03*
X90200000Y-67600000D03*
G04 #@! TD*
D37*
G04 #@! TO.C,C43*
X123500000Y-66050000D03*
X123500000Y-67600000D03*
G04 #@! TD*
D54*
G04 #@! TO.C,C11*
X66149400Y-126560000D03*
X64249400Y-126560000D03*
G04 #@! TD*
D43*
G04 #@! TO.C,J20*
X49250000Y-79700000D03*
D39*
X49250000Y-84700000D03*
G04 #@! TD*
D46*
G04 #@! TO.C,U7*
X147963099Y-96178702D03*
X149233099Y-96178702D03*
X150503099Y-96178702D03*
X151773099Y-96178702D03*
X153043099Y-96178702D03*
X154313099Y-96178702D03*
X155583099Y-96178702D03*
X156853099Y-96178702D03*
X156853099Y-86478702D03*
X155583099Y-86478702D03*
X154313099Y-86478702D03*
X153043099Y-86478702D03*
X151773099Y-86478702D03*
X150503099Y-86478702D03*
X149233099Y-86478702D03*
X147963099Y-86478702D03*
G04 #@! TD*
D35*
G04 #@! TO.C,D17*
X104680000Y-67650000D03*
X106880000Y-67650000D03*
G04 #@! TD*
D17*
G04 #@! TO.C,R_ESR1*
X67860000Y-66477500D03*
X67860000Y-68127500D03*
G04 #@! TD*
D52*
G04 #@! TO.C,C56*
X128700000Y-83600000D03*
X130600000Y-83600000D03*
G04 #@! TD*
D18*
G04 #@! TO.C,CR12*
X173258951Y-67435346D03*
X173258951Y-69335348D03*
X175290951Y-68385347D03*
G04 #@! TD*
D29*
G04 #@! TO.C,J24*
X90760000Y-102200000D03*
D30*
X93300000Y-102200000D03*
X90760000Y-104740000D03*
X93300000Y-104740000D03*
G04 #@! TD*
D17*
G04 #@! TO.C,R_ESR2*
X66599400Y-108085000D03*
X66599400Y-109735000D03*
G04 #@! TD*
D51*
G04 #@! TO.C,R27*
X162418501Y-49926297D03*
X160768501Y-49926297D03*
G04 #@! TD*
G04 #@! TO.C,R16*
X170662500Y-104450001D03*
X169012500Y-104450001D03*
G04 #@! TD*
D33*
G04 #@! TO.C,C50*
X123371700Y-52724150D03*
X124921700Y-52724150D03*
G04 #@! TD*
D44*
G04 #@! TO.C,C53*
X132980000Y-56900000D03*
X132980000Y-55350000D03*
G04 #@! TD*
D59*
G04 #@! TO.C,R6*
X64427500Y-64452500D03*
X66252500Y-64452500D03*
G04 #@! TD*
D53*
G04 #@! TO.C,U4*
X169700001Y-124649999D03*
X168430001Y-124649999D03*
X167160001Y-124649999D03*
X165890001Y-124649999D03*
X164620001Y-124649999D03*
X163350001Y-124649999D03*
X162080001Y-124649999D03*
X160810001Y-124649999D03*
X160810001Y-129599999D03*
X162080001Y-129599999D03*
X163350001Y-129599999D03*
X164620001Y-129599999D03*
X165890001Y-129599999D03*
X167160001Y-129599999D03*
X168430001Y-129599999D03*
X169700001Y-129599999D03*
G04 #@! TD*
D51*
G04 #@! TO.C,R29*
X137780000Y-62174150D03*
X136130000Y-62174150D03*
G04 #@! TD*
D37*
G04 #@! TO.C,C35*
X145781499Y-60323703D03*
X145781499Y-61873703D03*
G04 #@! TD*
D50*
G04 #@! TO.C,J3*
X183962240Y-82960049D03*
X183962240Y-97960050D03*
D42*
X180022240Y-94960048D03*
X180022240Y-91960049D03*
X180022240Y-88960050D03*
X180022240Y-85960051D03*
X183022239Y-94960048D03*
X183022239Y-91960049D03*
X183022239Y-88960050D03*
X183022239Y-85960051D03*
G04 #@! TD*
D29*
G04 #@! TO.C,J8*
X143108099Y-95263702D03*
D30*
X143108099Y-92723702D03*
X143108099Y-90183702D03*
X143108099Y-87643702D03*
G04 #@! TD*
D33*
G04 #@! TO.C,C29*
X167954141Y-95389149D03*
X169504141Y-95389149D03*
G04 #@! TD*
D50*
G04 #@! TO.C,J5*
X183940001Y-46699999D03*
X183940001Y-61700000D03*
D42*
X180000001Y-58699998D03*
X180000001Y-55699999D03*
X180000001Y-52700000D03*
X180000001Y-49700001D03*
X183000000Y-58699998D03*
X183000000Y-55699999D03*
X183000000Y-52700000D03*
X183000000Y-49700001D03*
G04 #@! TD*
D33*
G04 #@! TO.C,C30*
X168012239Y-96960050D03*
X169562239Y-96960050D03*
G04 #@! TD*
D28*
G04 #@! TO.C,C5*
X65825000Y-71862500D03*
X64275000Y-71862500D03*
G04 #@! TD*
D47*
G04 #@! TO.C,R53*
X81517938Y-54847500D03*
X79692938Y-54847500D03*
G04 #@! TD*
D24*
G04 #@! TO.C,R48*
X113750000Y-77787500D03*
X113750000Y-79612500D03*
G04 #@! TD*
D47*
G04 #@! TO.C,R34*
X106500000Y-52621300D03*
X104675000Y-52621300D03*
G04 #@! TD*
D24*
G04 #@! TO.C,R46*
X118800000Y-77787500D03*
X118800000Y-79612500D03*
G04 #@! TD*
D54*
G04 #@! TO.C,C3*
X67750000Y-83362500D03*
X65850000Y-83362500D03*
G04 #@! TD*
D21*
G04 #@! TO.C,C57*
X108300000Y-88650000D03*
X108300000Y-86750000D03*
G04 #@! TD*
D29*
G04 #@! TO.C,J28*
X76767938Y-57387500D03*
D30*
X74227938Y-57387500D03*
X76767938Y-54847500D03*
X74227938Y-54847500D03*
G04 #@! TD*
D61*
G04 #@! TO.C,FB2*
X65449400Y-130722500D03*
X65449400Y-128597500D03*
G04 #@! TD*
D31*
G04 #@! TO.C,JP4*
X170600000Y-64900000D03*
D32*
X165520000Y-64900000D03*
G04 #@! TD*
D53*
G04 #@! TO.C,U12*
X169640001Y-52050000D03*
X168370001Y-52050000D03*
X167100001Y-52050000D03*
X165830001Y-52050000D03*
X164560001Y-52050000D03*
X163290001Y-52050000D03*
X162020001Y-52050000D03*
X160750001Y-52050000D03*
X160750001Y-57000000D03*
X162020001Y-57000000D03*
X163290001Y-57000000D03*
X164560001Y-57000000D03*
X165830001Y-57000000D03*
X167100001Y-57000000D03*
X168370001Y-57000000D03*
X169640001Y-57000000D03*
G04 #@! TD*
D67*
G04 #@! TO.C,A1*
X129800000Y-135390000D03*
D68*
X129800000Y-132850000D03*
D69*
X129800000Y-130310000D03*
D68*
X129800000Y-127770000D03*
X129800000Y-125230000D03*
X129800000Y-122690000D03*
X129800000Y-120150000D03*
D69*
X129800000Y-117610000D03*
D68*
X129800000Y-115070000D03*
X129800000Y-112530000D03*
X129800000Y-109990000D03*
X129800000Y-107450000D03*
D69*
X129800000Y-104910000D03*
D68*
X129800000Y-102370000D03*
X129800000Y-99830000D03*
X129800000Y-97290000D03*
X129800000Y-94750000D03*
D69*
X129800000Y-92210000D03*
D68*
X129800000Y-89670000D03*
X129800000Y-87130000D03*
X112020000Y-87130000D03*
X112020000Y-89670000D03*
D70*
X112020000Y-92210000D03*
D68*
X112020000Y-94750000D03*
X112020000Y-97290000D03*
X112020000Y-99830000D03*
X112020000Y-102370000D03*
D70*
X112020000Y-104910000D03*
D68*
X112020000Y-107450000D03*
X112020000Y-109990000D03*
X112020000Y-112530000D03*
X112020000Y-115070000D03*
D70*
X112020000Y-117610000D03*
D68*
X112020000Y-120150000D03*
X112020000Y-122690000D03*
X112020000Y-125230000D03*
X112020000Y-127770000D03*
D70*
X112020000Y-130310000D03*
D68*
X112020000Y-132850000D03*
X112020000Y-135390000D03*
G04 #@! TD*
D24*
G04 #@! TO.C,R43*
X97400000Y-98475000D03*
X97400000Y-100300000D03*
G04 #@! TD*
D53*
G04 #@! TO.C,U8*
X169662240Y-88310050D03*
X168392240Y-88310050D03*
X167122240Y-88310050D03*
X165852240Y-88310050D03*
X164582240Y-88310050D03*
X163312240Y-88310050D03*
X162042240Y-88310050D03*
X160772240Y-88310050D03*
X160772240Y-93260050D03*
X162042240Y-93260050D03*
X163312240Y-93260050D03*
X164582240Y-93260050D03*
X165852240Y-93260050D03*
X167122240Y-93260050D03*
X168392240Y-93260050D03*
X169662240Y-93260050D03*
G04 #@! TD*
D52*
G04 #@! TO.C,C9*
X64350000Y-62412500D03*
X66250000Y-62412500D03*
G04 #@! TD*
D41*
G04 #@! TO.C,J18*
X127900002Y-49028700D03*
X139899998Y-49028700D03*
D42*
X136899999Y-47068699D03*
X133900000Y-47068699D03*
X130900001Y-47068699D03*
G04 #@! TD*
D18*
G04 #@! TO.C,CR11*
X173346240Y-95381549D03*
X173346240Y-97281551D03*
X175378240Y-96331550D03*
G04 #@! TD*
D49*
G04 #@! TO.C,C61*
X108300000Y-103550000D03*
X108300000Y-105450000D03*
G04 #@! TD*
D51*
G04 #@! TO.C,R28*
X107775000Y-62401700D03*
X106125000Y-62401700D03*
G04 #@! TD*
D28*
G04 #@! TO.C,C20*
X149575000Y-120650000D03*
X148025000Y-120650000D03*
G04 #@! TD*
D65*
G04 #@! TO.C,D3*
X68140000Y-62552500D03*
X68140000Y-64427500D03*
G04 #@! TD*
D24*
G04 #@! TO.C,R39*
X129260000Y-79437500D03*
X129260000Y-81262500D03*
G04 #@! TD*
D33*
G04 #@! TO.C,C54*
X138175000Y-52500000D03*
X139725000Y-52500000D03*
G04 #@! TD*
D29*
G04 #@! TO.C,J6*
X143181800Y-131150000D03*
D30*
X143181800Y-128610000D03*
X143181800Y-126070000D03*
X143181800Y-123530000D03*
G04 #@! TD*
D18*
G04 #@! TO.C,CR3*
X173049801Y-121049998D03*
X173049801Y-122950000D03*
X175081801Y-121999999D03*
G04 #@! TD*
D64*
G04 #@! TO.C,D10*
X86000000Y-105000000D03*
X86000000Y-100700000D03*
G04 #@! TD*
%LPD*%
M02*
