M48
; DRILL file {KiCad 9.0.2} date 2025-08-23T18:52:10+0200
; FORMAT={-:-/ absolute / metric / decimal}
; #@! TF.CreationDate,2025-08-23T18:52:10+02:00
; #@! TF.GenerationSoftware,Kicad,Pcbnew,9.0.2
; #@! TF.FileFunction,Plated,1,2,PTH
FMAT,2
METRIC
; #@! TA.AperFunction,Plated,PTH,ViaDrill
T1C0.300
; #@! TA.AperFunction,Plated,PTH,ComponentDrill
T2C0.750
; #@! TA.AperFunction,Plated,PTH,ViaDrill
T3C0.900
; #@! TA.AperFunction,Plated,PTH,ComponentDrill
T4C1.000
; #@! TA.AperFunction,Plated,PTH,ComponentDrill
T5C1.067
; #@! TA.AperFunction,Plated,PTH,ComponentDrill
T6C1.300
; #@! TA.AperFunction,Plated,PTH,ViaDrill
T7C3.100
%
G90
G05
T1
X53.95Y-87.682
X53.974Y-128.035
X53.98Y-88.907
X54.004Y-129.235
X57.0Y-123.15
X58.8Y-82.95
X59.3Y-123.15
X61.0Y-82.95
X62.0Y-120.45
X63.4Y-79.15
X63.449Y-117.01
X63.449Y-118.26
X64.844Y-117.634
X64.844Y-117.634
X65.0Y-77.062
X65.01Y-75.722
X65.574Y-99.96
X65.599Y-100.785
X65.599Y-101.61
X66.179Y-118.26
X66.199Y-117.04
X66.3Y-76.362
X66.924Y-102.785
X66.949Y-122.35
X67.22Y-60.152
X67.23Y-59.273
X67.24Y-58.482
X67.299Y-124.35
X67.329Y-126.56
X67.57Y-77.102
X67.58Y-75.733
X67.924Y-109.76
X68.55Y-81.382
X68.93Y-85.912
X68.96Y-83.343
X69.0Y-68.662
X69.749Y-118.285
X70.749Y-121.71
X71.7Y-78.162
X71.8Y-81.263
X84.51Y-124.34
X86.2Y-125.1
X87.7Y-50.8
X87.7Y-54.3
X94.7Y-57.8
X95.4Y-80.3
X95.6Y-109.64
X96.3Y-70.8
X96.3Y-95.5
X96.6Y-59.35
X96.6Y-63.7
X96.6Y-67.282
X97.2Y-79.7
X100.25Y-67.6
X101.605Y-52.403
X102.0Y-80.8
X103.005Y-58.053
X104.5Y-74.3
X104.6Y-80.787
X105.63Y-67.65
X107.0Y-80.8
X107.35Y-66.38
X108.3Y-106.6
X109.0Y-85.6
X109.0Y-90.8
X109.0Y-98.6
X109.005Y-62.403
X109.325Y-80.8
X109.555Y-53.953
X110.8Y-66.4
X111.15Y-80.8
X112.45Y-74.6
X113.75Y-80.8
X114.05Y-66.35
X116.25Y-80.8
X116.55Y-74.6
X117.052Y-52.348
X117.6Y-66.35
X118.352Y-58.398
X120.65Y-79.6
X120.75Y-77.35
X123.4Y-82.1
X123.5Y-64.9
X123.55Y-79.0
X124.3Y-83.2
X124.452Y-62.248
X125.102Y-53.998
X127.05Y-68.55
X127.25Y-79.1
X127.7Y-74.95
X131.25Y-79.05
X131.675Y-52.25
X131.7Y-83.6
X132.975Y-57.95
X133.6Y-74.95
X133.65Y-113.9
X134.65Y-68.65
X135.25Y-79.05
X136.1Y-116.5
X136.6Y-87.6
X136.8Y-77.05
X137.3Y-110.0
X137.4Y-93.65
X137.4Y-99.55
X138.15Y-64.8
X138.875Y-62.1
X139.15Y-113.35
X139.4Y-63.7
X139.5Y-92.25
X139.775Y-53.75
X139.85Y-123.75
X139.85Y-128.85
X139.95Y-99.55
X140.35Y-108.7
X140.45Y-113.35
X140.8Y-78.6
X140.8Y-91.2
X140.85Y-63.7
X140.85Y-95.6
X141.05Y-126.4
X141.8Y-64.8
X148.55Y-116.8
X148.65Y-61.85
X148.65Y-98.45
X148.65Y-135.05
X148.7Y-80.15
X149.621Y-46.274
X150.5Y-84.05
X150.525Y-120.625
X150.6Y-102.35
X150.8Y-65.85
X155.35Y-135.05
X155.5Y-80.15
X155.7Y-61.85
X155.8Y-116.85
X155.85Y-98.45
X156.858Y-88.374
X156.9Y-70.15
X156.9Y-106.65
X156.9Y-124.95
X156.921Y-51.774
X159.224Y-68.259
X159.362Y-104.35
X159.367Y-86.186
X159.549Y-70.809
X159.562Y-88.96
X159.6Y-107.1
X159.625Y-125.3
X159.7Y-49.9
X159.715Y-122.674
X163.556Y-59.126
X163.6Y-131.75
X163.687Y-77.159
X163.775Y-113.568
X163.787Y-95.386
X165.83Y-52.05
X165.839Y-70.159
X165.852Y-88.31
X165.89Y-106.45
X165.89Y-124.65
X166.74Y-59.9
X166.749Y-78.009
X166.762Y-96.16
X166.8Y-114.3
X166.8Y-132.5
X170.9Y-122.65
X171.324Y-68.059
X171.394Y-50.026
X171.625Y-104.45
X172.042Y-86.186
X173.768Y-55.05
X173.8Y-122.0
X173.86Y-103.882
X173.881Y-91.401
X173.95Y-127.25
X173.959Y-50.9
X173.963Y-87.101
X174.009Y-68.385
X174.01Y-109.032
X174.059Y-73.135
X174.34Y-60.072
X174.349Y-78.181
X174.362Y-96.332
X174.4Y-114.472
X174.4Y-132.671
T2
X56.2Y-47.2
X56.2Y-49.2
X62.2Y-47.1
X62.2Y-49.1
X68.1Y-47.1
X68.1Y-49.1
X74.1Y-47.1
X74.1Y-49.1
X75.018Y-61.597
X75.018Y-67.597
X75.018Y-73.597
X77.018Y-61.597
X77.018Y-67.597
X77.018Y-73.597
X79.018Y-61.597
X79.018Y-67.597
X79.018Y-73.597
X80.2Y-47.1
X80.2Y-49.1
X86.2Y-47.1
X86.2Y-49.1
X86.2Y-61.6
X86.2Y-67.6
X86.2Y-73.6
X88.2Y-61.6
X88.2Y-67.6
X88.2Y-73.6
X90.2Y-61.6
X90.2Y-67.6
X90.2Y-73.6
X92.2Y-47.1
X92.2Y-49.1
T3
X76.88Y-109.2
X76.88Y-113.2
X90.6Y-54.9
X93.9Y-54.85
X111.545Y-43.15
X111.545Y-46.05
T4
X74.228Y-54.847
X74.228Y-57.387
X76.768Y-54.847
X76.768Y-57.387
X90.56Y-87.36
X90.56Y-89.9
X90.76Y-102.2
X90.76Y-104.74
X90.76Y-116.4
X90.76Y-118.94
X93.1Y-87.36
X93.1Y-89.9
X93.3Y-102.2
X93.3Y-104.74
X93.3Y-116.4
X93.3Y-118.94
X97.61Y-54.803
X97.61Y-57.343
X100.15Y-54.803
X100.15Y-57.343
X104.26Y-129.6
X104.26Y-132.14
X104.26Y-134.68
X104.26Y-137.22
X106.8Y-129.6
X106.8Y-132.14
X106.8Y-134.68
X106.8Y-137.22
X112.02Y-87.13
X112.02Y-89.67
X112.02Y-92.21
X112.02Y-94.75
X112.02Y-97.29
X112.02Y-99.83
X112.02Y-102.37
X112.02Y-104.91
X112.02Y-107.45
X112.02Y-109.99
X112.02Y-112.53
X112.02Y-115.07
X112.02Y-117.61
X112.02Y-120.15
X112.02Y-122.69
X112.02Y-125.23
X112.02Y-127.77
X112.02Y-130.31
X112.02Y-132.85
X112.02Y-135.39
X113.012Y-54.608
X113.012Y-57.148
X115.552Y-54.608
X115.552Y-57.148
X127.885Y-54.71
X127.885Y-57.25
X129.8Y-87.13
X129.8Y-89.67
X129.8Y-92.21
X129.8Y-94.75
X129.8Y-97.29
X129.8Y-99.83
X129.8Y-102.37
X129.8Y-104.91
X129.8Y-107.45
X129.8Y-109.99
X129.8Y-112.53
X129.8Y-115.07
X129.8Y-117.61
X129.8Y-120.15
X129.8Y-122.69
X129.8Y-125.23
X129.8Y-127.77
X129.8Y-130.31
X129.8Y-132.85
X129.8Y-135.39
X130.425Y-54.71
X130.425Y-57.25
X134.88Y-136.85
X137.42Y-136.85
X139.96Y-136.85
X142.5Y-136.85
X143.042Y-105.312
X143.042Y-107.852
X143.042Y-110.392
X143.042Y-112.932
X143.081Y-50.554
X143.081Y-53.094
X143.081Y-55.634
X143.081Y-58.174
X143.1Y-68.93
X143.1Y-71.47
X143.1Y-74.01
X143.1Y-76.55
X143.108Y-87.644
X143.108Y-90.184
X143.108Y-92.724
X143.108Y-95.264
X143.182Y-123.53
X143.182Y-126.07
X143.182Y-128.61
X143.182Y-131.15
T5
X80.6Y-97.6
X80.6Y-100.6
X80.6Y-103.6
X80.619Y-83.1
X80.619Y-86.1
X80.619Y-89.1
X80.64Y-112.3
X80.64Y-115.3
X80.64Y-118.3
X101.045Y-47.05
X104.045Y-47.05
X107.045Y-47.05
X116.0Y-47.05
X119.0Y-47.05
X122.0Y-47.05
X130.9Y-47.069
X133.9Y-47.069
X136.9Y-47.069
X180.0Y-49.7
X180.0Y-52.7
X180.0Y-55.7
X180.0Y-58.7
X180.009Y-67.809
X180.009Y-70.809
X180.009Y-73.809
X180.009Y-76.809
X180.022Y-85.96
X180.022Y-88.96
X180.022Y-91.96
X180.022Y-94.96
X180.06Y-104.1
X180.06Y-107.1
X180.06Y-110.1
X180.06Y-113.1
X180.06Y-122.3
X180.06Y-125.3
X180.06Y-128.3
X180.06Y-131.3
X183.0Y-49.7
X183.0Y-52.7
X183.0Y-55.7
X183.0Y-58.7
X183.009Y-67.809
X183.009Y-70.809
X183.009Y-73.809
X183.009Y-76.809
X183.022Y-85.96
X183.022Y-88.96
X183.022Y-91.96
X183.022Y-94.96
X183.06Y-104.1
X183.06Y-107.1
X183.06Y-110.1
X183.06Y-113.1
X183.06Y-122.3
X183.06Y-125.3
X183.06Y-128.3
X183.06Y-131.3
T6
X49.2Y-92.15
X49.2Y-97.15
X49.25Y-79.7
X49.25Y-84.7
X69.4Y-134.9
X74.4Y-134.9
X165.12Y-120.05
X165.22Y-101.75
X165.474Y-83.556
X165.52Y-64.9
X166.26Y-47.326
X170.2Y-120.05
X170.3Y-101.75
X170.554Y-83.556
X170.6Y-64.9
X171.34Y-47.326
T7
X50.0Y-45.0
X50.0Y-136.5
X160.0Y-136.5
X160.9Y-45.0
M30
